<?xml version="1.0" encoding="UTF-8" standalone="no"?>
<!DOCTYPE svg PUBLIC "-//W3C//DTD SVG 1.1//EN" "http://www.w3.org/Graphics/SVG/1.1/DTD/svg11.dtd">
<svg xmlns:xl="http://www.w3.org/1999/xlink" xmlns="http://www.w3.org/2000/svg" version="1.1" xmlns:dc="http://purl.org/dc/elements/1.1/" viewBox="0 0 48 48" width="48" height="48">
  <defs/>
  <metadata> Produced by OmniGraffle 7.18.5\n2021-08-08 12:10:08 +0000</metadata>
  <g id="favicon" stroke-opacity="1" fill-opacity="1" stroke-dasharray="none" stroke="none" fill="none">
    <title>favicon</title>
    <g id="favicon_Layer_1">
      <title>Layer 1</title>
      <g id="Graphic_36">
        <path d="M 4.682927 14.04878 L 4.682927 14.04878 C 4.682927 14.695358 4.1587724 15.219512 3.512195 15.219512 C 2.865618 15.219512 2.3414634 14.695358 2.3414634 14.04878 C 2.3414634 13.402203 2.865618 12.878049 3.512195 12.878049 C 4.1587724 12.878049 4.682927 13.402203 4.682927 14.04878 Z M 43.317073 14.04878 L 43.317073 14.04878 C 43.317073 13.402203 43.84123 12.878049 44.487805 12.878049 C 45.13438 12.878049 45.658537 13.402203 45.658537 14.04878 C 45.658537 14.695358 45.13438 15.219512 44.487805 15.219512 C 43.84123 15.219512 43.317073 14.695358 43.317073 14.04878 Z M 3.512195 21.07317 L 3.512195 21.07317 C 2.865618 21.07317 2.3414634 20.549016 2.3414634 19.90244 C 2.3414634 19.255862 2.865618 18.731707 3.512195 18.731707 C 4.1587724 18.731707 4.682927 19.255862 4.682927 19.90244 C 4.682927 20.549016 4.1587724 21.07317 3.512195 21.07317 Z M 44.487805 21.07317 L 44.487805 21.07317 C 43.84123 21.07317 43.317073 20.549016 43.317073 19.90244 C 43.317073 19.255862 43.84123 18.731707 44.487805 18.731707 C 45.13438 18.731707 45.658537 19.255862 45.658537 19.90244 C 45.658537 20.549016 45.13438 21.07317 44.487805 21.07317 Z M 3.512195 42.14634 L 3.512195 42.14634 C 4.1587724 42.14634 4.682927 42.670496 4.682927 43.317073 C 4.682927 43.96365 4.1587724 44.487805 3.512195 44.487805 L 3.512195 44.487805 C 2.865618 44.487805 2.3414634 43.96365 2.3414634 43.317073 C 2.3414634 42.670496 2.865618 42.14634 3.512195 42.14634 Z M 44.487805 42.14634 L 44.487805 42.14634 C 45.13438 42.14634 45.658537 42.670496 45.658537 43.317073 C 45.658537 43.96365 45.13438 44.487805 44.487805 44.487805 L 44.487805 44.487805 C 43.84123 44.487805 43.317073 43.96365 43.317073 43.317073 C 43.317073 42.670496 43.84123 42.14634 44.487805 42.14634 Z M 10.536585 9.365854 L 16.390244 9.365854 L 16.390244 7.02439 L 16.390244 4.682927 L 15.219512 2.3414634 L 14.04878 4.682927 L 14.04878 7.02439 L 10.536585 7.02439 Z M 28.09756 9.365854 L 33.95122 9.365854 L 33.95122 7.02439 L 33.95122 4.682927 L 32.780488 2.3414634 L 31.609756 4.682927 L 31.609756 7.02439 L 28.09756 7.02439 Z M 31.609756 12.878049 L 28.09756 12.878049 L 28.09756 15.219512 L 31.609756 15.219512 L 31.609756 26.92683 L 28.09756 26.92683 L 28.09756 29.268293 L 31.609756 29.268293 L 31.609756 40.97561 L 28.09756 40.97561 L 28.09756 43.317073 L 31.609756 43.317073 L 31.609756 45.658537 L 32.780488 48 L 33.95122 45.658537 L 33.95122 36.292683 L 37.463415 36.292683 L 37.463415 33.95122 L 33.95122 33.95122 L 33.95122 22.243902 L 37.463415 22.243902 L 37.463415 19.90244 L 33.95122 19.90244 L 33.95122 12.878049 Z M 8.195122 9.365854 L 10.536585 9.365854 L 10.536585 7.02439 L 9.365854 4.682927 L 8.195122 7.02439 Z M 33.95122 9.365854 L 39.80488 9.365854 L 39.80488 7.02439 L 38.634146 4.682927 L 37.463415 7.02439 L 33.95122 7.02439 Z M 4.097561 17.634742 L 4.097561 16.316478 C 4.9203555 16.104705 5.5681195 15.45694 5.779892 14.634146 L 5.779892 14.634146 L 8.195122 14.634146 L 8.195122 45.658537 L 9.365854 48 L 10.536585 45.658537 L 10.536585 36.292683 L 10.536585 36.292683 L 10.536585 36.292683 L 14.04878 36.292683 L 14.04878 40.97561 L 10.536585 40.97561 L 10.536585 43.317073 L 14.04878 43.317073 L 14.04878 45.658537 L 15.219512 48 L 16.390244 45.658537 L 16.390244 36.292683 L 19.90244 36.292683 L 19.90244 33.95122 L 16.390244 33.95122 L 16.390244 22.243902 L 19.90244 22.243902 L 19.90244 19.90244 L 16.390244 19.90244 L 16.390244 12.878049 L 14.04878 12.878049 L 10.536585 12.878049 L 10.536585 15.219512 L 14.04878 15.219512 L 14.04878 26.92683 L 10.536585 26.92683 L 10.536585 29.268293 L 14.04878 29.268293 L 14.04878 33.95122 L 14.04878 33.95122 L 14.04878 33.95122 L 10.536585 33.95122 L 10.536585 22.243902 L 14.04878 22.243902 L 14.04878 19.90244 L 10.536585 19.90244 L 10.536585 12.878049 L 8.195122 12.878049 L 8.195122 13.463415 L 5.779892 13.463415 C 5.519965 12.453526 4.603223 11.707317 3.512195 11.707317 C 2.2190406 11.707317 1.1707317 12.755626 1.1707317 14.04878 C 1.1707317 15.139808 1.9169402 16.05655 2.9268293 16.316478 L 2.9268293 17.634742 C 1.9169402 17.89467 1.1707317 18.81141 1.1707317 19.90244 C 1.1707317 20.993467 1.9169402 21.910209 2.9268293 22.170136 L 2.9268293 22.170136 L 2.9268293 22.170136 L 2.9268293 23.4884 C 1.9169402 23.748328 1.1707317 24.66507 1.1707317 25.756098 C 1.1707317 26.847126 1.9169402 27.763867 2.9268293 28.023795 L 2.9268293 28.023795 L 2.9268293 28.023795 L 2.9268293 29.34206 C 1.9169402 29.601987 1.1707317 30.518728 1.1707317 31.609756 C 1.1707317 32.700784 1.9169402 33.617526 2.9268293 33.877453 L 2.9268293 33.877453 L 2.9268293 35.195718 C 1.9169402 35.455645 1.1707317 36.372387 1.1707317 37.463415 C 1.1707317 38.554443 1.9169402 39.471184 2.9268293 39.73111 L 2.9268293 39.73111 L 2.9268293 41.049376 C 1.9169402 41.309304 1.1707317 42.226045 1.1707317 43.317073 C 1.1707317 44.61023 2.2190406 45.658537 3.512195 45.658537 L 3.512195 45.658537 C 4.8053497 45.658537 5.8536585 44.61023 5.8536585 43.317073 C 5.8536585 42.226045 5.10745 41.309304 4.097561 41.049376 L 4.097561 39.73111 C 5.10745 39.471184 5.8536585 38.554443 5.8536585 37.463415 C 5.8536585 36.372387 5.10745 35.455645 4.097561 35.195718 L 4.097561 33.877453 C 5.10745 33.617526 5.8536585 32.700784 5.8536585 31.609756 C 5.8536585 30.518728 5.10745 29.601987 4.097561 29.34206 L 4.097561 28.023795 C 5.10745 27.763867 5.8536585 26.847126 5.8536585 25.756098 C 5.8536585 24.66507 5.10745 23.748328 4.097561 23.4884 L 4.097561 22.170136 C 5.10745 21.910209 5.8536585 20.993467 5.8536585 19.90244 C 5.8536585 18.81141 5.10745 17.89467 4.097561 17.634742 Z M 45.07317 17.634742 L 45.07317 16.316478 C 46.08306 16.05655 46.82927 15.139808 46.82927 14.04878 C 46.82927 12.755626 45.78096 11.707317 44.487805 11.707317 C 43.396777 11.707317 42.480035 12.453526 42.22011 13.463415 L 39.80488 13.463415 L 39.80488 12.878049 L 37.463415 12.878049 L 33.95122 12.878049 L 33.95122 15.219512 L 37.463415 15.219512 L 37.463415 26.92683 L 33.95122 26.92683 L 33.95122 29.268293 L 37.463415 29.268293 L 37.463415 40.97561 L 33.95122 40.97561 L 33.95122 43.317073 L 37.463415 43.317073 L 37.463415 45.658537 L 38.634146 48 L 39.80488 45.658537 L 39.80488 14.634146 L 42.22011 14.634146 C 42.43188 15.45694 43.079645 16.104705 43.90244 16.316478 L 43.90244 17.634742 C 42.89255 17.89467 42.14634 18.81141 42.14634 19.90244 C 42.14634 20.993467 42.89255 21.910209 43.90244 22.170136 L 43.90244 22.170136 L 43.90244 22.170136 L 43.90244 23.4884 C 42.89255 23.748328 42.14634 24.66507 42.14634 25.756098 C 42.14634 26.847126 42.89255 27.763867 43.90244 28.023795 L 43.90244 28.023795 L 43.90244 28.023795 L 43.90244 29.34206 C 42.89255 29.601987 42.14634 30.518728 42.14634 31.609756 C 42.14634 32.700784 42.89255 33.617526 43.90244 33.877453 L 43.90244 33.877453 L 43.90244 35.195718 C 42.89255 35.455645 42.14634 36.372387 42.14634 37.463415 C 42.14634 38.554443 42.89255 39.471184 43.90244 39.73111 L 43.90244 41.049376 C 42.89255 41.309304 42.14634 42.226045 42.14634 43.317073 C 42.14634 44.61023 43.19465 45.658537 44.487805 45.658537 C 45.78096 45.658537 46.82927 44.61023 46.82927 43.317073 C 46.82927 42.226045 46.08306 41.309304 45.07317 41.049376 L 45.07317 39.73111 C 46.08306 39.471184 46.82927 38.554443 46.82927 37.463415 C 46.82927 36.372387 46.08306 35.455645 45.07317 35.195718 L 45.07317 33.877453 C 46.08306 33.617526 46.82927 32.700784 46.82927 31.609756 C 46.82927 30.518728 46.08306 29.601987 45.07317 29.34206 L 45.07317 28.023795 C 46.08306 27.763867 46.82927 26.847126 46.82927 25.756098 C 46.82927 24.66507 46.08306 23.748328 45.07317 23.4884 L 45.07317 22.170136 C 46.08306 21.910209 46.82927 20.993467 46.82927 19.90244 C 46.82927 18.81141 46.08306 17.89467 45.07317 17.634742 Z M 3.5121956 24.585366 C 4.1587727 24.585366 4.682927 25.10952 4.682927 25.756098 C 4.682927 26.402675 4.1587724 26.92683 3.512195 26.92683 C 2.865618 26.92683 2.3414634 26.402675 2.3414634 25.756098 C 2.3414634 25.10952 2.8656176 24.585366 3.5121946 24.585366 Z M 44.487805 24.585366 C 45.13438 24.585366 45.658537 25.10952 45.658537 25.756098 C 45.658537 26.402675 45.13438 26.92683 44.487805 26.92683 C 43.84123 26.92683 43.317073 26.402675 43.317073 25.756098 C 43.317073 25.10952 43.841227 24.585366 44.487804 24.585366 Z M 3.512195 30.439024 C 4.1587724 30.439024 4.682927 30.96318 4.682927 31.609756 C 4.682927 32.256333 4.1587724 32.780488 3.512195 32.780488 C 2.865618 32.780488 2.3414634 32.256333 2.3414634 31.609756 C 2.3414634 30.96318 2.865618 30.439024 3.512195 30.439024 Z M 44.487805 30.439024 C 45.13438 30.439024 45.658537 30.96318 45.658537 31.609756 C 45.658537 32.256333 45.13438 32.780488 44.487805 32.780488 C 43.84123 32.780488 43.317073 32.256333 43.317073 31.609756 C 43.317073 30.96318 43.84123 30.439024 44.487805 30.439024 Z M 3.512195 36.292683 C 4.1587724 36.292683 4.682927 36.816837 4.682927 37.463415 C 4.682927 38.10999 4.1587724 38.634146 3.512195 38.634146 C 2.865618 38.634146 2.3414634 38.10999 2.3414634 37.463415 C 2.3414634 36.816837 2.865618 36.292683 3.512195 36.292683 Z M 44.487805 36.292683 C 45.13438 36.292683 45.658537 36.816837 45.658537 37.463415 C 45.658537 38.10999 45.13438 38.634146 44.487805 38.634146 C 43.84123 38.634146 43.317073 38.10999 43.317073 37.463415 C 43.317073 36.816837 43.84123 36.292683 44.487805 36.292683 Z M 22.243902 7.02439 L 22.243902 7.02439 L 22.243902 2.3414634 L 21.07317 35527137e-22 L 19.90244 2.3414634 L 19.90244 7.02439 L 16.390244 7.02439 L 16.390244 9.365854 L 22.243902 9.365854 L 22.243902 9.365854 L 28.09756 9.365854 L 28.09756 7.02439 L 28.09756 2.3414634 L 26.92683 2842171e-20 L 25.756098 2.3414634 L 25.756098 7.02439 Z M 22.243902 12.878049 L 22.243902 12.878049 L 19.90244 12.878049 L 16.390244 12.878049 L 16.390244 15.219512 L 19.90244 15.219512 L 19.90244 26.92683 L 16.390244 26.92683 L 16.390244 29.268293 L 19.90244 29.268293 L 19.90244 40.97561 L 16.390244 40.97561 L 16.390244 43.317073 L 19.90244 43.317073 L 19.90244 45.658537 L 21.07317 48 L 22.243902 45.658537 L 22.243902 43.317073 L 25.756098 43.317073 L 25.756098 45.658537 L 26.92683 48 L 28.09756 45.658537 L 28.09756 36.292683 L 31.609756 36.292683 L 31.609756 33.95122 L 28.09756 33.95122 L 28.09756 22.243902 L 31.609756 22.243902 L 31.609756 19.90244 L 28.09756 19.90244 L 28.09756 12.878049 L 25.756098 12.878049 Z M 22.243902 15.219512 L 25.756098 15.219512 L 25.756098 19.90244 L 22.243902 19.90244 Z M 25.756098 22.243902 L 25.756098 26.92683 L 22.243902 26.92683 L 22.243902 22.243902 Z M 22.243902 29.268293 L 25.756098 29.268293 L 25.756098 33.95122 L 22.243902 33.95122 Z M 25.756098 36.292683 L 25.756098 40.97561 L 22.243902 40.97561 L 22.243902 36.292683 Z" fill="#373151"/>
      </g>
    </g>
  </g>
</svg>
