<?xml version="1.0" encoding="UTF-8" standalone="no"?>
<!DOCTYPE svg PUBLIC "-//W3C//DTD SVG 1.1//EN" "http://www.w3.org/Graphics/SVG/1.1/DTD/svg11.dtd">
<svg xmlns="http://www.w3.org/2000/svg" xmlns:xl="http://www.w3.org/1999/xlink" version="1.1" viewBox="0 0 100 100" width="100pt" height="100pt" xmlns:dc="http://purl.org/dc/elements/1.1/">
  <metadata> Produced by OmniGraffle 7.3.1
    <dc:date>2017-05-25 19:24:42 +0000</dc:date>
  </metadata>
  <defs>
    <linearGradient x1="0" x2="1" id="Gradient" gradientUnits="userSpaceOnUse">
      <stop offset="0" stop-color="#e02f34"/>
      <stop offset=".2" stop-color="#f57737"/>
      <stop offset=".4" stop-color="#ffbf47"/>
      <stop offset=".6" stop-color="#006435"/>
      <stop offset=".8" stop-color="#2b8cc4"/>
      <stop offset="1" stop-color="#912b88"/>
    </linearGradient>
    <linearGradient id="Obj_Gradient" xl:href="#Gradient" gradientTransform="translate(2.9999986 50) scale(94)"/>
  </defs>
  <g stroke="none" stroke-opacity="1" stroke-dasharray="none" fill="none" fill-opacity="1">
    <title>footer</title>
    <g>
      <title>Layer 1</title>
      <path d="M 2.9999986 97 L 97 97 L 97 2.9999986 L 2.9999986 2.9999986 Z M 35.913456 56.197266 L 35.913456 56.197264 L 35.913456 30.021978 L 45.861695 30.021978 L 45.861695 56.251626 C 45.861695 65.058264 40.47986 69.97802 31.482956 69.97802 C 22.676317 69.97802 17.077035 64.786455 17.077035 56.469074 L 26.671922 56.469074 C 26.699103 59.59489 28.52023 61.55192 31.37423 61.55192 C 34.309777 61.55192 35.913455 59.67643 35.913456 56.197266 Z M 51.80074 30.021978 L 68.788854 30.021978 C 77.21496 30.021978 82.92297 35.485355 82.92297 43.91146 C 82.92297 52.2832 76.91597 57.74658 68.19087 57.74658 L 61.77616 57.74658 L 61.77616 69.244136 L 51.80074 69.244136 Z M 66.1523 37.659834 L 66.1523 37.659834 L 61.77616 37.659834 L 61.77616 50.24463 L 66.097944 50.24463 C 70.33817 50.244626 72.83882 48.042967 72.83882 43.93864 C 72.83882 39.861494 70.33817 37.659835 66.1523 37.659834 Z"/>
      <path d="M 2.9999986 97 L 97 97 L 97 2.9999986 L 2.9999986 2.9999986 Z M 35.913456 56.197266 L 35.913456 56.197264 L 35.913456 30.021978 L 45.861695 30.021978 L 45.861695 56.251626 C 45.861695 65.058264 40.47986 69.97802 31.482956 69.97802 C 22.676317 69.97802 17.077035 64.786455 17.077035 56.469074 L 26.671922 56.469074 C 26.699103 59.59489 28.52023 61.55192 31.37423 61.55192 C 34.309777 61.55192 35.913455 59.67643 35.913456 56.197266 Z M 51.80074 30.021978 L 68.788854 30.021978 C 77.21496 30.021978 82.92297 35.485355 82.92297 43.91146 C 82.92297 52.2832 76.91597 57.74658 68.19087 57.74658 L 61.77616 57.74658 L 61.77616 69.244136 L 51.80074 69.244136 Z M 66.1523 37.659834 L 66.1523 37.659834 L 61.77616 37.659834 L 61.77616 50.24463 L 66.097944 50.24463 C 70.33817 50.244626 72.83882 48.042967 72.83882 43.93864 C 72.83882 39.861494 70.33817 37.659835 66.1523 37.659834 Z" stroke="url(#Obj_Gradient)" stroke-linecap="round" stroke-linejoin="miter" stroke-width="2"/>
    </g>
  </g>
</svg>
