<?xml version="1.0" encoding="UTF-8" standalone="no"?>
<!DOCTYPE svg PUBLIC "-//W3C//DTD SVG 1.1//EN" "http://www.w3.org/Graphics/SVG/1.1/DTD/svg11.dtd">
<svg xmlns="http://www.w3.org/2000/svg" xmlns:xl="http://www.w3.org/1999/xlink" version="1.1" viewBox="0 0 500 500" width="500pt" height="500pt" xmlns:dc="http://purl.org/dc/elements/1.1/">
  <metadata> Produced by OmniGraffle 7.3.1
    <dc:date>2017-05-27 13:22:35 +0000</dc:date>
  </metadata>
  <defs/>
  <g stroke="none" stroke-opacity="1" stroke-dasharray="none" fill="none" fill-opacity="1">
    <title>Canvas 1</title>
    <g>
      <title>Layer 1</title>
      <path d="M 90.58947 495.0283 C 90.58947 494.7183 90.83124 494.024 91.12678 493.4714 C 91.57615 492.63 91.4913 492.4671 90.60771 492.4671 C 88.18334 492.4671 90.22311 490.0732 93.07138 489.5763 C 94.13264 489.3904 95.86305 488.5641 96.91675 487.7395 C 97.97044 486.9159 99.39843 486.2393 100.09005 486.2393 C 100.89527 486.2393 102.26167 485.3368 103.88946 483.7365 C 105.28753 482.3611 106.8957 481.1124 107.46316 480.9618 C 109.0238 480.5456 116.31357 475.6976 115.68843 475.4895 C 115.38847 475.3832 113.37476 476.0209 111.21353 476.8808 C 109.05227 477.7487 106.82601 478.4546 106.26625 478.4546 C 105.70645 478.4546 104.95338 478.8088 104.59268 479.2428 C 104.21408 479.6945 103.52907 479.907 102.97215 479.7299 C 102.44156 479.5616 102.00742 479.6329 102.00742 479.9779 C 102.00742 480.2878 101.69328 480.527 101.30936 480.527 C 100.92544 480.527 100.1886 480.9963 99.67193 481.5658 C 99.15525 482.1326 98.07675 482.6038 97.27521 482.6038 C 96.47362 482.6038 94.64147 483.0732 93.20367 483.6346 C 91.03658 484.4937 90.58946 484.5371 90.58946 483.9003 C 90.58946 483.4841 91.30018 482.7747 92.16875 482.3257 C 93.03729 481.8829 93.96576 480.9361 94.23189 480.2365 C 94.51149 479.5014 95.13265 478.9638 95.70304 478.9638 C 96.24611 478.9638 96.98107 478.6096 97.33644 478.1845 C 97.69184 477.7594 98.40408 477.4051 98.91931 477.4051 C 99.43457 477.4051 100.31536 476.8206 100.8767 476.1085 C 101.4381 475.3912 102.3308 474.8084 102.86062 474.8067 C 103.3905 474.8058 104.52456 474.3373 105.38091 473.7722 C 106.23731 473.2054 107.50338 472.7396 108.19453 472.7378 C 108.88568 472.7378 109.84704 472.3747 110.33091 471.9408 C 110.81482 471.5068 112.61662 470.9187 114.33501 470.6415 C 117.80455 470.0836 120.74177 469.0005 121.59142 467.9669 C 122.102 467.347 122.4395 465.2126 122.3033 463.4697 C 122.2696 463.0534 121.91866 462.894 121.42165 463.08 C 118.68063 464.1313 118.09637 464.0595 118.09637 462.6726 C 118.09637 461.8136 117.81093 461.3194 117.3179 461.3194 C 116.88978 461.3194 116.53942 460.9651 116.53942 460.54 C 116.53942 460.1149 116.30588 459.7607 116.02036 459.7607 C 115.73492 459.7607 115.5013 460.5312 115.5013 461.4735 C 115.5013 463.227 114.74053 464.4324 113.63315 464.4324 C 113.29077 464.4324 111.79592 465.2472 110.31131 466.2479 C 107.65355 468.0369 105.64032 468.586 105.64032 467.5223 C 105.64032 467.1858 104.96964 467.1061 103.88327 467.3098 C 102.87394 467.4958 101.98626 467.4161 101.79735 467.1061 C 101.60242 466.7873 100.94236 467.1061 100.17657 467.8677 C 99.46594 468.5762 98.63511 469.0058 98.33011 468.8162 C 98.0251 468.6303 95.93873 468.8162 93.69368 469.1351 C 90.41297 469.6665 89.45732 469.6753 88.8249 469.1351 C 88.17311 468.5948 87.83394 468.7011 86.84847 469.755 C 86.19417 470.4635 85.2539 471.6281 84.75888 472.3526 C 84.26385 473.0788 83.12943 473.8298 82.23787 474.0255 C 81.34633 474.2204 79.79196 474.9369 78.78372 475.6259 C 76.62308 477.0916 76.60597 477.0934 74.6895 476.0953 C 72.69354 475.0546 70.54156 475.1317 67.8832 476.3344 C 65.545146 477.3954 65.23677 477.2368 66.4749 475.5993 C 66.89532 475.0414 67.11022 474.1814 66.95245 473.6846 C 66.48665 472.218 68.38229 471.5289 70.971605 472.2268 C 72.87724 472.7405 73.23176 472.7051 73.82637 471.8814 C 74.41556 471.0755 74.29917 470.7398 72.9459 469.3432 C 72.08823 468.4576 71.38647 467.4479 71.38647 467.0972 C 71.38647 466.0858 73.95308 465.3809 76.3328 465.7369 C 78.8082 466.1089 81.18561 465.1612 82.51343 463.2598 C 83.68493 461.5868 83.58826 460.5994 82.31955 461.2778 C 80.85468 462.0571 78.65244 461.9508 78.65244 461.0918 C 78.65244 460.215 82.98443 457.412 85.09896 456.9169 C 85.93281 456.7221 87.19042 456.111 87.89369 455.5557 C 89.63978 454.1821 91.28934 454.2007 90.8489 455.5557 C 90.6151 456.2908 90.75573 456.5936 91.33299 456.5936 C 91.78041 456.5936 92.14998 456.1863 92.15441 455.6823 C 92.17389 453.4558 92.96326 453.1955 95.7436 454.4982 C 98.78624 455.9232 99.67371 455.6602 97.36633 454.0111 C 95.44748 452.6446 95.37428 452.0424 97.0498 451.4056 C 97.74848 451.1311 98.71738 450.3163 99.20287 449.5759 C 100.32325 447.8657 102.50997 446.72766 104.7064 446.71176 C 105.64828 446.71176 107.82021 446.10066 109.5329 445.36736 C 111.2456 444.63226 113.87257 443.53146 115.37061 442.91413 C 119.81298 441.0871 118.64402 440.2218 114.09336 441.96916 C 112.7269 442.4917 110.68197 442.8548 109.54906 442.76623 C 108.0902 442.6511 106.34884 443.1205 103.58058 444.35156 C 101.43082 445.30716 98.58949 446.24236 97.26647 446.42836 C 95.88593 446.62316 94.46956 447.19886 93.94229 447.7807 C 92.90861 448.9232 91.61053 449.0906 90.7169 448.197 C 90.26401 447.7364 89.74436 448.0021 88.58837 449.234 C 87.54096 450.3561 86.57659 450.8716 85.52806 450.8716 C 84.68601 450.8716 82.86458 451.4738 81.48039 452.2098 C 80.0833 452.9537 78.44133 453.4479 77.78948 453.3239 C 77.02074 453.1733 76.21889 453.5187 75.46744 454.3211 C 74.83611 454.9942 74.06835 455.5424 73.76131 455.5415 C 73.45421 455.5406 72.2229 456.064 71.02496 456.6937 C 68.35825 458.1063 67.60589 457.5962 69.47812 455.6389 C 70.2423 454.8419 70.867535 454.0528 70.867535 453.8872 C 70.867535 453.7189 69.833 453.4266 68.56856 453.2318 C 66.32614 452.8952 63.60156 451.2843 63.60156 450.2941 C 63.60156 450.0196 64.24382 449.5591 65.0288 449.2597 C 65.81378 448.9586 66.92315 448.2829 67.49405 447.7497 C 68.10448 447.18286 69.49406 446.71346 70.867535 446.61696 C 72.77565 446.48416 73.23135 446.25386 73.35783 445.36906 C 73.4425 444.77576 73.14124 443.97686 72.68733 443.60046 C 71.992925 443.02484 71.63928 443.078 70.45656 443.94586 C 68.60849 445.29296 67.40931 445.71276 66.45601 445.34696 C 65.23917 444.87756 65.54197 443.3118 66.97501 442.6591 C 68.34935 442.03913 68.73416 441.0074 67.59483 441.0074 C 67.22212 441.0074 66.15952 441.5653 65.23353 442.2499 C 64.20811 443.0027 63.13892 443.3844 62.49872 443.217 C 61.684335 443.0045 61.48555 443.1284 61.61628 443.92556 C 61.73167 444.59856 61.49778 444.88116 60.87678 444.82796 C 60.24513 444.73096 59.96853 445.13796 59.96853 445.99706 C 59.96853 446.78526 59.66775 447.23606 59.13521 447.23606 C 58.67688 447.23606 57.60799 447.8206 56.759896 448.5335 C 54.77533 450.2038 53.499826 450.2623 53.94359 448.6664 C 54.836245 445.45056 54.865224 445.16366 54.297565 445.16366 C 53.871594 445.16366 53.855714 444.88906 54.241415 444.16026 C 55.26062 442.2561 54.908004 441.5308 52.96219 441.5308 C 51.506276 441.5308 51.145694 441.3271 51.145694 440.51673 C 51.145694 437.67385 53.41937 435.822 56.909066 435.822 C 57.71014 435.822 59.22596 435.2375 60.27754 434.52366 C 61.32911 433.8063 62.56563 433.2209 63.02532 433.2156 C 63.65109 433.2156 63.548926 432.9676 62.618755 432.2485 C 61.01946 431.0192 61.455126 430.3922 64.645755 429.3321 C 66.06964 428.8627 67.23464 428.233 67.23464 427.9399 C 67.23464 427.6476 66.90862 427.5325 66.510166 427.6919 C 63.25492 428.9415 61.37937 429.24 60.44851 428.659 C 59.90688 428.32246 59.110254 428.0479 58.678205 428.0479 C 58.24616 428.0479 57.89267 427.7025 57.89267 427.2863 C 57.89267 426.35636 59.631916 425.3547 60.60154 425.7267 C 60.99846 425.87723 61.79706 425.337 62.418765 424.4992 C 63.14493 423.51614 64.31627 422.80055 65.81128 422.42327 C 67.067155 422.10444 68.763225 421.32243 69.58034 420.68034 C 70.55218 419.9187 71.79451 419.5051 73.17255 419.4927 C 74.33116 419.4927 75.51266 419.32444 75.79811 419.1473 C 76.08354 418.9702 80.63777 417.9579 85.91857 416.9049 C 132.75143 407.56413 174.83055 390.3395 206.84518 367.40604 C 228.8145 351.66836 247.47922 332.50506 259.3024 313.54722 C 262.0115 309.2023 267.77196 298.28867 265.8841 301.07664 C 257.62853 313.26825 252.64937 319.39416 245.0354 326.7281 C 213.89757 356.7191 163.7458 374.64697 104.47276 376.9744 C 99.40605 377.16925 95.26055 377.1958 95.26055 376.9744 C 95.26055 376.1685 100.08132 368.83634 100.61915 368.8319 C 104.57963 368.8319 121.00601 367.5672 128.73593 366.7232 C 200.0202 358.9403 248.21195 332.15612 265.45476 290.736 C 267.98533 284.6588 267.89304 284.57554 264.86262 290.20462 C 257.789 303.35182 251.036 311.2242 240.16783 318.99386 C 226.53543 328.7376 207.21695 334.95737 183.74977 337.1564 C 176.4555 337.83833 154.5024 337.8472 145.80853 337.1564 C 137.31875 336.49217 124.72761 335.10527 123.10727 334.65183 L 121.86631 334.30643 L 124.05944 331.05085 C 125.9028 328.31336 126.35355 327.9166 126.88571 328.5578 C 127.35705 329.1246 127.8467 329.19545 128.80135 328.8412 C 129.6552 328.5135 131.76658 328.6021 135.11888 329.08917 C 145.99741 330.6913 154.97774 331.1713 174.1483 331.1775 C 195.25344 331.1775 199.58343 330.80553 210.26272 328.03262 C 235.69147 321.43023 253.72983 305.3002 259.54063 283.96623 C 260.7041 279.69482 261.08942 272.1882 260.3323 268.54206 C 259.09743 262.59593 255.217 256.71356 250.0022 252.88586 C 244.04307 248.51084 238.3081 245.8628 223.4317 240.6119 C 212.77706 236.8515 208.78882 235.01735 205.9135 232.55706 C 199.1338 226.75352 204.10876 217.83166 216.35228 213.83658 C 220.02832 212.63743 221.71386 212.41868 228.90257 212.21144 C 241.8275 211.83948 249.11872 213.5213 268.4428 221.3361 L 271.13413 222.42366 L 271.6619 220.75868 C 273.702 214.31748 278.98593 195.98047 278.98593 195.34104 C 278.98593 194.55283 273.04217 192.14657 265.37813 189.82975 C 247.65173 184.46814 224.00977 184.8587 205.78542 190.8137 C 180.84215 198.96505 164.14148 217.41984 162.43975 238.71486 C 161.81423 246.54385 164.06766 253.31096 169.06284 258.6044 C 174.606 264.4788 181.52252 268.11962 197.5032 273.5751 C 217.8326 280.51492 222.0709 284.0043 219.6186 291.7846 C 217.81328 297.51197 211.9462 301.96492 203.5919 303.94874 C 197.9197 305.2958 186.43977 305.42155 179.59774 304.20557 C 170.7252 302.63535 160.41538 298.62786 150.659 292.9563 C 147.53955 291.1425 147.21165 290.8033 147.69715 289.89642 C 148.12562 289.09935 148.06274 288.8071 147.40498 288.5547 C 146.71295 288.289 146.87927 287.90817 148.35953 286.35655 C 149.44965 285.21585 150.28698 283.71825 150.49623 282.53416 C 150.76626 281.00645 151.08633 280.57426 151.98453 280.52643 C 153.99388 280.4113 154.55237 280.64156 156.94808 282.46597 L 159.29563 284.2585 L 160.48217 283.07174 C 161.62705 281.9275 161.6422 281.7973 160.91276 279.37334 C 160.23995 277.138 160.24623 276.6881 160.97036 275.28703 C 161.715 273.8479 161.70933 273.51666 160.90306 271.40797 C 159.84907 268.64745 158.26041 267.81407 155.68074 268.66516 C 154.69272 268.99285 152.69884 269.09027 150.95475 268.89543 C 148.50951 268.62974 147.05276 268.80683 143.26686 269.96793 C 137.35664 271.74716 133.37536 271.92783 132.30201 270.47274 C 131.88275 269.90593 131.6579 268.97956 131.80234 268.42427 C 131.9468 267.86632 131.81474 267.1109 131.50636 266.7407 C 131.19914 266.36872 131.07373 265.58582 131.22774 264.9969 C 131.40593 264.31494 131.28624 263.99966 130.8997 264.12896 C 130.56538 264.2441 130.05818 265.41047 129.7728 266.72917 C 129.07758 269.94313 128.4429 270.51614 126.93158 269.2913 L 125.74067 268.32774 L 127.20255 266.1181 C 128.54072 264.0962 128.62264 263.70385 128.17044 261.48357 C 127.44104 257.89942 127.72816 257.06427 129.56196 257.43092 C 130.72348 257.6612 131.0703 257.54606 131.0703 256.89954 C 131.0703 256.25303 131.22422 256.1999 131.80253 256.67814 C 132.94488 257.62576 133.30787 256.44787 132.38236 254.78466 C 131.93883 253.99644 131.28706 252.9213 130.9339 252.40673 C 130.40083 251.63623 130.446 251.38206 131.19993 250.9534 C 132.69194 250.1032 132.23176 249.46112 130.55121 250.05095 C 128.80915 250.65318 128.72472 250.972 129.62775 253.4686 C 130.35662 255.48342 129.77166 256.17953 127.33814 256.19458 C 125.404 256.19458 125.04154 255.30895 126.39545 253.8698 C 127.3082 252.89914 127.46377 252.31374 127.1679 250.9667 C 126.86271 249.57802 126.71206 249.43367 126.313 250.1519 C 126.04651 250.63016 125.1322 251.37763 124.28107 251.81867 C 123.31483 252.32348 122.23266 253.63333 121.40007 255.32135 C 120.66668 256.80832 119.2307 258.6708 118.20902 259.45902 L 116.35145 260.89374 L 114.98918 259.58832 C 114.23985 258.87096 113.3981 258.2838 113.11847 258.2838 C 112.8388 258.2838 112.15225 257.52214 111.59277 256.59666 C 110.644 255.02378 110.5642 254.98924 110.40678 256.07414 C 110.2061 257.4628 108.44948 257.65765 106.90618 256.4638 C 105.92531 255.70217 105.93884 255.6579 107.41923 254.42332 C 108.6611 253.3951 108.82427 253.02402 108.30955 252.40496 C 107.33106 251.2253 108.75246 250.1838 111.83956 249.81892 C 115.01736 249.44695 115.50014 249.18126 115.50014 247.8714 C 115.50014 247.2072 115.14367 246.86445 114.46214 246.86445 C 113.05858 246.86445 113.14465 245.5909 114.59188 244.9444 L 115.75963 244.42188 L 114.4851 244.02334 C 113.60195 243.7488 113.14078 243.8285 112.98332 244.30674 C 112.61641 245.40758 110.16455 247.4587 109.74076 247.01943 C 109.52697 246.79803 109.27572 245.93542 109.18237 245.10027 C 109.08907 244.25892 108.77728 243.50702 108.48963 243.41226 C 107.8154 243.19085 106.58657 245.1534 106.18721 247.0885 C 105.76972 249.1113 104.23403 249.45138 99.4197 248.59055 C 97.24061 248.20087 97.07287 248.0503 96.78107 246.25513 C 96.28503 243.2006 94.61388 241.68616 94.06305 243.7922 C 93.81614 244.73716 93.65708 244.78233 92.68919 244.18187 C 91.77411 243.61507 91.51851 243.62392 91.13097 244.27047 C 90.75706 244.8727 90.51648 244.89042 89.8878 244.37675 C 89.4591 244.0225 88.68223 243.8011 88.16152 243.88965 C 86.52921 244.17305 86.73216 242.0865 88.49001 240.51982 C 89.43148 239.67847 90.06925 238.60243 90.06925 237.84964 C 90.06925 235.8915 90.7897 235.88974 92.68381 237.84964 C 94.67299 239.90254 95.73823 240.08675 97.07573 238.61128 C 97.99862 237.59104 97.98225 237.57332 96.13643 237.57332 C 94.78252 237.57332 94.10099 237.28107 93.6965 236.52385 C 93.03697 235.29282 93.49767 234.26992 94.53324 234.66757 C 94.93257 234.82698 95.25928 234.76497 95.25928 234.44616 C 95.25928 234.16276 94.80912 233.94135 94.25895 233.94135 C 93.01086 233.94135 90.88051 231.36504 91.56364 230.68222 C 91.86573 230.3811 92.76842 230.43425 93.94878 230.82392 C 94.99326 231.16932 95.97913 231.31988 96.13963 231.16046 C 96.47085 230.82392 94.63216 230.00648 92.59656 229.5743 C 91.81924 229.40603 91.11378 228.83037 90.9584 228.24142 C 90.77782 227.55063 90.25134 227.19726 89.40294 227.19726 C 88.15729 227.19726 86.52852 225.8936 87.08219 225.3401 C 87.23337 225.18953 87.90889 225.03012 88.58339 225.00355 C 89.25789 225.00355 90.07333 224.74672 90.39543 224.49874 C 90.72002 224.25962 91.58761 224.29504 92.34167 224.59614 C 93.65454 225.10095 94.28998 224.49874 93.18337 223.84335 C 92.17581 223.2234 92.68255 222.5468 94.15782 222.5468 C 94.97925 222.5468 95.94199 222.90104 96.29735 223.32614 C 96.65275 223.75125 97.68557 224.1055 98.5926 224.1055 C 100.5517 224.1055 101.48734 224.90257 101.48734 226.5702 C 101.48734 227.57983 101.6441 227.70294 102.39562 227.28757 C 103.80942 226.49936 103.6194 224.14535 102.11116 223.7663 C 100.42074 223.3412 98.78269 220.61434 99.45908 219.35143 C 99.7385 218.8289 100.47644 218.40203 101.09911 218.40203 C 102.21847 218.40203 105.83697 219.54804 108.11097 220.62408 C 109.09964 221.09347 109.51384 220.96062 110.73437 219.78273 C 112.56381 218.03006 112.99007 218.04512 115.14065 219.9333 C 117.34781 221.87105 119.11536 222.5468 121.97921 222.5468 C 124.63022 222.5468 125.88037 222.14825 125.88037 221.314 C 125.88037 220.91545 124.76065 220.7206 122.63662 220.7206 C 119.93538 220.7206 119.04723 220.49035 117.32616 219.3036 C 116.18947 218.52425 114.88276 217.87508 114.42235 217.87508 C 113.96191 217.87508 113.16257 217.4057 112.64591 216.838 C 112.12923 216.2712 111.40062 215.80004 111.02674 215.80004 C 110.42558 215.80004 109.27242 214.28738 109.27242 213.4983 C 109.27242 213.33887 109.7667 213.20603 110.37095 213.20603 C 111.265 213.20603 111.40614 212.99348 111.12923 212.03788 C 110.273 209.10024 110.25564 207.59466 111.05573 205.67904 C 111.54814 204.50115 111.77265 203.05846 111.5918 202.23482 C 111.33957 201.08704 111.544 200.6451 112.67481 199.90472 C 115.26256 198.20962 122.24711 197.31513 122.24711 198.679 C 122.24711 199.53807 123.80375 199.6107 126.21896 198.8827 C 127.63101 198.4576 129.3038 198.28047 130.0321 198.48417 C 131.59836 198.90927 137.08716 198.87385 137.8154 198.38677 C 138.95498 197.67826 138.32021 196.56945 136.77907 196.56945 C 135.92266 196.56945 135.1984 196.39232 135.16941 196.17977 C 134.7707 193.2315 134.86644 191.8889 135.51348 191.3522 C 135.92415 191.0068 136.26016 190.44973 136.26016 190.1061 C 136.26016 189.7607 136.76196 189.50388 137.37538 189.5216 C 137.98877 189.5216 138.59208 189.27362 138.71612 188.91936 C 138.84011 188.5651 138.58567 188.264 138.15047 188.264 C 136.75137 188.264 136.63695 187.18618 137.89248 185.83205 L 139.11461 184.5151 L 136.37602 184.88708 C 134.27171 185.16163 133.3449 185.0642 132.37455 184.42655 C 131.3362 183.74462 130.86851 183.7092 129.74362 184.22286 C 128.58394 184.75424 128.3009 184.7188 127.8854 183.97488 C 127.47482 183.2398 127.21914 183.20438 126.3104 183.74462 C 125.44771 184.25828 125.17743 184.24943 124.9906 183.74462 C 124.59932 182.66414 123.68412 183.00068 121.66546 184.97387 C 120.0052 186.59546 119.34292 186.87975 116.81784 187.05422 C 115.2093 187.16935 113.43734 187.05422 112.8802 186.71768 C 111.81406 186.15088 111.4867 183.91377 112.3876 183.3567 C 112.7346 183.14416 112.73167 182.7102 112.3786 182.04686 C 111.94668 181.24093 112.09733 180.89465 113.19932 180.17286 C 114.19232 179.5175 114.487 178.9631 114.3139 178.0571 C 114.13234 177.10858 114.4134 176.65336 115.54198 176.0706 C 117.50035 175.05745 120.17092 175.06985 120.17092 176.0706 C 120.17092 176.49572 120.54723 176.84997 121.00723 176.84997 C 121.67641 176.84997 121.77764 177.20422 121.51398 178.6053 C 121.2197 180.17375 121.7215 181.00093 122.96673 181.00093 C 123.02963 181.00093 123.05693 179.85403 123.02433 178.4512 C 122.96233 175.7199 122.22195 174.41714 120.32158 173.69446 C 119.4541 173.36678 119.1325 172.82654 119.1325 171.71508 C 119.1325 170.88258 119.4074 170.0979 119.74341 169.98544 C 120.6571 169.67547 119.74241 168.5454 118.58287 168.5454 C 118.02882 168.5454 117.57551 168.21772 117.57551 167.82804 C 117.57551 167.43836 117.22515 166.82196 116.79704 166.46682 C 115.85014 165.68747 115.75552 162.02272 116.6673 161.4506 C 117.02411 161.2292 117.72476 161.10521 118.2243 161.19377 C 118.7238 161.28237 119.13258 161.0875 119.13258 160.79523 C 119.13258 160.48526 118.78223 160.24614 118.35411 160.24614 C 117.926 160.24614 117.57564 159.92732 117.57564 159.5465 C 117.57564 158.51473 119.30898 157.1305 120.60075 157.1305 C 121.22751 157.1305 121.72763 156.80281 121.72763 156.39542 C 121.72763 155.98802 121.86933 155.28926 122.04265 154.83847 C 122.57828 153.44272 120.4239 153.87136 119.65162 155.30786 C 119.26974 156.02522 118.6747 156.6062 118.3294 156.6062 C 117.98408 156.6062 117.40762 157.3147 117.04841 158.18262 C 116.27712 160.04422 115.1293 160.75804 112.9038 160.75804 C 111.44534 160.75804 111.31881 160.63405 111.67642 159.59078 C 112.17255 158.13745 112.15803 156.62302 111.63652 155.43805 C 111.29768 154.66755 111.51802 154.52673 113.07916 154.52673 C 114.39481 154.52673 115.15277 154.19905 115.72956 153.37364 C 116.48925 152.28963 116.46003 152.1807 115.23998 151.54038 C 113.76522 150.76988 113.55254 149.60705 114.76183 148.93042 C 115.45953 148.54075 115.38248 148.34591 114.24276 147.5949 C 112.5293 146.4728 112.4912 145.1851 114.17106 145.1851 C 114.86787 145.1851 115.58227 144.95482 115.7587 144.66256 C 115.9351 144.37031 115.5798 144.14004 114.96906 144.14004 C 114.15321 144.14004 113.63964 143.5821 113.03303 142.03844 C 112.33134 140.25212 112.00646 139.95986 110.86903 140.09182 C 109.61111 140.24237 109.5413 140.4018 109.7072 142.7124 C 109.89477 145.3321 109.7763 145.48532 108.19908 144.64042 C 107.36216 144.19761 107.1952 144.27731 107.1952 145.14523 C 107.1952 145.71204 106.73042 146.43206 106.16246 146.73583 C 105.28241 147.21407 105.22472 147.44433 105.77226 148.31757 C 106.29504 149.15892 106.26608 149.61147 105.61745 150.76722 C 105.1788 151.54658 104.49806 152.18778 104.10462 152.18778 C 102.94323 152.18778 102.90796 153.32936 104.06032 153.6296 C 105.53142 154.01041 105.38344 155.36454 103.75301 156.43261 C 102.40943 157.31824 102.36594 157.30053 101.1606 155.79496 C 100.48627 154.95361 99.93351 154.1034 99.93209 153.90856 C 99.93069 153.71372 100.63023 151.65463 101.48652 149.3325 C 102.34293 147.0095 103.04352 144.66522 103.04352 144.12233 C 103.04352 143.5821 103.74414 142.61764 104.60052 141.98441 C 106.44857 140.61788 106.60161 139.6065 104.99507 139.378 C 103.60235 139.18316 103.0449 137.39507 104.37548 137.39507 C 105.4468 137.39507 106.63723 135.9453 106.66 134.61153 C 106.6759 133.7259 110.5801 129.6821 111.46653 129.63162 C 111.67474 129.63162 112.84016 130.69083 114.05635 132.00954 C 115.60977 133.6949 116.2195 134.77537 116.1059 135.6424 C 115.91717 137.08244 116.41897 137.23743 117.31345 136.01437 C 118.07447 134.97375 119.65144 135.42985 119.65144 136.68745 C 119.65144 137.51994 116.77203 140.5125 115.96206 140.5125 C 115.39676 140.5125 113.94247 138.96972 113.94247 138.36926 C 113.94247 138.09472 113.70893 137.9973 113.4234 138.17442 C 112.63837 138.66152 112.79442 139.36206 113.94247 140.50984 C 115.3526 141.92065 118.37923 141.918 119.13496 140.50584 C 119.54846 139.73534 120.01794 139.54493 120.94806 139.77962 C 122.15347 140.0896 122.18345 140.01874 121.70581 138.35907 C 120.42247 133.88485 122.07388 132.65205 126.1505 135.0406 C 127.495 135.82882 129.00905 136.33008 129.66202 136.20432 L 130.80994 135.98292 L 129.67162 135.89432 C 127.70226 135.77033 125.8922 132.19061 127.79975 132.19061 C 128.43785 132.19061 128.525 132.0312 128.11495 131.6238 C 127.70481 131.21641 127.25456 131.21641 126.48827 131.6238 C 125.02133 132.40316 124.96984 132.38545 124.0561 130.62038 C 123.33768 129.23171 123.33236 128.9244 124.0092 127.9573 C 124.43032 127.35506 125.69347 126.4526 126.81617 125.95045 C 128.78656 125.06481 128.88668 125.06481 129.69856 126.03905 C 130.16113 126.5793 130.90157 127.02122 131.3439 127.02122 C 131.78626 127.02122 133.08754 127.50831 134.23566 128.08663 C 135.8159 128.89256 136.85322 129.07145 138.50425 128.82171 C 140.08773 128.59144 141.42264 128.82171 143.3764 129.55678 C 145.5295 130.407 146.37622 130.50883 147.61195 130.0793 C 148.799 129.67191 149.43564 129.7162 150.36284 130.30071 C 151.02635 130.71696 152.4387 131.21291 153.50136 131.39712 C 154.56405 131.58311 155.63205 132.09677 155.87471 132.52365 C 156.24171 133.18787 156.54832 133.20558 157.69804 132.68306 C 158.45818 132.33766 159.44601 131.49543 159.89313 130.81261 L 160.70614 129.57095 L 162.27576 130.89231 C 163.139 131.61853 164.35294 132.21722 164.97331 132.22076 C 165.5937 132.22476 166.44936 132.44217 166.87484 132.71671 C 167.55253 133.14182 167.53632 133.39865 166.7451 134.73418 C 166.24817 135.57553 165.84174 136.40271 165.84174 136.57276 C 165.84174 137.09528 167.83595 136.91815 168.17723 136.3602 C 168.7257 135.47457 169.99373 135.7934 169.99373 136.81188 C 169.99373 137.35211 169.64337 138.62565 169.21526 139.65033 C 168.2256 142.0194 168.2137 141.96448 169.6601 141.68817 C 170.69367 141.49333 170.93522 141.68817 171.2171 143.1229 C 171.4007 144.04395 171.5507 145.86392 171.5507 147.17731 C 171.5507 149.48438 171.5773 149.52512 172.35858 148.41011 C 173.31897 147.03827 174.66465 146.8886 174.66465 148.15328 C 174.66465 149.49413 176.8584 147.09938 178.50786 143.95804 C 179.52256 142.0256 179.70886 141.20815 179.3059 140.45537 C 178.5725 139.08441 179.56566 137.3964 181.1052 137.3964 C 181.77287 137.3964 183.26326 137.73293 184.41715 138.14032 C 185.57103 138.54772 187.59887 139.04278 188.92343 139.24205 C 190.63836 139.49888 191.56456 139.95941 192.1404 140.83707 C 192.58515 141.51901 193.27248 142.07076 193.66782 142.07076 C 194.06325 142.07076 194.3866 142.4073 194.3866 142.82355 C 194.3866 143.23094 194.87405 143.91376 195.46983 144.33178 C 196.5915 145.11113 197.87963 144.94286 200.72896 143.61442 C 201.84493 143.0919 202.30145 143.0919 202.90725 143.61442 C 203.43598 144.04838 204.56872 144.13694 206.55955 143.88896 C 209.81588 143.48157 211.05815 144.07494 210.60377 145.8099 C 210.41938 146.5184 210.63387 147.06927 211.2152 147.39518 C 211.70744 147.66972 212.55154 148.92555 213.09095 150.18403 C 214.06093 152.44682 214.77126 152.98086 215.41913 151.93227 C 215.6028 151.63116 216.14198 151.50717 216.6175 151.63116 C 217.093 151.764 218.00756 152.02083 218.6498 152.20682 C 220.09795 152.62306 220.22246 151.63116 218.77956 151.17506 C 218.2086 150.99793 217.74156 150.51083 217.74156 150.10167 C 217.74156 149.69428 217.4679 149.35774 217.13358 149.35774 C 216.79925 149.35774 215.53213 148.32155 214.31787 147.05421 C 212.46922 145.1253 212.23044 144.6506 212.84984 144.13605 C 213.2567 143.79951 213.58952 143.16363 213.58952 142.72613 C 213.58952 142.07962 213.7809 142.10618 214.6744 142.91211 C 215.27114 143.45234 216.4972 143.93147 217.39913 143.97752 C 218.3011 144.06612 220.08997 144.29635 221.3745 144.58861 C 222.659 144.88087 223.81508 145.00486 223.94354 144.88973 C 224.4921 144.34063 220.3298 140.92741 218.71957 140.59972 C 217.44147 140.3429 216.91784 139.92664 216.79715 139.09415 C 216.59124 137.66828 217.4342 137.62843 219.15688 138.97902 C 220.8899 140.34201 222.01273 140.3243 221.79983 138.97902 C 221.6793 138.19081 220.86202 137.62666 218.79943 136.9031 C 215.29646 135.67384 215.6684 135.65258 213.36676 137.22192 C 211.3019 138.623 210.4234 138.56277 210.81983 137.0448 C 210.95568 136.52227 210.7001 135.79694 210.25214 135.4241 C 209.8041 135.05213 209.43753 134.43573 209.43753 134.05225 C 209.43753 133.23747 211.03712 132.27921 212.38766 132.28541 C 212.90593 132.28841 214.4267 131.77175 215.7671 131.13852 C 218.0393 130.06513 218.1973 129.86232 218.1026 128.14951 C 218.0291 126.82018 218.1998 126.35433 218.72076 126.46504 C 219.11673 126.55364 220.01132 126.08422 220.70885 125.42796 C 221.9355 124.27487 222.00038 124.2678 222.68723 125.20656 C 223.20258 125.91506 223.7607 126.0922 224.7214 125.84421 C 226.24892 125.4634 226.33707 125.00286 225.27998 122.96148 C 224.55607 121.5613 224.58325 121.43642 225.78072 120.65175 C 227.46595 119.54737 228.12136 119.60582 228.12136 120.85545 C 228.12136 122.0856 228.31107 122.1219 229.82636 121.17427 C 231.03816 120.4215 235.53373 119.6448 238.362 119.70501 C 239.88164 119.70501 240.09805 119.5456 240.6661 117.6477 C 241.3738 115.28571 242.31383 114.6826 243.82126 115.62402 C 244.5062 116.04912 245.0252 116.0934 245.36913 115.75686 C 245.7131 115.41147 245.36713 114.96865 244.3359 114.43816 C 242.88758 113.68537 242.15818 112.36312 242.1414 110.44927 C 242.1384 110.00645 243.063 108.95432 244.19804 108.11475 C 245.7411 106.97317 246.26487 106.2195 246.27405 105.13017 C 246.28105 104.3331 246.5059 103.80792 246.77416 103.97353 C 247.0425 104.1418 247.56804 103.88493 247.9419 103.45101 C 248.31583 102.99048 249.00153 102.2625 249.4657 101.82144 C 249.92985 101.38748 250.19448 100.5798 250.05393 100.04221 C 249.73183 98.8103 250.7241 98.7607 251.45013 99.95361 C 251.96265 100.81267 252.04014 100.80381 252.7734 99.84733 C 253.80767 98.51091 253.8389 95.32884 252.8141 95.72117 C 252.40805 95.8806 251.94823 96.33226 251.7924 96.74408 C 251.63653 97.15147 251.1047 97.47915 250.61048 97.47915 C 249.91163 97.47915 249.85035 97.33745 250.3346 96.85921 C 251.7863 95.40677 250.70906 95.5476 246.93517 97.29317 C 240.1973 100.42476 239.4609 100.24941 241.89682 96.09225 C 242.6225 94.85414 242.98777 93.84098 242.7085 93.84098 C 242.20192 93.84098 239.01105 96.01166 232.52147 100.76927 C 230.63363 102.15352 228.96005 103.15694 228.8024 102.9993 C 228.64484 102.83988 228.65768 102.1491 228.8307 101.45652 C 229.04484 100.59746 229.6237 100.10594 230.63704 99.90313 C 231.45722 99.73486 232.88434 98.96878 233.8084 98.1912 L 235.48847 96.77773 L 234.1654 96.07808 C 233.00576 95.47585 232.6309 95.51128 231.13055 96.42348 C 226.9577 98.95196 225.94115 99.0848 227.08326 96.95486 C 227.90672 95.4174 227.5035 95.19776 225.17587 95.9169 C 220.6906 97.30291 220.02735 97.4331 218.92795 97.14438 C 218.29605 96.97611 217.48003 96.16842 217.1145 95.34301 C 216.41156 93.75418 215.66528 93.35388 215.66528 94.56365 C 215.66528 96.53861 212.22918 95.75571 211.93878 93.71344 C 211.83312 92.96951 211.1023 92.23178 209.92528 91.67915 C 208.90916 91.20091 207.7712 90.44192 207.3965 89.99025 C 207.0218 89.53858 206.29048 89.17547 205.7714 89.17547 C 204.464 89.17547 204.0938 88.36954 204.84728 87.16331 C 205.35484 86.35739 205.342 85.97656 204.78348 85.30348 C 203.8455 84.17253 204.78148 83.17265 206.13826 83.85636 C 206.6685 84.12205 207.6861 84.17519 208.39973 83.96264 C 209.11338 83.75008 209.38906 83.55525 209.01233 83.52868 C 207.79738 83.44008 208.58793 81.18529 210.08643 80.46882 C 211.06295 80.00829 211.51368 79.38923 211.51368 78.53017 C 211.51368 76.742975 213.41045 75.704125 217.77352 75.099235 C 221.49615 74.576715 223.5333 74.930965 225.45716 76.411745 C 226.28824 77.049395 229.8196 78.3185 230.0706 78.06787 C 230.1652 77.97927 229.20747 77.217665 227.94206 76.404655 C 223.35588 73.431595 223.4543 73.582145 226.23556 73.796475 C 228.33375 73.955885 228.97735 74.274715 230.0398 75.624415 C 230.74318 76.526875 231.52424 77.131765 231.77556 76.976775 C 232.53924 76.498535 230.4516 73.367825 229.25653 73.191585 C 228.6419 73.102985 227.74722 72.367945 227.26838 71.552285 C 226.75436 70.684365 225.7941 69.958145 224.92418 69.783675 C 222.54318 69.314285 223.10854 68.277215 225.5266 68.685495 C 227.3977 69.004315 227.6026 68.924615 227.6026 67.950415 C 227.6026 66.752155 228.63105 66.547575 230.26487 67.419035 C 231.03572 67.826425 231.51366 67.799855 232.12676 67.286195 C 233.53244 66.118925 235.41596 66.418275 236.58507 68.003555 C 238.03347 69.961685 239.28803 69.847435 243.78896 67.339335 C 247.75226 65.135875 246.81234 65.034035 242.50432 67.197625 C 241.13775 67.888425 239.7915 68.305555 239.51267 68.132855 C 239.23388 67.964585 238.52775 66.882345 237.94358 65.738105 L 236.88148 63.655985 L 239.24792 63.806545 C 241.75278 63.965955 243.56915 63.027185 241.96183 62.407245 C 241.4859 62.221265 241.09648 61.636745 241.09648 61.092965 C 241.09648 60.552735 240.86294 60.110805 240.5774 60.110805 C 240.29197 60.110805 240.05834 60.420775 240.05834 60.801595 C 240.05834 61.182415 239.47365 61.805905 238.75896 62.187605 C 237.60585 62.798695 237.32838 62.763275 236.2937 61.806785 C 235.65252 61.213415 234.66076 60.640415 234.08986 60.529705 C 233.27818 60.370295 233.07972 59.971755 233.17962 58.691135 C 233.24962 57.788675 233.07476 56.910125 232.79038 56.733885 C 231.83606 56.149375 232.26148 55.437325 233.57098 55.437325 C 234.28462 55.437325 234.86847 55.623305 234.86847 55.853565 C 234.86847 56.190105 238.47448 56.287525 239.53946 55.986415 C 239.68213 55.986415 238.9815 55.472745 237.98247 54.939595 C 235.9484 53.851155 233.49915 49.784335 234.0355 48.387695 C 234.28214 47.750035 234.75684 47.608335 235.91447 47.838605 C 237.43264 48.148575 237.46347 48.104295 237.46347 46.017745 L 237.46347 43.886025 L 239.61427 44.178285 C 242.02416 44.505965 242.79434 45.287095 242.38923 47.010535 C 242.23822 47.648185 242.35293 48.177795 242.64358 48.177795 C 242.9345 48.177795 243.17248 47.602135 243.17248 46.890085 C 243.17248 45.969035 243.52204 45.515585 244.4094 45.293295 C 245.73835 44.956755 245.74925 45.289295 244.24678 40.369185 C 243.83036 39.006195 243.88385 38.827295 244.63602 39.064645 C 245.4059 39.303765 245.5113 38.816665 245.53547 34.806525 C 245.56737 29.567395 246.65213 26.615405 248.34805 27.154135 C 248.8813 27.321515 249.7882 27.554445 250.36338 27.666035 C 250.9385 27.777625 251.87606 28.112385 252.44672 28.419705 C 253.97192 29.238025 256.19113 29.098985 257.2744 28.112385 C 258.59512 26.916875 258.51713 28.112385 257.15022 30.059535 C 255.5319 32.331455 257.26473 32.062575 259.10577 29.752225 C 260.13396 28.463635 260.82786 28.028255 261.5095 28.244085 C 262.133 28.439805 262.7299 28.151085 263.21802 27.481555 C 263.80404 26.644635 264.3152 26.479635 265.55352 26.727885 C 267.09303 27.035195 267.13443 26.997995 266.9865 25.276505 C 266.7998 23.109015 267.14386 22.511745 269.1605 21.506015 C 270.59404 20.789545 270.88316 20.808135 272.3939 21.645945 C 274.88 23.034975 274.60665 24.435865 271.75474 24.923315 C 269.20936 25.360815 268.16487 26.043465 269.13534 26.643565 C 269.47764 26.857895 269.90673 26.792355 270.0888 26.513385 C 270.271 26.234405 271.6558 25.881035 273.1662 25.741105 C 275.49962 25.517935 275.99254 25.629525 276.44594 26.485045 C 276.8249 27.191775 276.8002 27.698175 276.36094 28.226635 C 275.9587 28.710195 275.9353 28.970565 276.29364 28.970565 C 276.59723 28.970565 276.98992 28.737645 277.16634 28.449815 C 277.34276 28.161095 277.82365 27.929065 278.235 27.929065 C 279.3184 27.929065 279.15313 29.826975 277.9993 30.634495 C 277.0491 31.304025 277.0475 31.359825 277.9524 32.481215 C 279.15782 33.969785 280.02046 33.956765 280.02046 32.481215 C 280.02046 31.830275 280.48754 30.376775 281.05845 29.257595 C 282.41983 26.586625 282.36782 25.883255 280.8089 25.883255 C 279.85842 25.883255 279.4335 25.529885 279.18602 24.548255 C 278.6504 22.414235 279.72023 20.694075 281.58264 20.694075 C 282.51224 20.694075 283.29053 20.368155 283.4658 19.912945 C 283.7493 19.177865 286.2485 18.769505 286.2485 19.466585 C 286.2485 19.643715 285.76537 20.576545 285.17492 21.531085 C 284.58447 22.486505 283.9843 24.333045 283.84124 25.633595 C 283.58645 27.951115 283.6076 27.993005 284.89624 27.669215 C 286.7445 27.204265 290.20932 28.915835 290.94726 30.656545 C 291.2978 31.484615 291.3945 32.913485 291.1839 34.159215 C 290.7333 36.826655 291.129 36.829315 292.48587 34.159215 C 293.65185 31.874285 293.5008 28.940985 292.1364 27.374305 C 291.58377 26.741965 291.5372 26.201105 291.94262 25.134985 C 293.19554 21.839015 291.7143 21.091895 289.86392 24.085595 C 289.0417 25.416875 288.4149 25.886705 287.61586 25.773165 C 286.2389 25.577445 285.82862 23.236365 287.0006 22.263235 C 287.44325 21.900125 287.8054 21.165405 287.8054 20.638805 C 287.8054 19.366155 289.2466 18.675805 291.2625 18.981875 C 292.61123 19.186455 293.0636 18.987875 293.80514 17.855265 C 295.13604 15.823445 297.247 16.186295 297.72193 18.524805 C 297.91553 19.478365 298.3325 20.517565 298.64864 20.833825 C 299.4581 21.643295 299.36246 23.035065 298.44485 23.795905 C 298.01674 24.149275 297.6664 25.114175 297.6664 25.935685 C 297.6664 27.182295 297.88044 27.428855 298.9639 27.428855 C 299.92205 27.428855 300.26137 27.707835 300.26137 28.482935 C 300.26137 29.059485 300.61173 29.671895 301.03984 29.836535 C 301.46796 30.003925 301.81832 30.468875 301.81832 30.881315 C 301.81832 31.290475 302.42816 32.237755 303.1736 32.983895 C 304.44972 34.259205 304.49255 34.462905 303.90725 36.462655 C 303.00314 39.552625 301.9335 41.028975 300.84864 40.685355 C 300.26934 40.499365 299.52386 40.871335 298.80493 41.696745 C 298.18242 42.414105 297.34993 42.998625 296.9548 42.998625 C 296.55973 42.998625 295.968 43.326305 295.63993 43.715985 C 294.7193 44.824795 297.50562 45.379205 298.67647 44.318215 C 299.97254 43.144755 300.2613 43.313025 300.2613 45.239275 C 300.2613 47.239025 298.91167 48.716265 295.9796 49.924265 C 294.47712 50.544205 294.03334 51.016245 294.03334 52.000185 C 294.03334 52.850395 293.3754 53.811305 292.0871 54.863435 C 290.65512 56.032465 290.3874 56.457575 291.07387 56.470855 C 291.587 56.470855 292.5605 55.895195 293.2371 55.161005 C 294.3486 53.960975 294.51506 53.919345 294.9623 54.718185 C 295.38174 55.470975 295.6725 55.240715 296.86527 53.199335 C 298.6039 50.232465 300.9683 48.183995 302.6529 48.183995 C 303.39896 48.183995 304.05886 47.803175 304.24534 47.272685 C 304.4205 46.767875 305.05534 45.933605 305.6563 45.408425 C 306.5959 44.593645 306.61533 44.496225 305.79497 44.753055 C 304.7103 45.107315 302.90153 43.286455 302.87357 41.816305 C 302.85937 41.116655 303.28273 40.904985 304.68393 40.904985 C 306.12975 40.904985 306.63505 41.170675 307.10272 42.201555 C 307.42793 42.918915 307.88996 43.499005 308.1296 43.499005 C 308.84936 43.499005 308.62096 42.115645 307.7868 41.423085 C 306.66247 40.489625 306.8123 38.162185 308.04627 37.391685 C 309.42106 36.532625 309.3557 35.631055 307.8137 34.183135 C 307.11494 33.522445 306.39187 32.300185 306.207 31.459105 C 306.02217 30.622185 305.19943 29.163985 304.37875 28.229025 C 303.02524 26.687405 302.91576 26.283645 303.2004 23.879685 C 303.4384 21.870365 303.86402 20.918575 304.9615 19.940845 C 305.922 19.085325 306.32013 18.312785 306.1452 17.643865 C 305.92522 16.797205 306.2107 16.594395 307.8722 16.384145 C 309.1256 16.225615 310.1633 16.393145 310.67432 16.830505 C 311.16407 17.249405 311.67852 17.342395 311.9718 17.063425 C 312.2391 16.803045 313.13485 16.514335 313.96242 16.421335 C 315.42457 16.253955 315.95884 15.704865 316.5712 13.746375 C 316.85 12.853215 316.99097 12.872255 319.025 14.006755 C 320.2119 14.667435 321.20497 15.439525 321.23185 15.715845 C 321.25845 15.994815 320.3466 16.496975 319.20475 16.844585 L 317.12876 17.468065 L 318.94525 17.468065 C 319.9443 17.468065 321.4307 17.858635 322.2483 18.286395 C 324.77867 19.606605 326.29145 18.955925 324.33867 17.393325 C 321.81716 15.371425 317.80954 10.201545 318.12546 9.378175 C 318.2732 8.996465 317.70053 7.889605 316.8531 6.923995 C 316.00563 5.958835 315.31225 5.0247646 315.31225 4.8479846 C 315.31225 4.1129146 317.6125 4.6150646 319.63133 5.7941946 C 320.82395 6.492075 322.47065 7.181625 323.29065 7.328645 C 324.11065 7.477435 325.18 7.952125 325.667 8.397605 C 326.15393 8.835105 326.8353 9.197325 327.181 9.197325 C 327.52676 9.197325 328.73397 9.672025 329.8638 10.245825 C 331.61666 11.138985 331.918 11.539025 331.91792 12.969855 C 331.91773 16.231905 332.18733 17.501815 332.87977 17.501815 C 333.94812 17.501815 337.3165 19.175475 337.78473 19.939245 C 338.01305 20.311215 338.8304 20.618525 339.6012 20.618525 C 340.372 20.620525 341.7033 21.083485 342.5597 21.653035 C 343.4161 22.220725 344.6214 22.685675 345.23827 22.687535 C 346.3743 22.690535 349.04714 25.367725 349.04714 26.501775 C 349.04714 27.448875 343.81446 30.364555 340.9706 31.001765 C 339.5764 31.317935 337.2332 32.257765 335.7635 33.098765 C 334.29383 33.936575 332.70192 34.627625 332.22595 34.627625 C 331.1306 34.627625 326.21122 39.580965 326.21122 40.684465 C 326.21122 41.410685 325.5554 42.288345 321.96343 46.353395 C 321.48253 46.902485 320.25645 48.122005 319.2387 49.074055 C 318.22095 50.025225 317.38826 50.996765 317.38826 51.231455 C 317.38826 52.189715 319.6617 50.974625 320.44176 49.598355 C 320.9032 48.783565 321.7125 47.979415 322.24023 47.809375 C 322.7679 47.641105 323.64376 47.056585 324.18647 46.513695 C 325.50786 45.192335 328.36705 45.219785 329.58472 46.611095 C 330.63676 47.773925 333.57183 47.996225 336.55813 47.142475 C 338.67335 46.540245 339.16763 45.875135 339.17824 43.639795 C 339.18524 42.282125 339.43605 41.899535 340.49736 41.633845 C 341.21853 41.456715 342.04417 40.863345 342.3321 40.326655 C 342.62004 39.786415 343.19783 39.348025 343.6159 39.348025 C 344.1218 39.348025 344.37614 38.798935 344.37614 37.722005 C 344.37614 35.760335 345.4342 31.952295 346.10754 31.489015 C 346.374 31.303035 347.8722 31.860985 349.4369 32.717035 C 351.71413 33.966485 352.69534 34.222345 354.3539 33.999965 C 355.49725 33.851175 357.5057 34.092965 358.8348 34.455175 C 361.7297 35.331955 361.5031 35.323095 361.5031 34.658875 C 361.5031 33.507285 364.6664 31.045585 366.1487 31.045585 C 366.9714 31.045585 367.73166 30.785205 367.8381 30.469035 C 367.94453 30.152865 369.30687 29.808355 370.8656 29.706505 C 375.3945 29.408935 376.57506 29.036965 377.8996 27.457885 C 379.45216 25.613025 381.47003 25.045515 382.97435 26.031665 C 384.78563 27.218855 387.23795 27.563985 388.46094 26.803935 C 389.4066 26.217645 389.8342 26.283185 391.59165 27.287495 C 392.71117 27.929575 393.93117 28.463435 394.3028 28.474595 C 394.6744 28.474595 395.8804 29.265465 396.98275 30.209635 C 398.81194 31.775435 399.1293 31.875865 400.61574 31.357675 C 401.51156 31.041505 402.8219 30.381805 403.5277 29.882215 C 405.2849 28.638345 406.01335 28.735055 407.61546 30.421565 C 408.3723 31.221295 409.76265 32.188315 410.70526 32.571615 C 411.8652 33.046315 412.3239 33.518705 412.12463 34.037865 C 411.9577 34.475365 412.4135 35.386865 413.1779 36.151165 C 414.2638 37.236945 414.4597 37.804635 414.1866 39.072865 C 414.00017 39.940785 413.72456 41.814775 413.57427 43.241535 C 413.4239 44.669165 412.99507 46.187145 412.6214 46.614905 C 412.24765 47.040005 411.86195 48.093025 411.7642 48.948545 C 411.59104 50.462975 411.6562 50.512565 414.2587 50.832285 C 415.7284 51.009405 417.18807 51.319375 417.5024 51.514215 C 418.3015 52.010175 418.21455 53.803575 417.25514 56.619005 C 416.2075 59.693915 416.99485 61.773375 419.36104 62.184315 C 420.647 62.405725 421.0537 62.875105 421.85385 65.043135 C 422.37965 66.468115 423.61273 68.462555 424.59393 69.473065 C 425.5751 70.484455 426.3779 71.618945 426.3779 71.993575 C 426.3779 72.365535 426.9618 73.369845 427.6754 74.217395 C 429.0306 75.828355 429.4022 78.04509 428.37425 78.38783 C 427.3096 78.74208 429.47524 81.38924 430.83033 81.38924 C 431.657 81.38924 432.4732 82.00918 433.3656 83.32611 C 434.09573 84.40038 434.68183 84.89722 434.68183 84.44112 C 434.68183 83.98945 433.92275 82.61672 432.9951 81.39012 C 432.06736 80.16352 431.0106 78.76157 430.64674 78.27447 C 429.84754 77.204635 430.3263 75.679575 431.4615 75.679575 C 433.06426 75.679575 435.669 77.99107 436.42635 80.08559 C 437.5764 83.265 437.8531 87.82335 436.97243 89.08006 C 435.83403 90.7052 429.9189 94.36374 428.42924 94.36374 C 427.69735 94.36374 426.3071 94.94826 425.33983 95.6612 C 424.3726 96.37856 423.2733 96.95865 422.89696 96.95865 C 422.52066 96.95865 421.6579 98.2127 420.97974 99.74661 C 420.3016 101.28053 419.4871 102.69577 419.1698 102.89061 C 418.1727 103.5017 418.5408 104.22526 419.8542 104.22526 C 420.76713 104.22526 421.1614 104.55294 421.28145 105.39252 C 421.4692 106.71477 422.70595 106.95832 423.25313 105.7822 C 424.8198 102.41237 425.2515 101.8624 426.65333 101.4426 C 427.5009 101.19462 429.0261 100.64553 430.0428 100.23283 C 431.4942 99.64831 432.665 99.59517 435.4923 99.976 C 439.39964 100.50737 439.87174 100.41881 439.87174 99.2055 C 439.87174 98.58555 440.19703 98.47928 441.299 98.76268 C 442.084 98.95752 443.3101 99.1258 444.0237 99.1258 C 445.00096 99.1228 445.6673 99.68373 446.7234 101.40806 C 447.4947 102.66654 448.2754 104.4936 448.4585 105.46957 C 448.838 107.49324 448.70575 107.57206 444.0237 108.12735 C 438.81126 108.73844 429.3319 110.47605 421.28633 112.28096 C 380.89384 121.33921 347.1921 138.95265 321.5497 164.4075 C 307.18493 178.66705 295.09915 196.05023 288.62594 211.764 C 286.19155 217.67382 286.2956 218.10247 288.91625 212.96137 C 302.67093 185.97617 328.37264 165.70848 364.5564 153.31583 C 386.9165 145.65777 415.3328 140.91787 440.6503 140.62296 C 448.1822 140.53436 449.35933 140.62496 448.69476 141.23404 C 448.26664 141.62372 445.9102 143.6164 443.4584 145.65157 L 439.00054 149.35174 L 430.48343 149.644 C 389.97086 151.01585 353.68364 160.90393 328.88014 177.3333 C 320.99372 182.55586 318.01822 185.01083 310.9007 192.16673 C 300.95995 202.15932 294.6309 211.65595 289.64625 224.05923 C 288.34827 227.28913 287.2937 230.0833 287.30275 230.26928 C 287.31175 230.45526 288.71124 227.8338 290.41262 224.4436 C 294.74935 215.80248 298.59485 210.25488 304.49613 204.12897 C 317.83195 190.2821 335.35422 182.4 361.24354 178.59797 C 367.37307 177.6955 401.5311 177.0481 403.48903 177.8009 C 404.68467 178.26143 404.58383 178.39427 400.9275 181.47893 L 397.1213 184.68226 L 386.1889 184.68226 C 355.39263 184.77086 350.96977 185.13393 339.9646 188.66406 C 328.58526 192.31375 318.78847 198.29354 310.3817 206.72032 C 307.5272 209.58092 303.86235 213.79475 302.2376 216.08234 C 298.6491 221.13487 293.17447 231.59684 290.9794 237.59522 C 289.4458 241.78692 263.93135 327.51963 263.93135 328.48143 C 263.93135 328.7294 271.83943 328.94196 281.82187 328.94196 L 299.71236 328.94196 L 300.8632 325.1789 C 301.49615 323.11007 305.5407 309.7388 309.85105 295.46684 L 317.6881 269.51694 L 336.0923 269.37524 L 354.49655 269.23354 L 358.1009 256.39453 C 360.0833 249.33428 361.8015 243.26504 361.91916 242.90902 C 362.0876 242.39535 358.2571 242.25365 343.9126 242.25365 C 327.5447 242.25365 325.69215 242.16505 325.69215 241.43 C 325.69215 240.97834 326.40473 238.46226 327.27567 235.85142 C 331.4794 223.248 340.08575 214.85397 352.69427 211.0617 C 356.31056 209.97236 357.75317 209.88026 374.0497 209.6934 L 391.5269 209.4897 L 391.2239 210.69504 C 391.05733 211.3504 390.49097 212.45568 389.96546 213.13673 C 389.4036 213.86295 389.00997 215.2286 389.00997 216.44722 L 389.00997 218.5187 L 387.0637 218.20874 C 384.1958 217.75707 383.3075 218.58956 385.84964 219.34766 C 388.936 220.27846 390.04796 222.009 390.04796 225.90046 C 390.04796 228.9913 390.14813 229.24106 392.5132 232.02194 C 395.4856 235.51753 397.83294 239.22036 397.83294 240.4142 C 397.83294 242.22265 396.8012 243.2978 395.064 243.2978 C 393.4568 243.2978 392.12394 244.0506 392.12394 244.95837 C 392.12394 245.6403 394.0947 245.42775 394.3318 244.7281 C 394.50203 244.2233 394.74035 244.23215 395.41303 244.8167 C 396.6422 245.83075 396.4673 246.92716 394.70453 249.25726 C 393.8365 250.40415 393.162 250.9435 393.162 250.48828 C 393.162 250.04547 392.81826 249.3963 392.39785 249.04736 C 391.27766 248.11656 389.6492 249.747 390.5789 250.86556 C 390.92766 251.2818 391.6048 251.6272 392.08363 251.6272 C 393.5562 251.6272 394.1999 252.76347 394.1999 255.36457 C 394.1999 256.73465 394.37506 257.87445 394.5891 257.89837 C 394.8032 257.89837 395.5136 258.00464 396.1678 258.0755 C 397.60833 258.2349 400.1132 260.023 400.3131 261.03616 C 400.3928 261.4347 400.10524 262.23176 399.6742 262.7977 C 399.0703 263.5859 398.78955 263.67446 398.45 263.1608 C 398.20767 262.7977 397.6222 262.63827 397.14896 262.82425 C 396.5406 263.05452 396.0206 262.68255 395.37394 261.54363 C 393.95567 259.04437 392.8144 258.9886 390.5675 261.3045 C 389.49973 262.40535 388.24535 263.60804 387.78 263.97557 C 386.75694 264.7815 386.6637 266.16043 387.6319 266.16043 C 388.01583 266.16043 388.76837 266.64752 389.30415 267.23736 C 389.92844 267.92815 390.707 268.23192 391.47163 268.08756 C 392.29323 267.92815 393.21436 268.37096 394.42864 269.47623 C 396.6414 271.50433 397.1414 273.32873 396.05857 275.42325 C 395.1513 277.1777 394.9903 279.18276 395.69564 279.94263 C 396.2001 280.48287 398.40083 290.6384 398.72747 293.92942 C 398.84083 295.071 398.6171 297.99004 398.23046 300.41667 C 397.3283 306.07763 397.7293 308.53172 399.84534 310.29767 C 400.7366 311.0416 401.4658 311.90332 401.4658 312.2124 C 401.4658 312.52237 400.64844 313.75252 399.6493 314.94812 C 398.6502 316.1446 397.8328 317.67232 397.8328 318.34452 C 397.8328 319.12387 397.18567 320.06 396.0163 320.95182 C 395.01723 321.71346 394.1998 322.68766 394.1998 323.11542 C 394.1998 323.54052 393.46554 324.7308 392.5679 325.75194 C 390.2156 328.43187 389.17487 331.1924 388.5469 336.42115 C 388.0164 340.8387 387.9009 341.12563 385.7241 343.45395 C 382.14666 347.27723 381.38873 352.90896 383.60556 359.19163 C 384.62456 362.0797 384.5328 362.9529 383.0413 364.5621 C 382.3277 365.3326 381.74383 366.2563 381.74383 366.615 C 381.74383 366.9781 380.9264 368.2472 379.92734 369.4437 C 378.92826 370.6393 378.11084 372.0457 378.11084 372.5682 C 378.11084 373.09074 377.556 373.9569 376.8779 374.49004 C 376.19975 375.0214 375.13973 376.38264 374.5223 377.5118 C 373.90493 378.6401 372.9624 380.26436 372.4279 381.12077 C 371.59017 382.4625 370.93243 385.1513 370.86447 387.5106 C 370.85027 388.02427 370.2689 388.10397 368.5606 387.84714 C 366.52144 387.53717 366.23814 387.62573 365.92015 388.6265 C 365.59557 389.6485 365.4644 389.68306 364.44166 389.0073 C 363.8025 388.59107 363.20016 387.50883 363.0424 386.50895 L 362.7655 384.75363 L 361.8614 386.43987 C 360.91647 388.20316 360.0386 388.4901 358.35483 387.58854 C 357.796 387.2874 357.35094 387.26085 357.35094 387.49114 C 357.35094 388.4538 359.1221 389.3917 361.03873 389.44395 C 363.3187 389.54135 365.6549 390.84414 365.6549 392.0867 C 365.6549 393.3071 367.17377 394.8215 368.05836 394.4823 C 368.47027 394.3229 369.16886 393.4957 369.61076 392.6411 C 370.1972 391.5066 370.5691 391.24267 370.98767 391.6616 C 371.4062 392.0778 371.3243 392.7314 370.684 394.07315 C 369.3844 396.79824 369.5634 398.22854 371.36486 399.51093 C 374.1238 401.47615 374.2418 402.23425 372.58743 407.3647 C 371.77176 409.8941 370.84856 411.9638 370.536 411.9647 C 369.417 411.9647 368.117 409.95253 368.37335 408.6108 C 368.6957 406.92544 368.08986 406.92987 366.98074 408.6108 C 366.26524 409.7028 365.7723 409.91 364.1963 409.77895 C 362.70013 409.65496 362.31504 409.41584 362.4354 408.7038 C 362.688 407.2044 360.97506 406.95733 359.92954 408.3407 C 359.12317 409.40964 355.76565 410.93204 352.35785 411.7743 C 351.5521 411.9691 350.6942 411.47316 349.1548 409.9224 C 347.9984 408.75516 346.71223 407.7987 346.29664 407.7987 C 345.881 407.7987 345.25504 407.4533 344.90555 407.03703 C 344.4616 406.4968 343.6213 406.34624 342.11727 406.5145 C 336.7114 407.1256 336.3411 407.09017 336.1703 405.89457 C 336.0669 405.16835 336.6915 404.0073 337.91744 402.6514 C 338.967 401.48943 339.69673 400.53827 339.53907 400.53827 C 338.9416 400.53827 332.76965 404.99565 332.58024 405.56423 C 332.47113 405.8919 332.8786 406.317 333.48592 406.5101 C 334.2705 406.75806 334.4828 407.10346 334.2196 407.72163 C 334.0158 408.19987 333.7377 409.2343 333.6015 410.0287 C 333.44252 410.9586 332.81036 411.7557 331.83602 412.2596 C 331.00122 412.6847 329.50375 414.3178 328.50822 415.87387 C 327.5127 417.4308 326.355 418.70435 325.9356 418.70435 C 324.8376 418.70435 324.9811 416.49293 326.1779 414.9714 C 327.0477 413.86526 327.1416 413.15055 326.87693 409.6514 C 326.59353 405.9034 326.42535 405.43935 324.57464 403.30144 C 323.1108 401.6099 322.57812 400.5285 322.57812 399.247 C 322.57812 397.9832 322.20447 397.20563 321.22924 396.43956 L 319.88037 395.3777 L 320.9047 393.6773 C 321.52293 392.64994 322.0577 390.53505 322.2537 388.34223 C 322.54833 385.0459 322.50626 384.80236 321.7998 385.71633 C 321.3716 386.2743 321.02123 387.5044 321.02123 388.45913 C 321.02123 389.41207 320.43734 391.3454 319.72374 392.75356 C 319.0101 394.1617 318.42624 396.12605 318.42624 397.11707 C 318.42624 399.3205 317.9162 399.67566 314.27425 400.01486 L 311.41977 400.2717 L 313.70645 401.41504 C 316.2882 402.7054 317.55234 402.3972 318.53526 400.2398 C 319.2806 398.60316 321.0205 398.53585 321.02317 400.1424 C 321.02417 400.78006 321.5195 402.1209 322.1237 403.11193 C 323.09126 404.699 323.14653 405.1241 322.587 406.6713 C 322.0465 408.16535 322.0915 408.73747 322.889 410.50607 L 323.82626 412.58465 L 321.3934 414.88287 C 319.26342 416.8959 318.68493 417.17577 316.7471 417.1315 C 315.52972 417.1315 313.77467 417.23776 312.84695 417.4326 C 310.6834 417.8754 310.64547 417.0872 312.7172 414.7279 C 313.5736 413.7528 314.2742 412.7529 314.2742 412.50583 C 314.2742 412.2667 313.22103 411.97445 311.93382 411.87703 C 309.9732 411.7176 309.5411 411.87703 309.27085 412.70067 C 309.09346 413.2586 307.9863 414.61895 306.8105 415.72156 C 304.96536 417.4521 304.4596 417.67526 303.11574 417.3529 C 300.2794 416.67096 291.9481 416.7861 291.34475 417.5123 C 291.02522 417.89313 289.6578 418.1854 288.10206 418.1854 C 286.0476 418.1854 284.99642 418.49536 283.6533 419.48284 C 282.68604 420.2002 281.2454 420.7803 280.4518 420.7803 C 279.37357 420.7803 278.8055 421.16997 278.20382 422.33634 C 277.23485 424.21123 276.7601 424.27145 275.5115 422.68174 C 274.98834 422.0175 274.28367 421.56584 273.9456 421.6783 C 273.60754 421.79345 272.90923 421.6783 272.39386 421.3772 C 271.56686 420.94325 271.45386 421.12037 271.43155 422.9005 C 271.40325 425.14823 271.39085 425.13406 272.76667 424.3981 C 273.55913 423.973 273.8682 424.097 274.36724 425.05346 C 275.1876 426.6104 275.82265 426.9859 277.68483 427.0125 L 279.2418 427.0125 L 277.57504 428.42595 C 276.6583 429.19645 275.44694 430.9332 274.8831 432.2705 C 273.64947 435.1966 272.12362 436.27885 267.6081 437.4284 C 264.41377 438.2432 264.2007 438.38754 264.34154 439.65665 C 264.54223 441.4642 263.2843 441.89464 260.99436 440.80266 C 259.30086 439.99673 259.09356 440.0056 257.6295 440.90006 C 256.12522 441.7857 256.0432 441.7857 255.34053 440.80266 C 254.93978 440.25356 254.73573 439.31745 254.88726 438.71345 C 255.07466 437.9695 254.73918 437.2176 253.8381 436.37095 C 252.35346 434.9761 252.25165 434.2251 253.11143 431.0111 C 253.54415 429.3922 253.55548 428.3507 253.15213 427.2401 L 252.59515 425.7062 L 252.55445 427.3738 C 252.53235 428.2949 252.04336 430.2973 251.46865 431.83386 L 250.42382 434.6254 L 251.50428 437.06795 C 252.7766 439.9445 252.52952 441.88933 250.67002 443.63666 C 249.17438 445.04126 249.09266 445.60806 250.26227 446.46276 C 250.75716 446.82586 250.99008 447.44666 250.80835 447.9196 C 250.4696 448.8053 245.94153 450.3587 243.71174 450.3587 C 241.71007 450.3587 240.05747 451.7332 240.05747 453.3982 C 240.05747 455.0065 239.22303 456.0666 237.95812 456.0666 C 237.48856 456.0666 236.68165 456.536 236.165 457.1054 C 235.577 457.7608 234.5665 458.1434 233.4638 458.1434 C 232.49477 458.1434 230.99948 458.5065 230.1409 458.9493 C 228.21555 459.9448 221.56344 459.8172 220.50953 458.7633 C 219.7563 458.0105 219.60412 456.1675 220.21568 455.2066 C 220.42637 454.8701 221.649 454.0464 222.93248 453.3654 C 224.78423 452.3823 225.2383 451.8775 225.13163 450.9219 C 225.05813 450.2666 225.4664 448.9594 226.03992 448.0321 C 226.61337 447.10126 227.08258 446.23066 227.08258 446.09166 C 227.08258 445.94996 225.4578 445.91456 223.47196 445.99466 C 221.4861 446.09166 219.7207 445.90566 219.54883 445.65806 C 219.37702 445.37466 218.75043 445.15326 218.15645 445.15326 C 217.56254 445.15326 216.80942 444.79016 216.48294 444.34736 C 215.95262 443.62116 215.74397 443.64776 214.52735 444.60416 C 212.83554 445.93526 212.43105 445.93976 211.25313 444.60416 C 210.73646 444.03736 209.82447 443.56976 209.22644 443.57336 C 208.34594 443.57336 208.28582 443.67956 208.91053 444.06926 C 209.54252 444.46786 209.57413 444.83976 209.08535 446.13726 C 208.4864 447.7243 208.8643 448.1016 210.70072 447.7465 C 210.96774 447.6495 211.72465 447.7465 212.3827 447.9502 C 213.4455 448.2158 213.56516 448.5258 213.45414 450.7062 C 213.33857 452.9779 213.42584 453.1745 214.62666 453.318 C 215.3403 453.407 216.27448 453.6014 216.70266 453.7431 C 217.36104 453.9645 217.34235 454.0885 216.5815 454.5136 C 215.832 454.9298 215.78798 455.1867 216.31714 456.036 C 216.66652 456.5939 217.33823 457.0527 217.80993 457.0527 C 219.13952 457.0527 219.3862 458.5211 218.24787 459.6591 C 217.68346 460.2259 216.9621 460.6855 216.64488 460.6855 C 216.26503 460.6855 216.1864 461.3143 216.41444 462.5321 C 216.73636 464.2476 216.5852 464.5407 214.26644 466.6928 C 212.89457 467.9654 211.18826 469.1292 210.47464 469.2788 C 209.761 469.4294 208.13567 470.067 206.86277 470.6976 C 205.58986 471.3264 204.336 471.8436 204.0764 471.8436 C 203.8168 471.8436 203.34025 471.0466 203.01727 470.067 C 202.69437 469.0893 202.10572 468.1833 201.70917 468.0531 C 201.26228 467.9026 201.12997 468.0531 201.36103 468.4162 C 201.56606 468.7528 201.93625 469.7252 202.1836 470.5878 C 202.5429 471.841 202.43203 472.3573 201.63283 473.1561 C 200.8044 473.9798 200.38584 474.0683 199.20048 473.6167 C 197.93133 473.1296 197.63302 473.2358 196.5745 474.5377 C 195.60388 475.7262 195.4367 476.3975 195.6813 478.1254 C 195.8989 479.6629 195.7681 480.4289 195.2089 480.893 C 194.56008 481.4332 194.31028 481.2384 193.65858 479.6753 C 192.88976 477.8358 192.8492 477.8163 189.77063 477.8163 C 187.20506 477.8163 186.52662 477.6303 185.9012 476.7332 C 185.28 475.8476 184.9522 475.7528 184.08938 476.2107 C 183.51 476.5206 182.39784 476.7775 181.61786 476.7775 C 179.1189 476.7775 181.40495 477.6631 184.19102 477.7765 C 184.90652 477.7765 185.05442 478.051 184.7649 478.7232 C 184.5505 479.228 184.3344 480.2155 184.28463 480.9293 C 184.0765 483.9174 182.9627 485.5612 180.7413 486.1599 C 178.88847 486.6647 178.5237 486.6204 177.93513 485.8056 C 177.56307 485.2919 177.25868 484.6915 177.25868 484.4603 C 177.25868 484.2301 176.8095 484.0441 176.26052 484.0441 C 175.71152 484.0441 174.54032 483.4419 173.65786 482.6944 C 172.77542 481.9505 171.71283 481.4749 171.2966 481.6343 C 170.88034 481.7937 169.84617 481.3332 168.9984 480.6282 C 167.49284 479.3609 167.4442 479.3547 166.90835 480.3537 C 166.0957 481.8716 166.23633 482.4854 167.39775 482.4854 C 168.74513 482.4854 168.79456 484.3319 167.46685 485.0422 C 166.78482 485.4053 166.5715 485.9544 166.74762 486.8719 C 166.90766 487.7044 166.74262 488.2482 166.28993 488.3677 C 165.31464 488.6246 162.65887 489.5439 161.55683 490.0035 C 160.84381 490.3046 160.47654 490.0035 159.8674 488.5201 C 158.94626 486.3148 156.81543 484.7003 155.8481 485.4735 C 155.4927 485.7658 153.83252 486.1554 152.15878 486.3591 C 149.21133 486.7134 149.0606 486.678 147.36583 485.0316 C 145.2146 482.945 144.32368 483.4543 146.37557 485.5984 C 147.84271 487.1305 147.84624 487.15 146.85674 488.2615 C 146.30853 488.8726 144.72867 489.9105 143.346 490.557 C 141.84854 491.2567 140.31952 492.4868 139.56455 493.5974 C 138.36411 495.3642 136.7775 496.1108 136.7775 494.9099 C 136.7775 494.5999 136.33884 494.4937 135.78134 494.6708 C 135.06203 494.8922 134.68843 494.6708 134.43687 493.8914 C 134.13292 492.9341 133.97864 492.8845 133.22725 493.5106 C 131.86123 494.6469 129.60106 495.4652 127.83302 495.4652 L 126.20333 495.4652 L 127.53963 494.0384 C 128.27461 493.2591 129.05105 492.0272 129.26512 491.3134 C 129.47918 490.596 130.0893 489.4597 130.62092 488.7787 C 131.8692 487.1801 131.85438 486.4636 130.58722 487.142 C 130.03706 487.4431 129.21957 487.5317 128.77071 487.3634 C 128.3218 487.1863 127.9546 487.2664 127.9546 487.6026 C 127.9546 488.4528 124.82732 491.8279 124.04334 491.8279 C 123.66393 491.8279 123.19756 491.332 123.00686 490.7359 C 122.7456 489.9211 123.11774 489.1746 124.51606 487.7434 L 126.37194 485.8428 L 124.84546 485.1609 C 123.0952 484.3904 121.98614 484.8509 121.98614 486.3733 C 121.98614 487.2058 121.63286 487.4148 120.16964 487.4325 C 119.17056 487.4325 117.53572 487.9727 116.53666 488.598 C 114.2028 490.0682 113.95262 490.0416 113.88866 488.3146 C 113.83636 486.9224 113.82136 486.9295 113.28103 488.6246 C 112.79225 490.1532 112.55773 490.325 111.30496 490.0735 C 110.33476 489.8786 109.79085 490.0735 109.59164 490.5517 C 109.43107 490.968 108.69256 491.5888 107.95054 491.928 C 106.31344 492.6719 105.65777 491.928 105.6456 489.357 C 105.635 487.3307 105.33208 487.2598 103.98793 488.9673 C 103.42404 489.6847 102.4293 490.2656 101.76516 490.2656 C 100.95365 490.2656 100.58642 490.5579 100.63506 491.1424 C 100.67496 491.6295 100.16081 492.2999 99.49296 492.6409 C 98.68066 493.0572 98.50887 493.3406 98.97389 493.5 C 99.54698 493.6948 99.54016 493.8897 98.93492 494.623 C 97.99223 495.7645 94.38927 495.6069 94.64717 494.437 C 94.78001 493.8347 94.6082 493.8613 93.82787 494.5698 C 92.73843 495.5555 90.58659 495.7814 90.58659 494.9152 Z M 121.72935 484.1634 C 121.72935 483.8711 121.482 483.6408 121.17973 483.6408 C 120.87746 483.6408 120.77446 483.8711 120.95088 484.1634 C 121.1273 484.4468 121.37466 484.6859 121.5005 484.6859 C 121.62644 484.6859 121.72935 484.4556 121.72935 484.1634 Z" fill="white"/>
      <path d="M 430.48813 149.67166 C 389.97556 151.04262 353.68826 160.93335 328.88476 177.36094 C 320.99833 182.58528 318.0232 185.03937 310.90564 192.1944 C 300.9649 202.18786 294.63367 211.68538 289.64902 224.08865 C 288.35104 227.31767 287.2984 230.11184 287.30746 230.2987 C 287.31646 230.4847 288.71466 227.86322 290.41604 224.4739 C 294.75276 215.8328 298.598 210.28342 304.49927 204.15573 C 317.8351 190.31065 335.3585 182.42587 361.2478 178.62562 C 367.37734 177.72316 401.5362 177.07488 403.49413 177.8197 C 404.68977 178.27137 404.5893 178.42193 400.93293 181.4995 L 400.7505 181.65006 C 402.73463 179.98064 406.331 177.0244 408.7652 175.0574 C 421.4008 164.84785 438.8374 150.273 438.8374 149.92141 C 438.8374 149.7 440.88093 147.8269 443.3786 145.75274 Z M 267.24357 286.19093 C 267.15767 286.09353 266.37672 287.4999 264.86145 290.3171 C 257.78783 303.4652 251.03666 311.33934 240.1685 319.1081 C 226.53608 328.8527 207.21824 335.07073 183.75107 337.27064 C 176.4568 337.9526 154.50332 337.96143 145.80946 337.27064 C 137.3197 336.6064 124.72703 335.2204 123.10668 334.76696 L 121.87336 334.42156 C 120.98386 335.72256 120.0514 337.0953 118.78506 338.98965 L 100.62013 368.92933 C 104.5806 368.92933 121.00598 367.66553 128.7359 366.8215 C 200.02017 359.0386 248.21334 332.2562 265.45614 290.83696 C 266.72142 287.79836 267.32912 286.25736 267.24357 286.1812 Z M 130.32736 328.7854 C 130.11118 328.7874 129.86045 328.7854 129.682 328.7854 C 129.85992 328.7854 130.1134 328.7854 130.32736 328.7854 Z M 129.60761 328.7854 C 129.29082 328.7854 129.0161 328.874 128.83383 328.9271 C 128.82143 328.9271 128.81253 328.9271 128.80013 328.9271 C 128.9964 328.8297 129.2789 328.80312 129.60765 328.77655 Z M 128.8001 328.93596 C 128.09388 329.20165 127.5944 329.18394 127.16131 328.93596 C 127.56197 329.24593 128.02613 329.2548 128.8001 328.93596 Z" fill="white" fill-opacity=".5"/>
    </g>
  </g>
</svg>
