<?xml version="1.0" encoding="UTF-8" standalone="no"?>
<!DOCTYPE svg PUBLIC "-//W3C//DTD SVG 1.1//EN" "http://www.w3.org/Graphics/SVG/1.1/DTD/svg11.dtd">
<svg xmlns:dc="http://purl.org/dc/elements/1.1/" xmlns:xl="http://www.w3.org/1999/xlink" xmlns="http://www.w3.org/2000/svg" version="1.1" viewBox="0 0 20 20">
  <defs/>
  <g id="Elipsis_collapse" stroke-opacity="1" stroke="none" fill="none" fill-opacity="1" stroke-dasharray="none">
    <title>collapse</title>
    <circle cx="10" cy="10" r="9.00001438111707" stroke="#2b57ab" stroke-linecap="square" stroke-linejoin="miter" stroke-width="1"/>
    <path d="M 13.939341 11.060659 C 14.525127 11.646448 15.474873 11.646448 16.060659 11.060659 C 16.646448 10.474873 16.646448 9.525127 16.060659 8.939341 C 15.474873 8.353552 14.525127 8.353552 13.939341 8.939341 C 13.353552 9.525127 13.353552 10.474873 13.939341 11.060659 M 8.939341 11.060659 C 9.525127 11.646448 10.474873 11.646448 11.060659 11.060659 C 11.646448 10.474873 11.646448 9.525127 11.060659 8.939341 C 10.474873 8.353552 9.525127 8.353552 8.939341 8.939341 C 8.353552 9.525127 8.353552 10.474873 8.939341 11.060659 M 3.939341 11.060659 C 4.525127 11.646448 5.474873 11.646448 6.060659 11.060659 C 6.646448 10.474873 6.646448 9.525127 6.060659 8.939341 C 5.474873 8.353552 4.525127 8.353552 3.939341 8.939341 C 3.353552 9.525127 3.353552 10.474873 3.939341 11.060659" fill="#2b57ab"/>
  </g>
</svg>
