<?xml version="1.0" encoding="UTF-8" standalone="no"?>
<!DOCTYPE svg PUBLIC "-//W3C//DTD SVG 1.1//EN" "http://www.w3.org/Graphics/SVG/1.1/DTD/svg11.dtd">
<svg xmlns:dc="http://purl.org/dc/elements/1.1/" xmlns:xl="http://www.w3.org/1999/xlink" xmlns="http://www.w3.org/2000/svg" version="1.1" viewBox="0 0 20 20">
  <defs/>
  <g id="Elipsis_hover" stroke-opacity="1" stroke="none" fill="none" fill-opacity="1" stroke-dasharray="none">
      <title>expand</title>
      <path d="M 16.363954 3.636046 C 12.849238 .121312 7.150762 .121312 3.636046 3.636046 C .121312 7.150762 .121312 12.849238 3.636046 16.363954 C 7.150762 19.878688 12.849238 19.878688 16.363954 16.363954 C 19.878688 12.849238 19.878688 7.150762 16.363954 3.636046 Z M 11.060659 6.060659 C 10.474873 6.646448 9.525127 6.646448 8.939341 6.060659 C 8.353552 5.474873 8.353552 4.525127 8.939341 3.939341 C 9.525127 3.353552 10.474873 3.353552 11.060659 3.939341 C 11.646448 4.525127 11.646448 5.474873 11.060659 6.060659 Z M 11.060659 11.060659 C 10.474873 11.646448 9.525127 11.646448 8.939341 11.060659 C 8.353552 10.474873 8.353552 9.525127 8.939341 8.939341 C 9.525127 8.353552 10.474873 8.353552 11.060659 8.939341 C 11.646448 9.525127 11.646448 10.474873 11.060659 11.060659 Z M 11.060659 16.060659 C 10.474873 16.646448 9.525127 16.646448 8.939341 16.060659 C 8.353552 15.474873 8.353552 14.525127 8.939341 13.939341 C 9.525127 13.353552 10.474873 13.353552 11.060659 13.939341 C 11.646448 14.525127 11.646448 15.474873 11.060659 16.060659 Z" fill="#6d93cd"/>
  </g>
</svg>
