<?xml version="1.0" encoding="UTF-8" standalone="no"?>
<!DOCTYPE svg PUBLIC "-//W3C//DTD SVG 1.1//EN" "http://www.w3.org/Graphics/SVG/1.1/DTD/svg11.dtd">
<svg version="1.1" xmlns:xl="http://www.w3.org/1999/xlink" xmlns:dc="http://purl.org/dc/elements/1.1/" xmlns="http://www.w3.org/2000/svg" viewBox="0 0 20 20" width="20" height="20">
  <defs/>
  <g id="Expand_hover" fill="none" stroke-opacity="1" stroke="none" fill-opacity="1" stroke-dasharray="none">
    <title>Expand hover</title>
    <g id="Expand_hover_expand">
      <title>expand hover</title>
      <g id="Graphic_27">
        <path d="M 2 8881784e-22 L 4440892e-22 2220446e-21 L 2220446e-21 2 L 31086245e-22 6 L 1 6 L 1 1 L 6 1 L 6 35527137e-22 Z" fill="black"/>
      </g>
      <g id="Graphic_31">
        <path d="M 20 2 L 20 8881784e-22 L 18 26645353e-22 L 12 0 L 12 2 L 16.585786 2 L 11.050253 7.535534 L 12.464466 8.949747 L 18 3.4142136 L 18 8 L 20 8 Z" fill="black"/>
      </g>
      <g id="Graphic_30">
        <path d="M 17763568e-22 18 L 26645353e-22 20 L 2 20 L 8 20 L 8 18 L 3.4142136 18 L 8.949747 12.464466 L 7.535534 11.050253 L 2 16.585786 L 2 12 L 17763568e-22 12 Z" fill="black"/>
      </g>
      <g id="Graphic_33">
        <path d="M 18 20 L 20 20 L 20 18 L 20 14 L 19 14 L 19 19 L 14 19 L 14 20 Z" fill="black"/>
      </g>
    </g>
  </g>
</svg>
