<?xml version="1.0" encoding="UTF-8" standalone="no"?>
<!DOCTYPE svg PUBLIC "-//W3C//DTD SVG 1.1//EN" "http://www.w3.org/Graphics/SVG/1.1/DTD/svg11.dtd">
<svg version="1.1" xmlns:dc="http://purl.org/dc/elements/1.1/" xmlns="http://www.w3.org/2000/svg" xmlns:xl="http://www.w3.org/1999/xlink" viewBox="0 0 20 20" width="20" height="20">
  <defs/>
  <g id="Expand" stroke-opacity="1" stroke="none" stroke-dasharray="none" fill="none" fill-opacity="1">
    <title>Expand</title>
    <g id="Expand_expand">
      <title>expand</title>
      <g id="Graphic_27">
        <path d="M 5 3 L 3 3 L 3 5 L 3 9 L 4 9 L 4 4 L 9 4 L 9 3 Z" fill="black"/>
      </g>
      <g id="Graphic_31">
        <path d="M 20 2 L 20 8881784e-22 L 18 26645353e-22 L 12 0 L 12 2 L 16.585786 2 L 11.050253 7.535534 L 12.464466 8.949747 L 18 3.4142136 L 18 8 L 20 8 Z" fill="black"/>
      </g>
      <g id="Graphic_30">
        <path d="M 17763568e-22 18 L 26645353e-22 20 L 2 20 L 8 20 L 8 18 L 3.4142136 18 L 8.949747 12.464466 L 7.535534 11.050253 L 2 16.585786 L 2 12 L 17763568e-22 12 Z" fill="black"/>
      </g>
      <g id="Graphic_33">
        <path d="M 15 17 L 17 17 L 17 15 L 17 11 L 16 11 L 16 16 L 11 16 L 11 17 Z" fill="black"/>
      </g>
    </g>
  </g>
</svg>
