<?xml version="1.0" encoding="UTF-8" standalone="no"?>
<!DOCTYPE svg PUBLIC "-//W3C//DTD SVG 1.1//EN" "http://www.w3.org/Graphics/SVG/1.1/DTD/svg11.dtd">
<svg xmlns:dc="http://purl.org/dc/elements/1.1/" version="1.1" xmlns="http://www.w3.org/2000/svg" xmlns:xl="http://www.w3.org/1999/xlink" viewBox="0 0 100 100" width="100" height="100">
  <defs/>
  <g id="party-icon--alba" stroke-opacity="1" stroke="none" stroke-dasharray="none" fill="none" fill-opacity="1">
    <title>Alba Party</title>
    <g id="alba_party-icon">
      <title>Alba Party logo</title>
      <path d="M 89.92941 5 L 50.02546 24.829015 L 10.070815 5 L 10.070815 33.131774 L 21.463974 38.895536 L 10.070815 44.6593 L 10.070815 72.73783 L 50.02546 52.90882 L 89.92941 72.73783 L 89.92941 44.6593 L 78.64241 38.895536 L 89.92941 33.131774 Z" fill="#373151"/>
      <path d="M 81.87383 91.29798 L 75.19676 91.29798 L 74.18991 94.99937 L 67.142075 94.99937 L 74.61392 72.73783 L 82.45654 72.73783 L 89.92839 94.99937 L 82.88056 94.99937 Z M 80.39011 85.69267 L 78.58835 79.03018 L 76.7336 85.69267 Z M 59.14012 94.99937 L 50.02578 94.99937 L 50.02578 72.73783 L 59.087195 72.73783 C 63.379594 72.73783 66.24119 75.117365 66.24119 78.60744 C 66.24119 80.66969 65.075385 82.41467 63.11467 83.41955 C 65.552255 84.42425 67.03598 86.38066 67.03598 88.81318 C 66.98299 92.46195 63.85653 95 59.14012 95 Z M 56.59656 77.65484 L 56.59656 81.40946 L 57.762366 81.40946 C 58.98116 81.40946 59.88204 80.66906 59.88204 79.55864 C 59.88204 78.44823 59.034146 77.70795 57.762366 77.70795 L 56.59656 77.70795 Z M 58.027294 86.22126 L 56.54357 86.22126 L 56.54357 90.08141 L 58.027294 90.08141 C 59.2992 90.08141 60.199955 89.28827 60.199955 88.12487 C 60.199955 87.01446 59.2992 86.22132 58.027294 86.22132 Z M 48.32986 88.65365 L 47.42898 94.99924 L 34.604705 94.99924 L 34.604705 72.73771 L 41.22853 72.73771 L 41.22853 88.60168 L 48.32929 88.60168 Z M 24.802 91.2976 L 18.178173 91.2976 L 17.171353 94.99899 L 10.070593 94.99899 L 17.542442 72.73745 L 25.437985 72.73745 L 32.909833 94.99899 L 25.809074 94.99899 Z M 23.31815 85.69229 L 21.516516 79.0298 L 19.661768 85.69229 Z" fill="#373151"/>
  </g>
</svg>
