<?xml version="1.0" encoding="UTF-8" standalone="no"?>
<!DOCTYPE svg PUBLIC "-//W3C//DTD SVG 1.1//EN" "http://www.w3.org/Graphics/SVG/1.1/DTD/svg11.dtd">
<svg version="1.1" xmlns:xl="http://www.w3.org/1999/xlink" xmlns:dc="http://purl.org/dc/elements/1.1/" xmlns="http://www.w3.org/2000/svg" viewBox="0 0 100 100" width="100" height="100">
  <defs/>
  <g id="party-icon--conservative" fill="none" stroke-opacity="1" stroke="none" fill-opacity="1" stroke-dasharray="none">
    <title>conservative</title>
      <path d="M 19.774296 50.9633 C 21.445158 50.7113 15.98947 53.9873 11.466143 57.5423 C 6.379708 61.5113 5.004247 63.0503 5.6135116 65.8313 C 6.222776 68.6123 10.136839 73.1393 12.204646 73.0853 C 14.410922 73.0223 17.115687 71.0963 17.115687 71.0963 L 23.069863 67.1633 C 24.334548 66.3263 22.55291 70.2323 23.872984 71.5913 C 25.71924 73.4903 26.476205 73.1033 27.88859 72.6713 C 29.300977 72.2393 30.98107 71.5823 34.94129 70.2413 C 39.26153 68.7743 41.56935 67.8203 42.58479 67.7303 C 43.60023 67.6403 43.849475 68.4413 44.66183 69.5303 C 44.66183 69.5303 47.228124 73.7243 48.01278 73.9493 C 49.66518 74.6243 53.145375 73.4273 58.342585 70.9523 C 63.5398 68.4773 64.7214 67.8113 64.7214 67.8113 L 68.78316 65.3093 C 67.9788 66.42037 67.329975 67.631036 66.853826 68.9093 C 66.272255 70.7993 65.616834 72.1133 66.02301 73.5893 C 66.38824 74.95635 67.59014 75.95561 69.03241 76.0913 C 70.380175 76.2353 72.30951 75.2633 77.48826 72.3113 C 81.05154 70.2953 86.55338 66.2543 87.25496 65.7503 C 87.95653 65.2463 87.43958 66.0203 87.43958 66.0203 C 86.2773 67.929905 84.94601 69.73678 83.4609 71.4203 C 81.09769 74.2913 84.55019 74.3543 86.1472 72.6713 C 87.27342 71.6093 94.69537 64.9583 95 61.1153 C 95 57.8663 91.7229 57.5153 89.69201 58.6133 C 87.66113 59.7113 86.23951 60.7103 83.95016 61.9973 C 81.92851 63.1853 80.39611 64.0403 79.33452 64.6973 C 78.27292 65.3543 79.04835 63.7973 79.04835 63.7973 C 81.13462 61.0973 85.97181 55.6973 86.97802 53.2043 C 87.98423 50.7113 84.28248 46.8233 81.19 48.5603 C 78.70454 49.87867 76.1033 50.978036 73.41727 51.8453 C 70.57403 52.8173 68.11851 53.9873 69.95554 51.8453 C 71.79256 49.7033 72.72492 48.8033 73.83267 47.6513 C 76.24204 45.1943 79.15912 42.3143 79.67607 40.5773 C 80.46073 37.9583 79.02065 36.7973 78.36523 36.3293 C 77.155935 35.4923 75.15275 35.3483 74.67272 34.1513 C 74.34039 33.3143 74.00807 30.8573 73.620355 29.8673 C 72.97562 28.07693 71.19757 26.91515 69.25396 27.0143 C 67.34523 27.05038 65.47974 27.5749 63.84443 28.5353 C 63.84443 28.5353 58.68414 32.1893 56.597873 33.5753 C 53.653095 35.5463 58.66568 30.1373 58.66568 30.1373 C 58.66568 30.1373 64.08444 24.8543 62.35819 22.4963 C 61.190994 20.766085 59.86551 19.142457 58.39797 17.6453 C 56.27478 15.6293 50.699085 19.9853 50.699085 19.9853 C 50.699085 19.9853 48.63128 16.3853 47.25582 15.4853 C 46.33269 14.8823 44.218726 14.2703 34.101243 19.8503 C 30.89799 21.6503 28.562475 23.1173 24.13146 25.8353 C 21.842103 27.2303 19.118875 28.9133 15.287894 31.3343 C 15.287894 31.3343 14.04167 31.9643 14.798636 30.9293 C 15.829064 29.531498 16.958006 28.205295 18.177284 26.9603 C 22.19289 22.6133 27.316252 20.1113 28.867107 19.0673 C 29.374827 18.7253 30.03025 16.7993 29.162508 17.0873 C 26.605443 17.7353 18.952712 21.4703 13.838582 26.7353 C 10.266077 30.2723 6.093538 34.6553 6.61049 38.5163 C 6.830733 39.922885 8.07741 40.95812 9.536806 40.9463 C 11.272287 41.0453 12.675441 40.8203 16.41411 39.0203 C 18.50961 38.0123 22.202123 35.8613 22.442136 36.1943 C 22.68215 36.5273 21.61132 37.0943 19.774296 38.2823 C 18.481917 39.1283 17.64187 39.6233 14.004746 41.8823 C 11.087661 43.6823 5.6135116 47.0843 5.1150225 49.2353 C 4.6165333 51.3863 5.7058244 54.6353 9.019854 53.8523 M 68.432375 82.2113 C 60.511936 81.9233 47.883545 81.5543 45.354174 80.5283 C 43.618693 79.7813 46.729635 76.4063 45.871126 75.3083 C 45.012616 74.2103 42.409395 69.6203 41.35703 69.8543 C 39.510773 70.2413 37.719905 76.0013 37.11987 79.9523 C 36.926015 81.2033 34.627426 80.9873 30.279493 81.3293 C 27.66704 81.5363 21.500545 81.8243 21.500545 81.8243 L 16.091015 82.1843 C 15.389438 82.2383 12.481584 82.3913 10.626097 82.6343 C 8.77061 82.8773 9.509112 84.8933 11.890782 84.8393 C 35.430547 84.8393 39.03998 85.3523 40.12927 83.2193 C 41.384723 84.2093 43.23098 84.8483 47.92047 84.8033 L 63.61365 84.8033 C 69.59552 84.8033 80.04533 84.5603 82.14083 84.4613 C 84.23633 84.3623 84.70712 83.0033 81.86389 82.8953" fill="#373151"/>
  </g>
</svg>
