<?xml version="1.0" encoding="UTF-8" standalone="no"?>
<!DOCTYPE svg PUBLIC "-//W3C//DTD SVG 1.1//EN" "http://www.w3.org/Graphics/SVG/1.1/DTD/svg11.dtd">
<svg xmlns:dc="http://purl.org/dc/elements/1.1/" xmlns:xl="http://www.w3.org/1999/xlink" version="1.1" xmlns="http://www.w3.org/2000/svg" viewBox="0 0 100 100" width="100" height="100">
  <defs/>
  <g id="party-icon--green" stroke-dasharray="none" fill="none" stroke="none" stroke-opacity="1" fill-opacity="1">
    <title>Green Party icon</title>
    <path d="M 72.65101 74.11913 C 63.506714 85.19295 46.6443 86.53523 35.15101 77.13926 C 23.57383 67.74329 21.6443 51.21644 30.872488 40.14262 C 40.100675 29.152686 81.8792 63.12919 72.65101 74.11913 Z M 53.942956 49.958054 C 53.942956 50.46141 55.11745 50.46141 55.536916 50.5453 C 55.788594 50.377517 55.62081 50.12584 55.872486 49.87416 C 55.95638 49.79027 56.04027 49.79027 56.124164 49.706376 C 56.29195 49.622483 56.54363 49.370805 56.54363 49.20302 C 56.54363 48.78356 56.208057 48.86745 55.95638 48.699665 C 55.788594 48.61577 55.7047 48.53188 55.536916 48.447987 C 55.28524 48.447987 55.28524 48.61577 55.03356 48.699665 C 54.865775 48.78356 54.69799 48.78356 54.69799 48.86745 C 54.44631 49.035235 54.69799 49.370805 54.36242 49.622483 C 54.11074 49.622483 53.942956 49.706376 53.942956 49.958054 Z M 54.78188 50.88087 C 54.69799 50.964765 54.6141 51.13255 54.6141 51.300335 C 54.6141 51.46812 54.865775 51.46812 55.11745 51.635906 C 55.28524 51.635906 55.36913 51.7198 55.536916 51.80369 C 55.7047 51.80369 55.95638 51.635906 56.208057 51.7198 C 56.37584 51.7198 56.54363 51.887584 56.71141 51.887584 C 56.795305 51.887584 56.96309 51.80369 57.130875 51.80369 C 57.29866 51.80369 57.55034 51.80369 57.718124 51.80369 C 57.9698 51.635906 58.053694 51.21644 57.88591 50.964765 C 58.053694 50.71309 57.9698 50.20973 58.22148 50.041946 C 58.389265 49.958054 58.80873 49.958054 58.97651 49.79027 C 59.22819 49.622483 59.1443 49.28691 58.97651 48.95134 C 58.724835 48.95134 58.55705 48.78356 58.30537 48.78356 C 58.13759 48.78356 58.053694 48.95134 57.9698 48.86745 C 57.88591 48.78356 57.9698 48.699665 57.9698 48.53188 C 57.55034 48.2802 57.21477 48.699665 57.04698 48.95134 C 57.04698 49.11913 57.04698 49.20302 57.130875 49.28691 C 56.8792 49.4547 56.96309 49.706376 56.96309 49.87416 L 56.459734 49.87416 C 56.29195 49.958054 56.29195 50.20973 56.208057 50.293624 C 56.124164 50.377517 55.95638 50.377517 55.872486 50.46141 C 55.788594 50.5453 55.788594 50.71309 55.7047 50.71309 C 55.45302 50.964765 55.03356 50.71309 54.78188 50.88087 Z M 53.607386 45.42785 C 53.69128 45.42785 53.859064 45.42785 53.942956 45.42785 C 54.02685 45.42785 54.11074 45.34396 54.278527 45.34396 C 54.44631 45.34396 54.530204 45.34396 54.69799 45.34396 C 54.94967 45.26007 55.11745 45.176175 55.28524 45.26007 C 55.7047 45.26007 56.54363 45.847316 56.37584 45.00839 C 56.795305 44.505034 57.38255 44.08557 57.88591 43.66611 C 57.9698 43.66611 58.053694 43.49832 58.13759 43.41443 C 58.389265 43.330537 58.64094 43.16275 58.724835 42.911074 C 58.64094 42.82718 58.389265 42.911074 58.389265 42.82718 C 58.13759 42.40772 58.30537 41.82047 58.22148 41.401007 C 57.88591 41.23322 57.29866 41.317115 56.8792 41.317115 C 56.71141 41.23322 56.459734 41.14933 56.29195 41.23322 C 56.208057 41.23322 55.95638 41.401007 55.872486 41.4849 C 55.7047 41.652685 55.62081 41.988256 55.45302 42.15604 C 55.201345 42.49161 54.69799 42.659396 54.36242 42.911074 C 54.02685 43.246645 53.77517 43.49832 53.4396 43.75 C 53.271815 43.917786 53.10403 44.08557 52.936245 44.169463 C 52.76846 44.33725 52.43289 44.33725 52.18121 44.42114 C 52.09732 44.505034 52.09732 44.67282 52.013426 44.75671 C 51.929533 45.09228 51.929533 45.511745 51.76175 45.763423 C 51.76175 46.0151 51.59396 46.26678 51.677856 46.434564 C 52.013426 46.434564 52.09732 46.26678 52.348996 46.098994 C 52.43289 46.098994 52.51678 46.098994 52.68457 46.0151 C 52.76846 45.93121 52.936245 45.763423 53.10403 45.67953 C 53.271815 45.59564 53.52349 45.42785 53.607386 45.42785 Z M 45.38591 64.55537 C 45.553695 65.22651 45.889265 65.81376 46.05705 66.401006 C 46.476514 66.401006 46.895977 66.4849 47.31544 66.56879 C 47.483225 66.65268 47.65101 66.73658 47.818795 66.73658 C 47.90269 66.82047 47.98658 66.73658 48.070473 66.73658 C 48.23826 66.73658 48.406044 66.82047 48.57383 66.82047 C 48.9094 66.90436 49.16108 66.82047 49.32886 66.98825 C 49.49665 67.07215 49.49665 67.23993 49.58054 67.323824 C 49.58054 67.40772 49.66443 67.40772 49.748326 67.49161 C 49.83222 67.5755 49.83222 67.659395 49.91611 67.74329 C 50.000003 67.91107 50.16779 67.994965 50.25168 68.16275 C 50.335574 68.24664 50.335574 68.41443 50.419466 68.49832 C 50.50336 68.58221 50.83893 68.83389 50.83893 69.00168 C 50.83893 69.08557 50.671144 69.253354 50.58725 69.42114 C 50.58725 69.50503 50.58725 69.67282 50.50336 69.75671 C 50.50336 69.8406 50.419466 69.924495 50.419466 70.00839 C 50.335574 70.09228 50.335574 70.17617 50.335574 70.34396 C 50.25168 70.76342 50.000003 71.182884 50.083896 71.77013 C 50.083896 71.93792 50.16779 72.1057 50.16779 72.27349 C 50.25168 72.35738 50.16779 72.52517 50.16779 72.69295 C 50.25168 72.86074 50.25168 73.02852 50.25168 73.19631 C 50.25168 73.2802 50.16779 73.447985 50.083896 73.61577 C 49.91611 74.11913 49.91611 74.62248 49.748326 75.12584 C 49.91611 75.377515 49.91611 75.79698 50.16779 76.04866 C 50.16779 76.46812 50.419466 76.80369 50.50336 77.22315 C 50.58725 77.307045 50.58725 77.47483 50.58725 77.64262 C 50.671144 78.06208 50.755037 78.56543 50.671144 79.06879 C 50.58725 79.40436 50.335574 79.73993 50.335574 80.0755 C 50.335574 80.24329 50.419466 80.41107 50.335574 80.49496 C 50.335574 80.99832 50.16779 81.41778 50.25168 81.92114 C 50.335574 81.92114 50.419466 81.92114 50.50336 81.92114 C 50.671144 81.92114 50.755037 81.92114 50.83893 81.92114 C 50.92282 81.92114 51.006715 81.92114 51.09061 81.92114 C 51.25839 81.92114 51.342285 82.00503 51.51007 82.00503 C 51.59396 82.00503 51.59396 82.00503 51.677856 82.00503 C 51.84564 82.00503 51.929533 82.00503 52.09732 82.00503 C 52.18121 82.00503 52.265104 82.00503 52.265104 82.00503 C 52.43289 82.00503 52.600674 82.00503 52.68457 82.00503 L 52.936245 82.00503 C 53.02014 82.00503 53.18792 82.00503 53.35571 82.00503 L 53.52349 82.00503 C 53.607386 82.00503 53.77517 82.00503 53.942956 81.92114 L 54.11074 81.92114 C 54.278527 81.92114 54.44631 81.92114 54.6141 81.92114 L 54.69799 81.92114 C 54.865775 81.92114 55.03356 81.83725 55.201345 81.83725 L 55.28524 81.83725 C 55.45302 81.83725 55.62081 81.83725 55.788594 81.75335 L 55.872486 81.75335 C 56.04027 81.75335 56.208057 81.75335 56.37584 81.66946 C 56.71141 81.16611 57.21477 80.74664 57.466446 80.15939 C 57.802016 79.90772 57.88591 79.48825 58.13759 79.32047 C 58.22148 79.15268 58.30537 79.06879 58.389265 78.901005 C 58.64094 78.73322 58.89262 78.64933 59.1443 78.39765 C 59.395976 78.31376 59.81544 78.06208 59.89933 77.8104 C 60.06712 77.55872 60.06712 77.13926 60.2349 76.80369 C 60.318795 76.7198 60.40269 76.6359 60.40269 76.55201 C 60.48658 76.46812 60.48658 76.38423 60.48658 76.30033 C 60.57047 76.13255 60.654365 76.04866 60.654365 75.96476 C 60.82215 75.71309 60.90604 75.377515 60.989936 75.20973 C 61.07383 75.041945 61.15772 74.95805 61.24161 74.79027 C 61.325506 74.53859 61.325506 74.28691 61.49329 74.11913 C 61.66108 73.95134 61.82886 73.95134 61.99665 73.86745 C 62.248325 73.783555 62.41611 73.53188 62.66779 73.36409 C 62.75168 73.36409 62.919466 73.36409 63.00336 73.2802 C 63.00336 73.2802 63.08725 73.112415 63.17114 73.112415 C 63.506714 72.86074 63.59061 72.52517 63.92618 72.27349 C 64.34564 72.1896 64.7651 72.1057 65.10067 71.854025 C 65.184566 71.77013 65.184566 71.68624 65.26846 71.68624 C 65.52014 71.43456 65.771814 71.26678 66.02349 71.09899 C 66.19128 70.93121 66.27517 70.84731 66.442955 70.76342 C 66.61074 70.59564 66.86242 70.51174 66.86242 70.34396 C 66.69463 70.17617 66.35906 70.09228 66.107385 70.09228 C 65.85571 70.00839 65.52014 69.924495 65.26846 69.8406 C 65.184566 69.8406 65.10067 69.8406 65.01678 69.8406 C 64.7651 69.8406 64.59732 69.67282 64.34564 69.75671 C 64.09396 69.67282 64.09396 69.42114 63.92618 69.253354 C 63.842284 69.00168 63.59061 68.75 63.506714 68.58221 C 63.42282 68.49832 63.42282 68.41443 63.33893 68.330536 C 63.255036 68.24664 63.17114 68.16275 63.08725 68.07886 C 63.08725 67.994965 63.08725 67.82718 63.08725 67.74329 C 63.00336 67.49161 63.00336 67.23993 62.919466 66.98825 C 62.83557 66.82047 62.75168 66.56879 62.66779 66.401006 C 62.66779 66.31711 62.66779 66.14933 62.583895 65.98154 C 62.583895 65.89765 62.5 65.89765 62.5 65.81376 C 62.5 65.729865 62.5 65.64597 62.41611 65.56208 C 62.33222 65.394294 62.16443 65.22651 61.912754 64.97483 C 61.74497 64.63926 61.66108 64.38758 61.4094 64.05201 C 61.24161 63.800335 61.07383 63.54866 60.90604 63.21309 C 60.90604 62.96141 60.57047 62.79362 60.73826 62.541945 C 61.07383 62.541945 61.15772 62.877516 61.49329 62.96141 C 61.74497 62.70973 61.49329 62.12248 61.74497 61.9547 C 61.912754 62.03859 61.99665 62.206375 62.16443 62.37416 C 62.16443 62.62584 62.41611 62.79362 62.5 62.96141 C 62.5 63.0453 62.5 63.21309 62.583895 63.29698 C 62.583895 63.464764 62.66779 63.54866 62.75168 63.63255 C 62.75168 63.71644 62.75168 63.800335 62.75168 63.88423 C 62.83557 64.05201 62.919466 64.135905 62.919466 64.2198 C 63.00336 64.30369 63.00336 64.471476 63.00336 64.55537 C 63.08725 64.63926 63.08725 64.63926 63.17114 64.72315 C 63.17114 64.807046 63.17114 64.97483 63.255036 64.97483 C 63.33893 65.14262 63.42282 65.22651 63.506714 65.3104 C 63.92618 65.89765 64.42953 66.31711 64.513425 67.07215 C 64.59732 67.40772 64.513425 67.74329 64.59732 68.07886 C 64.59732 68.330536 64.59732 68.49832 64.59732 68.83389 C 64.68121 69.00168 64.848996 69.08557 65.10067 69.16946 C 65.26846 69.16946 65.60403 69.33725 65.771814 69.33725 C 65.85571 69.33725 66.02349 69.253354 66.107385 69.253354 C 66.442955 69.16946 66.778526 69.253354 67.1141 69.253354 C 67.19799 69.16946 67.36577 69.08557 67.44967 69.08557 C 67.61745 69.00168 67.86913 69.00168 67.95302 68.91778 C 68.12081 68.83389 68.28859 68.66611 68.45638 68.49832 C 68.62416 68.41443 68.87584 68.330536 69.04363 68.16275 C 69.12752 68.07886 69.21141 67.994965 69.2953 67.91107 C 69.3792 67.82718 69.46309 67.82718 69.54698 67.74329 C 69.71477 67.5755 69.88255 67.323824 70.05034 67.23993 C 70.13423 67.07215 70.38591 66.98825 70.4698 66.73658 C 70.4698 66.73658 70.38591 66.65268 70.38591 66.56879 C 70.302015 66.31711 70.21812 66.065435 70.21812 65.89765 C 70.13423 65.729865 70.21812 65.64597 70.13423 65.56208 C 70.05034 65.22651 69.71477 64.89094 69.21141 64.97483 C 69.12752 64.97483 68.95973 65.14262 68.87584 65.14262 C 68.28859 65.394294 67.95302 64.89094 67.701344 64.63926 C 67.61745 64.55537 67.44967 64.38758 67.36577 64.30369 C 67.28188 64.2198 67.1141 64.135905 67.1141 63.96812 C 67.28188 63.800335 67.53356 63.96812 67.701344 64.05201 C 67.86913 64.05201 68.12081 64.135905 68.372485 64.2198 C 68.708056 64.30369 69.12752 64.471476 69.630875 64.55537 C 69.71477 64.55537 69.88255 64.55537 70.05034 64.55537 C 70.38591 64.55537 70.63759 64.807046 70.97316 64.807046 C 71.14094 64.807046 71.30873 64.72315 71.47651 64.63926 C 71.6443 64.63926 71.81208 64.63926 71.97987 64.63926 C 72.14765 64.55537 72.231545 64.471476 72.31544 64.55537 C 72.48322 64.55537 72.56712 64.72315 72.65101 64.807046 C 72.90269 65.05872 73.489935 65.14262 73.65772 65.394294 C 73.65772 65.81376 73.74161 66.23322 73.74161 66.56879 C 73.825505 66.82047 73.9094 66.98825 73.99329 67.23993 C 73.99329 67.40772 73.99329 67.49161 74.07718 67.5755 C 74.07718 67.659395 74.24497 67.82718 74.32886 67.91107 C 74.41275 68.16275 74.41275 68.330536 74.49665 68.330536 C 74.58054 68.330536 74.66443 68.330536 74.74832 68.330536 C 79.44631 58.5151 76.92953 46.26678 68.036915 38.63255 C 67.86913 38.63255 67.701344 38.716444 67.61745 38.63255 C 67.53356 38.63255 67.36577 38.29698 67.19799 38.21309 C 67.1141 38.21309 66.94631 38.29698 66.86242 38.29698 C 66.61074 38.29698 66.35906 38.129195 66.02349 38.129195 C 65.9396 38.129195 65.85571 38.129195 65.771814 38.129195 C 65.60403 38.129195 65.52014 37.96141 65.436244 37.96141 C 65.26846 37.96141 65.184566 38.129195 65.01678 38.045303 C 64.848996 38.29698 64.42953 38.29698 64.177855 38.380873 C 63.92618 38.88423 64.42953 38.96812 64.59732 39.30369 C 64.513425 39.89094 65.01678 39.974833 65.436244 40.14262 C 65.68792 40.394296 66.107385 40.394296 66.35906 40.645974 C 66.35906 41.065437 66.61074 41.4849 66.61074 41.82047 C 66.61074 41.988256 66.52685 42.239933 66.52685 42.40772 C 66.61074 42.575504 66.778526 42.74329 66.778526 42.911074 C 66.778526 43.246645 66.52685 43.49832 66.69463 43.833893 C 66.52685 44.169463 66.52685 44.42114 66.442955 44.67282 C 66.442955 44.840604 66.35906 45.00839 66.35906 45.09228 C 66.27517 45.176175 66.19128 45.176175 66.107385 45.34396 C 66.107385 45.42785 66.02349 45.511745 66.02349 45.67953 C 66.02349 45.763423 65.9396 45.847316 65.9396 45.93121 C 65.85571 46.182886 65.771814 46.35067 65.68792 46.518457 C 65.68792 46.60235 65.771814 46.68624 65.68792 46.854027 C 65.68792 47.02181 65.436244 47.35738 65.35235 47.52517 C 65.26846 47.60906 65.26846 47.692953 65.184566 47.776846 C 65.10067 47.94463 65.01678 47.94463 64.93289 48.112416 C 64.848996 48.19631 64.7651 48.53188 64.7651 48.78356 C 64.7651 48.95134 64.93289 49.11913 64.848996 49.28691 C 64.59732 49.4547 64.42953 49.28691 64.26175 49.11913 C 64.177855 49.11913 64.01007 49.035235 63.92618 49.035235 C 63.842284 48.95134 63.842284 48.86745 63.75839 48.78356 C 63.506714 48.699665 63.255036 48.61577 63.08725 48.53188 C 62.83557 48.364094 62.583895 48.19631 62.33222 48.19631 C 62.16443 48.2802 62.08054 48.447987 61.912754 48.53188 C 61.66108 48.61577 61.577184 48.86745 61.325506 49.035235 C 61.24161 49.11913 61.07383 49.20302 60.90604 49.28691 C 60.82215 49.4547 60.654365 49.53859 60.57047 49.622483 C 60.40269 49.706376 60.318795 49.706376 60.15101 49.79027 C 60.06712 49.87416 59.983224 50.041946 59.89933 50.12584 C 59.81544 50.20973 59.47987 50.377517 59.395976 50.46141 C 59.395976 50.71309 59.731546 50.71309 59.731546 50.88087 C 59.395976 51.13255 59.060405 51.300335 58.80873 51.635906 C 58.724835 51.552013 58.64094 51.46812 58.47316 51.46812 C 58.22148 51.635906 58.053694 51.80369 57.88591 51.971476 C 57.802016 52.05537 57.802016 52.13926 57.718124 52.223154 C 57.55034 52.223154 57.38255 52.223154 57.130875 52.307047 C 56.96309 52.307047 56.71141 52.39094 56.54363 52.307047 C 56.37584 52.307047 56.29195 52.13926 56.124164 52.05537 C 56.04027 52.05537 55.95638 52.13926 55.788594 52.13926 C 55.536916 52.05537 55.36913 51.80369 55.11745 51.80369 C 55.03356 51.887584 54.865775 52.307047 54.865775 52.47483 C 54.865775 52.558725 55.11745 52.72651 55.11745 52.8104 C 55.201345 52.97819 55.201345 53.229866 55.201345 53.31376 C 55.201345 53.481543 55.201345 53.64933 54.94967 53.64933 C 54.6141 53.73322 54.69799 53.31376 54.530204 53.14597 C 54.44631 53.06208 54.36242 52.894295 54.278527 52.894295 C 54.02685 52.72651 53.859064 52.894295 53.69128 53.06208 C 53.607386 53.14597 53.52349 53.229866 53.4396 53.31376 C 53.35571 53.39765 53.35571 53.481543 53.271815 53.565436 C 53.18792 53.64933 53.02014 53.817114 52.936245 53.901006 C 52.76846 54.06879 52.76846 54.23658 52.68457 54.32047 C 52.600674 54.57215 52.348996 54.65604 52.348996 54.99161 C 52.600674 55.32718 52.936245 55.411073 52.936245 55.99832 C 53.02014 56.16611 53.271815 56.25 53.52349 56.417785 C 53.69128 56.50168 53.942956 56.753355 54.194634 56.66946 C 54.36242 56.66946 54.44631 56.417785 54.6141 56.33389 C 54.69799 56.25 54.865775 56.16611 54.94967 56.082214 C 55.11745 55.99832 55.28524 55.91443 55.36913 55.830537 C 55.62081 55.66275 55.62081 55.32718 56.124164 55.411073 C 56.208057 55.57886 56.208057 55.830537 56.37584 55.830537 C 56.795305 55.91443 57.130875 55.66275 57.29866 55.99832 C 57.29866 56.16611 57.466446 56.417785 57.466446 56.58557 C 57.466446 56.66946 57.466446 56.753355 57.466446 56.83725 C 57.466446 56.92114 57.55034 57.088926 57.63423 57.25671 C 57.63423 57.340604 57.63423 57.50839 57.63423 57.59228 C 57.718124 57.76007 57.88591 57.84396 57.88591 58.011744 C 57.88591 58.26342 57.21477 58.5151 57.21477 58.76678 C 57.130875 59.018456 57.29866 59.354026 57.55034 59.354026 C 57.718124 59.354026 57.802016 59.18624 57.9698 59.018456 C 58.22148 58.85067 58.30537 58.682885 58.724835 58.85067 C 59.1443 58.59899 58.89262 57.92785 58.80873 57.340604 C 58.724835 57.17282 58.389265 57.00503 58.64094 56.753355 C 58.80873 56.83725 58.89262 57.00503 58.89262 57.25671 C 59.060405 57.340604 59.1443 57.424496 59.22819 57.59228 C 59.31208 57.84396 59.22819 58.09564 59.22819 58.347315 C 59.22819 58.59899 59.395976 59.18624 59.56376 59.270134 C 59.647654 59.270134 59.731546 59.270134 59.89933 59.270134 C 59.983224 59.270134 60.15101 59.354026 60.318795 59.270134 C 60.73826 59.18624 60.654365 58.682885 60.73826 58.347315 C 60.90604 58.26342 61.24161 58.26342 61.325506 58.43121 C 61.24161 58.682885 61.07383 58.682885 60.989936 58.85067 C 60.73826 59.270134 60.73826 59.85738 61.07383 60.10906 C 61.24161 60.276845 61.912754 60.19295 61.912754 60.44463 C 61.912754 60.612415 61.74497 60.69631 61.66108 60.86409 C 61.577184 61.03188 61.577184 61.36745 61.325506 61.36745 C 61.07383 61.283556 60.82215 61.11577 60.48658 61.03188 C 60.2349 60.947986 59.983224 61.03188 59.731546 60.947986 C 59.56376 60.947986 59.47987 60.86409 59.31208 60.86409 C 58.80873 60.7802 58.389265 60.69631 57.9698 60.52852 C 57.802016 60.276845 57.63423 60.02517 57.29866 60.02517 C 57.130875 60.02517 57.04698 60.19295 56.8792 60.19295 C 56.62752 60.10906 56.459734 59.77349 56.29195 59.605704 C 56.124164 59.354026 55.95638 59.10235 55.788594 59.018456 C 55.7047 58.85067 55.536916 58.85067 55.45302 58.59899 C 55.45302 58.43121 55.62081 58.347315 55.62081 58.17953 C 55.62081 57.92785 55.45302 57.84396 55.36913 57.676174 C 55.201345 57.59228 55.03356 57.424496 54.865775 57.424496 C 54.6141 57.340604 54.278527 57.340604 54.02685 57.25671 C 53.859064 57.25671 53.77517 57.088926 53.607386 57.00503 C 53.35571 56.92114 53.10403 56.92114 52.936245 56.753355 C 52.76846 56.082214 52.265104 56.58557 52.013426 56.753355 C 51.677856 56.83725 51.51007 57.088926 51.09061 57.25671 C 51.006715 57.340604 51.006715 57.340604 50.83893 57.424496 C 50.83893 57.76007 50.671144 57.92785 50.50336 58.09564 C 50.50336 58.26342 50.50336 58.5151 50.25168 58.59899 C 50.083896 58.59899 49.83222 58.347315 49.58054 58.347315 C 49.16108 58.26342 49.077185 58.43121 48.741614 58.682885 C 48.32215 58.93456 47.90269 59.18624 47.483225 59.43792 C 47.231547 59.6896 46.97987 59.85738 46.6443 60.02517 C 46.39262 60.19295 45.889265 60.44463 45.805373 60.612415 C 45.72148 60.69631 45.72148 60.86409 45.72148 60.947986 C 45.63759 61.03188 45.553695 61.11577 45.4698 61.199664 C 45.4698 61.36745 45.4698 61.45134 45.4698 61.535234 C 45.38591 61.78691 45.13423 62.03859 45.13423 62.37416 C 44.966447 62.541945 44.882554 62.70973 44.79866 62.96141 C 44.79866 63.12919 44.966447 63.29698 45.05034 63.54866 C 45.13423 63.71644 45.13423 63.96812 45.218124 64.2198 C 45.218124 64.30369 45.302017 64.471476 45.38591 64.55537 Z M 28.69128 66.65268 L 28.775173 66.82047 C 28.859065 67.07215 29.6141 68.58221 29.781884 68.75 C 29.94967 68.49832 30.117454 68.16275 30.28524 67.82718 C 30.536917 67.659395 30.788595 67.323824 31.124166 67.15604 C 31.29195 67.15604 31.459736 67.15604 31.62752 67.07215 C 31.711414 67.07215 31.795307 66.98825 31.795307 66.98825 C 31.8792 66.90436 31.96309 66.98825 32.046984 66.90436 C 32.130877 66.90436 32.21477 66.90436 32.21477 66.82047 C 32.298662 66.82047 32.466448 66.82047 32.466448 66.82047 C 32.718125 66.73658 32.88591 66.56879 33.053696 66.4849 C 33.47316 66.401006 33.89262 66.4849 34.395978 66.401006 C 34.81544 66.31711 35.318796 66.14933 35.82215 66.14933 C 35.989937 66.14933 36.241615 66.14933 36.4094 66.14933 C 36.493293 66.14933 36.577185 66.065435 36.66108 66.065435 C 36.99665 65.98154 37.33222 66.065435 37.66779 65.98154 C 37.919467 66.14933 38.087252 66.401006 38.33893 66.401006 C 38.506716 66.56879 38.6745 66.90436 38.92618 66.82047 C 39.01007 66.82047 39.26175 66.65268 39.429534 66.4849 C 39.68121 66.14933 39.93289 65.89765 40.18457 65.64597 C 40.352353 65.47819 40.52014 65.3104 40.60403 65.14262 C 40.52014 64.97483 40.60403 64.807046 40.60403 64.63926 C 40.60403 64.38758 40.436246 64.135905 40.352353 63.96812 C 40.18457 63.54866 40.100675 63.0453 39.848997 62.62584 C 39.848997 62.541945 39.765105 62.45805 39.765105 62.37416 C 39.513427 61.870805 39.26175 61.36745 39.01007 60.86409 C 38.92618 60.69631 38.6745 60.52852 38.758393 60.276845 C 38.758393 60.19295 38.92618 60.19295 39.093964 60.19295 C 39.177856 60.10906 39.177856 60.10906 39.26175 60.02517 C 39.429534 60.02517 39.68121 60.10906 39.765105 59.941274 C 39.848997 59.6896 39.765105 59.43792 39.848997 59.18624 C 39.848997 59.018456 39.93289 58.85067 40.016783 58.682885 C 40.100675 58.347315 39.93289 57.92785 39.93289 57.59228 C 39.765105 57.17282 39.68121 57.088926 39.26175 56.92114 C 39.177856 56.753355 39.177856 56.417785 39.093964 56.082214 C 39.26175 55.830537 39.68121 55.494966 39.765105 55.0755 C 39.848997 54.90772 39.765105 54.73993 39.765105 54.57215 C 39.765105 54.152684 40.100675 53.901006 40.016783 53.64933 C 40.016783 53.565436 39.848997 53.481543 39.765105 53.31376 C 39.513427 52.97819 39.26175 52.64262 39.093964 52.39094 C 39.093964 52.307047 39.093964 52.223154 39.01007 52.13926 C 39.01007 52.05537 38.92618 51.971476 38.92618 51.971476 C 38.92618 51.80369 38.842286 51.635906 38.842286 51.552013 C 38.758393 51.38423 38.6745 51.300335 38.6745 51.21644 C 38.59061 51.04866 38.59061 50.88087 38.59061 50.79698 C 38.506716 50.629195 38.422823 50.5453 38.422823 50.377517 C 38.33893 50.20973 38.422823 49.958054 38.33893 49.706376 C 38.33893 49.622483 38.255038 49.622483 38.171145 49.53859 C 38.171145 49.4547 38.171145 49.28691 38.087252 49.20302 C 38.00336 49.11913 37.835575 48.95134 37.75168 48.699665 C 37.66779 48.61577 37.583897 48.447987 37.500004 48.2802 C 37.248326 47.94463 37.164434 47.86074 36.66108 47.776846 C 36.241615 47.692953 35.73826 47.776846 35.48658 47.60906 C 35.48658 47.1896 35.570474 46.60235 35.654367 46.26678 C 35.48658 45.93121 35.15101 45.511745 35.40269 45.09228 C 35.654367 45.00839 35.906045 45.00839 35.989937 44.840604 C 36.157722 44.75671 36.157722 44.505034 36.157722 44.253356 C 36.241615 44.00168 36.241615 43.833893 36.325508 43.582215 C 36.325508 43.49832 36.241615 43.41443 36.325508 43.330537 C 36.4094 42.994967 36.66108 43.16275 36.912756 43.246645 C 37.248326 43.41443 37.500004 43.66611 37.835575 43.66611 C 38.087252 43.16275 37.835575 42.575504 37.919467 42.07215 C 38.00336 41.904363 38.255038 41.73658 38.422823 41.652685 C 38.506716 41.4849 38.59061 41.317115 38.6745 41.23322 C 38.92618 41.14933 39.177856 41.065437 39.513427 40.981544 C 39.848997 40.81376 40.26846 40.645974 40.60403 40.56208 C 40.687923 40.81376 40.771816 41.065437 40.85571 41.401007 C 40.9396 41.4849 40.9396 41.568793 40.9396 41.73658 C 40.9396 41.82047 40.85571 41.904363 40.85571 41.988256 C 40.687923 42.49161 40.60403 42.911074 40.436246 43.330537 C 40.18457 43.582215 39.848997 43.75 39.59732 44.00168 C 39.59732 44.169463 39.513427 44.33725 39.513427 44.505034 C 39.765105 44.42114 39.93289 44.253356 40.18457 44.08557 C 40.352353 44.00168 40.352353 43.917786 40.436246 43.917786 C 40.60403 43.917786 40.771816 44.00168 40.9396 44.00168 C 41.19128 43.917786 41.359064 43.582215 41.694635 43.582215 C 41.86242 43.582215 41.946313 43.833893 42.1141 43.833893 C 42.281883 43.917786 42.44967 43.833893 42.701346 43.75 C 42.86913 43.66611 43.036917 43.66611 43.2047 43.582215 C 43.288594 43.582215 43.372487 43.41443 43.45638 43.41443 C 43.624165 43.330537 43.79195 43.41443 43.959735 43.246645 C 44.3792 43.41443 45.05034 43.330537 45.302017 43.66611 C 45.302017 43.917786 45.553695 44.08557 45.72148 44.253356 C 45.72148 44.33725 45.72148 44.42114 45.805373 44.42114 C 45.889265 44.75671 46.140943 45.00839 46.30873 45.26007 C 46.476514 45.34396 46.6443 45.511745 46.895977 45.511745 C 47.06376 45.176175 46.895977 44.588927 47.231547 44.42114 C 47.65101 44.505034 47.65101 45.00839 47.734903 45.42785 C 47.90269 45.67953 47.818795 46.182886 47.98658 46.434564 C 48.154366 46.434564 48.406044 46.434564 48.57383 46.35067 C 48.9094 46.26678 48.99329 46.098994 49.16108 45.847316 C 49.16108 45.763423 49.24497 45.67953 49.24497 45.67953 C 49.32886 45.59564 49.24497 45.42785 49.32886 45.34396 C 49.32886 45.26007 49.412755 45.26007 49.49665 45.09228 C 49.49665 45.09228 49.58054 44.924497 49.58054 44.840604 C 49.748326 44.75671 50.000003 44.67282 50.083896 44.42114 C 50.083896 44.33725 50.083896 44.253356 50.083896 44.169463 C 50.083896 44.08557 50.16779 44.00168 50.16779 43.917786 C 50.25168 43.833893 50.25168 43.75 50.25168 43.66611 C 50.419466 43.41443 50.58725 43.246645 50.755037 43.07886 C 51.006715 42.82718 51.25839 42.49161 51.51007 42.323826 C 51.51007 42.15604 51.51007 41.904363 51.51007 41.82047 C 51.25839 41.652685 51.006715 41.904363 50.83893 41.904363 C 50.419466 41.988256 50.16779 41.73658 49.91611 41.73658 C 49.748326 41.82047 49.83222 42.07215 49.66443 42.239933 C 49.412755 42.15604 49.24497 42.49161 48.99329 42.40772 C 48.9094 42.40772 48.825507 42.323826 48.741614 42.323826 C 48.57383 42.15604 47.98658 41.904363 47.98658 41.73658 C 47.98658 41.568793 48.154366 41.4849 48.23826 41.401007 C 48.489936 41.23322 48.65772 41.14933 48.825507 40.89765 C 49.24497 40.310403 49.412755 39.80705 49.748326 39.30369 C 49.91611 39.052014 50.083896 38.716444 50.25168 38.716444 C 50.50336 38.716444 50.83893 38.96812 50.92282 39.052014 C 51.1745 39.2198 51.42618 39.387585 51.59396 39.471477 C 51.84564 39.55537 52.09732 39.639262 52.265104 39.723155 C 52.43289 39.723155 52.600674 39.723155 52.76846 39.80705 C 52.936245 39.80705 53.10403 39.89094 53.18792 40.058726 C 53.271815 40.310403 52.936245 40.56208 53.10403 40.81376 C 53.271815 40.981544 53.607386 41.065437 53.77517 41.065437 C 53.859064 40.89765 53.77517 40.56208 53.859064 40.394296 C 53.942956 40.14262 54.44631 40.310403 54.69799 40.22651 C 54.44631 39.723155 53.942956 39.639262 53.69128 39.2198 C 53.859064 38.96812 54.02685 38.716444 54.11074 38.464766 C 54.36242 38.29698 54.278527 37.877518 54.6141 37.793625 C 54.78188 37.709732 54.94967 37.793625 55.11745 37.793625 C 55.28524 37.709732 55.36913 37.62584 55.45302 37.62584 C 55.62081 37.37416 55.788594 37.122484 56.04027 36.870806 C 56.37584 36.786914 56.62752 36.786914 57.04698 36.70302 C 57.21477 36.70302 57.29866 36.61913 57.466446 36.61913 C 57.55034 36.70302 57.718124 36.786914 57.88591 36.870806 C 57.9698 36.9547 58.13759 37.03859 58.30537 37.03859 C 58.47316 37.03859 58.55705 36.9547 58.724835 36.9547 C 58.80873 36.870806 58.89262 36.9547 58.97651 36.870806 C 59.1443 36.870806 59.22819 36.70302 59.395976 36.70302 C 59.47987 36.451343 59.22819 36.199665 59.22819 36.03188 C 59.1443 35.780202 59.22819 35.44463 59.22819 35.192954 C 59.1443 35.10906 59.060405 35.02517 59.060405 34.941276 C 59.22819 34.77349 59.395976 34.605706 59.47987 34.354028 C 59.22819 34.186243 59.060405 33.934565 58.724835 33.934565 C 58.64094 33.934565 58.47316 34.018457 58.389265 34.018457 C 58.22148 34.018457 58.13759 33.934565 58.053694 33.850672 L 58.053694 33.347317 C 57.802016 33.17953 57.466446 33.17953 57.130875 33.09564 C 57.04698 33.09564 56.96309 33.263424 56.8792 33.347317 C 56.71141 33.5151 56.54363 33.598994 56.459734 33.682887 C 56.37584 33.934565 56.459734 34.10235 56.29195 34.270135 C 56.124164 34.270135 56.04027 34.270135 55.872486 34.270135 C 55.7047 34.354028 55.536916 34.521813 55.28524 34.521813 C 54.78188 34.6896 54.530204 34.521813 54.194634 34.354028 C 53.69128 34.857384 53.18792 34.018457 52.76846 33.850672 C 52.600674 33.850672 52.43289 33.850672 52.265104 33.76678 C 52.348996 33.5151 52.348996 33.17953 52.18121 33.09564 C 51.929533 33.09564 51.677856 33.263424 51.51007 33.347317 C 51.342285 33.347317 51.25839 33.347317 51.09061 33.347317 C 50.755037 33.347317 50.335574 33.347317 50.083896 33.17953 C 50.000003 33.17953 49.83222 33.09564 49.83222 33.09564 C 49.748326 33.011746 49.66443 32.927853 49.58054 32.84396 C 49.32886 32.76007 49.077185 32.927853 48.825507 32.927853 C 48.65772 32.84396 48.489936 32.50839 48.23826 32.424498 C 46.476514 32.676176 44.79866 33.011746 43.12081 33.598994 C 42.953024 33.598994 42.78524 33.682887 42.617454 33.682887 C 41.86242 34.018457 41.107387 34.270135 40.352353 34.6896 L 40.18457 34.6896 C 39.93289 34.857384 39.59732 35.02517 39.34564 35.10906 C 39.26175 35.192954 39.177856 35.276847 39.093964 35.276847 C 38.6745 35.528524 38.33893 35.69631 38.00336 35.947988 C 38.087252 36.115773 37.835575 36.36745 37.835575 36.61913 C 37.835575 36.786914 37.835575 36.870806 37.835575 36.9547 C 37.75168 37.37416 37.500004 37.793625 37.248326 37.877518 C 37.08054 37.877518 37.08054 37.709732 36.912756 37.709732 C 36.74497 37.793625 36.66108 38.045303 36.577185 38.21309 C 36.493293 38.29698 36.241615 38.464766 36.241615 38.63255 C 36.157722 38.96812 36.241615 39.30369 36.157722 39.723155 C 36.07383 39.89094 35.906045 39.974833 35.82215 40.22651 C 35.73826 40.310403 35.73826 40.394296 35.654367 40.56208 C 35.654367 40.645974 35.48658 40.645974 35.48658 40.81376 C 35.15101 41.23322 34.899333 41.652685 34.983226 42.239933 C 34.81544 42.49161 34.899333 42.74329 34.899333 42.994967 C 34.81544 43.16275 34.647655 43.246645 34.647655 43.41443 C 34.563763 43.75 34.73155 43.833893 34.81544 44.00168 C 34.81544 44.169463 34.647655 44.33725 34.647655 44.505034 C 34.563763 44.924497 34.395978 45.176175 34.312085 45.511745 C 34.312085 45.847316 34.647655 46.098994 34.647655 46.518457 C 34.647655 46.60235 34.563763 46.68624 34.47987 46.854027 C 34.312085 47.105705 34.228192 47.1896 34.060407 47.35738 C 33.640944 47.692953 33.305374 47.52517 32.802018 47.35738 C 32.634233 47.35738 32.466448 47.441275 32.298662 47.52517 C 32.046984 47.692953 31.8792 47.776846 31.711414 47.94463 C 31.711414 48.028524 31.62752 48.112416 31.54363 48.112416 C 31.459736 48.2802 31.54363 48.447987 31.459736 48.53188 C 31.375844 48.699665 31.20806 48.699665 31.040273 48.78356 C 30.95638 48.78356 30.872488 48.86745 30.872488 48.86745 C 30.453025 49.20302 29.865777 49.4547 29.781884 49.958054 C 29.94967 50.377517 29.781884 50.71309 29.69799 50.964765 C 29.6141 50.964765 29.6141 51.04866 29.6141 51.13255 C 29.278528 51.635906 28.942958 52.13926 29.02685 52.894295 C 28.859065 53.06208 28.775173 53.14597 28.69128 53.31376 C 28.69128 53.73322 28.607387 53.9849 28.35571 53.9849 C 28.187924 54.23658 28.02014 54.40436 27.936246 54.65604 C 27.852354 54.823825 27.76846 55.159396 27.76846 55.32718 C 27.852354 55.57886 28.02014 55.746644 28.187924 55.99832 C 28.187924 56.16611 28.271817 56.33389 28.271817 56.417785 C 28.439602 56.83725 28.439602 57.00503 28.35571 57.50839 C 28.104032 57.84396 27.852354 58.26342 27.600676 58.682885 C 27.516783 58.85067 27.43289 58.93456 27.348998 59.10235 C 27.181213 59.354026 26.76175 59.6896 26.76175 60.02517 C 27.09732 62.29027 27.76846 64.471476 28.69128 66.65268 Z M 59.983224 50.629195 C 60.318795 50.377517 60.40269 51.04866 60.15101 51.21644 C 59.983224 51.13255 60.06712 50.79698 59.983224 50.629195 Z M 60.57047 52.64262 C 60.57047 52.64262 60.654365 52.558725 60.73826 52.47483 C 60.82215 52.47483 60.90604 52.39094 60.989936 52.307047 C 61.07383 52.223154 61.15772 52.223154 61.24161 52.223154 C 61.325506 52.13926 61.4094 52.223154 61.49329 52.223154 L 61.577184 52.223154 C 61.66108 52.223154 61.74497 52.223154 61.912754 52.223154 C 61.99665 52.13926 62.16443 52.13926 62.248325 52.13926 C 62.33222 52.13926 62.33222 52.13926 62.41611 52.13926 C 62.41611 52.223154 62.5 52.223154 62.5 52.223154 C 62.5 52.223154 62.583895 52.13926 62.66779 52.05537 C 62.66779 52.05537 62.75168 51.971476 62.83557 51.971476 C 62.919466 51.887584 63.00336 51.887584 63.00336 51.887584 C 63.08725 51.80369 63.17114 51.80369 63.17114 51.80369 C 63.255036 51.7198 63.255036 51.635906 63.33893 51.635906 C 63.255036 51.7198 63.08725 51.7198 62.919466 51.7198 C 62.583895 51.635906 62.5 51.21644 62.33222 50.964765 C 62.33222 50.88087 62.33222 50.79698 62.33222 50.79698 L 62.248325 50.629195 L 62.33222 50.5453 C 62.41611 50.46141 62.583895 50.377517 62.75168 50.293624 C 62.75168 50.20973 62.83557 50.20973 62.83557 50.20973 C 62.75168 50.20973 62.75168 50.20973 62.66779 50.20973 C 62.583895 50.20973 62.5 50.12584 62.41611 50.12584 C 62.33222 50.12584 62.33222 50.041946 62.33222 50.041946 C 62.248325 50.12584 62.16443 50.12584 61.99665 50.20973 C 61.82886 50.293624 61.66108 50.377517 61.49329 50.46141 C 61.4094 50.629195 61.4094 50.71309 61.325506 50.79698 C 61.325506 50.88087 61.24161 50.964765 61.24161 51.04866 C 61.24161 51.04866 61.24161 51.13255 61.15772 51.13255 C 61.15772 51.21644 61.15772 51.300335 61.07383 51.38423 C 60.90604 51.7198 60.57047 51.7198 60.15101 51.80369 C 60.15101 51.80369 60.06712 51.80369 59.983224 51.887584 C 59.89933 52.05537 59.983224 52.13926 60.06712 52.223154 C 60.15101 52.307047 60.2349 52.39094 60.2349 52.47483 C 60.318795 52.558725 60.318795 52.64262 60.318795 52.64262 C 60.40269 52.72651 60.40269 52.8104 60.40269 52.8104 C 60.40269 52.8104 60.48658 52.72651 60.57047 52.64262 Z M 62.83557 58.347315 C 62.75168 58.26342 62.66779 58.17953 62.66779 58.17953 C 62.583895 58.17953 62.5 58.26342 62.5 58.347315 C 62.41611 58.43121 62.33222 58.43121 62.33222 58.5151 C 62.33222 58.59899 62.33222 58.59899 62.33222 58.682885 C 62.33222 58.76678 62.41611 58.85067 62.41611 58.93456 C 62.41611 58.93456 62.5 59.018456 62.583895 59.018456 C 62.75168 59.10235 62.919466 59.10235 63.08725 59.18624 C 63.08725 59.18624 63.17114 59.18624 63.255036 59.18624 C 63.255036 59.18624 63.255036 59.270134 63.33893 59.270134 C 63.506714 59.270134 63.6745 59.270134 63.75839 59.270134 C 63.842284 59.270134 63.92618 59.18624 64.09396 59.18624 L 64.09396 59.10235 C 64.177855 59.10235 64.26175 59.018456 64.34564 59.018456 C 64.34564 58.93456 64.34564 58.93456 64.34564 58.85067 C 64.09396 58.85067 63.92618 58.76678 63.75839 58.76678 C 63.59061 58.682885 63.42282 58.682885 63.255036 58.682885 C 63.00336 58.59899 62.919466 58.5151 62.83557 58.347315 Z M 22.651012 51.21644 C 18.875844 52.558725 15.436247 51.7198 11.577187 49.035235 C 8.053697 46.68624 4.6141004 44.08557 1.677859 42.575504 C 5.0335634 41.568793 7.550342 41.14933 9.395979 41.652685 C 14.010073 42.911074 15.85571 47.60906 23.154368 48.95134 C 22.90269 49.706376 22.734905 50.46141 22.651012 51.21644 Z M 11.409402 24.11913 C 16.023496 24.874163 18.624167 26.300337 20.30202 28.145975 C 23.406045 31.50168 23.57383 35.947988 28.69128 38.21309 C 28.69128 38.29698 28.69128 38.29698 28.607387 38.380873 C 28.02014 39.052014 27.43289 39.80705 26.929535 40.56208 C 21.30873 39.2198 18.624167 36.870806 17.1141 33.5151 C 15.85571 30.83054 16.19128 28.481545 11.409402 24.11913 Z M 6.2919526 57.17282 C 8.389268 55.494966 10.738261 54.90772 13.92618 54.65604 C 17.701348 54.32047 19.630878 55.746644 22.23155 55.159396 C 22.147656 55.57886 22.147656 56.082214 22.147656 56.58557 C 19.966448 57.84396 18.036918 58.682885 15.85571 58.59899 C 12.751684 58.43121 10.151013 57.00503 6.2919526 57.17282 Z M 20.134234 25.545304 C 23.657723 26.38423 26.174502 27.72651 28.187924 29.57215 C 29.865777 31.16611 30.28524 33.17953 31.96309 35.02517 C 31.459736 35.36074 31.040273 35.780202 30.62081 36.199665 C 28.02014 35.36074 25.75504 34.10235 24.244972 32.256713 C 22.483227 29.991612 21.895978 27.72651 20.134234 25.545304 Z M 22.90269 62.541945 C 13.842288 68.24664 7.969805 63.54866 6734914e-12 61.78691 C 11.577187 54.06879 12.919469 63.38087 22.399334 59.52181 C 22.483227 60.52852 22.651012 61.535234 22.90269 62.541945 Z M 24.077186 46.098994 C 21.6443 45.847316 20.889267 46.68624 18.12081 45.763423 C 15.604033 44.924497 13.422825 42.323826 8.976516 40.14262 C 17.197992 36.786914 19.882556 42.07215 24.748327 44.588927 C 24.49665 45.00839 24.244972 45.511745 24.077186 46.098994 Z M 69.630875 80.830535 C 71.47651 82.50839 72.39933 84.35402 73.65772 85.7802 C 75.419465 87.87751 77.60067 88.96812 81.37584 90.3104 C 79.02685 87.87751 78.4396 85.19295 76.34228 82.84396 C 74.91611 81.16611 72.48322 80.57886 70.97316 79.82382 C 70.55369 80.15939 70.13423 80.49496 69.630875 80.830535 Z M 73.40604 77.64262 C 75.419465 78.9849 78.10403 81.41778 79.44631 85.10906 C 80.36913 87.79362 84.22819 91.14933 89.93289 92.5755 C 87.08054 89.1359 86.74497 87.12248 85.82215 84.94127 C 84.89933 82.67617 83.80873 80.66275 81.45973 78.56543 C 79.6141 76.971475 76.59396 76.04866 74.91611 75.96476 C 74.41275 76.55201 73.9094 77.13926 73.40604 77.64262 Z M 77.43289 72.35738 C 81.208055 75.12584 84.73154 77.47483 90.9396 76.38423 C 88.50671 75.29362 86.74497 73.69966 84.89933 72.44127 C 83.137585 71.35067 81.12416 70.51174 78.4396 70.59564 C 78.10403 71.182884 77.85235 71.77013 77.43289 72.35738 Z M 80.28524 50.12584 C 85.40269 50.20973 89.59732 46.854027 91.44295 42.239933 C 87.08054 46.098994 84.47987 45.763423 82.29866 46.35067 C 81.208055 46.68624 80.03356 47.60906 79.5302 48.028524 C 79.78188 48.699665 80.03356 49.4547 80.28524 50.12584 Z M 84.89933 26.552015 C 82.88591 29.068793 81.12416 31.417786 78.35571 32.76007 C 75.92282 34.018457 73.9094 35.612417 73.07047 37.62584 C 73.65772 38.29698 74.24497 38.96812 74.83222 39.639262 C 80.03356 37.458055 84.47987 32.256713 84.89933 26.552015 Z M 85.2349 21.182888 C 80.87248 24.958055 77.51678 24.538592 74.161076 26.38423 C 71.39262 27.97819 69.79866 31.25 69.54698 34.43792 C 69.71477 34.6896 69.966445 34.857384 70.21812 35.02517 C 70.55369 35.276847 70.88926 35.612417 71.22483 35.947988 C 74.41275 31.417786 78.02014 31.83725 81.29195 29.068793 C 82.63423 27.97819 84.47987 26.216445 85.2349 21.182888 Z M 81.04027 62.12248 C 85.82215 62.96141 90.26846 62.37416 94.46309 59.85738 C 91.94631 60.02517 89.01007 59.270134 86.49329 59.270134 C 84.56376 59.270134 82.71812 59.605704 81.29195 60.10906 C 81.208055 60.7802 81.208055 61.45134 81.04027 62.12248 Z M 94.79866 35.528524 C 88.84228 37.793625 86.99665 36.870806 83.38926 37.96141 C 80.62081 38.800336 78.4396 40.645974 77.09732 42.911074 C 77.60067 43.75 78.10403 44.588927 78.52349 45.511745 C 81.62752 43.917786 84.81544 44.00168 87.5 42.911074 C 90.10067 41.82047 92.11409 39.471477 94.79866 35.528524 Z M 81.37584 57.17282 C 84.39597 56.417785 85.82215 58.011744 89.09396 58.43121 C 92.36577 58.85067 96.81208 57.92785 100 54.90772 C 95.55369 54.99161 93.79195 53.14597 89.34564 52.47483 C 85.98993 51.887584 82.80201 52.64262 81.04027 53.817114 C 81.208055 54.90772 81.29195 56.082214 81.37584 57.17282 Z M 79.5302 68.07886 C 80.7047 68.330536 81.8792 68.75 83.05369 69.42114 C 84.22819 70.00839 85.40269 70.93121 86.66107 72.02181 C 89.42953 74.4547 92.44966 75.96476 98.07047 74.20302 C 93.12081 71.09899 91.35906 67.91107 89.17785 66.82047 C 86.82886 65.64597 82.21477 65.394294 80.11745 66.23322 C 79.94967 66.90436 79.78188 67.49161 79.5302 68.07886 Z M 26.510072 11.9547 C 30.536917 14.052016 33.305374 16.988257 34.73155 20.427854 C 36.241615 24.286914 35.82215 27.64262 38.33893 30.83054 C 37.500004 31.25 36.66108 31.669464 35.906045 32.17282 C 32.130877 30.159397 30.369132 27.39094 29.781884 24.203022 C 28.942958 19.756713 29.446313 16.401009 26.510072 11.9547 Z M 34.395978 16.401009 C 37.919467 18.66611 40.60403 21.937921 41.61074 24.538592 C 42.19799 25.964767 42.365776 27.474834 42.617454 29.23658 C 42.1141 29.404364 41.52685 29.57215 40.9396 29.823827 C 39.513427 29.068793 38.171145 27.64262 37.41611 25.880874 C 35.989937 22.52517 36.577185 20.427854 34.395978 16.401009 Z M 47.65101 7.4244995 C 49.32886 9.35403 50.25168 11.703023 50.671144 15.14262 C 51.006715 17.911076 47.39933 22.944633 49.24497 28.145975 C 48.23826 28.229867 47.231547 28.31376 46.30873 28.481545 C 44.3792 25.71309 43.70806 22.441277 44.12752 19.33725 C 44.71477 14.723157 47.231547 11.61913 47.65101 7.4244995 Z M 54.94967 21.85403 C 54.94967 24.706378 53.859064 26.216445 53.77517 28.229867 C 53.10403 28.145975 52.51678 28.145975 51.84564 28.145975 C 51.1745 26.552015 50.58725 25.12584 50.671144 23.615774 C 50.83893 20.847317 52.265104 17.994969 52.18121 13.129197 C 54.44631 16.065439 54.94967 20.59564 54.94967 21.85403 Z M 57.466446 28.817116 C 56.71141 19.169465 63.842284 19.00168 67.19799 10.528526 C 68.28859 13.632553 68.28859 18.33054 66.69463 21.015103 C 63.92618 25.880874 62.66779 25.377518 60.90604 29.823827 C 59.731546 29.404364 58.64094 29.068793 57.466446 28.817116 Z M 65.771814 32.005035 C 66.19128 30.998323 67.1141 30.075505 67.86913 28.817116 C 68.87584 26.971478 69.88255 23.19631 68.708056 19.33725 C 68.036915 21.686244 67.36577 24.370807 66.02349 25.71309 C 64.513425 27.223156 63.75839 29.068793 63.92618 31.082216 C 64.513425 31.333894 65.184566 31.669464 65.771814 32.005035 Z" fill="#373151"/>
  </g>
</svg>
