<?xml version="1.0" encoding="UTF-8" standalone="no"?>
<!DOCTYPE svg PUBLIC "-//W3C//DTD SVG 1.1//EN" "http://www.w3.org/Graphics/SVG/1.1/DTD/svg11.dtd">
<svg version="1.1" xmlns:xl="http://www.w3.org/1999/xlink" xmlns:dc="http://purl.org/dc/elements/1.1/" xmlns="http://www.w3.org/2000/svg" viewBox="0 0 100 100" width="100" height="100">
  <defs/>
  <g id="party-icon--independent" fill="none" stroke-opacity="1" stroke="none" fill-opacity="1" stroke-dasharray="none">
    <title>Portcullis icon</title>
    <path d="M 88.07692 33.846154 L 88.07692 33.846154 C 88.07692 32.57165 89.11011 31.53846 90.38462 31.53846 C 91.65912 31.53846 92.69231 32.57165 92.69231 33.846154 C 92.69231 35.120657 91.65912 36.153846 90.38462 36.153846 C 89.11011 36.153846 88.07692 35.120657 88.07692 33.846154 Z M 18.846154 24.615385 L 81.15385 24.615385 L 81.15385 20 L 78.84615 15.384615 L 76.53846 20 L 69.615385 20 L 69.615385 15.384615 L 67.30769 10.769231 L 65 15.384615 L 65 20 L 58.07692 20 L 58.07692 10.769231 L 55.76923 6.153846 L 53.46154 10.769231 L 53.46154 20 L 46.53846 20 L 46.53846 10.769231 L 44.23077 6.153846 L 41.923077 10.769231 L 41.923077 20 L 35 20 L 35 15.384615 L 32.692308 10.769231 L 30.384615 15.384615 L 30.384615 20 L 23.461538 20 L 21.153846 15.384615 L 18.846154 20 Z M 11.923077 33.846154 L 11.923077 33.846154 C 11.923077 35.120657 10.889888 36.153846 9.615385 36.153846 C 8.340882 36.153846 7.307692 35.120657 7.307692 33.846154 C 7.307692 32.57165 8.340882 31.53846 9.615385 31.53846 C 10.889888 31.53846 11.923077 32.57165 11.923077 33.846154 Z M 9.615385 77.69231 L 9.615385 77.69231 C 8.340882 77.69231 7.307692 76.65912 7.307692 75.384615 C 7.307692 74.11011 8.340882 73.07692 9.615385 73.07692 C 10.889888 73.07692 11.923077 74.11011 11.923077 75.384615 C 11.923077 76.65912 10.889888 77.69231 9.615385 77.69231 Z M 90.38462 77.69231 L 90.38462 77.69231 C 89.11011 77.69231 88.07692 76.65912 88.07692 75.384615 C 88.07692 74.11011 89.11011 73.07692 90.38462 73.07692 C 91.65912 73.07692 92.69231 74.11011 92.69231 75.384615 C 92.69231 76.65912 91.65912 77.69231 90.38462 77.69231 Z M 18.846154 35 L 18.846154 39.615385 L 81.15385 39.615385 L 81.15385 35 L 85.91463 35 C 86.33208 36.621854 87.60892 37.898697 89.23077 38.316134 L 89.23077 39.76079 C 87.24012 40.273147 85.76923 42.080186 85.76923 44.23077 C 85.76923 46.381354 87.24012 48.18839 89.23077 48.70075 L 89.23077 50.145405 C 87.24012 50.65776 85.76923 52.4648 85.76923 54.615385 C 85.76923 56.76597 87.24012 58.57301 89.23077 59.085365 L 89.23077 60.53002 C 87.24012 61.04238 85.76923 62.84942 85.76923 65 C 85.76923 67.150585 87.24012 68.95762 89.23077 69.46998 L 89.23077 70.914636 C 87.24012 71.42699 85.76923 73.23403 85.76923 75.384615 C 85.76923 77.5352 87.24012 79.34224 89.23077 79.8546 L 89.23077 81.29925 C 87.24012 81.81161 85.76923 83.61865 85.76923 85.76923 C 85.76923 88.31824 87.83561 90.38462 90.38462 90.38462 C 92.93362 90.38462 95 88.31824 95 85.76923 C 95 83.61865 93.52911 81.81161 91.53846 81.29925 L 91.53846 79.8546 C 93.52911 79.34224 95 77.5352 95 75.384615 C 95 73.23403 93.52911 71.42699 91.53846 70.914636 L 91.53846 69.46998 C 93.52911 68.95762 95 67.150585 95 65 C 95 62.84942 93.52911 61.04238 91.53846 60.53002 L 91.53846 59.085365 C 93.52911 58.57301 95 56.76597 95 54.615385 C 95 52.4648 93.52911 50.65776 91.53846 50.145405 L 91.53846 48.70075 C 93.52911 48.18839 95 46.381354 95 44.23077 C 95 42.080186 93.52911 40.273147 91.53846 39.76079 L 91.53846 38.316134 C 93.52911 37.803777 95 35.99674 95 33.846154 C 95 31.297148 92.93362 29.23077 90.38462 29.23077 C 88.23403 29.23077 86.42699 30.70166 85.91463 32.692308 L 81.15385 32.692308 L 81.15385 29.23077 L 18.846154 29.23077 L 18.846154 32.692308 L 14.085365 32.692308 C 13.573008 30.70166 11.765969 29.23077 9.615385 29.23077 C 7.0663785 29.23077 5 31.297148 5 33.846154 C 5 35.99674 6.470892 37.803777 8.461538 38.316134 L 8.461538 39.76079 C 6.470892 40.273147 5 42.080186 5 44.23077 C 5 46.381354 6.470892 48.18839 8.461538 48.70075 L 8.461538 48.70075 L 8.461538 50.145405 C 6.470892 50.65776 5 52.4648 5 54.615385 C 5 56.76597 6.470892 58.57301 8.461538 59.085365 L 8.461538 59.085365 L 8.461538 60.53002 C 6.470892 61.04238 5 62.84942 5 65 C 5 67.150585 6.470892 68.95762 8.461538 69.46998 L 8.461538 69.46998 L 8.461538 70.914636 C 6.470892 71.42699 5 73.23403 5 75.384615 C 5 77.5352 6.470892 79.34224 8.461538 79.8546 L 8.461538 79.8546 L 8.461538 81.29925 C 6.470892 81.81161 5 83.61865 5 85.76923 C 5 88.31824 7.0663785 90.38462 9.615385 90.38462 C 12.164391 90.38462 14.23077 88.31824 14.23077 85.76923 C 14.23077 83.61865 12.759877 81.81161 10.769231 81.29925 L 10.769231 79.8546 C 12.759877 79.34224 14.23077 77.5352 14.23077 75.384615 C 14.23077 73.23403 12.759877 71.42699 10.769231 70.914636 L 10.769231 69.46998 C 12.759877 68.95762 14.23077 67.150585 14.23077 65 C 14.23077 62.84942 12.759877 61.04238 10.769231 60.53002 L 10.769231 59.085365 C 12.759877 58.57301 14.23077 56.76597 14.23077 54.615385 C 14.23077 52.4648 12.759877 50.65776 10.769231 50.145405 L 10.769231 48.70075 C 12.759877 48.18839 14.23077 46.381354 14.23077 44.23077 C 14.23077 42.080186 12.759877 40.273147 10.769231 39.76079 L 10.769231 38.316134 C 12.391085 37.898697 13.667928 36.621854 14.085365 35 Z M 9.615385 41.923077 C 10.889888 41.923077 11.923077 42.956266 11.923077 44.23077 C 11.923077 45.50527 10.889888 46.53846 9.615385 46.53846 C 8.340882 46.53846 7.307692 45.50527 7.307692 44.23077 C 7.307692 42.956266 8.340882 41.923077 9.615385 41.923077 Z M 90.38462 41.923077 C 91.65912 41.923077 92.69231 42.956266 92.69231 44.23077 C 92.69231 45.50527 91.65912 46.53846 90.38462 46.53846 C 89.11011 46.53846 88.07692 45.50527 88.07692 44.23077 C 88.07692 42.956266 89.11011 41.923077 90.38462 41.923077 Z M 9.615385 52.30769 C 10.889888 52.30769 11.923077 53.34088 11.923077 54.615385 C 11.923077 55.88989 10.889888 56.92308 9.615385 56.92308 C 8.340882 56.92308 7.307692 55.88989 7.307692 54.615385 C 7.307692 53.34088 8.340882 52.30769 9.615385 52.30769 Z M 18.846154 50 L 18.846154 60.384615 L 18.846154 70.76923 L 81.15385 70.76923 L 81.15385 60.384615 L 81.15385 50 L 81.15385 39.615385 L 18.846154 39.615385 Z M 90.38462 52.30769 C 91.65912 52.30769 92.69231 53.34088 92.69231 54.615385 C 92.69231 55.88989 91.65912 56.92308 90.38462 56.92308 C 89.11011 56.92308 88.07692 55.88989 88.07692 54.615385 C 88.07692 53.34088 89.11011 52.30769 90.38462 52.30769 Z M 9.615385 62.69231 C 10.889888 62.69231 11.923077 63.7255 11.923077 65 C 11.923077 66.2745 10.889888 67.30769 9.615385 67.30769 C 8.340882 67.30769 7.307692 66.2745 7.307692 65 C 7.307692 63.7255 8.340882 62.69231 9.615385 62.69231 Z M 90.38462 62.69231 C 91.65912 62.69231 92.69231 63.7255 92.69231 65 C 92.69231 66.2745 91.65912 67.30769 90.38462 67.30769 C 89.11011 67.30769 88.07692 66.2745 88.07692 65 C 88.07692 63.7255 89.11011 62.69231 90.38462 62.69231 Z M 9.615385 83.46154 C 10.889888 83.46154 11.923077 84.49472 11.923077 85.76923 C 11.923077 87.04374 10.889888 88.07692 9.615385 88.07692 C 8.340882 88.07692 7.307692 87.04374 7.307692 85.76923 C 7.307692 84.49472 8.340882 83.46154 9.615385 83.46154 Z M 81.15385 81.15385 L 81.15385 70.76923 L 18.846154 70.76923 L 18.846154 81.15385 L 18.846154 84.61538 L 18.846154 89.23077 L 21.153846 93.84615 L 23.461538 89.23077 L 23.461538 85.76923 L 30.384615 85.76923 L 30.384615 89.23077 L 32.692308 93.84615 L 35 89.23077 L 35 85.76923 L 41.923077 85.76923 L 41.923077 89.23077 L 44.23077 93.84615 L 46.53846 89.23077 L 46.53846 85.76923 L 53.46154 85.76923 L 53.46154 89.23077 L 55.76923 93.84615 L 58.07692 89.23077 L 58.07692 85.76923 L 65 85.76923 L 65 89.23077 L 67.30769 93.84615 L 69.615385 89.23077 L 69.615385 85.76923 L 76.53846 85.76923 L 76.53846 89.23077 L 78.84615 93.84615 L 81.15385 89.23077 L 81.15385 85.76923 L 81.15385 84.61538 Z M 90.38462 83.46154 C 91.65912 83.46154 92.69231 84.49472 92.69231 85.76923 C 92.69231 87.04374 91.65912 88.07692 90.38462 88.07692 C 89.11011 88.07692 88.07692 87.04374 88.07692 85.76923 C 88.07692 84.49472 89.11011 83.46154 90.38462 83.46154 Z" fill="#373151"/>
  </g>
</svg>
