<?xml version="1.0" encoding="UTF-8" standalone="no"?>
<!DOCTYPE svg PUBLIC "-//W3C//DTD SVG 1.1//EN" "http://www.w3.org/Graphics/SVG/1.1/DTD/svg11.dtd">
<svg version="1.1" xmlns:xl="http://www.w3.org/1999/xlink" xmlns:dc="http://purl.org/dc/elements/1.1/" xmlns="http://www.w3.org/2000/svg" viewBox="0 0 100 100" width="100" height="100">
  <defs/>
  <g id="party-icon--labour" fill="none" stroke-opacity="1" stroke="none" fill-opacity="1" stroke-dasharray="none">
    <title>Labour Party icon</title>

    <path d="M 83.22049 73.35968 C 82.62698 74.59199 81.69368 74.83665 81.10018 74.93631 C 80.5112 75.036 80.31186 75.380325 79.62321 76.21847 C 78.93456 77.056635 78.0964 78.33426 75.08809 82.72438 C 72.08432 87.10998 63.06393 85.43367 58.039516 84.40071 C 53.0151 83.3632 52.272086 81.78654 51.877926 78.28894 C 51.483765 74.78682 54.048074 72.716325 54.78656 72.372 C 55.525046 72.02767 58.778 70.74554 60.79864 68.97408 C 62.81928 67.202614 66.072236 66.85375 66.56607 66.85375 C 67.05537 66.85375 68.38736 66.75409 72.8228 66.26025 C 77.25825 65.770944 81.74352 66.95344 84.79713 67.89126 C 87.3705 68.67958 92.5263 71.56103 95 72.95192 L 95 13.093883 C 95 9.392394 92.00075 6.388627 88.29474 6.388627 L 81.42638 6.388627 C 83.88195 8.463615 87.58344 12.600042 88.20413 16.741005 C 88.98339 21.91039 83.2069 23.63202 82.73118 23.79964 C 82.260005 23.967275 82.05613 24.071475 82.05613 24.071475 C 80.33451 20.492326 81.88849 18.938334 82.5998 17.891769 C 83.30657 16.845204 82.260005 16.337777 81.1772 15.862058 C 80.09892 15.390876 79.72741 14.919711 79.55978 14.34433 C 79.38762 13.768929 79.28794 12.957955 78.88472 12.115273 C 78.47697 11.268054 77.70224 11.136662 76.99094 11.068708 C 76.28417 11.000753 75.70879 10.59299 75.30103 10.493326 C 74.89781 10.393662 74.29071 10.393662 74.29071 10.393662 L 74.32243 10.969044 C 74.32243 10.969044 72.36522 9.954189 70.47144 8.567834 C 69.12585 7.580171 68.772465 7.258484 68.237856 6.388627 L 65.25673 6.388627 C 65.41983 7.181478 65.69167 7.639055 65.94538 7.992452 C 66.285176 8.468151 65.37 9.750307 64.4956 10.017608 C 63.61666 10.289444 61.58696 9.650643 61.58696 9.650643 C 58.7191 10.425372 58.818776 9.954189 55.40725 10.457081 C 51.99572 10.964508 51.38862 13.229792 50.781524 14.61163 C 50.169895 15.997985 51.252705 15.490558 49.63076 17.787569 C 48.00881 20.084561 44.52932 20.832116 43.11125 20.79587 C 41.693176 20.764162 42.132645 20.591988 42.200604 25.050084 C 42.268564 29.50818 42.907375 28.90109 44.397934 29.272587 C 45.883965 29.64409 46.45482 27.65064 46.69494 27.347097 C 46.93053 27.04355 46.962244 26.635785 46.626984 26.604077 C 44.97785 26.440975 43.99018 26.09665 43.519005 25.657176 C 43.047824 25.217722 43.72288 24.34331 44.497607 23.799637 C 45.272336 23.2605 47.605586 22.010073 48.280645 21.70651 C 48.9557 21.402962 50.91744 20.764162 51.796375 20.59199 C 52.67531 20.424353 52.806695 21.1991 53.01057 21.606845 C 53.187264 21.960222 53.07853 22.349863 53.85326 22.25018 C 58.45633 21.647625 59.46212 22.381574 59.765666 22.349863 C 60.06922 22.313618 60.47697 21.978345 60.54493 21.402962 C 60.608354 20.832116 58.99094 20.492326 58.247924 20.288444 C 57.50491 20.084561 53.24616 20.016608 53.24616 20.016608 C 53.24616 20.016608 52.167884 19.173925 51.964005 17.14875 C 51.76013 15.123575 56.861564 13.062174 58.68286 12.554746 C 60.50868 12.047318 64.93506 11.403963 69.96401 12.079028 C 75.00201 12.754093 77.126855 15.898303 78.00579 19.346079 C 78.88473 22.789319 76.21621 23.867612 75.80845 23.903837 C 75.40524 23.935566 74.5263 24.782784 74.15479 25.421585 C 73.78329 26.06494 72.600805 26.943868 71.75812 27.451295 C 70.9109 27.954188 69.628744 29.073243 69.628744 29.073243 C 69.628744 29.073243 69.59703 29.915925 68.545935 30.32369 C 67.49937 30.726897 66.72464 28.597524 66.0813 27.17946 C 65.44249 25.761394 64.8671 25.14975 64.32343 24.039766 C 63.78429 22.925246 62.90536 22.68512 62.5701 22.68512 C 62.230305 22.68512 62.13063 23.2605 62.13063 24.171157 C 62.13063 25.08633 61.287944 25.996967 59.86534 26.907623 C 58.44727 27.822795 55.57488 26.268803 55.239616 26.132894 C 54.899825 25.996967 53.28241 25.35363 52.806695 25.14975 C 52.335514 24.950402 52.16335 24.646857 51.760134 24.171157 C 51.352376 23.699975 50.613895 24.510948 50.373774 24.678586 C 50.13818 24.850738 49.80292 25.14975 50.41002 25.929014 C 51.01712 26.70374 52.94261 27.347097 53.85326 27.618933 C 54.768434 27.886235 55.778756 29.104953 56.32243 29.544425 C 56.861564 29.98388 57.43695 30.391644 57.808454 30.151517 C 60.3184 28.552227 63.381074 28.121826 63.883965 28.121826 C 64.39139 28.121826 66.520765 28.15807 65.474204 31.401964 C 64.038 35.855524 59.357916 36.770696 55.74704 36.906623 C 52.13164 37.042532 50.274104 36.131894 50.070223 36.131894 C 49.870877 36.131894 49.834634 36.535103 49.934305 36.535103 C 50.03851 36.535103 51.22099 37.38232 52.099925 37.989433 C 52.974325 38.596524 54.46036 39.543405 55.071986 39.543405 C 55.67908 39.543405 57.67254 38.86836 58.3476 38.696187 C 59.02265 38.52857 60.676315 38.12534 61.994714 37.717597 C 63.31311 37.31437 68.37831 33.227792 69.28895 32.3126 C 70.20413 31.401962 70.9109 29.272587 71.25069 29.172905 C 71.585955 29.073243 72.2293 29.61238 72.73672 29.680332 C 73.24415 29.74377 74.32243 28.226024 74.59426 27.143214 C 74.8661 26.06494 74.93405 25.929012 75.2376 25.861058 C 75.54115 25.793105 75.640825 26.536123 75.640825 26.536123 C 75.640825 26.536123 76.01233 28.429907 75.8447 31.062173 C 75.67707 33.698975 75.43695 34.37402 74.66222 36.60306 C 73.88296 38.832116 71.21898 39.067707 70.340045 39.339543 C 69.46111 39.61138 67.26378 40.318134 65.70979 40.58997 C 64.1558 40.85729 63.34483 40.01459 62.298266 39.543405 C 61.92676 39.37579 59.901584 39.036 59.733954 39.61138 C 59.00453 42.080543 63.381074 43.42612 64.087844 43.593756 C 68.72263 44.699223 75.169645 42.47924 75.50491 39.711043 C 76.01686 35.53839 76.48351 35.049084 77.02718 34.441975 C 77.56632 33.834884 79.02064 34.34231 79.02064 34.34231 C 79.55978 33.79864 82.09237 31.9411 82.09237 31.9411 C 82.09237 31.9411 82.90335 31.53787 82.4956 30.894535 C 82.09237 30.255715 81.82054 27.655158 85.03272 27.990433 C 88.24037 28.330223 89.31865 32.851736 89.31865 32.851736 C 89.31865 32.851736 90.60534 35.524783 89.69016 42.3116 C 88.77951 49.09842 79.72741 56.06192 71.48628 58.65794 C 63.245156 61.2585 59.3262 60.95947 58.31135 60.95947 C 57.30103 60.95947 55.27133 60.1485 54.596275 60.01259 C 53.92122 59.87666 52.199596 58.7259 51.62421 58.490306 C 51.04883 58.25471 49.059905 57.23986 48.62044 57.04051 C 48.18097 56.83665 46.626984 55.85804 45.716335 55.2147 C 44.80116 54.57588 44.56557 53.8963 44.26202 53.221236 C 43.95847 52.54619 42.304807 51.232307 42.10093 51.06015 C 41.897053 50.89252 42.10093 50.62068 42.10093 50.62068 C 43.990183 51.43165 56.75736 53.221236 57.77221 53.25748 C 58.78706 53.28919 63.412785 53.42512 64.01988 53.42512 C 64.62698 53.42512 65.70979 53.79662 65.741504 53.017356 C 65.77775 52.242627 62.19859 51.70349 61.79084 51.667244 C 61.38762 51.635535 59.598036 51.59929 58.27964 51.43165 C 56.96124 51.264033 53.7853 46.33022 53.345835 45.69142 C 52.9109 45.048066 52.738736 45.2157 51.927764 44.812473 C 51.11679 44.40473 48.280645 42.211936 47.94085 41.83588 C 47.605586 41.46892 48.21268 40.050834 47.87742 39.679334 C 47.53763 39.3033 46.45482 39.91039 45.60307 40.295496 C 43.58696 41.20613 42.843947 40.164103 42.843947 40.164103 L 40.084822 37.26907 L 39.427885 38.71431 C 39.427885 38.71431 46.39139 44.368485 48.3622 45.945116 C 50.33753 47.521767 48.887744 48.047316 48.887744 48.047316 C 48.887744 48.047316 47.44249 49.623967 46.91694 49.75534 C 46.39139 49.88673 42.18701 49.09842 38.902343 48.17871 C 35.61767 47.259 34.56657 46.2079 31.281904 43.317384 C 27.997232 40.42687 26.683362 32.937832 27.077524 31.48804 C 27.47168 30.04278 27.603068 27.809207 27.3403 27.152265 C 27.077524 26.495342 26.551974 24.26177 27.734455 24.26177 C 28.91694 24.26177 29.836647 26.8895 32.59577 30.04278 C 35.354894 33.19606 38.376795 34.247163 39.559273 33.59024 C 40.741754 32.933298 39.165112 30.96249 38.508177 29.780016 C 37.851244 28.597524 37.982635 28.203366 35.354896 24.918692 C 32.72716 21.634017 34.56657 19.13768 35.09212 17.955186 C 35.61767 16.772714 37.19431 14.53914 37.588474 10.855773 C 37.80141 8.889501 38.57614 7.562048 39.717844 6.3886266 L 11.70526 6.3886266 C 7.999241 6.3886266 5 9.392393 5 13.093882 L 5 36.933796 C 6.8303545 37.545423 10.898813 38.945384 11.62824 39.543405 C 12.575132 40.318134 20.965768 46.656424 20.64863 58.01912 C 20.616915 59.233325 21.029196 59.62748 21.559276 60.21645 C 21.862823 60.55173 24.80317 63.39239 24.295748 65.14573 C 22.94563 63.15228 21.595516 62.10572 21.187767 61.901835 C 20.784544 61.69795 20.34508 61.462365 20.04153 62.209916 C 19.737979 62.9484 19.466146 64.94638 15.44752 64.371 C 11.764158 63.840916 8.728673 63.2157 5 58.15505 L 5 86.90612 C 5 90.60759 7.999241 93.61137 11.70526 93.61137 L 17.05135 93.61137 C 17.640318 92.41076 17.975583 91.63604 18.419578 90.60759 C 19.058392 89.13062 21.12887 83.85704 22.116537 82.18073 C 23.099671 80.50441 24.531334 78.28894 24.531334 78.28894 C 24.531334 78.28894 24.08734 74.78682 24.187012 72.76618 C 24.282154 70.74554 25.369495 66.26025 25.369495 66.26025 C 25.369495 66.26025 25.763653 65.5263 25.56431 64.73345 C 25.369495 63.945134 25.070475 63.1115 25.269816 61.67983 C 25.464632 60.25269 26.10798 58.03271 27.240625 56.99975 C 28.37327 55.96677 29.16159 55.37327 29.800402 55.4231 C 30.443743 55.47293 31.42688 56.406246 32.709034 59.41455 C 32.709034 59.41455 32.02039 59.5097 31.47672 59.36472 C 30.93758 59.2152 31.281904 59.65919 31.381574 59.808705 C 31.47672 59.95369 32.758873 60.94135 32.120056 62.17367 C 31.47672 63.40598 28.40498 67.112 29.061914 67.98641 C 29.505913 68.57992 29.755096 68.03625 30.443743 67.29776 C 31.132395 66.55928 32.659198 64.78328 32.908383 64.882965 C 33.153035 64.982625 32.41455 67.54694 29.755096 70.306064 C 29.755096 70.306064 30.493584 70.65039 29.755096 72.02767 C 29.01661 73.40951 27.929268 74.83665 27.784292 75.13112 C 27.634782 75.43015 27.634782 76.1188 28.07878 75.72465 C 28.522776 75.33047 32.709034 71.982375 36.80015 71.982375 C 39.758617 71.982375 40.0078 72.89301 40.54694 73.16485 C 41.036245 73.40951 41.779256 74.24766 41.92424 74.69167 C 42.07375 75.13112 42.268564 75.47545 43.007045 75.72465 C 43.75006 75.96929 46.16486 76.56279 46.50919 79.71608 C 46.50919 79.71608 47.79134 81.29273 46.21017 83.70752 C 46.21017 83.70752 58.560534 82.0448 63.79788 93.61137 L 88.29474 93.61137 C 92.00075 93.61137 95 90.60759 95 86.90612 L 95 73.97582 C 92.90687 72.73899 88.37629 72.17719 87.7556 72.17719 C 87.01258 72.17719 83.81399 72.12736 83.22049 73.35968 M 29.410776 45.356145 C 29.01661 45.45583 28.56355 45.265533 27.942863 45.886233 C 27.743517 46.08104 27.49887 46.51598 27.485272 46.946384 C 27.449028 48.22854 24.676313 46.896553 24.33199 46.78782 C 23.44853 46.511447 22.0667 45.66423 19.013086 42.21645 C 15.954943 38.76416 14.872133 31.669264 14.772465 28.860308 C 14.672791 26.051334 15.905111 20.927264 19.552224 16.09765 C 23.199346 11.268054 29.55575 10.429887 30.393912 10.429887 C 31.232064 10.429887 32.02039 10.52957 32.070225 11.023411 C 32.120056 11.517233 31.970547 11.517233 31.970547 12.106202 C 31.970547 12.106202 32.41455 13.18903 32.26504 14.915175 C 31.929777 18.852256 28.178456 21.914925 26.35263 23.441725 C 24.531334 24.968543 24.72615 26.989183 24.775992 29.009823 C 24.825823 31.025928 26.402464 37.731183 26.74679 38.863824 C 27.091116 39.996465 29.320158 43.901835 29.669014 44.39566 C 30.013336 44.8895 29.800402 45.256483 29.410776 45.356145 M 39.192296 66.02466 C 37.198843 64.60659 36.052603 61.93808 34.83841 58.490306 C 33.619683 55.047066 32.912913 52.64586 32.36924 51.0964 C 31.830098 49.542405 31.458594 49.4065 31.39064 48.998733 C 31.322676 48.595524 31.458594 48.35993 31.62623 48.1923 C 31.62623 48.1923 34.598286 48.66348 37.067454 49.778 C 39.532093 50.89252 39.46413 51.0964 41.588974 52.51446 C 43.71835 53.93255 44.56557 56.86836 45.13642 57.95117 C 45.7118 59.03398 47.67808 59.85854 47.94991 59.994465 C 48.22175 60.12584 49.10521 60.769194 49.10521 60.769194 C 57.68613 64.0448 63.4445 64.30305 63.716335 64.371 C 63.98817 64.43442 64.11956 64.67455 64.11956 64.67455 C 63.30858 65.92046 55.674554 66.160585 55.674554 66.160585 C 55.674554 66.160585 53.04229 66.09263 48.72011 67.343055 C 44.393407 68.58897 41.185753 67.44274 39.192296 66.02466" fill="#373151"/>

  </g>
</svg>
