<?xml version="1.0" encoding="UTF-8" standalone="no"?>
<!DOCTYPE svg PUBLIC "-//W3C//DTD SVG 1.1//EN" "http://www.w3.org/Graphics/SVG/1.1/DTD/svg11.dtd">
<svg version="1.1" xmlns:xl="http://www.w3.org/1999/xlink" xmlns:dc="http://purl.org/dc/elements/1.1/" xmlns="http://www.w3.org/2000/svg" viewBox="0 0 100 100" width="100" height="100">
  <defs/>
  <g id="party-icon--liberal-democrat" fill="none" stroke-opacity="1" stroke="none" fill-opacity="1" stroke-dasharray="none">
    <title>Liberal Democrat icon</title>

    <path d="M 53.377004 43.18261 C 53.377004 43.18261 50.94259 46.24545 48.81942 51.370006 C 48.81942 51.370006 44.93189 59.509825 39.692356 62.820464 C 39.692356 62.820464 34.187175 67.06681 26.701555 68.13137 C 26.701555 68.13137 24.725083 68.49812 22.054763 68.49812 C 19.983133 68.49812 17.493212 68.2741 15.199553 67.48907 C 15.199553 67.48907 8.643689 65.91304 5.1665233 62.77289 C 5.1665233 62.77289 5.005947 63.538106 5 64.644296 L 5 64.74738 C 5.005947 66.02406 5.2279783 67.72894 6.1339445 69.249455 C 6.1339445 69.249455 6.266767 69.54087 6.472938 69.8977 C 8.18575 71.39047 10.118609 71.92176 12.249711 71.92176 C 17.227569 71.92176 23.004342 68.97588 27.82757 68.68843 C 34.754148 68.68843 42.47171 67.954935 47.865876 64.11301 C 51.89812 61.2385 54.598175 56.37958 56.81849 51.19357 C 59.05862 45.585303 64.41512 42.005053 70.69543 40.64115 C 70.469434 40.547973 70.13242 40.460747 69.62889 40.460747 C 69.341436 40.460747 69.00641 40.492466 68.60992 40.557885 C 68.60992 40.557885 68.23921 40.61934 67.5751 40.61934 C 66.74645 40.61934 65.457875 40.526168 63.84815 40.101927 C 63.84815 40.101927 62.70033 39.85809 61.110425 39.85809 C 58.73549 39.85809 55.37528 40.41317 53.377004 43.18261" fill="#373151"/>

    <path d="M 53.377004 43.18261 C 53.377004 43.18261 50.94259 46.24545 48.81942 51.370006 C 48.81942 51.370006 44.93189 59.509825 39.692356 62.820464 C 39.692356 62.820464 34.187175 67.06681 26.701555 68.13137 C 26.701555 68.13137 24.725083 68.49812 22.054763 68.49812 C 19.983133 68.49812 17.493212 68.2741 15.199553 67.48907 C 15.199553 67.48907 8.643689 65.91304 5.1665233 62.77289 C 5.1665233 62.77289 5.005947 63.538106 5 64.644296 L 5 64.74738 C 5.005947 66.02406 5.2279783 67.72894 6.1339445 69.249455 C 6.1339445 69.249455 6.266767 69.54087 6.472938 69.8977 C 8.18575 71.39047 10.118609 71.92176 12.249711 71.92176 C 17.227569 71.92176 23.004342 68.97588 27.82757 68.68843 C 34.754148 68.68843 42.47171 67.954935 47.865876 64.11301 C 51.89812 61.2385 54.598175 56.37958 56.81849 51.19357 C 59.05862 45.585303 64.41512 42.005053 70.69543 40.64115 C 70.469434 40.547973 70.13242 40.460747 69.62889 40.460747 C 69.341436 40.460747 69.00641 40.492466 68.60992 40.557885 C 68.60992 40.557885 68.23921 40.61934 67.5751 40.61934 C 66.74645 40.61934 65.457875 40.526168 63.84815 40.101927 C 63.84815 40.101927 62.70033 39.85809 61.110425 39.85809 C 58.73549 39.85809 55.37528 40.41317 53.377004 43.18261" fill="#373151"/>

    <path d="M 16.103537 14.839946 C 12.870209 29.797308 30.904286 33.69078 40.80053 40.573743 C 45.74667 43.866546 45.980594 49.51248 44.50171 54.898715 C 44.91405 54.339675 49.62825 47.767947 47.14626 41.88016 C 47.14626 41.88016 45.23124 37.633816 37.07556 33.95048 C 37.07556 33.95048 28.035725 30.072864 23.755679 26.502525 C 23.755679 26.502525 16.626896 20.261866 16.103537 14.832017 Z" fill="#373151"/>

    <path d="M 16.103537 14.839946 C 12.870209 29.797308 30.904286 33.69078 40.80053 40.573743 C 45.74667 43.866546 45.980594 49.51248 44.50171 54.898715 C 44.91405 54.339675 49.62825 47.767947 47.14626 41.88016 C 47.14626 41.88016 45.23124 37.633816 37.07556 33.95048 C 37.07556 33.95048 28.035725 30.072864 23.755679 26.502525 C 23.755679 26.502525 16.626896 20.261866 16.103537 14.832017 Z" fill="#373151"/>

    <path d="M 12.039575 32.860148 C 12.509409 35.643466 13.730579 38.05607 15.716964 39.70941 C 21.771276 45.335517 30.42256 46.63004 38.207523 50.51955 C 41.010667 51.72486 41.591514 55.1485 41.31794 58.395704 C 41.672795 57.582914 42.959384 54.27425 41.762003 50.85061 C 41.762003 50.85061 41.155383 48.015753 34.086072 45.32759 C 34.086072 45.32759 24.203706 41.90593 20.94659 39.77483 C 20.94659 39.77483 14.188519 36.281806 12.061382 30.766712 C 12.061382 30.766712 11.982084 31.60131 12.039575 32.860148" fill="#373151"/>

    <path d="M 12.039575 32.860148 C 12.509409 35.643466 13.730579 38.05607 15.716964 39.70941 C 21.771276 45.335517 30.42256 46.63004 38.207523 50.51955 C 41.010667 51.72486 41.591514 55.1485 41.31794 58.395704 C 41.672795 57.582914 42.959384 54.27425 41.762003 50.85061 C 41.762003 50.85061 41.155383 48.015753 34.086072 45.32759 C 34.086072 45.32759 24.203706 41.90593 20.94659 39.77483 C 20.94659 39.77483 14.188519 36.281806 12.061382 30.766712 C 12.061382 30.766712 11.982084 31.60131 12.039575 32.860148" fill="#373151"/>

    <path d="M 17.863926 49.80786 C 17.863926 49.80786 17.897627 49.869314 17.967012 49.9724 C 19.993045 51.83191 22.14199 54.56567 24.802396 55.56481 C 26.594505 56.70668 29.0646 57.59481 31.469277 57.71375 C 32.067966 57.74349 32.662694 57.73754 33.243543 57.72961 C 34.900846 57.71177 36.431274 57.691946 37.56522 58.5087 C 38.413695 59.119286 39.04014 59.19462 39.33354 60.56051 C 39.55557 59.70014 39.99765 56.760206 36.776215 55.455775 C 36.776215 55.455775 35.808795 55.029555 33.122615 54.68263 C 33.122615 54.68263 27.732415 54.26434 24.85394 53.049116 C 24.85394 53.049116 19.215937 50.868454 17.863926 49.80786 Z" fill="#373151"/>

    <path d="M 17.863926 49.80786 C 17.863926 49.80786 17.897627 49.869314 17.967012 49.9724 C 19.993045 51.83191 22.14199 54.56567 24.802396 55.56481 C 26.594505 56.70668 29.0646 57.59481 31.469277 57.71375 C 32.067966 57.74349 32.662694 57.73754 33.243543 57.72961 C 34.900846 57.71177 36.431274 57.691946 37.56522 58.5087 C 38.413695 59.119286 39.04014 59.19462 39.33354 60.56051 C 39.55557 59.70014 39.99765 56.760206 36.776215 55.455775 C 36.776215 55.455775 35.808795 55.029555 33.122615 54.68263 C 33.122615 54.68263 27.732415 54.26434 24.85394 53.049116 C 24.85394 53.049116 19.215937 50.868454 17.863926 49.80786 Z" fill="#373151"/>

    <path d="M 17.865908 49.811823 C 17.871855 49.8257 17.905556 49.88319 17.967012 49.9724 C 19.993045 51.83191 22.14199 54.56567 24.802396 55.56481 C 26.594505 56.70668 29.0646 57.59481 31.469277 57.71375 C 32.067966 57.74349 32.662694 57.73754 33.243543 57.72961 C 34.900846 57.71177 36.431274 57.691946 37.56522 58.5087 C 38.413695 59.119286 39.04014 59.19462 39.33354 60.56051 C 39.389047 60.346406 39.45843 60.005426 39.48024 59.5911 L 39.48024 59.03999 C 39.412835 57.8327 38.863704 56.30029 36.776215 55.455775 C 36.776215 55.455775 35.808795 55.029555 33.122615 54.68263 C 33.122615 54.68263 27.732415 54.26434 24.85394 53.049116 C 24.85394 53.049116 19.223866 50.87242 17.86789 49.80984 Z" fill="#373151"/>

    <path d="M 17.865908 49.811823 C 17.871855 49.8257 17.905556 49.88319 17.967012 49.9724 C 19.993045 51.83191 22.14199 54.56567 24.802396 55.56481 C 26.594505 56.70668 29.0646 57.59481 31.469277 57.71375 C 32.067966 57.74349 32.662694 57.73754 33.243543 57.72961 C 34.900846 57.71177 36.431274 57.691946 37.56522 58.5087 C 38.413695 59.119286 39.04014 59.19462 39.33354 60.56051 C 39.389047 60.346406 39.45843 60.005426 39.48024 59.5911 L 39.48024 59.03999 C 39.412835 57.8327 38.863704 56.30029 36.776215 55.455775 C 36.776215 55.455775 35.808795 55.029555 33.122615 54.68263 C 33.122615 54.68263 27.732415 54.26434 24.85394 53.049116 C 24.85394 53.049116 19.223866 50.87242 17.86789 49.80984 Z" fill="#373151"/>

    <path d="M 21.82282 74.13414 C 18.750068 76.14035 16.121379 76.92142 16.121379 76.92142 C 15.296691 77.13552 14.531477 77.22275 13.827718 77.22275 C 11.613354 77.22275 10.088873 76.35049 9.496129 75.94409 C 11.270396 78.16242 13.59974 79.58778 15.962784 79.58778 C 17.041222 79.58778 18.125605 79.2924 19.180253 78.63622 C 23.268003 76.59432 26.201986 71.83651 30.902305 70.5975 C 30.658468 70.55785 30.40868 70.53605 30.147003 70.53605 C 26.60838 70.53605 21.82282 74.13414 21.82282 74.13414" fill="#373151"/>

    <path d="M 21.82282 74.13414 C 18.750068 76.14035 16.121379 76.92142 16.121379 76.92142 C 15.296691 77.13552 14.531477 77.22275 13.827718 77.22275 C 11.613354 77.22275 10.088873 76.35049 9.496129 75.94409 C 11.270396 78.16242 13.59974 79.58778 15.962784 79.58778 C 17.041222 79.58778 18.125605 79.2924 19.180253 78.63622 C 23.268003 76.59432 26.201986 71.83651 30.902305 70.5975 C 30.658468 70.55785 30.40868 70.53605 30.147003 70.53605 C 26.60838 70.53605 21.82282 74.13414 21.82282 74.13414" fill="#373151"/>

    <path d="M 35.866285 70.444855 C 34.67485 70.444855 31.582274 70.88495 29.520558 75.12931 C 29.520558 75.12931 27.230863 81.21733 24.875746 82.75569 C 24.875746 82.75569 23.36316 84.01254 20.992185 84.01254 C 20.859363 84.01254 20.064412 83.94316 19.927626 83.93324 C 20.855398 84.2088 22.387808 84.49823 23.196636 84.5696 C 31.629852 85.34076 32.49617 76.489255 34.746217 70.84927 C 35.015826 70.58561 35.447994 70.48054 35.949547 70.444855 Z" fill="#373151"/>

    <path d="M 35.866285 70.444855 C 34.67485 70.444855 31.582274 70.88495 29.520558 75.12931 C 29.520558 75.12931 27.230863 81.21733 24.875746 82.75569 C 24.875746 82.75569 23.36316 84.01254 20.992185 84.01254 C 20.859363 84.01254 20.064412 83.94316 19.927626 83.93324 C 20.855398 84.2088 22.387808 84.49823 23.196636 84.5696 C 31.629852 85.34076 32.49617 76.489255 34.746217 70.84927 C 35.015826 70.58561 35.447994 70.48054 35.949547 70.444855 Z" fill="#373151"/>

    <path d="M 88.57686 45.751826 C 86.13254 47.5816 83.17476 48.576777 80.19519 49.106085 C 78.40506 49.42525 76.5515 49.361814 74.69992 49.30036 C 72.26947 49.215116 69.841006 49.133835 67.54933 49.91293 C 61.50889 51.91914 57.56586 58.455176 57.56586 58.455176 C 57.694716 58.36993 57.82952 58.29064 57.95838 58.20539 C 62.985796 52.180816 72.73336 55.60842 79.7313 53.55067 C 85.99575 51.984555 91.9093 47.585566 94.25451 41.309223 C 92.32562 43.31345 88.57686 45.751826 88.57686 45.751826" fill="#373151"/>

    <path d="M 88.57686 45.751826 C 86.13254 47.5816 83.17476 48.576777 80.19519 49.106085 C 78.40506 49.42525 76.5515 49.361814 74.69992 49.30036 C 72.26947 49.215116 69.841006 49.133835 67.54933 49.91293 C 61.50889 51.91914 57.56586 58.455176 57.56586 58.455176 C 57.694716 58.36993 57.82952 58.29064 57.95838 58.20539 C 62.985796 52.180816 72.73336 55.60842 79.7313 53.55067 C 85.99575 51.984555 91.9093 47.585566 94.25451 41.309223 C 92.32562 43.31345 88.57686 45.751826 88.57686 45.751826" fill="#373151"/>

    <path d="M 80.12184 59.83494 C 77.77267 60.87968 75.27284 61.16713 73.20517 61.16713 C 71.847215 61.16713 70.48331 61.06008 69.153105 60.79047 C 68.259034 60.606104 67.3828 60.34244 66.48675 60.16997 C 65.71162 60.02525 64.92659 59.92217 64.13758 59.870624 C 63.77678 59.846835 63.40805 59.83494 63.04328 59.83494 C 61.52277 59.83494 60.65051 60.05301 60.65051 60.05301 C 57.431054 60.89157 55.16118 62.40812 54.30081 63.040514 C 55.508105 62.67575 56.768926 62.73919 57.95838 62.73919 C 60.13904 62.73919 62.19481 63.74824 64.34772 64.22997 C 66.49666 64.717646 68.699134 64.915885 70.87781 64.915885 C 72.09898 64.915885 73.45496 64.70575 74.69199 64.31918 C 80.14563 62.21979 85.44265 59.731855 89.71278 55.26546 L 89.71873 55.25357 L 89.71873 55.251585 C 86.54488 57.68203 80.12184 59.83494 80.12184 59.83494" fill="#373151"/>

    <path d="M 80.12184 59.83494 C 77.77267 60.87968 75.27284 61.16713 73.20517 61.16713 C 71.847215 61.16713 70.48331 61.06008 69.153105 60.79047 C 68.259034 60.606104 67.3828 60.34244 66.48675 60.16997 C 65.71162 60.02525 64.92659 59.92217 64.13758 59.870624 C 63.77678 59.846835 63.40805 59.83494 63.04328 59.83494 C 61.52277 59.83494 60.65051 60.05301 60.65051 60.05301 C 57.431054 60.89157 55.16118 62.40812 54.30081 63.040514 C 55.508105 62.67575 56.768926 62.73919 57.95838 62.73919 C 60.13904 62.73919 62.19481 63.74824 64.34772 64.22997 C 66.49666 64.717646 68.699134 64.915885 70.87781 64.915885 C 72.09898 64.915885 73.45496 64.70575 74.69199 64.31918 C 80.14563 62.21979 85.44265 59.731855 89.71278 55.26546 L 89.71873 55.25357 L 89.71873 55.251585 C 86.54488 57.68203 80.12184 59.83494 80.12184 59.83494" fill="#373151"/>

    <path d="M 56.37641 50.95568 C 54.18583 56.06438 51.822785 60.51293 47.865876 63.37753 C 42.44396 67.302716 34.82948 68.68843 27.82757 68.68843 C 22.92108 68.97985 17.053116 71.36866 12.017768 71.26558 C 9.983805 71.22394 7.353133 69.84815 5.7097065 68.41486 C 5.896054 68.73403 6.1101554 69.437786 6.583954 70.05234 C 7.646531 71.426156 9.48027 72.974425 11.472603 73.125085 C 11.472603 73.125085 14.301516 73.638535 18.714385 71.76515 C 18.714385 71.76515 26.112777 69.08293 30.61882 68.98183 C 30.61882 68.98183 40.495237 69.07302 44.694003 67.57828 C 47.865876 66.44631 50.476724 65.030864 53.17678 61.63498 C 55.882784 58.239094 56.58456 55.39432 57.45484 53.57446 C 57.45484 53.57446 60.079565 48.11289 63.28316 45.52385 C 63.28316 45.52385 67.36298 42.022894 71.07407 40.89688 C 71.07407 40.89688 70.978915 40.76009 70.69543 40.64115 C 64.41512 42.005053 58.61852 45.347415 56.37641 50.95568" fill="#373151"/>

    <path d="M 56.37641 50.95568 C 54.18583 56.06438 51.822785 60.51293 47.865876 63.37753 C 42.44396 67.302716 34.82948 68.68843 27.82757 68.68843 C 22.92108 68.97985 17.053116 71.36866 12.017768 71.26558 C 9.983805 71.22394 7.353133 69.84815 5.7097065 68.41486 C 5.896054 68.73403 6.1101554 69.437786 6.583954 70.05234 C 7.646531 71.426156 9.48027 72.974425 11.472603 73.125085 C 11.472603 73.125085 14.301516 73.638535 18.714385 71.76515 C 18.714385 71.76515 26.112777 69.08293 30.61882 68.98183 C 30.61882 68.98183 40.495237 69.07302 44.694003 67.57828 C 47.865876 66.44631 50.476724 65.030864 53.17678 61.63498 C 55.882784 58.239094 56.58456 55.39432 57.45484 53.57446 C 57.45484 53.57446 60.079565 48.11289 63.28316 45.52385 C 63.28316 45.52385 67.36298 42.022894 71.07407 40.89688 C 71.07407 40.89688 70.978915 40.76009 70.69543 40.64115 C 64.41512 42.005053 58.61852 45.347415 56.37641 50.95568" fill="#373151"/>

    <path d="M 16.172922 25.439947 C 16.172922 25.439947 18.060185 30.754816 24.63389 34.791024 C 24.63389 34.791024 30.09546 37.909373 34.095983 39.459624 C 34.095983 39.459624 44.4125 43.119174 44.4125 49.80786 C 44.4125 49.80786 44.79907 53.48723 44.46999 54.940345 L 44.50171 54.898715 C 45.980594 49.51248 45.74667 43.866546 40.806476 40.573743 C 30.904286 33.69078 12.870209 29.797308 16.103537 14.839946 C 15.990538 15.042153 13.581897 19.423302 16.172922 25.439947" fill="#373151"/>

    <path d="M 16.172922 25.439947 C 16.172922 25.439947 18.060185 30.754816 24.63389 34.791024 C 24.63389 34.791024 30.09546 37.909373 34.095983 39.459624 C 34.095983 39.459624 44.4125 43.119174 44.4125 49.80786 C 44.4125 49.80786 44.79907 53.48723 44.46999 54.940345 L 44.50171 54.898715 C 45.980594 49.51248 45.74667 43.866546 40.806476 40.573743 C 30.904286 33.69078 12.870209 29.797308 16.103537 14.839946 C 15.990538 15.042153 13.581897 19.423302 16.172922 25.439947" fill="#373151"/>

    <path d="M 12.04354 32.860148 C 12.16645 35.38575 12.852367 39.62813 15.857716 42.312327 C 15.857716 42.312327 18.609315 44.89542 21.55321 46.10866 C 21.55321 46.10866 26.277318 48.13073 30.485997 49.29838 C 30.485997 49.29838 38.8756 50.985416 40.263294 54.49232 C 40.263294 54.49232 41.591514 56.58377 41.224768 58.584035 C 41.224768 58.584035 41.26045 58.518614 41.313976 58.395704 C 41.591514 55.1485 41.010667 51.72486 38.207523 50.51955 C 30.42256 46.63004 21.771276 45.335517 15.716964 39.70941 C 13.730579 38.05607 12.509409 35.643466 12.04354 32.860148 Z" fill="#373151"/>

    <path d="M 12.04354 32.860148 C 12.16645 35.38575 12.852367 39.62813 15.857716 42.312327 C 15.857716 42.312327 18.609315 44.89542 21.55321 46.10866 C 21.55321 46.10866 26.277318 48.13073 30.485997 49.29838 C 30.485997 49.29838 38.8756 50.985416 40.263294 54.49232 C 40.263294 54.49232 41.591514 56.58377 41.224768 58.584035 C 41.224768 58.584035 41.26045 58.518614 41.313976 58.395704 C 41.591514 55.1485 41.010667 51.72486 38.207523 50.51955 C 30.42256 46.63004 21.771276 45.335517 15.716964 39.70941 C 13.730579 38.05607 12.509409 35.643466 12.04354 32.860148 Z" fill="#373151"/>

    <path d="M 17.967012 49.9724 C 18.591473 50.95568 22.12613 56.193235 27.47668 58.084466 C 27.47668 58.084466 30.491944 59.33537 34.349733 59.17876 C 34.349733 59.17876 34.61736 59.13911 35.031686 59.119286 C 36.187437 59.06378 38.481096 59.1629 39.26019 60.69333 C 39.26019 60.69333 39.289926 60.72108 39.33354 60.56051 C 39.103577 59.49 38.665463 58.58602 38.094526 58.157816 C 36.98437 57.32916 35.334997 57.64833 33.457644 57.48181 C 30.52168 57.22211 27.07425 56.29632 24.800415 54.849154 C 24.170004 54.46655 19.993045 51.83191 17.967012 49.9724 Z" fill="#373151"/>

    <path d="M 17.967012 49.9724 C 18.591473 50.95568 22.12613 56.193235 27.47668 58.084466 C 27.47668 58.084466 30.491944 59.33537 34.349733 59.17876 C 34.349733 59.17876 34.61736 59.13911 35.031686 59.119286 C 36.187437 59.06378 38.481096 59.1629 39.26019 60.69333 C 39.26019 60.69333 39.289926 60.72108 39.33354 60.56051 C 39.103577 59.49 38.665463 58.58602 38.094526 58.157816 C 36.98437 57.32916 35.334997 57.64833 33.457644 57.48181 C 30.52168 57.22211 27.07425 56.29632 24.800415 54.849154 C 24.170004 54.46655 19.993045 51.83191 17.967012 49.9724 Z" fill="#373151"/>

    <path d="M 19.176288 78.63622 C 15.833928 80.72767 12.089135 79.17345 9.496129 75.94409 C 9.309782 75.82316 9.214626 75.73792 9.214626 75.73792 C 10.055172 77.06217 11.016645 78.04347 11.016645 78.04347 C 14.470022 81.87946 18.428915 80.83076 18.428915 80.83076 C 21.174567 80.05761 25.843167 74.56631 25.843167 74.56631 C 29.058655 70.7442 30.965742 70.60543 30.965742 70.60543 L 30.902305 70.5975 C 26.201986 71.83651 23.268003 76.59432 19.176288 78.63622" fill="#373151"/>

    <path d="M 19.176288 78.63622 C 15.833928 80.72767 12.089135 79.17345 9.496129 75.94409 C 9.309782 75.82316 9.214626 75.73792 9.214626 75.73792 C 10.055172 77.06217 11.016645 78.04347 11.016645 78.04347 C 14.470022 81.87946 18.428915 80.83076 18.428915 80.83076 C 21.174567 80.05761 25.843167 74.56631 25.843167 74.56631 C 29.058655 70.7442 30.965742 70.60543 30.965742 70.60543 L 30.902305 70.5975 C 26.201986 71.83651 23.268003 76.59432 19.176288 78.63622" fill="#373151"/>

    <path d="M 34.746217 70.84927 C 33.67373 71.83453 33.219754 73.20835 32.769745 74.54847 C 31.98074 76.91547 31.284913 79.77016 29.758448 81.79025 C 28.741466 83.13235 27.314124 83.89954 25.670697 84.18898 C 24.760766 84.34955 23.71603 84.48832 22.792223 84.41893 C 21.826784 84.34757 20.87324 84.14536 19.927626 83.93324 C 20.84945 84.31387 21.71577 84.64096 22.718873 84.80749 C 24.031235 85.01961 25.76387 85.34869 27.092092 85.04538 C 29.69501 84.45462 31.334472 82.74181 32.24044 80.2618 C 32.498152 79.56002 32.591327 78.82256 32.74199 78.09105 C 33.057196 76.56855 33.55082 75.06588 34.147526 73.63259 C 34.613395 72.51847 35.237856 71.06932 36.363873 70.470626 C 36.363873 70.470626 36.211226 70.44684 35.949547 70.444855 C 35.447994 70.48054 35.015826 70.583624 34.746217 70.84927" fill="#373151"/>

    <path d="M 34.746217 70.84927 C 33.67373 71.83453 33.219754 73.20835 32.769745 74.54847 C 31.98074 76.91547 31.284913 79.77016 29.758448 81.79025 C 28.741466 83.13235 27.314124 83.89954 25.670697 84.18898 C 24.760766 84.34955 23.71603 84.48832 22.792223 84.41893 C 21.826784 84.34757 20.87324 84.14536 19.927626 83.93324 C 20.84945 84.31387 21.71577 84.64096 22.718873 84.80749 C 24.031235 85.01961 25.76387 85.34869 27.092092 85.04538 C 29.69501 84.45462 31.334472 82.74181 32.24044 80.2618 C 32.498152 79.56002 32.591327 78.82256 32.74199 78.09105 C 33.057196 76.56855 33.55082 75.06588 34.147526 73.63259 C 34.613395 72.51847 35.237856 71.06932 36.363873 70.470626 C 36.363873 70.470626 36.211226 70.44684 35.949547 70.444855 C 35.447994 70.48054 35.015826 70.583624 34.746217 70.84927" fill="#373151"/>

    <path d="M 94.85518 40.621323 C 94.68867 40.845336 94.4825 41.073315 94.25451 41.31319 C 93.18401 44.169855 91.38397 46.667706 89.0348 48.600566 C 86.75303 50.47792 84.15804 52.07178 81.31327 52.934136 C 80.40731 53.20969 79.48548 53.417846 78.555725 53.596264 C 76.20656 54.04033 73.91091 54.119625 71.53597 53.88768 C 69.05993 53.645825 66.42926 53.52688 63.9889 54.0998 C 62.09767 54.54188 60.602926 55.73728 59.151795 56.972326 C 58.72161 57.33709 58.21411 57.872345 57.82952 58.28865 C 59.60379 57.2122 61.633786 56.29632 63.665766 55.850276 C 64.73825 55.61833 66.06251 55.51723 66.96848 55.586614 C 69.40289 55.77693 71.81153 56.022746 74.25387 55.9831 C 74.4204 55.97715 74.58494 55.97517 74.74947 55.97319 C 82.36594 55.422074 87.14753 51.984555 87.14753 51.984555 C 95.11687 46.95119 94.9999 40.4211 94.9999 40.4211 C 94.96223 40.47859 94.91664 40.53608 94.87302 40.597534" fill="#373151"/>

    <path d="M 94.85518 40.621323 C 94.68867 40.845336 94.4825 41.073315 94.25451 41.31319 C 93.18401 44.169855 91.38397 46.667706 89.0348 48.600566 C 86.75303 50.47792 84.15804 52.07178 81.31327 52.934136 C 80.40731 53.20969 79.48548 53.417846 78.555725 53.596264 C 76.20656 54.04033 73.91091 54.119625 71.53597 53.88768 C 69.05993 53.645825 66.42926 53.52688 63.9889 54.0998 C 62.09767 54.54188 60.602926 55.73728 59.151795 56.972326 C 58.72161 57.33709 58.21411 57.872345 57.82952 58.28865 C 59.60379 57.2122 61.633786 56.29632 63.665766 55.850276 C 64.73825 55.61833 66.06251 55.51723 66.96848 55.586614 C 69.40289 55.77693 71.81153 56.022746 74.25387 55.9831 C 74.4204 55.97715 74.58494 55.97517 74.74947 55.97319 C 82.36594 55.422074 87.14753 51.984555 87.14753 51.984555 C 95.11687 46.95119 94.9999 40.4211 94.9999 40.4211 C 94.96223 40.47859 94.91664 40.53608 94.87302 40.597534" fill="#373151"/>

    <path d="M 74.85256 63.81366 C 69.55554 65.50466 66.098196 63.61938 62.73403 62.69359 C 60.04785 61.952166 57.35572 62.11274 54.30081 63.040514 C 54.05301 63.22488 53.91622 63.33986 53.91622 63.33986 C 58.382615 62.303054 63.2336 65.12206 63.2336 65.12206 C 67.27179 67.04302 72.08114 66.31151 72.08114 66.31151 C 83.65253 64.18239 89.49472 55.59058 89.71477 55.27141 C 85.52393 59.650574 80.31215 62.069126 74.85256 63.81366" fill="#373151"/>

    <path d="M 74.85256 63.81366 C 69.55554 65.50466 66.098196 63.61938 62.73403 62.69359 C 60.04785 61.952166 57.35572 62.11274 54.30081 63.040514 C 54.05301 63.22488 53.91622 63.33986 53.91622 63.33986 C 58.382615 62.303054 63.2336 65.12206 63.2336 65.12206 C 67.27179 67.04302 72.08114 66.31151 72.08114 66.31151 C 83.65253 64.18239 89.49472 55.59058 89.71477 55.27141 C 85.52393 59.650574 80.31215 62.069126 74.85256 63.81366" fill="#373151"/>
  </g>
</svg>
