<?xml version="1.0" encoding="UTF-8" standalone="no"?>
<!DOCTYPE svg PUBLIC "-//W3C//DTD SVG 1.1//EN" "http://www.w3.org/Graphics/SVG/1.1/DTD/svg11.dtd">
<svg xmlns:xl="http://www.w3.org/1999/xlink" xmlns="http://www.w3.org/2000/svg" xmlns:dc="http://purl.org/dc/elements/1.1/" version="1.1" viewBox="0 0 100 100" width="100" height="100">
  <defs/>
  <g id="plaid-cymru" fill="none" stroke-dasharray="none" stroke-opacity="1" stroke="none" fill-opacity="1">
    <title>Plaid Cymru party icon</title>
    <g id="party-icon--plaid-cymru">
      <g id="plaid-outer">
        <title>outer</title>
          <path d="M 50.000087 5 C 49.916904 5 49.834304 5.001745 49.7517 5.005817 C 49.739487 5.005817 49.72669 5.0069804 49.71447 5.007562 C 49.70575 5.007562 49.697605 5.008144 49.68888 5.0087255 L 49.68597 5.0087255 L 49.683643 5.0087255 C 49.674916 5.009307 49.666774 5.009889 49.657467 5.0104706 L 49.653395 5.0104706 C 49.646414 5.011052 49.639434 5.011634 49.63245 5.0122157 C 49.62838 5.0122157 49.62489 5.0127974 49.621403 5.0127974 C 49.619074 5.0127974 49.61617 5.013379 49.61384 5.013379 C 49.605113 5.013961 49.595806 5.0145425 49.58708 5.015124 L 49.5865 5.015124 C 49.571957 5.0162876 49.55858 5.017451 49.54462 5.0186144 L 49.543454 5.0186144 C 49.540546 5.0186144 49.53822 5.019196 49.53531 5.019196 C 49.533564 5.019196 49.53124 5.019778 49.52891 5.019778 C 49.51495 5.020941 49.50099 5.0221045 49.48703 5.023268 L 49.48645 5.023268 L 49.482957 5.0238496 C 49.474814 5.0244313 49.46609 5.025595 49.457363 5.0261764 C 49.441074 5.0279215 49.42537 5.029085 49.40908 5.03083 C 44.74037 5.5182935 40.15891 11.68139 37.050894 18.736812 C 42.058157 20.682594 46.86648 23.440427 50.000087 26.19768 C 53.1337 23.439846 57.94144 20.682594 62.9487 18.736812 C 59.7639 11.506881 55.03236 5.2129017 50.24382 5.005235 L 50.242656 5.005235 C 50.23626 5.005235 50.229276 5.0046536 50.22288 5.0046536 C 50.191465 5.00349 50.160635 5.002327 50.129806 5.001745 L 50.126316 5.001745 C 50.084434 5.0005817 50.04197 5 50.000087 5" fill="#8b8697"/>
          <path d="M 49.999856 73.80232 C 46.86624 76.55958 42.058505 79.31741 37.051244 81.26261 C 39.992312 87.94051 44.253253 93.81915 48.65904 94.84236 L 48.660785 94.84295 C 48.662527 94.84295 48.664856 94.84352 48.6666 94.84411 C 48.66951 94.84469 48.67242 94.84528 48.674746 94.84643 C 48.6794 94.84702 48.684053 94.84818 48.688705 94.84934 C 48.69278 94.85051 48.69743 94.85109 48.701504 94.85225 L 48.70325 94.85283 C 48.705575 94.85283 48.7079 94.85342 48.710226 94.854 C 48.712555 94.85457 48.714884 94.85516 48.71721 94.85574 C 48.725354 94.85749 48.732915 94.85923 48.74106 94.86098 C 49.064486 94.93194 49.38965 94.97615 49.714823 94.99302 C 49.72704 94.99302 49.739254 94.99419 49.75147 94.99476 C 49.76136 94.99476 49.770665 94.99535 49.779973 94.99593 C 49.79742 94.99652 49.81487 94.99709 49.832325 94.99767 C 49.88817 94.99942 49.944014 95 49.999856 95 C 50.04232 95 50.0842 94.99942 50.126665 94.99884 L 50.129575 94.99884 C 50.14121 94.99826 50.15226 94.99826 50.163896 94.99767 C 50.19007 94.99709 50.216246 94.99593 50.24242 94.99476 L 50.24359 94.99476 C 50.26627 94.99361 50.287795 94.99244 50.3099 94.99128 C 50.32037 94.9907 50.33142 94.99011 50.34189 94.98953 L 50.342475 94.98953 C 50.49895 94.97964 50.65601 94.96394 50.81249 94.94183 L 50.81307 94.94183 C 50.81714 94.94125 50.821795 94.94009 50.825866 94.93951 L 50.82703 94.93951 C 50.828774 94.93892 50.82994 94.93892 50.831685 94.93892 C 50.83983 94.93776 50.84797 94.93659 50.855534 94.93544 C 50.86484 94.93427 50.87415 94.93253 50.883455 94.93078 L 50.884036 94.93078 C 50.886945 94.93078 50.89043 94.9302 50.893343 94.92962 C 50.89509 94.92904 50.89625 94.92904 50.89858 94.92904 L 50.90149 94.92845 C 55.462586 94.20831 59.90967 88.16213 62.94905 81.26261 C 57.941785 79.31741 53.133465 76.55958 49.999856 73.80232" fill="#8b8697"/>
          <path d="M 81.26272 37.051303 C 79.31753 42.058564 76.55969 46.866885 73.80244 50.000496 C 76.55969 53.133524 79.31753 57.941845 81.26272 62.949104 C 88.55839 59.7358 94.90007 54.94668 94.99895 50.11451 C 94.99954 50.07612 95.00012 50.038307 95.00012 50.000496 C 95.00012 49.94 94.99895 49.880085 94.99721 49.82017 C 94.99721 49.8161 94.99662 49.811443 94.99662 49.80679 C 94.9751 49.18437 94.85062 48.561956 94.63364 47.94419 C 93.1794 43.794936 87.57822 39.832986 81.26272 37.051303" fill="#8b8697"/>
          <path d="M 18.737858 37.051012 C 12.140814 39.956595 6.32441 44.14948 5.197078 48.49884 C 5.1964964 48.500586 5.1959147 48.502333 5.195333 48.504076 L 5.195333 48.50524 C 5.0667776 49.00201 4.999882 49.50111 4.999882 50.000205 C 4.999882 50.042086 5.000464 50.08455 5.0016273 50.126435 C 5.0016273 50.12876 5.0016273 50.13225 5.0016273 50.13458 C 5.002209 50.16366 5.0033724 50.19275 5.004536 50.221833 C 5.004536 50.228813 5.0051175 50.23579 5.0051175 50.24277 L 5.0051175 50.243354 C 5.212784 55.0319 11.506763 59.76402 18.737276 62.948815 C 20.682477 57.941556 23.43973 53.13381 26.197562 50.000205 C 23.43973 46.866594 20.682477 42.058274 18.737276 37.051012" fill="#8b8697"/>
          <path d="M 18.180126 18.180244 C 18.121374 18.238995 18.064368 18.298328 18.008524 18.359988 C 18.000382 18.368714 17.991656 18.37802 17.983512 18.387328 C 17.977695 18.393726 17.971878 18.399543 17.966642 18.405943 L 17.964316 18.40827 L 17.963152 18.410015 C 17.956754 18.416413 17.951518 18.422812 17.94512 18.429792 L 17.942792 18.4327 C 17.93814 18.437936 17.933485 18.443171 17.928832 18.448407 C 17.925923 18.451316 17.924179 18.454224 17.92127 18.457133 C 17.920107 18.458877 17.918361 18.460623 17.916616 18.462367 C 17.9108 18.469348 17.904982 18.476328 17.899165 18.482726 L 17.898583 18.48389 C 17.889276 18.49436 17.87997 18.504832 17.871244 18.515301 L 17.870662 18.516466 C 17.868916 18.51821 17.867172 18.519956 17.865427 18.522283 L 17.861355 18.526936 C 17.852048 18.537988 17.843323 18.548458 17.834016 18.55951 L 17.833433 18.560092 L 17.831107 18.56242 C 17.825872 18.5694 17.820636 18.5758 17.8154 18.582198 C 17.80435 18.594995 17.795041 18.60721 17.78457 18.620008 C 14.827216 22.266095 15.946403 29.86366 18.737394 37.049965 C 23.65391 34.884882 29.003793 33.43529 33.168753 33.169454 C 33.435172 29.00391 34.884765 23.654028 37.049846 18.73751 C 29.68496 15.876717 21.889036 14.772654 18.35638 18.011551 L 18.355798 18.012714 C 18.350564 18.016786 18.34591 18.02144 18.340674 18.026094 C 18.317988 18.047035 18.295884 18.067976 18.273197 18.089499 L 18.270871 18.091826 C 18.24004 18.120911 18.209792 18.150577 18.180126 18.180244" fill="#8b8697"/>
          <path d="M 66.830665 66.831015 C 66.56483 70.99656 65.115235 76.34644 62.94957 81.26238 C 69.75137 83.90445 76.92081 85.04865 80.7606 82.65671 L 80.76118 82.65554 C 80.76293 82.65496 80.76526 82.65322 80.767 82.65205 C 80.76933 82.65089 80.77165 82.64973 80.77398 82.64799 C 80.77805 82.64507 80.78212 82.64275 80.7862 82.64042 C 80.78968 82.63809 80.79376 82.63576 80.79725 82.63344 L 80.79841 82.63286 C 80.80074 82.63111 80.80248 82.62995 80.80481 82.628785 C 80.80656 82.62704 80.80888 82.62588 80.81063 82.62471 C 80.81819 82.62064 80.824 82.61599 80.83099 82.61191 C 81.1102 82.43275 81.37138 82.23439 81.61279 82.01626 C 81.6221 82.00811 81.63141 81.99997 81.64013 81.99182 C 81.64711 81.98543 81.65409 81.97903 81.66107 81.97263 C 81.67387 81.96041 81.686665 81.94878 81.69946 81.93656 C 81.74018 81.89875 81.78032 81.8592 81.81987 81.81964 C 81.84954 81.78998 81.87921 81.75973 81.90829 81.7289 L 81.91061 81.72715 C 81.91818 81.71901 81.92632 81.71086 81.93389 81.70272 C 81.95192 81.68294 81.96937 81.66433 81.9874 81.64455 L 81.98857 81.64397 C 82.00369 81.6271 82.01824 81.61139 82.03278 81.59452 C 82.03976 81.58696 82.04732 81.57882 82.05372 81.57067 L 82.05488 81.57067 C 82.15843 81.45259 82.25848 81.33043 82.35329 81.20362 C 82.35561 81.20013 82.35853 81.19664 82.36085 81.19315 L 82.36202 81.19199 L 82.36434 81.18908 C 82.36958 81.1821 82.37423 81.1757 82.37889 81.16872 C 82.3847 81.16175 82.38994 81.15418 82.39576 81.14662 L 82.39634 81.14604 C 82.39808 81.14313 82.39983 81.1408 82.40157 81.13847 C 82.40274 81.13673 82.4039 81.13557 82.40448 81.1344 L 82.40623 81.13149 C 85.12276 77.39757 83.99194 69.97742 81.26261 62.94992 C 76.34609 65.115 70.99621 66.5646 66.830665 66.831015" fill="#8b8697"/>
          <path d="M 62.94981 18.737744 C 65.114884 23.653678 66.56506 29.004142 66.8309 33.169105 C 70.99644 33.43552 76.34632 34.885117 81.26226 37.0502 C 84.14865 29.618998 85.24747 21.748615 81.8998 18.261914 C 81.87304 18.234575 81.84687 18.207234 81.81953 18.180476 C 81.77706 18.138012 81.7346 18.09613 81.69097 18.05541 C 81.68748 18.05192 81.68399 18.049012 81.68108 18.046104 C 81.22561 17.620882 80.69685 17.268955 80.107 16.985085 C 76.14447 15.080023 69.38281 16.238766 62.94981 18.737744" fill="#8b8697"/>
          <path d="M 18.737975 62.9494 C 16.127893 69.6686 14.97962 76.74612 17.257553 80.61907 L 17.26046 80.62373 L 17.261042 80.62489 C 17.521643 81.06698 17.827034 81.46661 18.180126 81.8197 C 18.209792 81.84995 18.24004 81.87903 18.270288 81.90812 C 18.272616 81.909865 18.274361 81.91219 18.276105 81.91394 C 18.29763 81.93371 18.31857 81.95407 18.340093 81.97327 C 18.345329 81.97851 18.350564 81.98316 18.355217 81.98782 L 18.35638 81.98839 C 21.889036 85.22729 29.685543 84.12265 37.050428 81.26243 C 34.884765 76.3465 33.435172 70.99662 33.168753 66.83107 C 29.003793 66.56523 23.65391 65.11506 18.737394 62.94998" fill="#8b8697"/>
      </g>
      <g id="plaid-fourth">
        <title>fourth</title>
          <path d="M 62.94876 18.737104 C 57.941495 20.682304 53.133174 23.440136 49.999563 26.19797 C 50.34451 26.500453 50.667933 26.803518 50.969835 27.10542 C 53.94174 30.07732 55.10339 33.703045 55.10339 37.26944 C 55.10339 37.41021 55.10164 37.551563 55.09815 37.692335 C 57.64832 35.008377 61.133856 33.12542 65.502995 33.12542 C 65.92996 33.12542 66.37322 33.139962 66.83043 33.169047 C 66.56518 29.003503 65.115 23.65362 62.94992 18.737686 L 62.94876 18.737686 L 62.94876 18.737104" fill="#777285"/>
          <path d="M 66.830665 33.169163 C 66.85975 33.62696 66.87487 34.069632 66.87487 34.49718 C 66.87487 38.86632 64.99192 42.351275 62.30796 44.902023 C 62.44815 44.898535 62.59008 44.89679 62.73085 44.89679 C 66.29725 44.89679 69.92297 46.05844 72.89487 49.02976 C 73.19677 49.33166 73.49925 49.655664 73.80232 50.00003 C 76.55957 46.867 79.31741 42.0581 81.26261 37.05142 L 81.26202 37.050837 L 81.26202 37.050256 C 76.34609 34.885173 70.99621 33.43558 66.830665 33.169163" fill="#777285"/>
          <path d="M 44.90208 62.30755 C 42.35133 64.99209 38.865795 66.87505 34.496656 66.87505 C 34.06969 66.87505 33.627016 66.859925 33.16922 66.83084 C 33.435057 70.99638 34.88465 76.346265 37.05031 81.2622 L 37.050894 81.2622 L 37.050894 81.26278 C 42.058157 79.31758 46.86648 76.55975 50.000087 73.8025 C 49.65572 73.49944 49.331715 73.19695 49.029814 72.89505 C 46.057916 69.92315 44.896845 66.29742 44.896264 62.73103 C 44.896264 62.589676 44.89859 62.44832 44.90208 62.30755" fill="#777285"/>
          <path d="M 26.197562 50.000205 C 23.43973 53.13381 20.682477 57.941556 18.737276 62.948815 L 18.737858 62.9494 L 18.737858 62.94998 C 23.653794 65.11506 29.003675 66.564656 33.16922 66.83107 C 33.140134 66.372695 33.12501 65.93002 33.12501 65.503055 C 33.12501 61.13392 35.00797 57.64838 37.692507 55.09821 C 37.551156 55.1017 37.410383 55.103447 37.26903 55.103447 C 33.702638 55.103447 30.077492 53.94179 27.10501 50.969896 C 26.80311 50.667996 26.500627 50.34457 26.197562 50.000205" fill="#777285"/>
          <path d="M 55.09786 62.30755 C 55.10135 62.44832 55.10368 62.589676 55.10368 62.73103 C 55.103097 66.29742 53.941444 69.92315 50.97013 72.89505 C 50.667644 73.19695 50.34422 73.49944 49.999856 73.8025 C 53.133465 76.55975 57.941785 79.31758 62.94905 81.26278 L 62.94905 81.2622 L 62.94963 81.2622 C 65.11529 76.346265 66.56489 70.99638 66.83072 66.83026 C 66.37293 66.859925 65.92967 66.87505 65.50271 66.87505 C 61.13415 66.87505 57.64861 64.99209 55.09786 62.30755" fill="#777285"/>
          <path d="M 73.8025 50.000205 C 73.499435 50.34457 73.19695 50.667996 72.894465 50.97048 C 69.92257 53.94179 66.29742 55.103447 62.731026 55.103447 C 62.59026 55.103447 62.44832 55.1017 62.30755 55.09821 C 64.99209 57.64838 66.87505 61.13392 66.87505 65.503055 C 66.87505 65.93002 66.85992 66.372695 66.83084 66.83049 C 70.99638 66.564656 76.34626 65.11448 81.2622 62.9494 L 81.26278 62.948815 C 79.31758 57.94213 76.55975 53.13381 73.8025 50.000205" fill="#777285"/>
          <path d="M 37.051186 18.737104 L 37.051186 18.737686 L 37.05002 18.737686 C 34.88494 23.65362 33.434764 29.003503 33.16951 33.169047 C 33.626725 33.139962 34.06998 33.12542 34.496947 33.12542 C 38.866084 33.12542 42.35162 35.008377 44.90237 37.692335 C 44.8983 37.551563 44.896555 37.41021 44.896555 37.26944 C 44.896555 33.703045 46.05821 30.07732 49.030105 27.10542 C 49.332005 26.803518 49.65543 26.500453 49.999796 26.19797 C 46.866766 23.440136 42.058446 20.682304 37.051186 18.737104" fill="#777285"/>
          <path d="M 33.169277 33.169163 C 29.003733 33.43558 23.65327 34.885173 18.737334 37.050256 L 18.737917 37.050837 C 20.682535 42.0581 23.439787 46.867 26.19762 50.00003 C 26.500685 49.655664 26.803168 49.33166 27.10507 49.02976 C 30.07697 46.05844 33.702696 44.89737 37.26909 44.89679 C 37.40986 44.89679 37.551795 44.898535 37.691984 44.902023 C 35.00803 42.351275 33.125068 38.86632 33.125068 34.49718 C 33.125068 34.069632 33.140194 33.62696 33.169277 33.169163" fill="#777285"/>
      </g>
      <g id="plaid-third">
        <title>third</title>
          <path d="M 65.501195 33.125186 C 61.12633 33.125186 57.636216 35.010615 55.08271 37.698093 C 55.07455 37.999224 55.05882 38.29861 55.035525 38.59741 C 54.67906 43.141193 52.54492 47.442675 50.000144 50.000263 C 52.43775 47.574893 56.45848 45.521715 60.764036 45.02604 C 61.27369 44.967213 61.78684 44.93052 62.30173 44.917703 C 64.98921 42.36361 66.87464 38.874084 66.87464 34.49863 C 66.87464 34.071104 66.860075 33.62785 66.83038 33.169454 C 66.37256 33.14033 65.92872 33.125186 65.501195 33.125186" fill="#4d4564"/>
          <path d="M 50.000087 50.000205 C 47.28123 52.718483 42.568305 54.97373 37.692507 55.09821 C 35.00797 57.64838 33.12501 61.13392 33.12501 65.503055 C 33.12501 65.93002 33.140134 66.372695 33.16922 66.83107 C 33.627016 66.86016 34.06969 66.8747 34.496656 66.8747 C 38.865795 66.8747 42.35133 64.99232 44.90208 62.30778 C 45.026565 57.431405 47.28181 52.718483 50.000087 50.000205" fill="#4d4564"/>
          <path d="M 50.000087 50.000205 C 52.55142 52.551534 54.694395 56.85901 55.050976 61.40964 C 55.074244 61.70805 55.09053 62.00763 55.098094 62.30778 C 57.64826 64.99232 61.1338 66.8747 65.50294 66.8747 C 65.929905 66.8747 66.37316 66.86016 66.83038 66.83049 C 66.86004 66.372695 66.87458 65.93002 66.87458 65.503055 C 66.87458 61.13392 64.992206 57.64838 62.307666 55.09821 C 57.43129 54.97373 52.718366 52.718483 50.000087 50.000205" fill="#4d4564"/>
          <path d="M 34.496716 33.125186 C 34.069746 33.125186 33.627074 33.14031 33.169277 33.169396 C 33.140194 33.62719 33.125068 34.069865 33.125068 34.49683 C 33.125068 38.86655 35.00803 42.35151 37.692567 44.902254 C 42.56953 45.02616 47.281287 47.281404 50.000144 50.000263 C 47.281287 47.281404 45.02662 42.56848 44.90214 37.692102 C 42.35139 35.008145 38.86585 33.125186 34.496716 33.125186" fill="#4d4564"/>
      </g>
      <g id="plaid-second">
        <title>second</title>
          <path d="M 62.731086 44.896614 C 62.59031 44.896614 62.44838 44.89836 62.30761 44.90243 C 62.01036 45.184555 61.703805 45.455045 61.388525 45.71448 C 57.95185 48.54212 53.521634 50.00044 50.00003 50.00044 C 53.47684 50.00044 57.83842 51.420946 61.25648 54.178194 C 61.618295 54.46963 61.96906 54.776185 62.30761 55.09786 C 62.44838 55.10194 62.59031 55.10368 62.731086 55.10368 C 66.29748 55.10368 69.92263 53.94203 72.89452 50.97013 C 73.196426 50.668227 73.49949 50.344804 73.802556 50.00044 C 73.49949 49.65549 73.196426 49.33207 72.89452 49.030166 C 69.923205 46.058264 66.29748 44.896614 62.731086 44.896614" fill="#625a75"/>
          <path d="M 50.000087 50.000205 C 50.000087 53.84465 48.26197 58.77164 44.90208 62.30778 C 44.89859 62.447974 44.896264 62.589326 44.896264 62.73068 C 44.896845 66.29765 46.057916 69.9228 49.029814 72.8947 C 49.331715 73.1966 49.65572 73.49908 50.000087 73.80215 C 50.34445 73.49908 50.66788 73.1966 50.96978 72.8947 C 53.94168 69.9228 55.10333 66.29765 55.10333 62.73068 C 55.10333 62.589326 55.101584 62.447974 55.098094 62.30778 C 51.738204 58.77164 50.000087 53.84465 50.000087 50.000205" fill="#625a75"/>
          <path d="M 49.999856 26.197796 C 49.65549 26.50086 49.332067 26.803345 49.030165 27.105245 C 46.058263 30.077143 44.89661 33.70287 44.89661 37.269264 C 44.89661 37.410618 44.89836 37.55139 44.90185 37.69216 C 48.25127 41.217253 49.9888 46.1233 49.999856 49.96251 C 50.010327 46.443234 51.47155 42.02698 54.294534 38.600192 C 54.551066 38.289565 54.819225 37.98592 55.09786 37.69216 C 55.10135 37.55139 55.10368 37.410618 55.10368 37.269264 C 55.103097 33.70287 53.941444 30.077143 50.97013 27.105245 C 50.667644 26.803345 50.34422 26.50086 49.999856 26.197796" fill="#625a75"/>
          <path d="M 37.26909 44.896614 C 33.702696 44.897195 30.07697 46.058264 27.10507 49.030166 C 26.803168 49.33207 26.500685 49.65549 26.19762 50.00044 C 26.500685 50.34422 26.803168 50.667646 27.10507 50.97013 C 30.07697 53.94203 33.702696 55.10368 37.26909 55.10368 C 37.40986 55.10368 37.551215 55.10194 37.691984 55.09786 C 41.22871 51.73797 46.15512 50.00044 50.000144 50.00044 C 46.15512 50.00044 41.22871 48.26232 37.691984 44.90243 C 37.551795 44.89836 37.40986 44.896614 37.26909 44.896614" fill="#625a75"/>
      </g>
      <g id="plaid-inner">
        <title>inner</title>
          <path d="M 62.307666 44.9022 C 61.793445 44.914995 61.28097 44.952225 60.77198 45.010395 C 56.45927 45.507165 52.43217 47.56812 50.000087 50.000205 C 53.52169 50.000205 57.951325 48.541887 61.38858 45.71425 C 61.70386 45.455393 62.01042 45.18432 62.307666 44.9022" fill="#373151"/>
          <path d="M 50.000087 50.000205 C 52.718366 52.718483 57.43129 54.97373 62.307666 55.09821 C 61.96912 54.77653 61.61777 54.469396 61.25654 54.177965 C 57.838476 51.421295 53.4769 50.000205 50.000087 50.000205" fill="#373151"/>
          <path d="M 50.000087 50.000205 C 50.000087 53.84465 51.738204 58.77164 55.098094 62.30778 C 55.09053 62.00763 55.074244 61.70805 55.050976 61.40964 C 54.694395 56.85901 52.55142 52.551534 50.000087 50.000205" fill="#373151"/>
          <path d="M 50.000087 50.000205 C 47.28181 52.718483 45.026565 57.431405 44.90208 62.30778 C 48.26197 58.77164 50.000087 53.84465 50.000087 50.000205" fill="#373151"/>
          <path d="M 55.09786 37.692393 C 54.819225 37.98615 54.551066 38.289216 54.294534 38.600425 C 51.46108 42.038846 49.999856 46.474296 49.999856 49.99997 C 52.551185 47.44864 54.694164 43.141746 55.051324 38.590535 C 55.07459 38.292125 55.0903 37.99255 55.09786 37.692393 M 50.02196 49.977867 C 50.01498 49.98543 50.007417 49.99299 49.999856 49.99997 C 50.007417 49.99299 50.01498 49.98543 50.02196 49.977867" fill="#373151"/>
          <path d="M 44.90208 37.692393 C 45.026565 42.56877 47.28181 47.281695 50.000087 49.99997 C 50.000087 46.155526 48.26197 41.22854 44.90208 37.692393" fill="#373151"/>
          <path d="M 37.692274 44.9022 C 41.22842 48.26209 46.15541 50.000205 49.999856 50.000205 C 47.280994 47.281346 42.569235 45.0261 37.692274 44.9022" fill="#373151"/>
          <path d="M 50.000087 50.000205 C 46.15506 50.000205 41.228653 51.737736 37.692507 55.09821 C 42.568305 54.97373 47.28123 52.718483 50.000087 50.000205" fill="#373151"/>
      </g>
    </g>
  </g>
</svg>
