<?xml version="1.0" encoding="UTF-8" standalone="no"?>
<!DOCTYPE svg PUBLIC "-//W3C//DTD SVG 1.1//EN" "http://www.w3.org/Graphics/SVG/1.1/DTD/svg11.dtd">
<svg version="1.1" xmlns:xl="http://www.w3.org/1999/xlink" xmlns:dc="http://purl.org/dc/elements/1.1/" xmlns="http://www.w3.org/2000/svg" viewBox="0 0 100 100" width="100" height="100">
  <defs/>
  <g id="party-icon--snp" fill="none" stroke-opacity="1" stroke="none" fill-opacity="1" stroke-dasharray="none">
    <title>snp</title>
    <g id="snp_party-icon">
      <title>Scottish National Party logo</title>
      <path d="M 80.39737 52.92051 L 60.17641 31.9008 L 87.02066 5.2120585 L 65.89728 5 L 49.997605 21.220119 L 34.095572 5 L 12.979257 5.2120585 L 39.82115 31.9008 L 19.607263 52.92051 C 19.607263 52.92051 2.5624718 68.240556 18.400887 83.97058 C 29.58815 95.08245 49.997605 94.99998 49.997605 94.99998 C 49.997605 94.99998 70.40706 95.08245 81.59904 83.97058 C 97.4351 68.240556 80.39737 52.92051 80.39737 52.92051 Z M 68.82369 81.62852 C 60.88092 89.21314 49.997605 88.85971 49.997605 88.85971 C 49.997605 88.85971 39.11429 89.21079 31.17152 81.62852 C 23.228752 74.03446 27.288494 66.27077 29.058006 63.975825 C 30.822803 61.68559 49.999963 42.4566 49.999963 42.4566 C 49.999963 42.4566 69.18183 61.68559 70.94427 63.975825 C 72.70436 66.27077 76.76175 74.03446 68.82369 81.62852 Z" fill="#373151"/>
    </g>
  </g>
</svg>
