<?xml version="1.0" encoding="UTF-8" standalone="no"?>
<!DOCTYPE svg PUBLIC "-//W3C//DTD SVG 1.1//EN" "http://www.w3.org/Graphics/SVG/1.1/DTD/svg11.dtd">
<svg xmlns="http://www.w3.org/2000/svg" xmlns:xl="http://www.w3.org/1999/xlink" version="1.1" viewBox="0 0 500 500" width="500pt" height="500pt" xmlns:dc="http://purl.org/dc/elements/1.1/">
  <metadata> Produced by OmniGraffle 7.3.1
    <dc:date>2017-05-27 13:33:56 +0000</dc:date>
  </metadata>
  <defs/>
  <g stroke="none" stroke-opacity="1" stroke-dasharray="none" fill="none" fill-opacity="1">
    <title>Canvas 1</title>
    <g>
      <title>Layer 1</title>
      <path d="M 15.56234 319.42113 C 21.33805 312.04106 29.84118 301.53247 40.34976 290.06127 L 78.292965 290.06127 L 15.56234 319.42113 M 7.299867 183.53152 L 12.193177 186.41937 L 52.06162 186.41937 C 52.78358 185.93806 53.505544 185.45675 54.22751 184.97544 L 16.524959 162.755 C 13.155795 169.4131 10.187722 176.3921 7.299867 183.53152 M 345.6602 330.3308 C 343.4141 334.3417 339.8845 340.9998 337.63837 347.1766 C 337.15706 348.4601 336.75597 349.7436 336.3549 351.0271 L 383.5232 378.7826 C 389.53954 375.6541 396.59874 371.8036 404.62056 367.15095 C 405.2623 366.8301 405.82383 366.429 406.38536 366.1081 L 345.6602 330.3308 M 451.5482 266.95843 C 442.16267 256.53007 416.57307 235.1118 416.57307 235.1118 C 416.57307 235.1118 388.0956 255.08614 366.3565 265.59472 C 366.3565 265.59472 385.20776 247.8665 391.86587 241.85014 C 401.1712 233.347 428.44536 206.95523 428.44536 206.95523 L 427.96405 206.3937 L 181.614 207.19588 L 213.30018 59.514194 C 200.06418 63.28445 180.89203 69.46125 160.0353 78.68634 C 155.94417 80.53136 151.93326 82.37638 148.08279 84.2214 L 121.93166 207.19588 L 41.79369 207.19588 C 17.006268 232.14374 .882412 254.36418 .882412 254.36418 L 14.599722 269.36498 L 46.366126 269.36498 C 55.83187 261.0223 69.54918 249.87196 88.40046 236.8766 L 83.66758 249.5511 C 75.645765 255.8081 67.94482 262.54643 60.72518 269.4452 L 108.13413 269.4452 L 90.16526 350.7062 L 112.06482 372.52557 L 113.58897 374.29037 C 113.58897 374.29037 128.02824 371.8036 146.15755 367.23117 L 167.81646 269.5254 L 451.0669 268.72323 C 451.38777 267.6804 451.6284 267.11887 451.5482 266.95843 M 343.73495 329.20775 L 277.3143 290.1415 L 232.7932 290.1415 L 321.75517 342.44375 C 331.622 336.9087 339.32295 332.0956 343.73495 329.20775 M 372.6135 131.79078 L 360.98187 116.46911 L 211.2145 186.41937 L 255.65538 186.41937 L 372.6135 131.79078 M 13.556886 216.26054 C 13.556886 216.26054 17.567795 212.65072 24.386342 207.19588 L 4.4922305 207.19588 C 8.743795 211.2068 13.556886 216.26054 13.556886 216.26054" fill="white"/>
      <path d="M 54.14729 184.89522 C 64.01413 178.07668 75.08424 171.01748 86.55544 164.68024 L 33.531215 133.47536 C 27.274196 142.70046 21.578705 152.40686 16.524959 162.755 Z" fill="white" fill-opacity=".75"/>
      <path d="M 480.42675 290.1415 L 464.8644 278.6703 C 464.8644 278.6703 459.8909 283.5636 452.59104 290.1415 Z" fill="white" fill-opacity=".75"/>
      <path d="M 409.91496 186.41937 L 322.3969 186.41937 L 390.10107 154.8134 L 372.6135 131.79078 L 255.65538 186.41937 L 211.1343 186.41937 L 360.90165 116.46911 L 351.99743 120.64045 L 345.6602 113.26038 L 207.84534 177.59537 L 233.6756 59.83507 C 232.07123 56.70656 231.18883 54.94176 231.18883 54.94176 C 231.18883 54.94176 224.29007 56.385685 213.13974 59.514194 L 181.45356 207.19588 L 427.8036 206.3937 Z" fill="white" fill-opacity=".75"/>
      <path d="M 12.112959 186.41937 L 7.219649 183.53152 C 4.652667 189.86875 2.2461212 196.2862 1190849e-11 202.94432 C 1.1230666 203.82672 2.7274304 205.43108 4.4922305 207.11566 L 24.386342 207.11566 C 31.204888 201.5806 40.670634 194.20053 51.9814 186.33915 Z" fill="white" fill-opacity=".75"/>
      <path d="M 168.05712 360.89393 L 181.13268 298.9655 L 285.657 360.8137 C 289.42724 359.12913 293.2777 357.36433 297.2084 355.4391 C 306.19284 351.1073 314.53553 346.5349 321.75517 342.44375 L 232.7932 290.06127 L 277.3143 290.06127 L 343.81517 329.20775 C 346.46237 327.52317 347.9063 326.56055 347.9063 326.56055 C 347.9063 326.56055 347.0239 328.00447 345.7404 330.3308 L 406.4656 366.0279 C 410.31605 363.7818 413.92587 361.5357 417.5357 359.20935 L 299.69517 289.98105 L 436.5474 289.98105 C 443.44616 280.4351 449.46253 271.85174 451.1471 268.40236 L 167.89668 269.20454 L 146.23777 366.9103 C 153.05632 365.30593 160.59683 363.22026 168.05712 360.89393" fill="white" fill-opacity=".75"/>
      <path d="M 336.3549 351.0271 C 333.14615 360.6533 331.1407 370.27946 331.1407 370.27946 L 359.4577 390.2538 C 359.4577 390.2538 368.1213 386.8044 383.5232 378.7826 Z" fill="white" fill-opacity=".75"/>
      <path d="M 108.37479 177.59537 L 89.0422 166.20439 C 88.07958 166.84613 69.54918 179.9217 46.927653 201.9817 C 45.16285 203.7465 43.39805 205.43108 41.71347 207.19588 L 121.77122 207.19588 L 147.84214 84.14118 C 140.78293 87.51034 134.0446 90.87951 127.54693 94.40911 Z" fill="white" fill-opacity=".75"/>
      <path d="M 46.28591 269.36498 L 14.519504 269.36498 L 29.520306 285.8097 C 29.440088 285.7295 34.65427 279.6329 46.28591 269.36498" fill="white" fill-opacity=".75"/>
      <path d="M 68.18547 358.32695 L 85.35217 346.2942 L 87.35762 347.8986 L 90.00482 350.5458 L 107.9737 269.28476 L 60.564745 269.28476 C 53.26489 276.26374 46.446344 283.32294 40.269543 290.06127 L 78.292965 290.06127 L 15.56234 319.42113 C 10.428377 326.07924 7.4603035 330.17037 7.4603035 330.17037 L 9.786631 332.4967 L 81.66213 298.88527 Z" fill="white" fill-opacity=".75"/>
      <path d="M 480.42675 290.1415 L 452.59104 290.1415 C 448.3395 293.91174 443.36595 298.24353 438.07155 302.65553 C 428.28493 310.67735 414.4072 318.93982 414.4072 318.93982 C 420.02245 312.04106 428.76624 300.56985 436.30675 290.2217 L 299.61495 290.2217 L 417.5357 359.45 C 431.01234 350.86666 442.3231 342.44375 451.468 335.46477 C 451.468 335.46477 441.68136 350.46557 434.54195 361.295 C 444.4088 370.68055 454.91737 379.02324 454.91737 379.02324 L 500 304.58076 Z" fill="white" fill-opacity=".5"/>
      <path d="M 233.6756 59.75485 L 207.84534 177.59537 L 345.6602 113.18016 L 340.3658 107.00336 L 297.1282 129.14358 L 278.35713 94.32889 L 225.89443 117.27129 C 232.3119 110.85384 235.52062 108.20664 251.24338 98.82111 C 244.6655 82.05551 237.36564 67.13492 233.6756 59.75485" fill="white" fill-opacity=".5"/>
      <path d="M 86.55544 164.76046 C 87.11697 164.9209 88.56089 165.88351 89.12242 166.12417 L 89.0422 166.20439 L 108.37479 177.59537 L 127.62715 94.48932 C 102.6793 107.88576 81.50169 122.40525 63.13173 138.84998 L 62.00867 138.28846 C 66.58111 129.70511 79.81711 115.66693 94.81791 102.35071 C 108.77588 89.99711 128.10846 79.24787 128.10846 79.24787 L 131.31719 59.915285 C 106.04846 69.14038 78.05231 82.69725 56.152745 105.55943 C 47.89027 114.223 40.42998 123.60853 33.531215 133.6358 Z" fill="white" fill-opacity=".5"/>
      <path d="M 409.91496 186.41937 L 393.47023 167.9692 L 395.39547 161.79239 L 390.10107 154.8134 L 322.3969 186.41937 Z" fill="white" fill-opacity=".5"/>
      <path d="M 68.18547 358.32695 L 81.58191 298.9655 L 9.786631 332.5769 L 48.692453 371.96404 Z" fill="white" fill-opacity=".5"/>
      <path d="M 169.01974 360.57306 C 192.76432 352.95233 214.18258 341.802 214.18258 341.802 C 214.18258 341.802 218.83523 347.0162 223.24723 352.95233 L 242.25894 377.33866 C 242.25894 377.33866 262.07284 371.3223 285.657 360.8137 L 181.13268 298.9655 L 168.05712 360.89393 C 168.378 360.8137 168.69886 360.7335 169.01974 360.57306" fill="white" fill-opacity=".5"/>
      <path d="M 357.77314 433.33096 C 357.2116 433.33096 358.8962 428.5981 358.4951 428.5981 C 315.3377 426.9937 233.11407 427.07394 225.01203 421.05757 C 219.1561 416.64557 228.06033 394.3449 233.91625 382.15175 C 233.91625 382.15175 224.93182 370.0388 210.57276 352.471 C 209.12883 353.91495 187.06883 378.62215 184.82272 417.04667 C 172.79 420.41583 171.26585 422.8224 147.52126 424.7476 C 133.24242 425.87067 69.06787 427.8761 69.06787 427.8761 L 65.53827 431.08485 C 61.6878 431.4057 40.34976 432.1277 40.34976 432.1277 C 40.34976 432.1277 42.59587 439.3473 47.248526 444.40107 C 52.94402 444.8824 183.8601 447.69 201.18723 436.37925 C 207.92556 442.07474 220.0385 445.20325 243.8633 444.1604 C 248.35553 444 325.4452 444.8824 334.6703 444.80216 C 367.2389 444.5615 433.4189 440.4704 433.4189 440.4704 L 439.35504 433.9727 C 432.2156 433.9727 397.3207 433.5716 375.6618 433.5716 C 369.64543 433.4914 359.13685 433.4914 357.77314 433.33096" fill="white" fill-opacity=".5"/>
    </g>
  </g>
</svg>
