<?xml version="1.0" encoding="UTF-8" standalone="no"?>
<!DOCTYPE svg PUBLIC "-//W3C//DTD SVG 1.1//EN" "http://www.w3.org/Graphics/SVG/1.1/DTD/svg11.dtd">
<svg xmlns="http://www.w3.org/2000/svg" xmlns:xl="http://www.w3.org/1999/xlink" version="1.1" viewBox="0 0 500 500" width="500pt" height="500pt" xmlns:dc="http://purl.org/dc/elements/1.1/">
  <metadata> Produced by OmniGraffle 7.3.1
    <dc:date>2017-05-27 11:59:58 +0000</dc:date>
  </metadata>
  <defs/>
  <g stroke="none" stroke-opacity="1" stroke-dasharray="none" fill="none" fill-opacity="1">
    <title>Canvas 1</title>
    <g>
      <title>Layer 1</title>
      <path d="M 175.51358 81.07803 C 178.9829 93.50977 174.41496 106.31158 166.00763 115.28556 C 150.095 132.28525 123.39277 126.80372 111.13449 149.11147 C 104.54277 168.505 85.88937 188.98557 63.58162 189.91072 C 50.964845 192.99842 35.59574 190.26876 24.991173 197.40446 C 17.85593 208.55256 21.695315 223.92166 24.078046 235.43982 C 12.733357 232.14396 6.881764 219.88568 3.955967 209.65118 C 3.053943 199.77517 2.6723173 186.6033 11.819768 181.12177 C 32.49694 180.92471 50.225185 173.61647 68.52009 167.9499 C 89.91425 159.17251 89.91425 131.54513 110.57986 120.94056 C 127.59111 115.64406 147.1581 114.17538 158.87285 99.36137 C 161.05852 95.53355 160.88506 89.48536 160.14493 85.46094 C 158.68782 81.79502 155.03346 78.15223 151.3791 76.69512 C 147.71319 76.325055 142.2201 74.68291 139.66436 78.33726 C 139.10927 78.33726 138.19568 78.70732 137.83718 77.9672 C 140.76298 70.28843 148.81181 67.362635 156.30555 67.00414 C 164.16935 68.09119 173.50183 72.30064 175.51404 81.07803" fill="white"/>
      <path d="M 373.94735 154.2345 C 375.60106 153.49439 376.87314 152.2223 378.88535 152.03727 C 379.2554 159.34598 371.2066 162.28334 365.7135 164.83908 C 339.75138 171.97432 315.7899 161.36975 296.21136 146.91423 C 271.3363 133.55734 237.68386 126.43366 213.73396 146.0011 C 211.53672 144.3474 212.82084 141.07467 213.73396 138.87743 C 229.27653 119.66894 251.78088 109.6079 276.45934 114.36087 C 303.3466 121.13762 323.6537 143.80387 349.44235 153.49485 C 357.12112 156.42064 365.7135 155.33359 373.94735 154.23497" fill="white"/>
      <path d="M 409.06847 168.31996 C 426.0797 196.66434 459.18864 201.24385 482.41 222.26795 C 491.3724 233.25414 496.3104 245.85936 496.48387 260.48834 C 496.30994 261.04343 495.58185 261.04343 495.2118 261.04343 C 478.38556 225.5638 434.8571 232.51402 415.2901 201.24385 C 406.51273 188.07198 401.57473 172.5294 400.8346 156.42018 L 401.57473 154.7896 C 405.95764 157.8773 405.7726 164.09895 409.06847 168.31996" fill="white"/>
      <path d="M 168.1933 170.50564 C 167.65024 173.25797 164.35392 173.81306 163.2553 176.1722 C 155.033 182.59045 146.79914 187.52845 139.6639 195.93578 C 135.63948 196.6648 131.43003 195.3807 128.68927 192.08483 C 124.66485 188.80054 125.40497 182.94895 124.66485 178.91297 C 131.245 176.54226 138.19521 174.72665 145.33046 173.61647 C 151.92217 170.69067 159.60094 172.15935 165.08248 168.8635 C 166.00763 169.59251 168.01984 168.67846 168.1933 170.50564" fill="white"/>
      <path d="M 328.4067 228.8481 C 345.77643 237.99555 370.11952 245.1308 388.40286 233.25414 C 390.41507 237.267 383.63832 239.82273 381.81115 243.4771 C 367.18216 253.89662 347.2567 256.83398 329.69034 250.80892 C 300.9759 242.01997 279.02664 216.78642 248.8551 210.93483 C 244.09055 210.7498 239.1641 215.1327 235.32472 212.2069 C 243.90552 201.04725 259.64468 197.0344 273.9036 200.33026 C 293.29713 206.9104 309.7533 220.4292 328.4067 228.8481" fill="white"/>
      <path d="M 70.16177 224.4652 C 61.025885 232.87252 51.334906 241.83494 38.706567 239.82273 C 39.990217 237.63706 43.286074 236.34184 45.65678 234.6997 C 51.334906 229.21816 52.96549 221.72442 52.59543 214.40415 C 59.00211 215.50277 64.31018 218.78706 70.16177 220.6258" fill="white"/>
      <path d="M 222.51135 221.5394 C 223.06644 254.46328 183.9209 255.0068 171.1191 278.9567 C 170.02048 279.15284 169.29192 278.2397 168.1933 278.59775 C 164.89745 269.82036 168.1933 262.31505 171.6742 254.83288 C 184.10594 235.79785 211.3517 237.9951 218.67197 215.68734 C 222.51135 214.95832 221.23927 219.51516 222.51135 221.53893" fill="white"/>
      <path d="M 29.929177 246.05595 C 29.200156 268.35214 33.768562 288.84428 50.409753 303.47326 C 76.56846 285.54842 106.38151 275.1289 139.6639 273.6602 C 141.86113 274.2153 145.70052 275.30235 143.50328 278.5982 C 132.71368 291.215 131.07154 308.60786 124.29479 323.22528 C 115.88746 323.59534 110.76443 316.1016 103.08566 314.4479 C 88.81517 307.31265 69.06315 310.6085 57.00147 319.75596 C 47.668987 329.25034 45.84181 343.34736 46.94043 355.4206 C 50.22472 363.09938 57.00147 370.0496 64.49521 372.9754 L 61.92791 374.6291 C 50.594784 373.34545 39.79362 368.21085 33.3985 357.97634 C 27.73194 344.631 26.644884 326.52114 34.68215 314.07783 C 17.485868 297.43664 17.312402 267.62358 26.263258 246.96954 C 26.64442 245.30426 29.374085 243.4771 29.929177 246.0564" fill="white"/>
      <path d="M 136.55307 391.25872 C 132.15859 420.1582 129.24436 452.527 101.802 469.0063 C 99.97483 470.1049 97.78915 469.1802 96.13544 468.0811 C 99.06124 463.68665 104.18428 461.31594 106.19648 455.8344 C 116.06093 427.1084 103.64075 390.7152 122.10912 365.48165 C 110.03587 365.48165 97.78915 369.86456 87.35805 376.4447 C 82.04999 380.8392 78.39563 387.4309 78.2106 393.9995 L 77.29748 394.91354 C 73.45809 391.62925 75.10024 385.4076 74.55671 380.28456 C 77.29748 362.7298 92.65502 348.8409 109.30777 344.43488 C 123.19663 340.237 141.3065 342.79273 152.83622 330.7195 C 160.32996 321.95366 165.08294 311.69602 167.28018 300.54793 C 176.2426 336.57108 142.59015 359.26046 136.55353 391.2592" fill="white"/>
      <path d="M 235.68322 45.96847 C 277.01443 38.278135 319.99936 46.51246 349.80085 74.856375 C 375.41603 98.81784 393.8844 145.45712 435.95573 138.5069 C 438.32643 139.23593 442.90594 139.23593 446.01677 138.5069 C 447.1038 142.51976 441.6223 142.51976 439.42505 144.72856 C 433.38843 146.7292 427.53684 148.74141 420.9567 149.48153 C 375.04596 150.56859 350.54097 97.73078 312.124 79.60935 C 287.07547 65.1654 255.2502 62.96816 226.53577 65.1654 C 215.9312 67.177604 205.87016 70.4619 197.09277 76.69512 C 196.54878 76.49806 195.63566 76.86905 195.25403 76.140025 C 197.45127 69.54831 202.75933 62.413066 209.35105 58.585245 C 194.34044 47.055525 170.93407 45.22835 153.56432 53.27718 C 149.90997 54.734296 146.79914 57.67166 143.13322 59.14034 C 144.04635 50.16635 151.92217 46.870495 157.57717 40.67197 C 169.29192 32.796604 183.74744 29.14225 198.37642 30.95786 C 211.90679 33.34013 224.7086 37.538013 235.68322 45.96847" fill="white"/>
      <path d="M 288.35912 166.67782 C 311.58046 176.54226 332.24607 192.08483 357.6762 196.46775 C 367.3672 198.13302 374.50244 195.93578 382.72474 191.55287 C 385.83556 194.1086 382.18075 196.46775 381.45265 198.67655 C 369.56443 210.56477 348.7138 216.0463 332.80116 209.65118 C 298.77866 198.67655 269.33566 169.59205 230.37515 177.09735 C 229.64613 178.19597 228.54798 178.7395 227.44936 178.91297 C 223.06644 170.3206 234.21454 169.23355 237.8689 164.48058 C 253.96656 156.60521 273.17505 157.8773 288.35912 166.67782" fill="white"/>
      <path d="M 247.9415 250.80892 C 252.13938 266.71 253.5965 286.83207 248.48456 303.11477 C 232.942 343.34736 205.14114 380.6657 203.67246 426.0098 L 205.5112 439.18165 C 206.0552 440.83536 207.8819 441.74895 207.14178 443.93463 C 206.4137 445.58834 204.40102 445.58834 203.3024 444.84775 C 189.77204 423.62705 192.1543 396.56633 194.53657 371.5178 C 198.0059 347.91484 213.36344 329.24988 224.33807 308.78087 C 234.57257 288.67035 243.36153 264.88235 238.42352 241.64945 C 238.42352 239.4522 242.08944 240.2039 243.1765 241.2914 L 247.94104 250.80892" fill="white"/>
    </g>
  </g>
</svg>
