<?xml version="1.0" encoding="UTF-8" standalone="no"?>
<!DOCTYPE svg PUBLIC "-//W3C//DTD SVG 1.1//EN" "http://www.w3.org/Graphics/SVG/1.1/DTD/svg11.dtd">
<svg xmlns="http://www.w3.org/2000/svg" xmlns:xl="http://www.w3.org/1999/xlink" version="1.1" viewBox="0 0 500 500" width="500pt" height="500pt" xmlns:dc="http://purl.org/dc/elements/1.1/">
  <metadata> Produced by OmniGraffle 7.3.1
    <dc:date>2017-05-25 23:07:41 +0000</dc:date>
  </metadata>
  <defs/>
  <g stroke="none" stroke-opacity="1" stroke-dasharray="none" fill="none" fill-opacity="1">
    <title>Canvas 1</title>
    <g>
      <title>Layer 1</title>
      <path d="M 342.28188 190.48993 L 342.28188 190.48993 C 284.39597 143.92953 200.50336 150.64094 154.36242 205.5906 C 108.22148 260.95973 117.86913 343.59396 175.75503 390.57383 C 233.22148 437.5537 317.53356 430.8423 363.25503 375.47316 C 409.39597 320.5235 399.7483 237.4698 342.28188 190.48993 Z M 269.71477 254.6678 L 269.71477 254.6678 C 269.71477 253.4094 270.5537 252.98993 271.81208 252.98993 C 273.48993 251.73155 272.23154 250.0537 273.48993 249.21477 C 273.48993 248.7953 274.32886 248.7953 275.1678 248.37584 C 276.42617 247.95638 276.42617 247.11745 277.68456 247.11745 C 278.5235 247.5369 278.94295 247.95638 279.78188 248.37584 C 281.04027 249.21477 282.71812 248.7953 282.71812 250.89262 C 282.71812 251.73155 281.45973 252.98993 280.6208 253.4094 C 280.20134 253.82886 279.78188 253.82886 279.3624 254.24832 C 278.10403 255.5067 278.94295 256.7651 277.68456 257.60403 C 275.58725 257.18457 269.71477 257.18457 269.71477 254.6678 Z M 273.9094 259.28188 L 273.9094 259.28188 C 275.1678 258.44295 277.2651 259.70134 278.5235 258.44295 C 278.94295 258.44295 278.94295 257.60403 279.3624 257.18457 C 279.78188 256.7651 280.6208 256.7651 281.04027 256.34564 C 281.45973 255.92618 281.45973 254.6678 282.29866 254.24832 L 284.81544 254.24832 C 284.81544 253.4094 284.39597 252.151 285.65436 251.31208 C 285.2349 250.89262 285.2349 250.47316 285.2349 249.63423 C 286.07383 248.37584 287.75168 246.27853 289.849 247.5369 C 289.849 248.37584 289.42953 248.7953 289.849 249.21477 C 290.26846 249.63423 290.68792 248.7953 291.52685 248.7953 C 292.78523 248.7953 293.62416 249.63423 294.88255 249.63423 C 295.72148 251.31208 296.14094 252.98993 294.88255 253.82886 C 294.04362 254.6678 291.9463 254.6678 291.10738 255.08725 C 289.849 255.92618 290.26846 258.44295 289.42953 259.70134 C 290.26846 260.95973 289.849 263.05705 288.5906 263.89597 C 287.75168 263.89597 286.4933 263.89597 285.65436 263.89597 C 284.81544 263.89597 283.9765 264.31544 283.55705 264.31544 C 282.71812 264.31544 281.8792 263.4765 281.04027 263.4765 C 279.78188 263.05705 278.5235 263.89597 277.68456 263.89597 C 276.84564 263.4765 276.42617 263.05705 275.58725 263.05705 C 274.32886 262.21812 273.07047 262.21812 273.07047 261.3792 C 273.07047 260.54027 273.48993 259.70134 273.9094 259.28188 Z M 268.0369 232.01678 L 268.0369 232.01678 C 267.61745 232.01678 266.35906 232.8557 265.52013 233.27517 C 264.6812 233.69463 263.84228 234.53356 263.42282 234.95302 C 262.5839 235.37248 262.16443 235.37248 261.74497 235.37248 C 260.48658 236.2114 260.0671 237.05034 258.38926 237.05034 C 257.9698 236.2114 258.80872 234.95302 258.80872 233.69463 C 259.64765 232.43624 259.64765 230.33893 260.0671 228.66108 C 260.48658 228.2416 260.48658 227.40269 260.90604 226.98322 C 262.16443 226.56376 263.84228 226.56376 264.6812 225.72483 C 265.52013 225.30537 266.35906 224.46644 267.198 223.62752 C 268.87584 222.36913 270.13423 221.11074 271.81208 219.4329 C 273.48993 218.1745 276.0067 217.33557 277.2651 215.65772 C 278.10403 214.8188 278.5235 213.14094 279.3624 212.30202 C 279.78188 211.88255 281.04027 211.04363 281.45973 211.04363 C 282.29866 210.62416 283.55705 211.04363 284.39597 211.4631 C 286.4933 211.4631 289.42953 211.04363 291.10738 211.88255 C 291.52685 213.97987 290.68792 216.9161 291.9463 219.01342 C 291.9463 219.4329 293.2047 219.01342 293.62416 219.4329 C 293.2047 220.69128 291.9463 221.5302 290.68792 221.94967 C 290.26846 222.36913 289.849 223.20806 289.42953 223.20806 C 286.91275 225.30537 283.9765 227.40269 281.8792 229.91946 C 282.71812 234.1141 278.5235 231.17785 276.42617 231.17785 C 275.58725 230.7584 274.74832 231.17785 273.48993 231.59732 C 272.651 231.59732 272.23154 231.59732 271.39262 231.59732 C 270.5537 231.59732 270.13423 232.01678 269.71477 232.01678 C 269.2953 232.01678 268.45638 232.01678 268.0369 232.01678 Z M 315.01678 371.27853 L 315.01678 371.27853 C 314.5973 371.698 313.7584 371.698 313.33893 371.698 C 312.08054 372.5369 311.2416 373.7953 309.98322 374.21477 C 309.1443 374.63423 308.30537 374.63423 307.46644 375.47316 C 306.6275 376.3121 306.6275 377.57047 306.20805 378.82886 C 305.7886 379.6678 305.36913 380.08725 304.94966 380.92618 C 304.5302 381.7651 304.11074 383.44295 303.2718 384.70134 C 303.2718 385.1208 302.85235 385.54027 302.4329 386.3792 C 302.4329 386.79866 302.4329 387.2181 302.01342 387.6376 C 302.01342 388.05705 301.59396 388.4765 301.1745 388.89597 C 300.33557 390.57383 300.33557 392.67114 299.49664 393.92953 C 299.07718 395.1879 296.97987 396.4463 295.72148 396.86577 C 294.4631 398.12416 293.2047 398.54363 291.9463 399.38255 C 291.52685 400.2215 291.10738 400.64094 290.68792 401.47987 C 289.42953 402.3188 289.01007 404.4161 287.3322 405.6745 C 286.07383 408.61074 283.55705 410.70806 281.8792 413.22483 C 281.04027 413.6443 280.20134 413.6443 279.3624 413.6443 L 278.94295 413.6443 C 278.10403 414.06376 277.2651 414.06376 276.42617 414.06376 L 276.0067 414.06376 C 275.1678 414.06376 274.32886 414.4832 273.48993 414.4832 L 273.07047 414.4832 C 272.23154 414.4832 271.39262 414.4832 270.5537 414.4832 L 269.71477 414.4832 C 268.87584 414.9027 268.0369 414.9027 267.61745 414.9027 L 266.77852 414.9027 C 265.9396 414.9027 265.10067 414.9027 264.6812 414.9027 L 263.42282 414.9027 C 263.00336 414.9027 262.16443 414.9027 261.3255 414.9027 C 261.3255 414.9027 260.90604 414.9027 260.48658 414.9027 C 259.64765 414.9027 259.2282 414.9027 258.38926 414.9027 C 257.9698 414.9027 257.9698 414.9027 257.55034 414.9027 C 256.7114 414.9027 256.29195 414.4832 255.45302 414.4832 C 255.03356 414.4832 254.6141 414.4832 254.19463 414.4832 C 253.77517 414.4832 253.3557 414.4832 252.51678 414.4832 C 252.09732 414.4832 251.67785 414.4832 251.2584 414.4832 C 250.83893 411.96644 251.67785 409.86913 251.67785 407.35235 C 252.09732 406.9329 251.67785 406.09396 251.67785 405.25504 C 251.67785 403.5772 252.93624 401.89933 253.3557 400.2215 C 253.77517 397.7047 253.3557 395.1879 252.93624 393.0906 C 252.93624 392.2517 252.93624 391.41275 252.51678 390.9933 C 252.09732 388.89597 250.83893 387.2181 250.83893 385.1208 C 249.58054 383.8624 249.58054 381.7651 248.7416 380.5067 C 249.58054 377.98993 249.58054 375.47316 250.41946 372.95638 C 250.83893 372.11745 251.2584 371.27853 251.2584 370.85906 C 251.2584 370.02014 251.2584 369.1812 250.83893 368.3423 C 250.83893 367.50336 251.2584 366.66443 250.83893 366.24497 C 250.83893 365.40604 250.41946 364.5671 250.41946 363.7282 C 250 360.79195 251.2584 358.69463 251.67785 356.5973 C 251.67785 355.7584 251.67785 355.33893 252.09732 354.91946 C 252.09732 354.5 252.51678 354.08054 252.51678 353.66108 C 252.93624 353.2416 252.93624 352.4027 252.93624 351.98322 C 253.3557 351.1443 254.19463 350.30537 254.19463 349.8859 C 254.19463 349.047 252.51678 347.7886 252.09732 347.36913 C 251.67785 346.94967 251.67785 346.11074 251.2584 345.69128 C 250.83893 344.85235 250 344.4329 249.58054 343.59396 C 249.16107 343.1745 249.16107 342.75504 248.7416 342.33557 C 248.32215 341.9161 247.90268 341.9161 247.90268 341.49665 C 247.48322 341.0772 247.48322 340.23826 246.6443 339.8188 C 245.80537 338.97987 244.54698 339.39933 242.86913 338.97987 C 242.0302 338.97987 241.19128 338.5604 240.35235 338.5604 C 239.9329 338.5604 239.51342 338.97987 239.09396 338.5604 C 238.25503 338.5604 237.4161 338.14094 236.57718 337.72148 C 234.47987 337.302 232.38255 336.88255 230.28523 336.88255 C 229.4463 333.9463 227.76846 331.01007 226.92953 327.65436 C 226.51007 327.2349 226.0906 326.39597 226.0906 325.9765 C 225.67114 324.71812 225.67114 323.45973 225.25168 322.6208 C 224.83221 321.3624 223.9933 320.5235 223.9933 319.68457 C 224.41275 318.42618 224.83221 317.58725 225.67114 316.74832 C 225.67114 315.07047 226.92953 313.8121 227.349 312.5537 C 227.349 312.13423 227.349 311.71477 227.349 310.87584 C 227.76846 310.45638 228.18792 310.0369 228.60738 309.61745 C 228.60738 309.198 228.60738 308.35906 229.02685 307.9396 C 229.4463 307.10067 231.9631 305.8423 233.22148 305.00336 C 234.89933 304.16443 236.15772 303.3255 237.4161 302.0671 C 239.51342 300.80873 241.61074 299.55034 243.70805 298.29195 C 245.3859 297.03356 245.80537 296.19463 247.90268 296.6141 C 249.16107 296.6141 250.41946 297.8725 251.2584 297.8725 C 252.51678 297.45302 252.51678 296.19463 252.51678 295.3557 C 253.3557 294.51678 254.19463 293.67785 254.19463 292 C 255.03356 291.58054 255.03356 291.58054 255.45302 291.16108 C 257.55034 290.32215 258.38926 289.06376 260.0671 288.6443 C 261.3255 287.80537 263.84228 285.2886 264.6812 288.6443 C 265.52013 289.48322 266.77852 289.48322 268.0369 289.9027 C 268.87584 290.32215 269.2953 291.16108 270.13423 291.16108 C 271.39262 291.58054 273.07047 291.58054 274.32886 292 C 275.1678 292 276.0067 292.83893 276.84564 293.2584 C 277.2651 294.0973 278.10403 294.51678 278.10403 295.77517 C 278.10403 296.6141 277.2651 297.03356 277.2651 297.8725 C 277.68456 299.13087 278.5235 299.13087 278.94295 299.9698 C 279.78188 300.38926 280.6208 301.64765 281.45973 302.90604 C 282.29866 303.74497 283.1376 305.42282 284.39597 305.8423 C 285.2349 305.8423 285.65436 305.00336 286.4933 305.00336 C 288.17114 305.00336 289.01007 306.26175 289.849 307.52014 C 291.9463 308.35906 294.04362 308.77853 296.5604 309.198 C 297.39933 309.198 297.8188 309.61745 298.65772 309.61745 C 299.9161 310.0369 301.1745 309.61745 302.4329 310.0369 C 304.11074 310.45638 305.36913 311.2953 306.6275 311.71477 C 307.8859 311.71477 307.8859 310.0369 308.30537 309.198 C 308.72483 308.35906 309.56376 307.9396 309.56376 307.10067 C 309.56376 305.8423 306.20805 306.26175 305.36913 305.42282 C 303.69128 304.16443 303.69128 301.2282 304.94966 299.13087 C 305.36913 298.29195 306.20805 298.29195 306.6275 297.03356 C 306.20805 296.19463 304.5302 296.19463 303.69128 296.6141 C 303.2718 298.29195 303.69128 300.80873 301.59396 301.2282 C 300.75503 301.64765 299.9161 301.2282 299.49664 301.2282 C 298.65772 301.2282 298.23826 301.2282 297.8188 301.2282 C 296.97987 300.80873 296.14094 297.8725 296.14094 296.6141 C 296.14094 295.3557 296.5604 294.0973 296.14094 292.83893 C 295.72148 292 295.302 291.58054 294.4631 291.16108 C 294.4631 289.9027 294.04362 289.06376 293.2047 288.6443 C 291.9463 289.9027 293.62416 290.7416 294.04362 291.58054 C 294.4631 294.51678 295.72148 297.8725 293.62416 299.13087 C 291.52685 298.29195 291.10738 299.13087 289.849 299.9698 C 289.01007 300.80873 288.5906 301.64765 287.75168 301.64765 C 286.4933 301.64765 285.65436 299.9698 286.07383 298.7114 C 286.07383 297.45302 289.42953 296.19463 289.42953 294.93624 C 289.42953 294.0973 288.5906 293.67785 288.17114 292.83893 C 288.17114 292.41946 288.17114 291.58054 288.17114 291.16108 C 287.75168 290.32215 287.3322 289.48322 287.3322 289.06376 C 287.3322 288.6443 287.3322 288.22483 287.3322 287.80537 C 287.3322 286.96644 286.4933 285.70806 286.4933 284.86913 C 285.65436 283.19128 283.9765 284.44967 281.8792 284.0302 C 281.04027 284.0302 281.04027 282.7718 280.6208 281.9329 C 278.10403 281.51342 278.10403 283.19128 276.84564 284.0302 C 276.42617 284.44967 275.58725 284.86913 274.74832 285.2886 C 274.32886 285.70806 273.48993 286.12752 273.07047 286.54698 C 272.23154 286.96644 271.81208 288.22483 270.97315 288.22483 C 269.71477 288.6443 268.45638 287.3859 267.61745 286.96644 C 266.35906 286.12752 265.10067 285.70806 264.6812 284.86913 C 264.6812 281.9329 263.00336 281.51342 261.74497 279.83557 C 261.74497 278.15772 263.00336 277.73826 263.42282 276.47987 C 263.84228 276.0604 263.84228 275.22148 264.6812 274.38255 C 265.10067 273.9631 265.9396 273.12416 266.35906 272.7047 C 266.77852 272.28524 266.77852 271.86577 267.198 271.4463 C 267.61745 271.02685 268.0369 270.6074 268.45638 270.18792 C 269.2953 269.349 270.13423 268.51007 271.39262 269.349 C 271.81208 269.349 272.23154 270.18792 272.651 270.6074 C 273.48993 271.4463 273.07047 273.54363 274.74832 273.12416 C 276.0067 273.12416 276.0067 272.28524 276.0067 271.4463 C 276.0067 271.02685 276.0067 269.76846 275.58725 268.92953 C 275.58725 268.51007 274.32886 267.67114 274.32886 267.25168 C 274.32886 266.41275 275.1678 264.31544 275.58725 263.89597 C 276.84564 263.89597 277.68456 265.15436 278.94295 265.57383 C 279.78188 265.57383 280.20134 265.15436 280.6208 265.15436 C 281.45973 265.57383 281.8792 266.41275 282.71812 266.41275 C 283.55705 266.83222 284.81544 266.41275 285.65436 266.41275 C 286.91275 265.9933 287.75168 265.9933 288.5906 265.9933 C 289.01007 265.57383 289.01007 265.15436 289.42953 264.7349 C 290.26846 263.89597 291.10738 263.05705 292.36577 262.21812 C 293.2047 262.21812 293.62416 262.6376 294.04362 263.05705 C 295.302 261.3792 296.97987 260.54027 298.65772 259.28188 C 298.65772 258.44295 296.97987 258.44295 296.97987 257.18457 C 297.39933 256.7651 299.07718 255.92618 299.49664 255.5067 C 299.9161 255.08725 300.33557 254.24832 300.75503 253.82886 C 301.59396 253.4094 302.01342 253.4094 302.85235 252.98993 C 303.2718 252.57047 304.11074 252.151 304.5302 251.31208 C 305.36913 250.89262 306.20805 250.47316 306.6275 250.0537 C 307.8859 249.21477 308.30537 247.95638 309.56376 247.5369 C 310.4027 247.11745 310.82215 246.27853 311.66107 245.85906 C 312.91946 245.85906 314.17785 246.698 315.43624 247.5369 C 316.27517 247.95638 317.53356 248.37584 318.79195 248.7953 C 319.2114 249.21477 319.2114 249.63423 319.63087 250.0537 C 320.05034 250.0537 320.88926 250.47316 321.30872 250.47316 C 322.14765 251.31208 322.98658 252.151 324.24497 251.31208 C 324.66443 250.47316 323.8255 249.63423 323.8255 248.7953 C 323.8255 247.5369 324.24497 245.85906 324.66443 245.4396 C 325.0839 244.60067 325.50336 244.60067 325.9228 243.76175 C 326.3423 243.34228 326.3423 242.92282 326.76174 242.50336 C 327.1812 241.66443 328.4396 239.98658 328.4396 239.14765 C 328.85906 238.30873 328.4396 237.88926 328.4396 237.4698 C 328.85906 236.63087 329.27852 235.79195 329.698 234.53356 C 329.698 234.1141 330.11745 233.69463 330.11745 233.27517 C 330.11745 232.43624 330.5369 232.01678 330.5369 231.59732 C 330.95638 230.7584 331.37584 230.7584 331.7953 230.33893 C 331.7953 229.91946 332.21477 229.08054 332.21477 228.2416 C 332.63423 226.98322 332.63423 225.72483 333.47315 224.04698 C 332.63423 222.36913 333.8926 221.11074 333.8926 219.4329 C 333.8926 218.59396 333.0537 217.75504 332.63423 216.9161 C 332.63423 216.07718 333.0537 214.8188 333.0537 213.97987 C 333.0537 212.30202 331.7953 210.2047 331.7953 208.10738 C 330.5369 206.849 328.4396 206.849 327.1812 205.5906 C 325.0839 204.75168 322.5671 204.33222 322.98658 201.39597 C 322.14765 199.71812 319.63087 199.29866 320.88926 196.78188 C 322.14765 196.36242 324.24497 196.36242 325.0839 195.10403 C 325.9228 195.5235 326.3423 194.68457 327.1812 194.68457 C 327.60067 194.68457 328.02013 195.5235 328.85906 195.5235 C 329.27852 195.5235 329.698 195.5235 330.11745 195.5235 C 331.7953 195.5235 333.0537 196.36242 334.3121 196.36242 C 334.73154 196.36242 335.57047 195.94295 335.98993 195.94295 C 336.82886 196.36242 337.6678 198.04027 338.08725 198.04027 C 338.5067 198.45973 339.34564 198.04027 340.18456 198.04027 C 384.64765 236.2114 397.23154 297.45302 373.7416 346.5302 C 373.32215 346.5302 372.9027 346.5302 372.4832 346.5302 C 372.06376 346.5302 372.06376 345.69128 371.6443 344.4329 C 371.22483 344.01342 370.3859 343.1745 370.3859 342.75504 C 369.96644 342.33557 369.96644 341.9161 369.96644 341.0772 C 369.547 339.8188 369.1275 338.97987 368.70805 337.72148 C 368.70805 336.04363 368.2886 333.9463 368.2886 331.849 C 367.44966 330.5906 364.51342 330.17114 363.25503 328.91275 C 362.83557 328.4933 362.4161 327.65436 361.5772 327.65436 C 361.1577 327.2349 360.73826 327.65436 359.89933 328.07383 C 359.0604 328.07383 358.22148 328.07383 357.38255 328.07383 C 356.54362 328.4933 355.7047 328.91275 354.86577 328.91275 C 353.1879 328.91275 351.92953 327.65436 350.25168 327.65436 C 349.41275 327.65436 348.57383 327.65436 348.15436 327.65436 C 345.6376 327.2349 343.54027 326.39597 341.8624 325.9765 C 340.60403 325.55705 339.34564 325.1376 338.5067 325.1376 C 337.6678 324.71812 336.4094 323.8792 335.57047 324.71812 C 335.57047 325.55705 336.4094 325.9765 336.82886 326.39597 C 337.24832 326.81544 338.08725 327.65436 338.5067 328.07383 C 339.7651 329.3322 341.44295 331.849 344.3792 330.5906 C 344.79866 330.5906 345.6376 329.75168 346.05705 329.75168 C 348.57383 329.3322 350.25168 331.01007 350.67114 332.68792 C 351.0906 333.1074 350.67114 333.52685 351.0906 334.36577 C 351.0906 335.2047 351.51007 336.4631 351.92953 337.72148 C 351.92953 338.14094 352.349 338.5604 352.349 338.5604 C 351.92953 339.8188 350.67114 340.23826 350.25168 341.0772 C 349.41275 341.49665 348.57383 342.75504 347.7349 343.59396 C 347.31544 344.01342 346.89597 344.01342 346.4765 344.4329 C 346.05705 344.85235 345.6376 345.2718 345.21812 345.69128 C 344.3792 346.5302 343.1208 346.94967 342.28188 347.36913 C 341.44295 348.20806 340.60403 349.047 339.7651 349.46644 C 339.34564 349.8859 338.08725 349.8859 337.24832 350.30537 C 336.82886 350.30537 335.98993 350.72483 335.57047 351.1443 C 333.8926 351.1443 332.21477 350.72483 330.5369 351.1443 C 330.11745 351.1443 329.27852 351.56376 328.85906 351.56376 C 328.02013 351.56376 326.3423 350.72483 325.50336 350.72483 C 324.24497 350.30537 323.40604 349.8859 322.98658 349.047 C 322.98658 347.36913 322.98658 346.5302 322.98658 345.2718 C 322.5671 343.59396 322.98658 341.9161 322.5671 340.23826 C 322.14765 336.4631 319.63087 334.36577 317.53356 331.42953 C 317.1141 331.01007 316.69463 330.5906 316.27517 329.75168 C 315.8557 329.75168 315.8557 328.91275 315.8557 328.4933 C 315.43624 328.07383 315.43624 328.07383 315.01678 327.65436 C 315.01678 327.2349 315.01678 326.39597 314.5973 325.9765 C 314.5973 325.55705 314.17785 325.1376 313.7584 324.29866 C 313.7584 323.8792 313.7584 323.45973 313.7584 323.04027 C 313.33893 322.6208 312.91946 322.20134 312.91946 321.3624 C 312.5 320.94295 312.5 320.10403 312.5 319.68457 C 312.08054 318.84564 310.82215 318.0067 310.82215 316.74832 C 309.98322 315.9094 309.56376 315.07047 308.72483 314.651 C 307.46644 315.48993 308.72483 318.42618 307.46644 319.68457 C 305.7886 319.2651 305.36913 317.58725 303.69128 317.58725 C 302.85235 318.84564 304.5302 319.68457 304.5302 320.94295 C 305.36913 322.6208 306.20805 323.8792 307.04698 325.1376 C 308.30537 326.81544 308.72483 328.07383 309.56376 329.75168 C 310.82215 331.01007 311.66107 331.849 312.08054 332.68792 C 312.5 333.1074 312.5 333.52685 312.5 333.9463 C 312.5 334.36577 312.91946 334.36577 312.91946 334.78524 C 313.33893 335.62416 313.33893 336.4631 313.33893 336.88255 C 313.7584 337.72148 314.17785 338.97987 314.5973 339.8188 C 315.01678 341.0772 315.01678 342.33557 315.43624 343.59396 C 315.43624 344.01342 315.43624 344.85235 315.43624 345.2718 C 315.8557 345.69128 316.27517 346.11074 316.69463 346.5302 C 317.1141 346.94967 317.1141 347.36913 317.53356 347.7886 C 317.95302 348.6275 319.2114 349.8859 319.63087 351.1443 C 320.4698 351.98322 320.4698 353.2416 321.7282 353.66108 C 322.98658 353.2416 323.8255 354.08054 325.0839 354.08054 C 325.50336 354.08054 325.9228 354.08054 326.3423 354.08054 C 327.60067 354.5 329.27852 354.91946 330.5369 355.33893 C 331.7953 355.33893 333.47315 355.7584 334.3121 356.5973 C 334.3121 357.43624 333.0537 357.8557 332.21477 358.69463 C 331.37584 359.1141 330.95638 359.53356 330.11745 360.3725 C 328.85906 361.2114 327.60067 362.05034 326.3423 363.30873 C 325.9228 363.30873 325.9228 363.7282 325.50336 364.14765 C 323.8255 365.40604 321.7282 365.8255 319.63087 366.24497 C 317.95302 367.50336 317.53356 369.1812 315.8557 370.4396 C 315.43624 370.4396 315.01678 371.27853 315.01678 371.27853 Z M 158.97647 339.81884 L 158.97647 339.81884 C 158.97166 339.82363 158.55462 340.23826 158.13758 340.23826 C 157.29866 340.6577 156.45973 340.6577 155.6208 340.6577 C 153.94295 341.49665 152.68456 343.1745 151.42617 344.01342 C 150.58725 345.69128 149.74832 347.36913 148.9094 348.6275 C 148.07047 347.7886 144.2953 340.23826 143.87584 338.97987 L 143.45638 338.14094 C 138.84228 327.2349 135.48658 316.32886 133.80872 305.00336 C 133.80872 303.3255 135.90604 301.64765 136.74497 300.38926 C 137.16443 299.55034 137.5839 299.13087 138.00336 298.29195 C 139.26174 296.19463 140.52013 294.0973 141.77852 292.41946 C 142.19799 289.9027 142.19799 289.06376 141.35906 286.96644 C 141.35906 286.54698 140.9396 285.70806 140.9396 284.86913 C 140.10067 283.61074 139.26174 282.7718 138.84228 281.51342 C 138.84228 280.6745 139.26174 278.99665 139.6812 278.15772 C 140.10067 276.89933 140.9396 276.0604 141.77852 274.802 C 143.03691 274.802 143.45638 273.54363 143.45638 271.4463 C 143.87584 270.6074 144.2953 270.18792 145.13423 269.349 C 144.71477 265.57383 146.39262 263.05705 148.07047 260.54027 C 148.07047 260.1208 148.07047 259.70134 148.48993 259.70134 C 148.9094 258.44295 149.74832 256.7651 148.9094 254.6678 C 149.32886 252.151 152.2651 250.89262 154.36242 249.21477 C 154.36242 249.21477 154.78188 248.7953 155.20134 248.7953 C 156.04027 248.37584 156.8792 248.37584 157.29866 247.5369 C 157.71812 247.11745 157.29866 246.27853 157.71812 245.4396 C 158.13758 245.4396 158.55705 245.02014 158.55705 244.60067 C 159.39597 243.76175 160.2349 243.34228 161.49329 242.50336 C 162.33221 242.0839 163.17114 241.66443 164.01007 241.66443 C 166.52685 242.50336 168.2047 243.34228 170.30201 241.66443 C 171.14094 240.8255 171.5604 240.40604 172.39933 239.14765 C 172.8188 238.30873 173.23826 237.88926 173.23826 237.4698 C 173.23826 235.37248 171.5604 234.1141 171.5604 232.43624 C 171.97987 230.7584 172.8188 229.5 173.23826 227.40269 C 173.23826 226.56376 174.07718 225.72483 174.07718 224.8859 C 173.65772 224.04698 172.8188 223.62752 173.23826 221.94967 C 173.23826 221.11074 174.07718 220.69128 174.49664 219.85235 C 174.49664 218.59396 174.07718 217.33557 174.9161 216.07718 C 174.49664 213.14094 175.75503 211.04363 177.43289 208.9463 C 177.43289 208.10738 178.27181 208.10738 178.27181 207.68792 C 178.69128 206.849 178.69128 206.42953 179.11074 206.01007 C 179.5302 204.75168 180.36913 204.33222 180.7886 203.4933 C 181.20805 201.39597 180.7886 199.71812 181.20805 198.04027 C 181.20805 197.20134 182.46644 196.36242 182.8859 195.94295 C 183.30537 195.10403 183.72483 193.84564 184.56376 193.42618 C 185.40268 193.42618 185.40268 194.2651 186.2416 194.2651 C 187.5 193.84564 188.7584 191.74832 189.17785 189.651 C 189.17785 189.23155 189.17785 188.81208 189.17785 187.97316 C 189.17785 186.71477 190.43624 185.45638 190.01678 184.61745 C 191.69463 183.35906 193.37248 182.52014 195.4698 181.26175 C 195.88926 181.26175 196.30872 180.84228 196.72819 180.42282 C 197.98658 180.00336 199.66443 179.16443 200.92282 178.3255 L 201.76174 178.3255 C 205.53691 176.2282 209.31208 174.9698 213.08725 173.29195 C 213.92617 173.29195 214.7651 172.87248 215.60403 172.87248 C 223.9933 169.93624 232.38255 168.2584 241.19128 167 C 242.44966 167.41946 243.2886 169.09732 244.12752 169.51678 C 245.3859 169.51678 246.6443 168.67785 247.90268 169.09732 C 248.32215 169.51678 248.7416 169.93624 249.16107 170.3557 C 249.16107 170.3557 250 170.77517 250.41946 170.77517 C 251.67785 171.6141 253.77517 171.6141 255.45302 171.6141 C 256.29195 171.6141 256.7114 171.6141 257.55034 171.6141 C 258.38926 171.19463 259.64765 170.3557 260.90604 170.3557 C 261.74497 170.77517 261.74497 172.45302 261.3255 173.71141 C 262.16443 174.13087 263.00336 174.13087 263.84228 174.13087 C 265.9396 174.9698 268.45638 179.16443 270.97315 176.64765 C 272.651 177.48658 273.9094 178.3255 276.42617 177.48658 C 277.68456 177.48658 278.5235 176.64765 279.3624 176.2282 C 280.20134 176.2282 280.6208 176.2282 281.45973 176.2282 C 282.29866 175.38926 281.8792 174.55034 282.29866 173.29195 C 282.71812 172.87248 283.55705 172.45302 284.39597 171.6141 C 284.81544 171.19463 285.2349 170.3557 285.65436 170.3557 C 287.3322 170.77517 289.01007 170.77517 290.26846 171.6141 L 290.26846 174.13087 C 290.68792 174.55034 291.10738 174.9698 291.9463 174.9698 C 292.36577 174.9698 293.2047 174.55034 293.62416 174.55034 C 295.302 174.55034 296.14094 175.80873 297.39933 176.64765 C 296.97987 177.90604 296.14094 178.74497 295.302 179.5839 C 295.302 180.00336 295.72148 180.42282 296.14094 180.84228 C 296.14094 182.10067 295.72148 183.77853 296.14094 185.03691 C 296.14094 185.87584 297.39933 187.13423 296.97987 188.39262 C 296.14094 188.39262 295.72148 189.23155 294.88255 189.23155 C 294.4631 189.651 294.04362 189.23155 293.62416 189.651 C 292.78523 189.651 292.36577 190.07047 291.52685 190.07047 C 290.68792 190.07047 289.849 189.651 289.42953 189.23155 C 288.5906 188.81208 287.75168 188.39262 287.3322 187.97316 C 286.4933 187.97316 286.07383 188.39262 285.2349 188.39262 C 283.1376 188.81208 281.8792 188.81208 280.20134 189.23155 C 278.94295 190.48993 278.10403 191.74832 277.2651 193.00671 C 276.84564 193.00671 276.42617 193.42618 275.58725 193.84564 C 274.74832 193.84564 273.9094 193.42618 273.07047 193.84564 C 271.39262 194.2651 271.81208 196.36242 270.5537 197.20134 C 270.13423 198.45973 269.2953 199.71812 268.45638 200.9765 C 269.71477 203.07383 272.23154 203.4933 273.48993 206.01007 C 272.23154 206.42953 269.71477 205.5906 269.2953 206.849 C 268.87584 207.68792 269.2953 209.36577 268.87584 210.2047 C 268.0369 210.2047 266.35906 209.78524 265.52013 208.9463 C 264.6812 207.68792 266.35906 206.42953 265.9396 205.17114 C 265.52013 204.33222 264.6812 203.91275 263.84228 203.91275 C 263.00336 203.4933 262.16443 203.4933 261.3255 203.4933 C 260.48658 203.07383 259.2282 202.65436 257.9698 202.2349 C 257.13087 201.81544 255.87248 200.9765 254.6141 200.13759 C 254.19463 199.71812 252.51678 198.45973 251.2584 198.45973 C 250.41946 198.45973 249.58054 200.13759 248.7416 201.39597 C 247.06376 203.91275 246.22483 206.42953 244.12752 209.36577 C 243.2886 210.62416 242.44966 211.04363 241.19128 211.88255 C 240.7718 212.30202 239.9329 212.72148 239.9329 213.5604 C 239.9329 214.39933 242.86913 215.65772 243.70805 216.49665 C 244.12752 216.49665 244.54698 216.9161 244.96644 216.9161 C 246.22483 217.33557 247.06376 215.65772 248.32215 216.07718 C 249.16107 215.23826 248.7416 213.97987 249.58054 213.5604 C 250.83893 213.5604 252.09732 214.8188 254.19463 214.39933 C 255.03356 214.39933 256.29195 213.14094 257.55034 213.97987 C 257.55034 214.39933 257.55034 215.65772 257.55034 216.49665 C 256.29195 217.33557 255.03356 219.01342 253.77517 220.27181 C 252.93624 221.11074 252.09732 221.94967 251.2584 223.20806 C 251.2584 223.62752 251.2584 224.04698 250.83893 224.46644 C 250.83893 224.8859 250.41946 225.30537 250.41946 225.72483 C 250.41946 226.1443 250.41946 226.56376 250.41946 226.98322 C 250 228.2416 248.7416 228.66108 247.90268 229.08054 C 247.90268 229.5 247.48323 230.3389 247.48322 230.33893 C 247.48322 230.33893 247.48322 230.33893 247.48322 230.33893 C 247.06376 231.17785 246.6443 231.17785 246.6443 231.59732 C 246.22483 232.01678 246.6443 232.8557 246.22483 233.27517 C 246.22483 233.27517 245.80537 233.69463 245.80537 234.1141 C 244.96644 235.37248 244.54698 236.2114 242.86913 236.63087 C 242.0302 237.05034 240.7718 237.05034 239.9329 237.05034 C 239.09396 235.79195 239.51342 233.27517 238.6745 232.01678 C 238.25503 229.91946 238.25503 227.40269 236.15772 226.98322 C 234.47987 227.82215 235.3188 230.7584 234.47987 232.43624 C 233.22148 232.43624 232.38255 231.59732 231.54362 231.17785 C 230.7047 229.91946 229.4463 228.66108 229.02685 226.98322 C 228.60738 226.98322 228.60738 226.56376 228.60738 226.1443 C 227.76846 225.30537 226.51007 224.46644 226.51007 223.20806 C 225.25168 221.5302 221.89597 221.94967 219.79866 221.11074 C 218.95973 221.94967 218.1208 221.5302 217.28188 221.94967 C 216.86242 221.94967 216.44295 222.7886 216.0235 222.7886 C 215.18456 223.20806 214.34564 223.20806 213.5067 223.62752 C 212.24832 224.04698 211.4094 224.46644 210.57047 224.04698 C 209.73154 224.04698 209.31208 222.7886 208.47315 222.7886 C 206.7953 222.7886 205.95638 224.46644 204.69799 224.8859 C 203.85906 224.8859 203.02013 224.46644 202.1812 224.46644 C 201.76174 224.46644 201.76174 224.8859 200.92282 225.30537 C 199.66443 226.1443 198.8255 226.98322 197.56711 227.40269 C 197.56711 226.56376 197.98658 225.72483 197.98658 224.8859 C 199.24497 223.62752 200.92282 222.7886 202.1812 221.5302 C 203.02013 219.4329 203.4396 217.33557 204.27852 214.8188 C 204.27852 214.39933 204.69799 213.97987 204.69799 213.5604 C 204.69799 212.72148 204.69799 212.30202 204.27852 211.88255 C 203.85906 210.2047 203.4396 208.9463 203.02013 207.68792 C 201.34228 208.10738 199.24497 208.9463 197.56711 209.78524 C 195.88926 210.2047 194.63087 210.62416 193.37248 211.04363 C 192.95302 211.4631 192.53356 212.30202 192.1141 213.14094 C 191.27517 213.5604 190.01678 214.39933 189.59732 215.23826 C 189.17785 217.75504 190.43624 220.69128 189.17785 223.20806 C 187.5 223.20806 186.2416 221.94967 184.56376 221.11074 C 183.30537 220.69128 182.04698 219.85235 181.62752 221.5302 C 181.20805 221.94967 181.62752 222.36913 181.62752 222.7886 C 181.20805 224.04698 181.20805 224.8859 180.7886 226.1443 C 180.7886 227.40269 180.7886 228.66108 179.94966 229.08054 C 179.5302 229.91946 178.27181 229.91946 177.01342 230.33893 C 175.75503 232.43624 177.43289 234.53356 178.27181 236.2114 C 177.85235 237.88926 177.43289 240.8255 177.43289 242.92282 C 178.69128 243.76175 181.20805 243.34228 183.30537 243.76175 C 185.82215 244.1812 186.2416 244.60067 187.5 246.27853 C 187.91946 247.11745 188.33893 247.95638 188.7584 248.37584 C 189.17785 249.63423 190.01678 250.47316 190.43624 250.89262 C 190.8557 251.31208 190.8557 252.151 190.8557 252.57047 C 191.27517 252.98993 191.69463 252.98993 191.69463 253.4094 C 192.1141 254.6678 191.69463 255.92618 192.1141 256.7651 C 192.1141 257.60403 192.53356 258.0235 192.95302 258.86242 C 192.95302 259.28188 192.95302 260.1208 193.37248 260.95973 C 193.37248 261.3792 193.79195 261.79866 194.2114 262.6376 C 194.2114 263.05705 194.63087 263.89597 194.63087 264.7349 C 194.63087 264.7349 195.05034 265.15436 195.05034 265.57383 C 195.4698 265.9933 195.4698 266.41275 195.4698 266.83222 C 196.30872 268.0906 197.56711 269.76846 198.8255 271.4463 C 199.24497 272.28524 200.0839 272.7047 200.0839 273.12416 C 200.50336 274.38255 198.8255 275.64094 198.8255 277.73826 C 198.8255 278.57718 199.24497 279.4161 198.8255 280.25504 C 198.40604 282.35235 196.30872 284.0302 195.4698 285.2886 C 195.88926 286.96644 195.88926 288.6443 196.30872 289.48322 C 198.40604 290.32215 198.8255 290.7416 199.66443 292.83893 C 199.66443 294.51678 200.50336 296.6141 200.0839 298.29195 C 199.66443 299.13087 199.24497 299.9698 199.24497 300.80873 C 198.8255 302.0671 199.24497 303.3255 198.8255 304.5839 C 198.40604 305.42282 197.14765 305.00336 196.30872 305.00336 C 195.88926 305.42282 195.88926 305.42282 195.4698 305.8423 C 194.63087 305.8423 193.79195 305.8423 193.79195 306.26175 C 193.37248 307.52014 194.63087 308.35906 195.05034 309.198 C 196.30872 311.71477 197.56711 314.23155 198.8255 316.74832 C 198.8255 317.1678 199.24497 317.58725 199.24497 318.0067 C 200.50336 320.10403 200.92282 322.6208 201.76174 324.71812 C 202.1812 325.55705 203.02013 326.81544 203.02013 328.07383 C 203.02013 328.91275 202.60067 329.75168 203.02013 330.5906 C 202.60067 331.42953 201.76174 332.26846 200.92282 333.1074 C 199.66443 334.36577 198.40604 335.62416 197.14765 337.302 C 196.30872 338.14094 195.05034 338.97987 194.63087 338.97987 C 193.37248 339.39933 192.53356 337.72148 191.69463 336.88255 C 190.43624 336.88255 189.59732 335.62416 188.33893 334.78524 C 186.66107 335.2047 184.98322 334.78524 183.30537 335.2047 C 182.8859 335.2047 182.46644 335.62416 182.04698 335.62416 C 181.20805 335.62416 179.94966 335.62416 179.11074 335.62416 C 176.59396 335.62416 174.07718 336.4631 171.97987 336.88255 C 169.46309 337.302 167.36577 336.88255 165.26846 337.302 C 164.42953 337.72148 163.5906 338.5604 162.33221 338.97987 C 162.33221 338.97987 161.49329 338.97987 161.07383 338.97987 C 161.07383 339.39933 160.65436 339.39933 160.2349 339.39933 C 159.81544 339.8188 159.39597 339.39933 158.97651 339.8188 C 158.97651 339.8188 158.9765 339.8188 158.97647 339.81884 Z M 299.9161 258.0235 L 299.9161 258.0235 C 300.33557 258.86242 299.9161 260.54027 300.75503 260.95973 C 302.01342 260.1208 301.59396 256.7651 299.9161 258.0235 Z M 314.17785 296.6141 C 313.7584 296.19463 313.33893 295.77517 313.33893 295.77517 C 312.91946 295.77517 312.5 296.19463 312.5 296.6141 C 312.08054 297.03356 311.66107 297.03356 311.66107 297.45302 C 311.66107 297.8725 311.66107 297.8725 311.66107 298.29195 C 311.66107 298.7114 312.08054 299.13087 312.08054 299.55034 C 312.08054 299.55034 312.5 299.9698 312.91946 299.9698 C 313.7584 300.38926 314.5973 300.38926 315.43624 300.80873 C 315.43624 300.80873 315.8557 300.80873 316.27517 300.80873 C 316.27517 300.80873 316.27517 301.2282 316.69463 301.2282 C 317.53356 301.2282 318.3725 301.2282 318.79195 301.2282 C 319.2114 301.2282 319.63087 300.80873 320.4698 300.80873 L 320.4698 300.38926 C 320.88926 300.38926 321.30872 299.9698 321.7282 299.9698 C 321.7282 299.55034 321.7282 299.55034 321.7282 299.13087 C 320.4698 299.13087 319.63087 298.7114 318.79195 298.7114 C 317.95302 298.29195 317.1141 298.29195 316.27517 298.29195 C 315.01678 297.8725 314.5973 297.45302 314.17785 296.6141 Z M 113.25503 260.95973 L 113.25503 260.95973 C 113.6745 257.18457 114.51342 253.4094 115.77181 249.63423 C 79.27852 242.92282 70.050336 219.4329 46.979866 213.14094 C 37.75168 210.62416 25.167785 212.72148 8.389262 217.75504 C 23.07047 225.30537 40.268456 238.30873 57.885906 250.0537 C 77.18121 263.4765 94.3792 267.67114 113.25503 260.95973 Z M 57.04698 125.47316 L 57.04698 125.47316 C 80.95638 147.28524 79.27852 159.0302 85.57047 172.45302 C 93.1208 189.23155 106.54362 200.9765 134.64765 207.68792 C 137.16443 203.91275 140.10067 200.13759 143.03691 196.78188 C 143.45638 196.36242 143.45638 196.36242 143.45638 195.94295 C 117.86913 184.61745 117.0302 162.3859 101.51007 145.60738 C 93.12081 136.3792 80.11745 129.24832 57.04698 125.47316 Z M 31.459733 290.7416 L 31.459733 290.7416 C 50.755034 289.9027 63.75839 297.03356 79.27852 297.8725 C 90.18456 298.29195 99.83221 294.0973 110.73826 287.80537 C 110.73826 285.2886 110.73826 282.7718 111.15772 280.6745 C 98.15436 283.61074 88.50671 276.47987 69.63087 278.15772 C 53.691276 279.4161 41.94631 282.35235 31.459733 290.7416 Z M 100.67114 132.60403 L 100.67114 132.60403 C 109.47987 143.51007 112.41611 154.83557 121.22483 166.16108 C 128.77517 175.38926 140.10067 181.6812 153.10403 185.87584 C 155.20134 183.77853 157.29866 181.6812 159.81544 180.00336 C 151.42617 170.77517 149.32886 160.70806 140.9396 152.73826 C 130.87248 143.51007 118.28859 136.79866 100.67114 132.60403 Z M 114.51342 317.58725 L 114.51342 317.58725 C 113.25503 312.5537 112.41611 307.52014 111.99664 302.48658 C 64.597315 321.7819 57.885906 275.22148 0 313.8121 C 39.848992 322.6208 69.21141 346.11074 114.51342 317.58725 Z M 120.3859 235.37248 L 120.3859 235.37248 C 121.22483 232.43624 122.48322 229.91946 123.74161 227.82215 C 99.41275 215.23826 85.98993 188.81208 44.88255 205.5906 C 67.11409 216.49665 78.02013 229.5 90.60403 233.69463 C 104.44631 238.30873 108.22148 234.1141 120.3859 235.37248 Z M 348.15436 409.0302 C 357.38255 417.41947 361.99664 426.64765 368.2886 433.7785 C 377.0973 444.2651 388.00336 449.7181 406.8792 456.42953 C 395.13423 444.2651 392.198 430.8423 381.7114 419.0973 C 374.58054 410.70806 362.4161 407.7718 354.86577 403.99665 C 352.76846 405.6745 350.67114 407.35235 348.15436 409.0302 Z M 367.0302 393.0906 C 377.0973 399.802 390.52013 411.96645 397.23154 430.4228 C 401.84564 443.84564 421.14094 460.62416 449.66443 467.75504 C 435.4027 450.55705 433.72483 440.48993 429.11074 429.5839 C 424.49664 418.2584 419.0436 408.1913 407.29866 397.7047 C 398.07047 389.7349 382.9698 385.1208 374.58054 384.70134 C 372.06376 387.6376 369.547 390.57383 367.0302 393.0906 Z M 387.16443 366.66443 C 406.04027 380.5067 423.6577 392.2517 454.698 386.79866 C 442.53356 381.34564 433.72483 373.37584 424.49664 367.0839 C 415.6879 361.63087 405.6208 357.43624 392.198 357.8557 C 390.52013 360.79195 389.26174 363.7282 387.16443 366.66443 Z M 401.42617 255.5067 C 427.0134 255.92618 447.9866 239.14765 457.21477 216.07718 C 435.4027 235.37248 422.39933 233.69463 411.4933 236.63087 C 406.04027 238.30873 400.1678 242.92282 397.651 245.02014 C 398.9094 248.37584 400.1678 252.151 401.42617 255.5067 Z M 424.49663 137.6376 C 414.4295 150.22149 405.6208 161.96645 391.77852 168.67785 C 379.6141 174.9698 369.547 182.9396 365.35235 193.00671 C 368.2886 196.36242 371.22483 199.71812 374.16107 203.07383 C 400.1678 192.1678 422.3993 166.16109 424.49664 137.6376 Z M 426.1745 110.79197 C 404.3624 129.66779 387.5839 127.57047 370.80537 136.79866 C 356.9631 144.76846 348.9933 161.12752 347.7349 177.06712 C 348.57383 178.3255 349.8322 179.16443 351.0906 180.00336 C 352.76846 181.26175 354.4463 182.9396 356.12416 184.61745 C 372.06376 161.96644 390.10067 164.06376 406.45973 150.22148 C 413.17114 144.76846 422.3993 135.95974 426.1745 110.79197 Z M 405.20134 315.48993 C 429.11074 319.68457 451.3423 316.74832 472.31544 304.16443 C 459.73154 305.00336 445.05034 301.2282 432.46644 301.2282 C 422.8188 301.2282 413.5906 302.90604 406.45973 305.42282 C 406.04027 308.77853 406.04027 312.13423 405.20134 315.48993 Z M 473.9933 182.52014 C 444.2114 193.84564 434.9832 189.23155 416.9463 194.68457 C 403.10403 198.8792 392.198 208.10738 385.4866 219.4329 C 388.00336 223.62752 390.52013 227.82215 392.61745 232.43624 C 408.1376 224.46644 424.0772 224.8859 437.5 219.4329 C 450.50336 213.97987 460.57047 202.2349 473.9933 182.52014 Z M 406.8792 290.7416 C 421.97987 286.96644 429.11074 294.93624 445.4698 297.03356 C 461.82886 299.13087 484.0604 294.51678 500 279.4161 C 477.76846 279.83557 468.95973 270.6074 446.7282 267.25168 C 429.94966 264.31544 414.01007 268.0906 405.20134 273.9631 C 406.04027 279.4161 406.45973 285.2886 406.8792 290.7416 Z M 397.651 345.2718 C 403.5235 346.5302 409.39597 348.6275 415.26846 351.98322 C 421.14094 354.91946 427.0134 359.53356 433.30537 364.9866 C 447.14765 377.151 462.2483 384.70134 490.35235 375.8926 C 465.604 360.3725 456.7953 344.4329 445.88926 338.97987 C 434.1443 333.1074 411.07383 331.849 400.58725 336.04363 C 399.7483 339.39933 398.9094 342.33557 397.651 345.2718 Z M 132.55034 64.65101 L 132.55034 64.65101 C 147.23154 86.88255 144.71477 103.66108 148.9094 125.89262 C 151.84564 141.83222 160.65436 155.6745 179.5302 165.74161 C 183.30537 163.22483 187.5 161.12752 191.69463 159.0302 C 179.11074 143.0906 181.20805 126.31208 173.65772 107.01678 C 166.52685 89.81879 152.68456 75.13759 132.55034 64.65101 Z M 171.97987 86.88255 L 171.97987 86.88255 C 182.8859 107.01678 179.94966 117.50336 187.08054 134.28188 C 190.8557 143.0906 197.56711 150.22148 204.69799 153.99665 C 207.63423 152.73826 210.57047 151.89933 213.08725 151.0604 C 211.82886 142.25168 210.98993 134.70134 208.0537 127.57047 C 203.02013 114.56712 189.59732 98.20806 171.97987 86.88255 Z M 238.25503 42 L 238.25503 42 C 236.15772 62.973156 223.57383 78.49329 220.63758 101.56376 C 218.54027 117.0839 221.89597 133.44295 231.54362 147.28524 C 236.15772 146.44631 241.19128 146.02685 246.22483 145.60738 C 236.99664 119.60067 255.03356 94.43289 253.3557 80.59061 C 251.2584 63.39262 246.6443 51.64765 238.25503 42 Z M 274.74832 114.14765 L 274.74832 114.14765 C 274.74832 107.8557 272.23154 85.2047 260.90604 70.52349 C 261.3255 94.85235 254.19463 109.1141 253.3557 122.95638 C 252.93624 130.50671 255.87248 137.63759 259.2282 145.60738 C 262.5839 145.60738 265.52013 145.60738 268.87584 146.02685 C 269.2953 135.95973 274.74832 128.4094 274.74832 114.14765 Z M 287.3322 148.96309 L 287.3322 148.96309 C 293.2047 150.22148 298.65772 151.89933 304.5302 153.99665 C 313.33893 131.7651 319.63087 134.28188 333.47315 109.95302 C 341.44295 96.5302 341.44295 73.04027 335.98993 57.520136 C 319.2114 99.88591 283.55705 100.72483 287.3322 148.96309 Z M 328.85906 164.90269 C 330.95637 159.86913 335.57047 155.25504 339.34564 148.96309 C 344.3792 139.7349 349.41275 120.85906 343.54027 101.56376 C 340.18456 113.30873 336.82886 126.73155 330.11745 133.44295 C 322.5671 140.99329 318.79195 150.22148 319.63087 160.2886 C 322.5671 161.54698 325.9228 163.22483 328.85906 164.90269 Z" fill="white"/>
    </g>
  </g>
</svg>
