<?xml version="1.0" encoding="UTF-8" standalone="no"?>
<!DOCTYPE svg PUBLIC "-//W3C//DTD SVG 1.1//EN" "http://www.w3.org/Graphics/SVG/1.1/DTD/svg11.dtd">
<svg xmlns="http://www.w3.org/2000/svg" xmlns:xl="http://www.w3.org/1999/xlink" version="1.1" viewBox="0 0 500 500" width="500pt" height="500pt" xmlns:dc="http://purl.org/dc/elements/1.1/">
  <metadata> Produced by OmniGraffle 7.3.1
    <dc:date>2017-05-25 22:58:26 +0000</dc:date>
  </metadata>
  <defs/>
  <g stroke="none" stroke-opacity="1" stroke-dasharray="none" fill="none" fill-opacity="1">
    <title>Canvas 1</title>
    <g>
      <title>Layer 1</title>
      <path d="M 434.55827 379.776 C 431.261 386.62214 426.076 387.98138 422.77876 388.53506 C 419.50667 389.08886 418.3992 391.0018 414.57337 395.65815 C 410.74754 400.31463 406.0911 407.41253 389.3783 431.8021 C 372.69066 456.16657 322.5774 446.8537 294.66398 441.11505 C 266.75057 435.3511 262.6227 426.5919 260.43292 407.16077 C 258.24314 387.70453 272.4893 376.2018 276.592 374.2889 C 280.6947 372.37596 298.76667 365.25298 309.99245 355.41153 C 321.21823 345.57007 339.2902 343.63195 342.03372 343.63195 C 344.75207 343.63195 352.15202 343.07827 376.79335 340.3347 C 401.4347 337.61635 426.3529 344.18575 443.3174 349.3959 C 457.6139 353.77545 486.25723 369.78348 500 377.51065 L 500 44.96601 C 500 24.40218 483.3375 7.7145885 462.74855 7.7145885 L 424.591 7.7145885 C 438.23307 19.242299 458.7969 42.22245 462.24515 65.2278 C 466.5744 93.94661 434.48276 103.51122 431.8399 104.44243 C 429.22225 105.37374 428.0896 105.95263 428.0896 105.95263 C 418.52504 86.06847 427.1583 77.43518 431.11 71.62093 C 435.0365 65.80668 429.22225 62.98764 423.20664 60.34476 C 417.2162 57.72708 415.15228 55.1095 414.221 51.912935 C 413.26453 48.716263 412.7108 44.210855 410.47067 39.529284 C 408.2054 34.822516 403.90133 34.09256 399.94966 33.715035 C 396.02315 33.33751 392.8266 31.072156 390.5613 30.51847 C 388.32117 29.96478 384.9484 29.96478 384.9484 29.96478 L 385.1246 33.161347 C 385.1246 33.161347 374.2512 27.523262 363.7302 19.82129 C 356.2547 14.334277 354.29147 12.547126 351.32142 7.7145885 L 334.75963 7.7145885 C 335.66574 12.119315 337.17594 14.661408 338.58545 16.624723 C 340.4732 19.267496 335.38887 26.390585 330.5311 27.87559 C 325.6481 29.38579 314.372 25.836898 314.372 25.836898 C 298.43946 30.140945 298.9932 27.523263 280.04027 30.317108 C 261.08733 33.13615 257.71457 45.721056 254.3418 53.39794 C 250.94386 61.09991 256.95947 58.28087 247.94866 71.04204 C 238.93783 83.80311 219.60734 87.95619 211.72918 87.75483 C 203.85098 87.57867 206.29247 86.62215 206.67002 111.38935 C 207.04758 136.15655 210.59653 132.78382 218.87741 134.8477 C 227.13314 136.9116 230.30456 125.83689 231.63855 124.15053 C 232.9474 122.46416 233.12358 120.1988 231.26102 120.02264 C 222.09916 119.11652 216.61212 117.2036 213.99447 114.76208 C 211.3768 112.32067 215.1271 107.46283 219.43115 104.44242 C 223.7352 101.44722 236.6977 94.5004 240.44803 92.81393 C 244.19833 91.12756 255.0969 87.57867 259.97986 86.62216 C 264.86282 85.69084 265.59275 89.99499 266.7254 92.26024 C 267.70702 94.22345 267.10295 96.38812 271.407 95.83433 C 296.9796 92.4868 302.56732 96.56429 304.2537 96.38812 C 305.9401 96.18676 308.2054 94.32413 308.58293 91.12756 C 308.9353 87.95619 299.94966 86.06847 295.8218 84.93579 C 291.69393 83.80311 268.03423 83.42559 268.03423 83.42559 C 268.03423 83.42559 262.0438 78.74402 260.91114 67.49305 C 259.7785 56.242073 288.1198 44.789846 298.2381 41.970804 C 308.38157 39.15176 332.97257 35.577565 360.91115 39.327925 C 388.90007 43.078285 400.70475 60.54612 405.5877 79.70043 C 410.4707 98.82954 395.6456 104.82006 393.3803 105.02131 C 391.1402 105.19758 386.25724 109.90435 384.1933 113.45324 C 382.12937 117.02744 375.56003 121.91037 370.87843 124.72941 C 366.17166 127.52326 359.04858 133.74023 359.04858 133.74023 C 359.04858 133.74023 358.8724 138.4218 353.03297 140.68715 C 347.21873 142.9272 342.91468 131.09735 339.34055 123.21921 C 335.7916 115.34107 332.595 111.94304 329.57463 105.77647 C 326.5794 99.58469 321.69645 98.25066 319.83388 98.25066 C 317.94614 98.25066 317.3924 101.44722 317.3924 106.50642 C 317.3924 111.59071 312.7108 116.64981 304.80745 121.70901 C 296.92928 126.7933 280.97155 118.16001 279.10898 117.40496 C 277.22125 116.64981 268.2356 113.07572 265.59275 111.94304 C 262.97508 110.83556 262.01862 109.1492 259.77852 106.50642 C 257.5132 103.88874 253.41053 108.39415 252.07652 109.32547 C 250.76767 110.28187 248.9051 111.94304 252.27788 116.27229 C 255.65065 120.57633 266.34785 124.15053 271.407 125.66073 C 276.4913 127.14574 282.1042 133.9164 285.1246 136.35791 C 288.1198 138.79932 291.3164 141.06468 293.3803 139.73064 C 307.32444 130.8457 324.3393 128.45458 327.13314 128.45458 C 329.95217 128.45458 341.78203 128.65594 335.9678 146.67757 C 327.9889 171.41957 301.98842 176.50386 281.928 177.25901 C 261.84243 178.01406 251.5228 172.95496 250.39013 172.95496 C 249.28265 172.95496 249.0813 175.19501 249.63503 175.19501 C 250.21394 175.19501 256.78328 179.90178 261.66625 183.27462 C 266.52403 186.64735 274.77976 191.9078 278.1777 191.9078 C 281.55046 191.9078 292.62522 188.15755 296.37554 187.20103 C 300.12585 186.26982 309.31286 184.02967 316.6373 181.76442 C 323.96174 179.52426 352.1017 156.82106 357.16083 151.73666 C 362.24516 146.67756 366.17166 134.8477 368.0594 134.29391 C 369.92197 133.74023 373.4961 136.73543 376.31513 137.11295 C 379.13416 137.46539 385.1246 129.03346 386.6348 123.01785 C 388.145 117.02744 388.52252 116.27228 390.2089 115.89476 C 391.8953 115.51724 392.44903 119.64512 392.44903 119.64512 C 392.44903 119.64512 394.51296 130.16614 393.58167 144.78984 C 392.6504 159.43874 391.3164 163.189 387.01233 175.57254 C 382.6831 187.95619 367.8832 189.26503 363.00025 190.77523 C 358.1173 192.28543 345.9099 196.21185 337.2766 197.72205 C 328.64334 199.20716 324.13793 194.52548 318.3237 191.9078 C 316.25976 190.9766 305.0088 189.08887 304.07752 192.28543 C 300.02518 206.00301 324.3393 213.47843 328.2658 214.40975 C 354.0146 220.55123 389.83136 208.21798 391.69393 192.83912 C 394.53813 169.65771 397.13063 166.93935 400.151 163.56652 C 403.14623 160.19379 411.22577 163.01283 411.22577 163.01283 C 414.221 159.99243 428.29096 149.67277 428.29096 149.67277 C 428.29096 149.67277 432.79637 147.43261 430.5311 143.85852 C 428.29096 140.30952 426.78077 125.86198 444.62623 127.72462 C 462.4465 129.61234 468.43694 154.73186 468.43694 154.73186 C 468.43694 154.73186 475.5852 169.58212 470.5009 207.28666 C 465.44173 244.9912 415.15228 283.67733 369.36823 298.09967 C 323.5842 312.5472 301.81223 310.88594 296.17417 310.88594 C 290.56128 310.88594 279.28517 306.38053 275.53486 305.6255 C 271.78455 304.87033 262.21998 298.4772 259.0234 297.16836 C 255.82683 295.8595 244.77725 290.22143 242.33577 289.11395 C 239.89428 287.98138 231.26102 282.54465 226.20186 278.97056 C 221.11756 275.42156 219.80872 271.6461 218.12233 267.89575 C 216.43593 264.1455 207.24893 256.84614 206.11628 255.88973 C 204.98363 254.95842 206.11628 253.4482 206.11628 253.4482 C 216.61213 257.95362 287.5409 267.89575 293.17895 268.0971 C 298.817 268.27328 324.51547 269.02843 327.88824 269.02843 C 331.261 269.02843 337.2766 271.09232 337.4528 266.76308 C 337.65417 262.45903 317.76995 259.46382 315.50465 259.26246 C 313.26454 259.0863 303.32242 258.88494 295.998 257.95362 C 288.67355 257.0224 271.02945 229.61234 268.58797 226.06344 C 266.17166 222.48925 265.2152 223.42056 260.7098 221.1804 C 256.20438 218.91516 240.44803 206.73297 238.56028 204.64378 C 236.6977 202.6051 240.07046 194.72685 238.2079 192.66296 C 236.32016 190.57387 230.30456 193.9466 225.5726 196.08608 C 214.372 201.14517 210.24415 195.35612 210.24415 195.35612 L 194.91568 179.2726 L 191.26603 187.30171 C 191.26603 187.30171 229.95218 218.7138 240.9011 227.47286 C 251.87515 236.23203 243.8208 239.15175 243.8208 239.15175 C 243.8208 239.15175 235.7916 247.91092 232.8719 248.64077 C 229.95218 249.37072 206.5945 244.9912 188.34635 239.8817 C 170.09816 234.77222 164.25873 228.93277 146.01058 212.87435 C 127.7624 196.81593 120.46312 155.21017 122.65291 147.15577 C 124.84267 139.12655 125.5726 126.71781 124.11277 123.06813 C 122.65291 119.41856 119.73319 107.00982 126.30253 107.00982 C 132.87188 107.00982 137.98137 121.60833 153.30983 139.12655 C 168.6383 156.64478 185.42664 162.48423 191.99596 158.83466 C 198.5653 155.18498 189.80618 144.23604 186.15654 137.66675 C 182.50691 131.09735 183.23686 128.90758 168.63831 110.65939 C 154.03977 92.4112 164.25873 78.54266 167.17845 71.97325 C 170.09816 65.40396 178.85728 52.995215 181.04708 32.532067 C 182.23006 21.60833 186.5341 14.233593 192.87691 7.714584 L 37.251447 7.714584 C 16.662448 7.714584 8526513e-20 24.402177 8526513e-20 44.966005 L 8526513e-20 177.40997 C 10.168636 180.8079 32.771184 188.58546 36.823557 191.9078 C 42.084066 196.21185 88.69871 231.42457 86.93683 294.55067 C 86.76064 301.29624 89.05109 303.486 91.99598 306.75805 C 93.68235 308.6207 110.01761 324.40216 107.1986 334.14293 C 99.69795 323.06823 92.19731 317.25398 89.93204 316.1213 C 87.69191 314.98862 85.25044 313.6798 83.56405 317.83286 C 81.87766 321.93555 80.36748 333.03545 58.04178 329.8389 C 37.578657 326.89397 20.714848 323.42055 8526513e-20 295.30583 L 8526513e-20 455.034 C 8526513e-20 475.5977 16.662448 492.2854 37.251447 492.2854 L 66.95194 492.2854 C 70.22399 485.61533 72.08657 481.3113 74.55321 475.5977 C 78.10218 467.39234 89.60483 438.09465 95.09187 428.7818 C 100.55373 419.46894 108.50741 407.16077 108.50741 407.16077 C 108.50741 407.16077 106.04077 387.70453 106.59451 376.47875 C 107.12308 365.25297 113.16386 340.3347 113.16386 340.3347 C 113.16386 340.3347 115.35363 336.2572 114.24617 331.8525 C 113.16386 327.47296 111.50264 322.84167 112.61009 314.88795 C 113.6924 306.9594 117.26655 294.62616 123.55903 288.8875 C 129.8515 283.14873 134.23106 279.8515 137.78001 280.12833 C 141.35413 280.40517 146.816 285.59025 153.93908 302.30304 C 153.93908 302.30304 150.11327 302.83164 147.09289 302.0262 C 144.09766 301.19556 146.01058 303.66217 146.5643 304.4928 C 147.09289 305.29825 154.21596 310.78526 150.66698 317.6315 C 147.09289 324.47765 130.02767 345.06667 133.6773 349.9245 C 136.14396 353.22176 137.52831 350.20136 141.35413 346.09867 C 145.17997 341.996 153.66221 332.12933 155.04657 332.68313 C 156.40575 333.2368 152.30306 347.483 137.52831 362.81146 C 137.52831 362.81146 141.63102 364.7244 137.52831 372.37596 C 133.42562 380.05284 127.38482 387.98137 126.5794 389.61735 C 125.74879 391.2786 125.74879 395.10446 128.21545 392.9147 C 130.68209 390.72483 153.93908 372.1243 176.6675 372.1243 C 193.10343 372.1243 194.48778 377.1834 197.483 378.6936 C 200.20136 380.05284 204.3292 384.7092 205.13466 387.17593 C 205.96527 389.61735 207.04758 391.53027 211.15025 392.9147 C 215.27812 394.27383 228.69368 397.57107 230.6066 415.0893 C 230.6066 415.0893 237.72966 423.84847 228.94538 437.264 C 228.94538 437.264 297.55852 428.02664 326.6549 492.2854 L 462.74855 492.2854 C 483.3375 492.2854 500 475.5977 500 455.034 L 500 383.199 C 488.3715 376.3277 463.2016 373.2066 459.75333 373.2066 C 455.62547 373.2066 437.8555 372.92975 434.55827 379.776 M 135.61542 224.2008 C 133.42562 224.7546 130.90862 223.6974 127.46035 227.14573 C 126.35287 228.228 124.99372 230.64433 124.91818 233.03546 C 124.71682 240.15855 109.31285 232.75862 107.39995 232.15454 C 102.49183 230.61914 94.815 225.91237 77.85048 206.75806 C 60.860795 187.57866 54.845186 148.16257 54.29147 132.55726 C 53.73773 116.95185 60.58395 88.48479 80.84569 61.6536 C 101.10748 34.822514 136.42083 30.166033 141.07729 30.166033 C 145.73369 30.166033 150.11327 30.719826 150.39014 33.463386 C 150.66698 36.20684 149.83637 36.20684 149.83637 39.47889 C 149.83637 39.47889 152.30306 45.494604 151.47245 55.0843 C 149.60987 76.95697 128.7692 93.9718 118.62573 102.45402 C 108.50741 110.93634 109.58972 122.16212 109.86662 133.3879 C 110.14346 144.58848 118.90258 181.8399 120.8155 188.13235 C 122.72842 194.4248 135.11199 216.1213 137.05008 218.86476 C 138.96298 221.60832 137.78001 223.64712 135.61542 224.2008 M 189.9572 339.02587 C 178.88246 331.14773 172.51446 316.32267 165.76894 297.16836 C 158.99824 278.03925 155.07174 264.6992 152.05134 256.0911 C 149.0561 247.4578 146.99219 246.70276 146.61466 244.4374 C 146.23709 242.19735 146.99219 240.8885 147.9235 239.9572 C 147.9235 239.9572 164.43492 242.57487 178.15252 248.76665 C 191.84496 254.95842 191.4674 256.0911 203.27208 263.96923 C 215.10194 271.84748 219.80872 288.15754 222.98011 294.17315 C 226.17668 300.18876 237.10043 304.76965 238.61062 305.5248 C 240.12082 306.25466 245.02893 309.82885 245.02893 309.82885 C 292.70072 328.02665 324.69167 329.46137 326.20186 329.8389 C 327.71206 330.1912 328.44198 331.52526 328.44198 331.52526 C 323.93657 338.447 281.5253 339.78102 281.5253 339.78102 C 281.5253 339.78102 266.9016 339.4035 242.8895 346.3503 C 218.85226 353.27205 201.03196 346.9041 189.9572 339.02587" fill="white"/>
    </g>
  </g>
</svg>
