<?xml version="1.0" encoding="UTF-8" standalone="no"?>
<!DOCTYPE svg PUBLIC "-//W3C//DTD SVG 1.1//EN" "http://www.w3.org/Graphics/SVG/1.1/DTD/svg11.dtd">
<svg xmlns="http://www.w3.org/2000/svg" xmlns:xl="http://www.w3.org/1999/xlink" version="1.1" viewBox="0 0 500 500" width="500pt" height="500pt" xmlns:dc="http://purl.org/dc/elements/1.1/">
  <metadata> Produced by OmniGraffle 7.3.1
    <dc:date>2017-05-25 22:57:05 +0000</dc:date>
  </metadata>
  <defs/>
  <g stroke="none" stroke-opacity="1" stroke-dasharray="none" fill="none" fill-opacity="1">
    <title>Canvas 1</title>
    <g>
      <title>Layer 1</title>
      <path d="M 268.76115 212.1256 C 268.76115 212.1256 255.23664 229.14138 243.44123 257.61114 C 243.44123 257.61114 221.84386 302.83236 192.73532 321.2248 C 192.73532 321.2248 162.15098 344.8156 120.5642 350.72984 C 120.5642 350.72984 109.5838 352.76733 94.74869 352.76733 C 83.23963 352.76733 69.40674 351.5228 56.664185 347.1615 C 56.664185 347.1615 20.242716 338.4058 .9251296 320.9605 C .9251296 320.9605 .03304034 325.2117 11368684e-20 331.3572 L 11368684e-20 331.9299 C .03304034 339.02254 1.2665464 348.4941 6.299692 356.94142 C 6.299692 356.94142 7.037593 358.5604 8.182991 360.5428 C 17.69861 368.83594 28.43672 371.78755 40.276176 371.78755 C 67.93094 371.78755 100.02413 355.42157 126.81984 353.8246 C 165.30083 353.8246 208.17618 349.74964 238.14377 328.4056 C 260.54512 312.4361 275.54543 285.44212 287.8805 256.63095 C 300.3257 225.4739 330.08402 205.58362 364.97462 198.00637 C 363.7191 197.48873 361.8468 197.00414 359.0494 197.00414 C 357.45244 197.00414 355.59117 197.18036 353.38848 197.5438 C 353.38848 197.5438 351.32896 197.88522 347.63946 197.88522 C 343.03584 197.88522 335.8771 197.36759 326.93418 195.0107 C 326.93418 195.0107 320.5574 193.65606 311.7246 193.65606 C 298.5305 193.65606 279.8627 196.73982 268.76115 212.1256" fill="white"/>
      <path d="M 268.76115 212.1256 C 268.76115 212.1256 255.23664 229.14138 243.44123 257.61114 C 243.44123 257.61114 221.84386 302.83236 192.73532 321.2248 C 192.73532 321.2248 162.15098 344.8156 120.5642 350.72984 C 120.5642 350.72984 109.5838 352.76733 94.74869 352.76733 C 83.23963 352.76733 69.40674 351.5228 56.664185 347.1615 C 56.664185 347.1615 20.242716 338.4058 .9251296 320.9605 C .9251296 320.9605 .03304034 325.2117 11368684e-20 331.3572 L 11368684e-20 331.9299 C .03304034 339.02254 1.2665464 348.4941 6.299692 356.94142 C 6.299692 356.94142 7.037593 358.5604 8.182991 360.5428 C 17.69861 368.83594 28.43672 371.78755 40.276176 371.78755 C 67.93094 371.78755 100.02413 355.42157 126.81984 353.8246 C 165.30083 353.8246 208.17618 349.74964 238.14377 328.4056 C 260.54512 312.4361 275.54543 285.44212 287.8805 256.63095 C 300.3257 225.4739 330.08402 205.58362 364.97462 198.00637 C 363.7191 197.48873 361.8468 197.00414 359.0494 197.00414 C 357.45244 197.00414 355.59117 197.18036 353.38848 197.5438 C 353.38848 197.5438 351.32896 197.88522 347.63946 197.88522 C 343.03584 197.88522 335.8771 197.36759 326.93418 195.0107 C 326.93418 195.0107 320.5574 193.65606 311.7246 193.65606 C 298.5305 193.65606 279.8627 196.73982 268.76115 212.1256" stroke="white" stroke-linecap="round" stroke-linejoin="round" stroke-width="1"/>
      <path d="M 61.68632 54.66635 C 43.723385 137.76281 143.91271 159.39322 198.89184 197.6319 C 226.3704 215.92525 227.66998 247.29154 219.45395 277.21508 C 221.74474 274.1093 247.93472 237.5997 234.14589 204.88977 C 234.14589 204.88977 223.5069 181.29897 178.19757 160.83598 C 178.19757 160.83598 127.97626 139.29368 104.19822 119.45846 C 104.19822 119.45846 64.59387 84.78813 61.68632 54.6223 L 61.68632 54.66635 Z" fill="white"/>
      <path d="M 61.68632 54.66635 C 43.723385 137.76281 143.91271 159.39322 198.89184 197.6319 C 226.3704 215.92525 227.66998 247.29154 219.45395 277.21508 C 221.74474 274.1093 247.93472 237.5997 234.14589 204.88977 C 234.14589 204.88977 223.5069 181.29897 178.19757 160.83598 C 178.19757 160.83598 127.97626 139.29368 104.19822 119.45846 C 104.19822 119.45846 64.59387 84.78813 61.68632 54.6223 L 61.68632 54.66635 Z" stroke="white" stroke-linecap="round" stroke-linejoin="round" stroke-width="1"/>
      <path d="M 39.10875 154.77859 C 41.71894 170.24147 48.50322 183.64483 59.538695 192.83005 C 93.17376 224.0862 141.23645 231.278 184.48625 252.88637 C 200.05927 259.58255 203.2862 278.60277 201.76635 296.6428 C 203.73776 292.1273 210.88548 273.74584 204.23336 254.72562 C 204.23336 254.72562 200.86325 238.9764 161.5893 224.04216 C 161.5893 224.04216 106.68726 205.03295 88.59217 193.1935 C 88.59217 193.1935 51.04733 173.7878 39.2299 143.14839 C 39.2299 143.14839 38.78936 147.78505 39.10875 154.77859" fill="white"/>
      <path d="M 39.10875 154.77859 C 41.71894 170.24147 48.50322 183.64483 59.538695 192.83005 C 93.17376 224.0862 141.23645 231.278 184.48625 252.88637 C 200.05927 259.58255 203.2862 278.60277 201.76635 296.6428 C 203.73776 292.1273 210.88548 273.74584 204.23336 254.72562 C 204.23336 254.72562 200.86325 238.9764 161.5893 224.04216 C 161.5893 224.04216 106.68726 205.03295 88.59217 193.1935 C 88.59217 193.1935 51.04733 173.7878 39.2299 143.14839 C 39.2299 143.14839 38.78936 147.78505 39.10875 154.77859" stroke="white" stroke-linecap="round" stroke-linejoin="round" stroke-width="1"/>
      <path d="M 71.46626 248.93255 C 71.46626 248.93255 71.65349 249.27396 72.03896 249.84666 C 83.2947 260.17728 95.23328 275.36482 110.01332 280.9156 C 119.96948 287.25934 133.69223 292.19337 147.05155 292.85417 C 150.3776 293.01937 153.68164 292.98633 156.90858 292.94228 C 166.11582 292.84316 174.6182 292.73303 180.9179 297.27057 C 185.63165 300.6627 189.1119 301.08122 190.7419 308.6695 C 191.9754 303.88965 194.4314 287.5567 176.53454 280.30986 C 176.53454 280.30986 171.15998 277.94197 156.23676 276.0146 C 156.23676 276.0146 126.2912 273.69078 110.29967 266.93953 C 110.29967 266.93953 78.97743 254.82474 71.46626 248.93255 Z" fill="white"/>
      <path d="M 71.46626 248.93255 C 71.46626 248.93255 71.65349 249.27396 72.03896 249.84666 C 83.2947 260.17728 95.23328 275.36482 110.01332 280.9156 C 119.96948 287.25934 133.69223 292.19337 147.05155 292.85417 C 150.3776 293.01937 153.68164 292.98633 156.90858 292.94228 C 166.11582 292.84316 174.6182 292.73303 180.9179 297.27057 C 185.63165 300.6627 189.1119 301.08122 190.7419 308.6695 C 191.9754 303.88965 194.4314 287.5567 176.53454 280.30986 C 176.53454 280.30986 171.15998 277.94197 156.23676 276.0146 C 156.23676 276.0146 126.2912 273.69078 110.29967 266.93953 C 110.29967 266.93953 78.97743 254.82474 71.46626 248.93255 Z" stroke="white" stroke-linecap="round" stroke-linejoin="round" stroke-width="1"/>
      <path d="M 71.47727 248.95457 C 71.51031 249.03167 71.69754 249.35106 72.03896 249.84666 C 83.2947 260.17728 95.23328 275.36482 110.01332 280.9156 C 119.96948 287.25934 133.69223 292.19337 147.05155 292.85417 C 150.3776 293.01937 153.68164 292.98633 156.90858 292.94228 C 166.11582 292.84316 174.6182 292.73303 180.9179 297.27057 C 185.63165 300.6627 189.1119 301.08122 190.7419 308.6695 C 191.05027 307.48003 191.43574 305.5857 191.55689 303.2839 L 191.55689 300.22217 C 191.18243 293.51498 188.1317 285.0016 176.53454 280.30986 C 176.53454 280.30986 171.15998 277.94197 156.23676 276.0146 C 156.23676 276.0146 126.2912 273.69078 110.29967 266.93953 C 110.29967 266.93953 79.02148 254.84677 71.488285 248.94356 Z" fill="white"/>
      <path d="M 71.47727 248.95457 C 71.51031 249.03167 71.69754 249.35106 72.03896 249.84666 C 83.2947 260.17728 95.23328 275.36482 110.01332 280.9156 C 119.96948 287.25934 133.69223 292.19337 147.05155 292.85417 C 150.3776 293.01937 153.68164 292.98633 156.90858 292.94228 C 166.11582 292.84316 174.6182 292.73303 180.9179 297.27057 C 185.63165 300.6627 189.1119 301.08122 190.7419 308.6695 C 191.05027 307.48003 191.43574 305.5857 191.55689 303.2839 L 191.55689 300.22217 C 191.18243 293.51498 188.1317 285.0016 176.53454 280.30986 C 176.53454 280.30986 171.15998 277.94197 156.23676 276.0146 C 156.23676 276.0146 126.2912 273.69078 110.29967 266.93953 C 110.29967 266.93953 79.02148 254.84677 71.488285 248.94356 Z" stroke="white" stroke-linecap="round" stroke-linejoin="round" stroke-width="1"/>
      <path d="M 93.46011 384.07856 C 76.38927 395.22416 61.78544 399.56346 61.78544 399.56346 C 57.203844 400.7529 52.952654 401.2375 49.04288 401.2375 C 36.74086 401.2375 28.27152 396.3916 24.978498 394.13383 C 34.835533 406.4579 47.776333 414.37655 60.90436 414.37655 C 66.89568 414.37655 72.92003 412.73554 78.77919 409.0901 C 101.48891 397.74624 117.78882 371.31397 143.9017 364.43057 C 142.54705 364.2103 141.15935 364.08915 139.70558 364.08915 C 120.04657 364.08915 93.46011 384.07856 93.46011 384.07856" fill="white"/>
      <path d="M 93.46011 384.07856 C 76.38927 395.22416 61.78544 399.56346 61.78544 399.56346 C 57.203844 400.7529 52.952654 401.2375 49.04288 401.2375 C 36.74086 401.2375 28.27152 396.3916 24.978498 394.13383 C 34.835533 406.4579 47.776333 414.37655 60.90436 414.37655 C 66.89568 414.37655 72.92003 412.73554 78.77919 409.0901 C 101.48891 397.74624 117.78882 371.31397 143.9017 364.43057 C 142.54705 364.2103 141.15935 364.08915 139.70558 364.08915 C 120.04657 364.08915 93.46011 384.07856 93.46011 384.07856" stroke="white" stroke-linecap="round" stroke-linejoin="round" stroke-width="1"/>
      <path d="M 171.47937 363.58253 C 164.86029 363.58253 147.67931 366.0275 136.22533 389.6073 C 136.22533 389.6073 123.5048 423.4296 110.42082 431.97604 C 110.42082 431.97604 102.01756 438.95856 88.84548 438.95856 C 88.10758 438.95856 83.69118 438.5731 82.93126 438.518 C 88.08555 440.0489 96.59894 441.65686 101.09243 442.05334 C 147.94363 446.33757 152.75651 397.16253 165.25677 365.82927 C 166.7546 364.3645 169.15553 363.78077 171.94194 363.58253 L 171.47937 363.58253 Z" fill="white"/>
      <path d="M 171.47937 363.58253 C 164.86029 363.58253 147.67931 366.0275 136.22533 389.6073 C 136.22533 389.6073 123.5048 423.4296 110.42082 431.97604 C 110.42082 431.97604 102.01756 438.95856 88.84548 438.95856 C 88.10758 438.95856 83.69118 438.5731 82.93126 438.518 C 88.08555 440.0489 96.59894 441.65686 101.09243 442.05334 C 147.94363 446.33757 152.75651 397.16253 165.25677 365.82927 C 166.7546 364.3645 169.15553 363.78077 171.94194 363.58253 L 171.47937 363.58253 Z" stroke="white" stroke-linecap="round" stroke-linejoin="round" stroke-width="1"/>
      <path d="M 464.3159 226.39903 C 450.73634 236.56445 434.30427 242.0932 417.75106 245.0338 C 407.8059 246.80695 397.50835 246.45452 387.2218 246.1131 C 373.7193 245.63953 360.22783 245.18797 347.4963 249.51626 C 313.9383 260.66187 292.03256 296.9732 292.03256 296.9732 C 292.74844 296.49962 293.49735 296.0591 294.21323 295.5855 C 322.14333 262.11564 376.29645 281.1579 415.1739 269.72593 C 449.9764 261.0253 482.8295 236.58647 495.8584 201.7179 C 485.14234 212.8525 464.3159 226.39903 464.3159 226.39903" fill="white"/>
      <path d="M 464.3159 226.39903 C 450.73634 236.56445 434.30427 242.0932 417.75106 245.0338 C 407.8059 246.80695 397.50835 246.45452 387.2218 246.1131 C 373.7193 245.63953 360.22783 245.18797 347.4963 249.51626 C 313.9383 260.66187 292.03256 296.9732 292.03256 296.9732 C 292.74844 296.49962 293.49735 296.0591 294.21323 295.5855 C 322.14333 262.11564 376.29645 281.1579 415.1739 269.72593 C 449.9764 261.0253 482.8295 236.58647 495.8584 201.7179 C 485.14234 212.8525 464.3159 226.39903 464.3159 226.39903" stroke="white" stroke-linecap="round" stroke-linejoin="round" stroke-width="1"/>
      <path d="M 417.34356 304.63856 C 404.29263 310.44265 390.40467 312.0396 378.91765 312.0396 C 371.37344 312.0396 363.7962 311.44487 356.40616 309.94704 C 351.4391 308.9228 346.57115 307.458 341.59308 306.49983 C 337.2868 305.69585 332.9255 305.12315 328.54214 304.8368 C 326.5377 304.70464 324.4892 304.63856 322.4627 304.63856 C 314.0154 304.63856 309.1695 305.85004 309.1695 305.85004 C 291.28365 310.50873 278.67325 318.934 273.8934 322.4473 C 280.6006 320.42083 287.60516 320.77326 294.21323 320.77326 C 306.328 320.77326 317.74896 326.3791 329.70957 329.05537 C 341.64814 331.7647 353.8841 332.86603 365.98786 332.86603 C 372.77214 332.86603 380.30534 331.6986 387.17773 329.55098 C 417.47573 317.88774 446.90366 304.06586 470.6266 279.25257 L 470.65966 279.1865 L 470.65966 279.17547 C 453.02713 292.67796 417.34356 304.63856 417.34356 304.63856" fill="white"/>
      <path d="M 417.34356 304.63856 C 404.29263 310.44265 390.40467 312.0396 378.91765 312.0396 C 371.37344 312.0396 363.7962 311.44487 356.40616 309.94704 C 351.4391 308.9228 346.57115 307.458 341.59308 306.49983 C 337.2868 305.69585 332.9255 305.12315 328.54214 304.8368 C 326.5377 304.70464 324.4892 304.63856 322.4627 304.63856 C 314.0154 304.63856 309.1695 305.85004 309.1695 305.85004 C 291.28365 310.50873 278.67325 318.934 273.8934 322.4473 C 280.6006 320.42083 287.60516 320.77326 294.21323 320.77326 C 306.328 320.77326 317.74896 326.3791 329.70957 329.05537 C 341.64814 331.7647 353.8841 332.86603 365.98786 332.86603 C 372.77214 332.86603 380.30534 331.6986 387.17773 329.55098 C 417.47573 317.88774 446.90366 304.06586 470.6266 279.25257 L 470.65966 279.1865 L 470.65966 279.17547 C 453.02713 292.67796 417.34356 304.63856 417.34356 304.63856" stroke="white" stroke-linecap="round" stroke-linejoin="round" stroke-width="1"/>
      <path d="M 285.4245 255.30933 C 273.25464 283.691 260.1266 308.40516 238.14377 324.3196 C 208.022 346.1262 165.71934 353.8246 126.81984 353.8246 C 99.56156 355.4436 66.96176 368.7148 38.987603 368.1421 C 27.687806 367.9108 13.072962 360.2675 3.942814 352.30476 C 4.978078 354.07793 6.1675304 357.9877 8.799744 361.40187 C 14.702952 369.0342 24.89039 377.6357 35.958905 378.4727 C 35.958905 378.4727 51.675094 381.3252 76.19103 370.9175 C 76.19103 370.9175 117.29321 356.0163 142.32678 355.4546 C 142.32678 355.4546 197.19577 355.96123 220.52225 347.6571 C 238.14377 341.3684 252.64848 333.5048 267.6488 314.63877 C 282.68215 295.77274 286.5809 279.96844 291.4158 269.8581 C 291.4158 269.8581 305.9976 239.51605 323.79534 225.1325 C 323.79534 225.1325 346.461 205.68274 367.0782 199.4271 C 367.0782 199.4271 366.54955 198.66717 364.97462 198.00637 C 330.08402 205.58362 297.8807 224.1523 285.4245 255.30933" fill="white"/>
      <path d="M 285.4245 255.30933 C 273.25464 283.691 260.1266 308.40516 238.14377 324.3196 C 208.022 346.1262 165.71934 353.8246 126.81984 353.8246 C 99.56156 355.4436 66.96176 368.7148 38.987603 368.1421 C 27.687806 367.9108 13.072962 360.2675 3.942814 352.30476 C 4.978078 354.07793 6.1675304 357.9877 8.799744 361.40187 C 14.702952 369.0342 24.89039 377.6357 35.958905 378.4727 C 35.958905 378.4727 51.675094 381.3252 76.19103 370.9175 C 76.19103 370.9175 117.29321 356.0163 142.32678 355.4546 C 142.32678 355.4546 197.19577 355.96123 220.52225 347.6571 C 238.14377 341.3684 252.64848 333.5048 267.6488 314.63877 C 282.68215 295.77274 286.5809 279.96844 291.4158 269.8581 C 291.4158 269.8581 305.9976 239.51605 323.79534 225.1325 C 323.79534 225.1325 346.461 205.68274 367.0782 199.4271 C 367.0782 199.4271 366.54955 198.66717 364.97462 198.00637 C 330.08402 205.58362 297.8807 224.1523 285.4245 255.30933" stroke="white" stroke-linecap="round" stroke-linejoin="round" stroke-width="1"/>
      <path d="M 62.07179 113.55525 C 62.07179 113.55525 72.55659 143.0823 109.07718 165.50568 C 109.07718 165.50568 139.41923 182.82984 161.64436 191.44235 C 161.64436 191.44235 218.95834 211.77318 218.95834 248.93255 C 218.95834 248.93255 221.10596 269.3735 219.27773 277.44636 L 219.45395 277.21508 C 227.66998 247.29154 226.3704 215.92525 198.92488 197.6319 C 143.91271 159.39322 43.723385 137.76281 61.68632 54.66635 C 61.05855 55.789725 47.67721 80.12944 62.07179 113.55525" fill="white"/>
      <path d="M 62.07179 113.55525 C 62.07179 113.55525 72.55659 143.0823 109.07718 165.50568 C 109.07718 165.50568 139.41923 182.82984 161.64436 191.44235 C 161.64436 191.44235 218.95834 211.77318 218.95834 248.93255 C 218.95834 248.93255 221.10596 269.3735 219.27773 277.44636 L 219.45395 277.21508 C 227.66998 247.29154 226.3704 215.92525 198.92488 197.6319 C 143.91271 159.39322 43.723385 137.76281 61.68632 54.66635 C 61.05855 55.789725 47.67721 80.12944 62.07179 113.55525" stroke="white" stroke-linecap="round" stroke-linejoin="round" stroke-width="1"/>
      <path d="M 39.130778 154.77859 C 39.81361 168.80972 43.624264 192.3785 60.32065 207.2907 C 60.32065 207.2907 75.60731 221.64122 91.96228 228.38145 C 91.96228 228.38145 118.20733 239.61517 141.58888 246.1021 C 141.58888 246.1021 188.19778 255.47453 195.9072 274.95732 C 195.9072 274.95732 203.2862 286.5765 201.24872 297.68908 C 201.24872 297.68908 201.44696 297.32563 201.74432 296.6428 C 203.2862 278.60277 200.05927 259.58255 184.48625 252.88637 C 141.23645 231.278 93.17376 224.0862 59.538695 192.83005 C 48.50322 183.64483 41.71894 170.24147 39.130778 154.77859 Z" fill="white"/>
      <path d="M 39.130778 154.77859 C 39.81361 168.80972 43.624264 192.3785 60.32065 207.2907 C 60.32065 207.2907 75.60731 221.64122 91.96228 228.38145 C 91.96228 228.38145 118.20733 239.61517 141.58888 246.1021 C 141.58888 246.1021 188.19778 255.47453 195.9072 274.95732 C 195.9072 274.95732 203.2862 286.5765 201.24872 297.68908 C 201.24872 297.68908 201.44696 297.32563 201.74432 296.6428 C 203.2862 278.60277 200.05927 259.58255 184.48625 252.88637 C 141.23645 231.278 93.17376 224.0862 59.538695 192.83005 C 48.50322 183.64483 41.71894 170.24147 39.130778 154.77859 Z" stroke="white" stroke-linecap="round" stroke-linejoin="round" stroke-width="1"/>
      <path d="M 72.03896 249.84666 C 75.50819 255.30933 95.14517 284.40686 124.87046 294.9137 C 124.87046 294.9137 141.62192 301.86317 163.05408 300.9931 C 163.05408 300.9931 164.5409 300.77284 166.84271 300.6627 C 173.26355 300.35433 186.0061 300.905 190.3344 309.4074 C 190.3344 309.4074 190.4996 309.56157 190.7419 308.6695 C 189.46433 302.72222 187.03036 297.7001 183.85849 295.3212 C 177.69096 290.71756 168.52777 292.49073 158.09803 291.5656 C 141.78712 290.12284 122.63473 284.97956 110.00231 276.93974 C 106.50003 274.81415 83.2947 260.17728 72.03896 249.84666 Z" fill="white"/>
      <path d="M 72.03896 249.84666 C 75.50819 255.30933 95.14517 284.40686 124.87046 294.9137 C 124.87046 294.9137 141.62192 301.86317 163.05408 300.9931 C 163.05408 300.9931 164.5409 300.77284 166.84271 300.6627 C 173.26355 300.35433 186.0061 300.905 190.3344 309.4074 C 190.3344 309.4074 190.4996 309.56157 190.7419 308.6695 C 189.46433 302.72222 187.03036 297.7001 183.85849 295.3212 C 177.69096 290.71756 168.52777 292.49073 158.09803 291.5656 C 141.78712 290.12284 122.63473 284.97956 110.00231 276.93974 C 106.50003 274.81415 83.2947 260.17728 72.03896 249.84666 Z" stroke="white" stroke-linecap="round" stroke-linejoin="round" stroke-width="1"/>
      <path d="M 78.75716 409.0901 C 60.18849 420.7093 39.384087 412.07474 24.978498 394.13383 C 23.943234 393.462 23.414589 392.98843 23.414589 392.98843 C 28.08429 400.3454 33.42581 405.79707 33.42581 405.79707 C 52.611237 427.1081 74.60509 421.282 74.60509 421.282 C 89.85871 416.98674 115.79538 386.4795 115.79538 386.4795 C 133.6592 365.24556 144.25413 364.4746 144.25413 364.4746 L 143.9017 364.43057 C 117.78882 371.31397 101.48891 397.74624 78.75716 409.0901" fill="white"/>
      <path d="M 78.75716 409.0901 C 60.18849 420.7093 39.384087 412.07474 24.978498 394.13383 C 23.943234 393.462 23.414589 392.98843 23.414589 392.98843 C 28.08429 400.3454 33.42581 405.79707 33.42581 405.79707 C 52.611237 427.1081 74.60509 421.282 74.60509 421.282 C 89.85871 416.98674 115.79538 386.4795 115.79538 386.4795 C 133.6592 365.24556 144.25413 364.4746 144.25413 364.4746 L 143.9017 364.43057 C 117.78882 371.31397 101.48891 397.74624 78.75716 409.0901" stroke="white" stroke-linecap="round" stroke-linejoin="round" stroke-width="1"/>
      <path d="M 165.25677 365.82927 C 159.2985 371.30296 156.77642 378.93528 154.27637 386.38037 C 149.89301 399.5304 146.0273 415.3898 137.54694 426.6125 C 131.89704 434.0686 123.96736 438.3308 114.83721 439.93876 C 109.78204 440.83085 103.97795 441.6018 98.84569 441.2163 C 93.48214 440.81983 88.18467 439.69646 82.93126 438.518 C 88.05251 440.6326 92.86539 442.4498 98.43819 443.37495 C 105.72909 444.5534 115.35484 446.3816 122.73385 444.69657 C 137.19451 441.41456 146.30263 431.89894 151.33578 418.1211 C 152.76752 414.22236 153.28516 410.12536 154.12218 406.0614 C 155.87332 397.60307 158.61567 389.25488 161.93071 381.29215 C 164.51887 375.1026 167.9881 367.05177 174.24375 363.7257 C 174.24375 363.7257 173.39571 363.59354 171.94194 363.58253 C 169.15553 363.78077 166.7546 364.35347 165.25677 365.82927" fill="white"/>
      <path d="M 165.25677 365.82927 C 159.2985 371.30296 156.77642 378.93528 154.27637 386.38037 C 149.89301 399.5304 146.0273 415.3898 137.54694 426.6125 C 131.89704 434.0686 123.96736 438.3308 114.83721 439.93876 C 109.78204 440.83085 103.97795 441.6018 98.84569 441.2163 C 93.48214 440.81983 88.18467 439.69646 82.93126 438.518 C 88.05251 440.6326 92.86539 442.4498 98.43819 443.37495 C 105.72909 444.5534 115.35484 446.3816 122.73385 444.69657 C 137.19451 441.41456 146.30263 431.89894 151.33578 418.1211 C 152.76752 414.22236 153.28516 410.12536 154.12218 406.0614 C 155.87332 397.60307 158.61567 389.25488 161.93071 381.29215 C 164.51887 375.1026 167.9881 367.05177 174.24375 363.7257 C 174.24375 363.7257 173.39571 363.59354 171.94194 363.58253 C 169.15553 363.78077 166.7546 364.35347 165.25677 365.82927" stroke="white" stroke-linecap="round" stroke-linejoin="round" stroke-width="1"/>
      <path d="M 499.1955 197.89623 C 498.2704 199.14075 497.125 200.4073 495.8584 201.73993 C 489.91117 217.6103 479.91096 231.48725 466.86 242.22536 C 454.18354 252.6551 439.76694 261.5099 423.96265 266.30075 C 418.9295 267.83162 413.80825 268.98803 408.64294 269.97924 C 395.592 272.44626 382.83843 272.8868 369.64432 271.59822 C 355.88853 270.25458 341.2737 269.59377 327.71613 272.77666 C 317.2093 275.23266 308.90516 281.87377 300.84332 288.73514 C 298.4534 290.76162 295.63396 293.73525 293.49735 296.04807 C 303.3544 290.06777 314.63216 284.97956 325.92094 282.50153 C 331.8792 281.21296 339.2362 280.65127 344.26934 281.03674 C 357.79386 282.09404 371.1752 283.4597 384.74376 283.23943 C 385.6689 283.2064 386.583 283.19538 387.4971 283.18437 C 429.8108 280.12263 456.3752 261.0253 456.3752 261.0253 C 500.6493 233.06217 499.9995 196.78387 499.9995 196.78387 C 499.7902 197.10326 499.5369 197.42265 499.2946 197.76407" fill="white"/>
      <path d="M 499.1955 197.89623 C 498.2704 199.14075 497.125 200.4073 495.8584 201.73993 C 489.91117 217.6103 479.91096 231.48725 466.86 242.22536 C 454.18354 252.6551 439.76694 261.5099 423.96265 266.30075 C 418.9295 267.83162 413.80825 268.98803 408.64294 269.97924 C 395.592 272.44626 382.83843 272.8868 369.64432 271.59822 C 355.88853 270.25458 341.2737 269.59377 327.71613 272.77666 C 317.2093 275.23266 308.90516 281.87377 300.84332 288.73514 C 298.4534 290.76162 295.63396 293.73525 293.49735 296.04807 C 303.3544 290.06777 314.63216 284.97956 325.92094 282.50153 C 331.8792 281.21296 339.2362 280.65127 344.26934 281.03674 C 357.79386 282.09404 371.1752 283.4597 384.74376 283.23943 C 385.6689 283.2064 386.583 283.19538 387.4971 283.18437 C 429.8108 280.12263 456.3752 261.0253 456.3752 261.0253 C 500.6493 233.06217 499.9995 196.78387 499.9995 196.78387 C 499.7902 197.10326 499.5369 197.42265 499.2946 197.76407" stroke="white" stroke-linecap="round" stroke-linejoin="round" stroke-width="1"/>
      <path d="M 388.0698 326.74255 C 358.6419 336.13702 339.43444 325.66323 320.74462 320.51995 C 305.8214 316.40092 290.86514 317.293 273.8934 322.4473 C 272.51673 323.47156 271.7568 324.11034 271.7568 324.11034 C 296.5701 318.3503 323.52 334.01143 323.52 334.01143 C 345.9544 344.68346 372.67302 340.6195 372.67302 340.6195 C 436.9585 328.79105 469.41514 281.05877 470.63763 279.2856 C 447.3552 303.6143 418.40086 317.0507 388.0698 326.74255" fill="white"/>
      <path d="M 388.0698 326.74255 C 358.6419 336.13702 339.43444 325.66323 320.74462 320.51995 C 305.8214 316.40092 290.86514 317.293 273.8934 322.4473 C 272.51673 323.47156 271.7568 324.11034 271.7568 324.11034 C 296.5701 318.3503 323.52 334.01143 323.52 334.01143 C 345.9544 344.68346 372.67302 340.6195 372.67302 340.6195 C 436.9585 328.79105 469.41514 281.05877 470.63763 279.2856 C 447.3552 303.6143 418.40086 317.0507 388.0698 326.74255" stroke="white" stroke-linecap="round" stroke-linejoin="round" stroke-width="1"/>
    </g>
  </g>
</svg>
