<?xml version="1.0" encoding="UTF-8" standalone="no"?>
<!DOCTYPE svg PUBLIC "-//W3C//DTD SVG 1.1//EN" "http://www.w3.org/Graphics/SVG/1.1/DTD/svg11.dtd">
<svg xmlns="http://www.w3.org/2000/svg" xmlns:xl="http://www.w3.org/1999/xlink" version="1.1" viewBox="0 0 500 500" width="500pt" height="500pt" xmlns:dc="http://purl.org/dc/elements/1.1/">
  <metadata> Produced by OmniGraffle 7.3.1
    <dc:date>2017-05-27 11:57:07 +0000</dc:date>
  </metadata>
  <defs/>
  <g stroke="none" stroke-opacity="1" stroke-dasharray="none" fill="none" fill-opacity="1">
    <title>Canvas 1</title>
    <g>
      <title>Layer 1</title>
      <path d="M 250.00048 .75048475 C 249.53974 .75048475 249.08223 .7601506 248.6247 .7827043 C 248.55705 .7827043 248.48616 .7891482 248.4185 .7923702 C 248.37017 .7923702 248.32507 .7955922 248.27674 .7988141 L 248.26063 .7988141 L 248.24774 .7988141 C 248.1994 .8020361 248.1543 .805258 248.10275 .80848 L 248.0802 .80848 C 248.04153 .8117019 248.00287 .8149239 247.9642 .8181459 C 247.94165 .8181459 247.92232 .8213678 247.903 .8213678 C 247.8901 .8213678 247.874 .8245898 247.8611 .8245898 C 247.81277 .8278117 247.76122 .8310337 247.7129 .8342556 L 247.70967 .8342556 C 247.62912 .8406996 247.55502 .8471435 247.4777 .8535874 L 247.47125 .8535874 C 247.45514 .8535874 247.44225 .8568093 247.42614 .8568093 C 247.41647 .8568093 247.4036 .8600313 247.3907 .8600313 C 247.31337 .8664752 247.23604 .8729191 247.15872 .8793631 L 247.1555 .8793631 L 247.13616 .882585 C 247.09106 .885807 247.04273 .8922509 246.9944 .8954728 C 246.90418 .9051387 246.8172 .9115826 246.72697 .9212485 C 220.86754 3.621249 195.4914 37.75789 178.27648 76.83701 C 206.0111 87.61446 232.6438 102.88976 250.00048 118.16184 C 267.35717 102.88654 293.98665 87.61446 321.72126 76.83701 C 304.08104 36.791303 277.87364 1.9297212 251.35048 .7794824 L 251.34404 .7794824 C 251.3086 .7794824 251.26993 .7762604 251.2345 .7762604 C 251.0605 .7698165 250.88974 .7633726 250.71898 .7601506 L 250.69965 .7601506 C 250.46767 .7537067 250.23246 .75048475 250.00048 .75048475" fill="white" fill-opacity=".4"/>
      <path d="M 249.9992 381.83816 C 232.6425 397.11024 206.01303 412.38554 178.27842 423.15976 C 194.56864 460.14784 218.16947 492.70894 242.57258 498.37636 L 242.58225 498.3796 C 242.5919 498.3796 242.6048 498.3828 242.61447 498.38603 C 242.63058 498.38925 242.6467 498.3925 242.65958 498.3989 C 242.68535 498.40214 242.71113 498.4086 242.7369 498.415 C 242.75946 498.4215 242.78523 498.4247 242.80779 498.43114 L 242.81745 498.43436 C 242.83034 498.43436 242.84323 498.4376 242.8561 498.4408 C 242.869 498.444 242.8819 498.44725 242.89478 498.45047 C 242.93989 498.46014 242.98177 498.4698 243.02688 498.47947 C 244.8183 498.87255 246.61936 499.1174 248.42044 499.21085 C 248.4881 499.21085 248.55576 499.2173 248.62342 499.2205 C 248.6782 499.2205 248.72974 499.22374 248.7813 499.22696 C 248.87795 499.2302 248.9746 499.2334 249.07127 499.2366 C 249.38058 499.2463 249.6899 499.2495 249.9992 499.2495 C 250.2344 499.2495 250.46638 499.2463 250.70158 499.2431 L 250.7177 499.2431 C 250.78213 499.23985 250.84335 499.23985 250.9078 499.2366 C 251.05277 499.2334 251.19776 499.22696 251.34275 499.2205 L 251.3492 499.2205 C 251.47485 499.2141 251.59406 499.20763 251.7165 499.2012 C 251.7745 499.19796 251.8357 499.19474 251.8937 499.1915 L 251.89693 499.1915 C 252.76363 499.13675 253.63356 499.04975 254.50027 498.9273 L 254.5035 498.9273 C 254.52604 498.9241 254.55182 498.91765 254.57437 498.91443 L 254.58082 498.91443 C 254.59048 498.9112 254.59693 498.9112 254.6066 498.9112 C 254.6517 498.90477 254.6968 498.8983 254.7387 498.8919 C 254.79025 498.88543 254.8418 498.87577 254.89335 498.8661 L 254.89657 498.8661 C 254.91268 498.8661 254.932 498.8629 254.94812 498.85966 C 254.9578 498.85644 254.96423 498.85644 254.97712 498.85644 L 254.99323 498.8532 C 280.2566 494.86443 304.88846 461.3754 321.7232 423.15976 C 293.98858 412.38554 267.35588 397.11024 249.9992 381.83816" fill="white" fill-opacity=".4"/>
      <path d="M 423.1604 178.27874 C 412.3862 206.01335 397.1109 232.64605 381.8388 250.00274 C 397.1109 267.3562 412.3862 293.9889 423.1604 321.7235 C 463.5702 303.92542 498.696 277.39904 499.2437 250.63424 C 499.24694 250.4216 499.25016 250.21217 499.25016 250.00274 C 499.25016 249.66766 499.2437 249.3358 499.23405 249.00393 C 499.23405 248.98138 499.2308 248.9556 499.2308 248.92983 C 499.1116 245.48233 498.4221 242.03484 497.2203 238.61312 C 489.16543 215.6309 458.1412 193.68614 423.1604 178.27874" fill="white" fill-opacity=".4"/>
      <path d="M 76.84281 178.27713 C 40.30259 194.3708 8.086238 217.59468 1.842084 241.68526 C 1.838862 241.69492 1.83564 241.7046 1.8324181 241.71425 L 1.8324181 241.7207 C 1.1203655 244.47225 .7498404 247.2367 .7498404 250.00113 C .7498404 250.2331 .7530623 250.4683 .7595062 250.7003 C .7595062 250.71318 .7595062 250.7325 .7595062 250.7454 C .7627282 250.9065 .7691721 251.0676 .775616 251.2287 C .775616 251.26736 .778838 251.30602 .778838 251.34468 L .778838 251.3479 C 1.9290769 277.87106 36.79066 304.0817 76.83959 321.7219 C 87.61382 293.9873 102.8859 267.3578 118.1612 250.00113 C 102.8859 232.64444 87.61382 206.01174 76.83959 178.27713" fill="white" fill-opacity=".4"/>
      <path d="M 73.7536 73.754245 C 73.42818 74.07966 73.11243 74.4083 72.80312 74.74983 C 72.75802 74.79816 72.70969 74.84971 72.66458 74.90126 C 72.63236 74.9367 72.60014 74.96892 72.57114 75.004365 L 72.558255 75.01725 L 72.55181 75.02692 C 72.51637 75.06236 72.48737 75.0978 72.45193 75.136465 L 72.43904 75.152575 C 72.41327 75.18157 72.38749 75.21057 72.361715 75.23957 C 72.345605 75.25568 72.33594 75.27179 72.31983 75.2879 C 72.31339 75.29756 72.30372 75.30723 72.29405 75.316895 C 72.261835 75.35556 72.229615 75.39422 72.197395 75.42966 L 72.19417 75.43611 C 72.14262 75.4941 72.09107 75.5521 72.04274 75.61009 L 72.03952 75.61654 C 72.02985 75.6262 72.02019 75.63587 72.01052 75.64876 L 71.98797 75.67453 C 71.93642 75.73575 71.88809 75.79374 71.83654 75.85496 L 71.83331 75.85818 L 71.82043 75.87107 C 71.79143 75.909735 71.76243 75.94518 71.73343 75.98062 C 71.67222 76.0515 71.620665 76.11916 71.56267 76.190045 C 55.18224 96.38528 61.38128 138.46726 76.84024 178.27133 C 104.07222 166.2792 133.70457 158.25008 156.77378 156.77765 C 158.24944 133.70521 166.27856 104.07287 178.27068 76.84088 C 137.47748 60.99529 94.2968 54.88002 74.72985 72.81988 L 74.72663 72.82632 C 74.697635 72.848875 74.67186 72.87465 74.64286 72.90043 C 74.517205 73.01642 74.39477 73.13241 74.26911 73.25162 L 74.25623 73.26451 C 74.08546 73.42561 73.91792 73.589925 73.7536 73.754245" fill="white" fill-opacity=".4"/>
      <path d="M 343.223 343.22493 C 341.75056 366.29737 333.72144 395.9297 321.7261 423.1585 C 359.40044 437.7926 399.11107 444.1302 420.3792 430.8815 L 420.38244 430.87506 C 420.3921 430.87184 420.405 430.8622 420.41466 430.85573 C 420.42754 430.8493 420.44043 430.84284 420.4533 430.8332 C 420.47587 430.81707 420.49843 430.8042 420.521 430.7913 C 420.5403 430.7784 420.56287 430.7655 420.5822 430.75263 L 420.58864 430.7494 C 420.60153 430.73974 420.6112 430.7333 420.6241 430.72685 C 420.63375 430.7172 420.64664 430.71074 420.6563 430.7043 C 420.6982 430.68175 420.7304 430.65597 420.76907 430.6334 C 422.3156 429.64105 423.76227 428.54237 425.0994 427.33413 C 425.15093 427.289 425.2025 427.2439 425.2508 427.1988 C 425.2895 427.16337 425.32814 427.12793 425.3668 427.0925 C 425.4377 427.0248 425.50857 426.9604 425.57945 426.8927 C 425.805 426.6833 426.0273 426.4642 426.2464 426.2451 C 426.4107 426.0808 426.57504 425.91325 426.73614 425.7425 L 426.749 425.7328 C 426.7909 425.6877 426.836 425.6426 426.8779 425.5975 C 426.9778 425.48795 427.07444 425.38485 427.1743 425.2753 L 427.18077 425.2721 C 427.26454 425.17864 427.3451 425.09165 427.42564 424.9982 C 427.4643 424.95633 427.5062 424.9112 427.54163 424.8661 L 427.54807 424.8661 C 428.1216 424.21206 428.67576 423.53544 429.20093 422.83306 C 429.2138 422.81373 429.22993 422.7944 429.2428 422.77506 L 429.24926 422.7686 L 429.26215 422.7525 C 429.29115 422.71384 429.3169 422.6784 429.3427 422.63974 C 429.3749 422.6011 429.4039 422.5592 429.43614 422.5173 L 429.43936 422.5141 C 429.449 422.49797 429.4587 422.4851 429.46836 422.4722 C 429.4748 422.46253 429.48124 422.4561 429.48447 422.44964 L 429.49413 422.43353 C 444.5407 401.7518 438.2772 360.6525 423.15976 321.72803 C 395.9278 333.72015 366.29543 341.74927 343.223 343.22493" fill="white" fill-opacity=".4"/>
      <path d="M 321.7274 76.84217 C 333.7195 104.07093 341.75185 133.7065 343.2243 156.77572 C 366.29672 158.25137 395.92907 166.2805 423.15783 178.27262 C 439.1452 137.11211 445.23146 93.51902 426.6891 74.20661 C 426.5409 74.05518 426.3959 73.90374 426.24447 73.75553 C 426.00926 73.52033 425.77406 73.28835 425.5324 73.06281 C 425.5131 73.04348 425.49375 73.02737 425.47764 73.01126 C 422.95485 70.65601 420.0261 68.70673 416.759 67.13441 C 394.81105 56.5825 357.359 63.00064 321.7274 76.84217" fill="white" fill-opacity=".4"/>
      <path d="M 76.84346 321.72513 C 62.386534 358.94196 56.02639 398.1435 68.64358 419.5953 L 68.659686 419.6211 L 68.66291 419.62753 C 70.106345 422.0762 71.79787 424.2897 73.7536 426.24543 C 73.91792 426.41297 74.08546 426.57407 74.253 426.73517 C 74.26589 426.74484 74.27556 426.7577 74.28522 426.7674 C 74.40444 426.87694 74.52043 426.9897 74.63964 427.09603 C 74.66864 427.12503 74.697635 427.1508 74.72341 427.1766 L 74.72985 427.1798 C 94.2968 445.11966 137.4807 439.00116 178.2739 423.1588 C 166.27856 395.93003 158.24944 366.2977 156.77378 343.22525 C 133.70457 341.7528 104.07222 333.72047 76.84024 321.72835" fill="white" fill-opacity=".4"/>
      <path d="M 321.7216 76.838625 C 293.98697 87.61285 267.35427 102.88815 249.99758 118.16345 C 251.9082 119.83887 253.6996 121.51751 255.3718 123.18971 C 271.8328 139.65069 278.26704 159.73315 278.26704 179.48697 C 278.26704 180.26669 278.25737 181.04962 278.23804 181.82934 C 292.3631 166.96322 311.66907 156.53375 335.8692 156.53375 C 338.2341 156.53375 340.68925 156.6143 343.2217 156.7754 C 341.7525 133.70296 333.72015 104.07061 321.72803 76.84185 L 321.7216 76.84185 L 321.7216 76.838625" fill="white" fill-opacity=".65"/>
      <path d="M 343.223 156.77604 C 343.3841 159.31172 343.46786 161.76363 343.46786 164.13177 C 343.46786 188.3319 333.0384 207.63464 318.17227 221.76292 C 318.94877 221.7436 319.73492 221.73393 320.51464 221.73393 C 340.26846 221.73393 360.3509 228.16818 376.8119 244.62594 C 378.4841 246.29813 380.1595 248.09276 381.83816 250.00016 C 397.11024 232.6467 412.38554 206.01077 423.15976 178.27938 L 423.15654 178.27616 L 423.15654 178.27294 C 395.9278 166.28081 366.29543 158.2517 343.223 156.77604" fill="white" fill-opacity=".65"/>
      <path d="M 221.76325 318.17 C 207.63496 333.03935 188.329 343.46883 164.12887 343.46883 C 161.76395 343.46883 159.31204 343.38506 156.77636 343.22396 C 158.2488 366.2964 166.27791 395.92874 178.27326 423.1575 L 178.27648 423.1575 L 178.27648 423.16073 C 206.0111 412.3865 232.6438 397.1112 250.00048 381.83912 C 248.09308 380.1605 246.29845 378.48507 244.62626 376.81287 C 228.16528 360.3519 221.73425 340.26943 221.73103 320.5156 C 221.73103 319.73267 221.74391 318.94973 221.76325 318.17" fill="white" fill-opacity=".65"/>
      <path d="M 118.1612 250.00113 C 102.8859 267.3578 87.61382 293.9873 76.83959 321.7219 L 76.84281 321.72513 L 76.84281 321.72835 C 104.07158 333.72047 133.70392 341.7496 156.77636 343.22525 C 156.61526 340.68635 156.5315 338.23444 156.5315 335.86952 C 156.5315 311.6694 166.96097 292.36343 181.8303 278.23836 C 181.04737 278.2577 180.26765 278.26736 179.48472 278.26736 C 159.7309 278.26736 139.65166 271.8331 123.18745 255.37213 C 121.51526 253.69994 119.83984 251.90853 118.1612 250.00113" fill="white" fill-opacity=".65"/>
      <path d="M 278.23643 318.17 C 278.25576 318.94973 278.26865 319.73267 278.26865 320.5156 C 278.26543 340.26943 271.83118 360.3519 255.37342 376.81287 C 253.698 378.48507 251.9066 380.1605 249.9992 381.83912 C 267.35588 397.1112 293.98858 412.3865 321.7232 423.16073 L 321.7232 423.1575 L 321.7264 423.1575 C 333.72176 395.92874 341.7509 366.2964 343.2233 343.22074 C 340.68764 343.38506 338.2325 343.46883 335.8676 343.46883 C 311.6707 343.46883 292.3647 333.03935 278.23643 318.17" fill="white" fill-opacity=".65"/>
      <path d="M 381.83912 250.00113 C 380.1605 251.90853 378.48507 253.69994 376.80965 255.37535 C 360.34867 271.8331 340.26943 278.26736 320.5156 278.26736 C 319.7359 278.26736 318.94973 278.2577 318.17 278.23836 C 333.03935 292.36343 343.46883 311.6694 343.46883 335.86952 C 343.46883 338.23444 343.38506 340.68635 343.22396 343.22203 C 366.2964 341.7496 395.92874 333.71725 423.1575 321.72513 L 423.16073 321.7219 C 412.3865 293.9905 397.1112 267.3578 381.83912 250.00113" fill="white" fill-opacity=".65"/>
      <path d="M 178.2781 76.838625 L 178.2781 76.84185 L 178.27165 76.84185 C 166.27953 104.07061 158.24718 133.70296 156.77797 156.7754 C 159.31043 156.6143 161.76556 156.53375 164.13048 156.53375 C 188.3306 156.53375 207.63657 166.96322 221.76486 181.82934 C 221.7423 181.04962 221.73264 180.26669 221.73264 179.48697 C 221.73264 159.73315 228.1669 139.65069 244.62787 123.18971 C 246.30006 121.51751 248.09147 119.83887 249.99887 118.16345 C 232.6454 102.88815 206.0127 87.61285 178.2781 76.838625" fill="white" fill-opacity=".65"/>
      <path d="M 156.77668 156.77604 C 133.70424 158.2517 104.06868 166.28081 76.83991 178.27294 L 76.84314 178.27616 C 87.61414 206.01077 102.88622 232.6467 118.16152 250.00016 C 119.84016 248.09276 121.51558 246.29813 123.18777 244.62594 C 139.64876 228.16818 159.73122 221.73715 179.48504 221.73393 C 180.26475 221.73393 181.05091 221.7436 181.8274 221.76292 C 166.9613 207.63464 156.53181 188.3319 156.53181 164.13177 C 156.53181 161.76363 156.61559 159.31172 156.77668 156.77604" fill="white" fill-opacity=".65"/>
      <path d="M 335.85923 156.53246 C 311.62737 156.53246 292.29607 166.97562 278.1525 181.86123 C 278.10732 183.52916 278.0202 185.18742 277.89116 186.84245 C 275.91674 212.0099 264.096 235.83528 250.0008 250.00145 C 263.5024 236.56762 285.77273 225.19532 309.62068 222.44984 C 312.4436 222.124 315.28586 221.92075 318.1378 221.84977 C 333.0234 207.70296 343.46657 188.3749 343.46657 164.1398 C 343.46657 161.77178 343.3859 159.31666 343.2214 156.77765 C 340.6856 156.61634 338.22725 156.53246 335.85923 156.53246" fill="white" fill-opacity=".8"/>
      <path d="M 250.00048 250.00113 C 234.94105 265.05734 208.83675 277.54887 181.8303 278.23836 C 166.96097 292.36343 156.5315 311.6694 156.5315 335.86952 C 156.5315 338.23444 156.61526 340.68635 156.77636 343.22525 C 159.31204 343.38635 161.76395 343.4669 164.12887 343.4669 C 188.329 343.4669 207.63496 333.04064 221.76325 318.1713 C 222.45275 291.16164 234.94428 265.05734 250.00048 250.00113" fill="white" fill-opacity=".8"/>
      <path d="M 250.00048 250.00113 C 264.132 264.13263 276.00168 287.99123 277.97674 313.1966 C 278.10562 314.84947 278.19583 316.50878 278.23772 318.1713 C 292.36278 333.04064 311.66875 343.4669 335.86888 343.4669 C 338.2338 343.4669 340.68892 343.38635 343.2214 343.22203 C 343.3857 340.68635 343.46625 338.23444 343.46625 335.86952 C 343.46625 311.6694 333.04 292.36343 318.17066 278.23836 C 291.161 277.54887 265.0567 265.05734 250.00048 250.00113" fill="white" fill-opacity=".8"/>
      <path d="M 164.1292 156.53246 C 161.76427 156.53246 159.31236 156.61623 156.77668 156.77733 C 156.61559 159.313 156.53181 161.76492 156.53181 164.12983 C 156.53181 188.33318 166.9613 207.63593 181.83063 221.7642 C 208.84352 222.4505 234.94138 234.94202 250.0008 250.00145 C 234.94138 234.94202 222.45307 208.83772 221.76357 181.82805 C 207.63528 166.96194 188.32931 156.53246 164.1292 156.53246" fill="white" fill-opacity=".8"/>
      <path d="M 320.51593 221.73296 C 319.7362 221.73296 318.95005 221.74263 318.17034 221.76518 C 316.52392 223.32783 314.82595 224.82604 313.07965 226.26303 C 294.04432 241.92497 269.5059 250.00242 250.00016 250.00242 C 269.2578 250.00242 293.41604 257.87044 312.34826 273.1425 C 314.35232 274.75672 316.29516 276.4547 318.17034 278.23643 C 318.95005 278.259 319.7362 278.26865 320.51593 278.26865 C 340.26975 278.26865 360.349 271.8344 376.80997 255.37342 C 378.48217 253.70122 380.1608 251.90982 381.83945 250.00242 C 380.1608 248.0918 378.48217 246.3004 376.80997 244.6282 C 360.3522 228.1672 340.26975 221.73296 320.51593 221.73296" fill="white" fill-opacity=".8"/>
      <path d="M 250.00048 250.00113 C 250.00048 271.29505 240.37327 298.58503 221.76325 318.1713 C 221.74391 318.9478 221.73103 319.73073 221.73103 320.51367 C 221.73425 340.2707 228.16528 360.34995 244.62626 376.81094 C 246.29845 378.48313 248.09308 380.15855 250.00048 381.8372 C 251.90788 380.15855 253.6993 378.48313 255.3715 376.81094 C 271.83247 360.34995 278.26672 340.2707 278.26672 320.51367 C 278.26672 319.73073 278.25705 318.9478 278.23772 318.1713 C 259.6277 298.58503 250.00048 271.29505 250.00048 250.00113" fill="white" fill-opacity=".8"/>
      <path d="M 249.9992 118.16249 C 248.0918 119.84113 246.3004 121.51655 244.6282 123.18874 C 228.1672 139.64972 221.73296 159.73218 221.73296 179.486 C 221.73296 180.26894 221.74263 181.04866 221.76196 181.82837 C 240.314 201.35343 249.93798 228.52742 249.9992 249.79234 C 250.0572 230.2995 258.15075 205.8384 273.7869 186.85785 C 275.2078 185.13732 276.6931 183.45546 278.23643 181.82837 C 278.25576 181.04866 278.26865 180.26894 278.26865 179.486 C 278.26543 159.73218 271.83118 139.64972 255.37342 123.18874 C 253.698 121.51655 251.9066 119.84113 249.9992 118.16249" fill="white" fill-opacity=".8"/>
      <path d="M 179.48504 221.73296 C 159.73122 221.73618 139.64876 228.1672 123.18777 244.6282 C 121.51558 246.3004 119.84016 248.0918 118.16152 250.00242 C 119.84016 251.9066 121.51558 253.698 123.18777 255.37342 C 139.64876 271.8344 159.73122 278.26865 179.48504 278.26865 C 180.26475 278.26865 181.0477 278.259 181.8274 278.23643 C 201.4169 259.6264 228.70367 250.00242 250.0008 250.00242 C 228.70367 250.00242 201.4169 240.3752 181.8274 221.76518 C 181.05091 221.74263 180.26475 221.73296 179.48504 221.73296" fill="white" fill-opacity=".8"/>
      <path d="M 318.17066 221.7639 C 315.32245 221.83477 312.4839 222.04098 309.6647 222.36318 C 285.7771 225.11473 263.4715 236.53012 250.00048 250.00113 C 269.5062 250.00113 294.04142 241.92368 313.07997 226.26174 C 314.82627 224.82797 316.52424 223.32654 318.17066 221.7639" fill="white"/>
      <path d="M 250.00048 250.00113 C 265.0567 265.05734 291.161 277.54887 318.17066 278.23836 C 316.2955 276.45662 314.34942 274.75543 312.3486 273.14123 C 293.41636 257.87237 269.25812 250.00113 250.00048 250.00113" fill="white"/>
      <path d="M 250.00048 250.00113 C 250.00048 271.29505 259.6277 298.58503 278.23772 318.1713 C 278.19583 316.50878 278.10562 314.84947 277.97674 313.1966 C 276.00168 287.99123 264.132 264.13263 250.00048 250.00113" fill="white"/>
      <path d="M 250.00048 250.00113 C 234.94428 265.05734 222.45275 291.16164 221.76325 318.1713 C 240.37327 298.58503 250.00048 271.29505 250.00048 250.00113" fill="white"/>
      <path d="M 278.23643 181.82966 C 276.6931 183.45675 275.2078 185.13539 273.7869 186.85914 C 258.09275 205.90413 249.9992 230.47155 249.9992 249.99984 C 264.1307 235.86833 276.0004 212.01296 277.97867 186.80436 C 278.10755 185.1515 278.19455 183.4922 278.23643 181.82966 M 250.12163 249.8774 C 250.08297 249.9193 250.04108 249.96118 249.9992 249.99984 C 250.04108 249.96118 250.08297 249.9193 250.12163 249.8774" fill="white"/>
      <path d="M 221.76325 181.82966 C 222.45275 208.83933 234.94428 234.94363 250.00048 249.99984 C 250.00048 228.70592 240.37327 201.41594 221.76325 181.82966" fill="white"/>
      <path d="M 181.82901 221.7639 C 201.4153 240.37392 228.70528 250.00113 249.9992 250.00113 C 234.93976 234.9417 208.8419 222.45017 181.82901 221.7639" fill="white"/>
      <path d="M 250.00048 250.00113 C 228.70334 250.00113 201.41658 259.6251 181.8303 278.23836 C 208.83675 277.54887 234.94105 265.05734 250.00048 250.00113" fill="white"/>
    </g>
  </g>
</svg>
