<?xml version="1.0" encoding="UTF-8" standalone="no"?>
<!DOCTYPE svg PUBLIC "-//W3C//DTD SVG 1.1//EN" "http://www.w3.org/Graphics/SVG/1.1/DTD/svg11.dtd">
<svg xmlns="http://www.w3.org/2000/svg" xmlns:xl="http://www.w3.org/1999/xlink" version="1.1" viewBox="0 0 500 500" width="500pt" height="500pt" xmlns:dc="http://purl.org/dc/elements/1.1/">
  <metadata> Produced by OmniGraffle 7.3.1
    <dc:date>2017-05-27 12:16:53 +0000</dc:date>
  </metadata>
  <defs/>
  <g stroke="none" stroke-opacity="1" stroke-dasharray="none" fill="none" fill-opacity="1">
    <title>Canvas 1</title>
    <g>
      <title>Layer 1</title>
      <path d="M 211.81796 251.872 C 204.21352 226.42464 200.41526 200.89575 201.46145 177.3528 C 204.96082 98.59675 261.3461 71.88786 327.40153 117.6968 C 369.5985 146.95983 405.5339 198.73693 425.0756 252.8525 C 426.6966 244.22156 427.4521 234.90497 427.2535 224.96075 C 425.65664 144.98482 362.9521 54.69894 287.19893 23.301486 C 211.44576 -8.096376 151.33055 31.284023 152.9278 111.26011 C 153.88961 159.4306 177.02008 211.34134 211.81797 251.872 Z" fill="white"/>
      <path d="M 287.04242 253.93446 C 312.8827 260.0725 336.8905 269.54756 356.7562 282.22506 C 423.21125 324.63363 418.1492 386.81916 345.44976 421.12037 C 299.00874 443.0325 236.20077 448.26493 179.56446 438.13073 C 186.22857 443.85005 193.91923 449.1626 202.63048 453.96274 C 272.6901 492.5678 382.23223 483.407 447.2998 433.50156 C 512.36774 383.5963 508.3209 311.84482 438.26097 273.24004 C 396.0632 249.98775 339.54194 244.06395 287.0424 253.93447 Z" fill="white"/>
      <path d="M 247.53556 316.27148 C 229.29972 335.5808 209.09018 351.63463 188.1783 362.5001 C 118.22386 398.84756 66.90065 363.37093 73.54464 283.26076 C 77.78867 232.0856 104.66126 175.07608 141.75589 131.0947 C 133.47076 134.00633 125.0246 138.01035 116.51196 143.15445 C 48.04921 184.52534 1.2116053 283.972 11.897198 365.2749 C 22.58244 446.578 86.74447 478.9491 155.20716 437.5778 C 196.44313 412.6596 229.83392 366.67265 247.53555 316.27147 Z" fill="white"/>
    </g>
  </g>
</svg>
