<?xml version="1.0" encoding="UTF-8" standalone="no"?>
<!DOCTYPE svg PUBLIC "-//W3C//DTD SVG 1.1//EN" "http://www.w3.org/Graphics/SVG/1.1/DTD/svg11.dtd">
<svg xmlns="http://www.w3.org/2000/svg" xmlns:xl="http://www.w3.org/1999/xlink" version="1.1" viewBox="0 0 500 500" width="500pt" height="500pt" xmlns:dc="http://purl.org/dc/elements/1.1/">
  <metadata> Produced by OmniGraffle 7.3.1
    <dc:date>2017-05-25 23:13:21 +0000</dc:date>
  </metadata>
  <defs/>
  <g stroke="none" stroke-opacity="1" stroke-dasharray="none" fill="none" fill-opacity="1">
    <title>Canvas 1</title>
    <g>
      <title>Layer 1</title>
      <path d="M 418.87427 266.22504 L 306.53563 149.44888 L 455.67035 1.1781028 L 338.31822 0 L 249.9867 90.11177 L 161.64208 0 L 44.329225 1.1781028 L 193.45085 149.44888 L 81.15148 266.22504 C 81.15148 266.22504 -13.5418 351.33642 74.44939 438.72547 C 136.60085 500.45805 249.9867 499.9999 249.9867 499.9999 C 249.9867 499.9999 363.37254 500.45805 425.5502 438.72547 C 513.5283 351.33642 418.87427 266.22504 418.87427 266.22504 Z M 354.57604 425.714 L 354.57604 425.714 C 310.44955 467.8508 249.9867 465.8873 249.9867 465.8873 C 249.9867 465.8873 189.52385 467.8377 145.39735 425.714 C 101.27086 383.5248 123.82498 340.39316 133.6556 327.64347 C 143.46003 314.91996 249.9998 208.09222 249.9998 208.09222 C 249.9998 208.09222 356.56573 314.91996 366.35707 327.64347 C 376.13532 340.39316 398.67636 383.5248 354.57604 425.714 Z" fill="black"/>
    </g>
  </g>
</svg>
