<?xml version="1.0" encoding="UTF-8" standalone="no"?>
<!DOCTYPE svg PUBLIC "-//W3C//DTD SVG 1.1//EN" "http://www.w3.org/Graphics/SVG/1.1/DTD/svg11.dtd">
<svg xmlns="http://www.w3.org/2000/svg" xmlns:xl="http://www.w3.org/1999/xlink" version="1.1" viewBox="0 0 500 500" width="500pt" height="500pt" xmlns:dc="http://purl.org/dc/elements/1.1/">
  <metadata> Produced by OmniGraffle 7.3.1
    <dc:date>2017-05-27 13:16:41 +0000</dc:date>
  </metadata>
  <defs/>
  <g stroke="none" stroke-opacity="1" stroke-dasharray="none" fill="none" fill-opacity="1">
    <title>Canvas 1</title>
    <g>
      <title>Layer 1</title>
      <path d="M 286.0099 62.09332 L 306.1829 61.5 L 346.52886 65.05994 L 364.32855 70.399845 L 385.68818 140.41196 L 289.56985 206.27082 L 284.82326 150.49845 Z" fill="white" fill-opacity=".5"/>
      <path d="M 412.92497 168.89147 L 383.50857 181.94457 C 383.50857 181.94457 335.854 218.13728 336.4423 218.13728 C 337.03065 218.13728 429.39816 215.17066 429.39816 215.17066 C 429.39816 215.17066 449.6111 171.85808 431.96737 173.04473 C 414.32364 174.23137 439.08725 195.591 422.4742 184.91119 C 405.86116 174.23137 412.92497 168.89147 412.92497 168.89147 Z" fill="white" fill-opacity=".5"/>
      <path d="M 412.3877 225.25715 L 408.23445 235.93697 C 408.23445 235.93697 397.55464 246.02346 403.48787 247.2101 C 409.4211 248.39675 423.06753 234.157 423.06753 234.157 C 423.06753 234.157 435.5273 226.4438 447.9871 228.22377 C 460.4469 230.00374 467.56675 230.59706 467.56675 230.59706 C 467.56675 230.59706 488.33306 262.6365 484.7731 266.78977 C 481.2132 270.94303 435.5273 263.22983 372.63507 266.78977 C 309.74283 270.3497 278.89003 271.53635 278.89003 271.53635 L 279.48335 390.20095 C 279.48335 390.20095 257.5304 391.3876 256.93708 391.3876 C 256.34376 391.3876 237.35742 366.46803 235.57745 340.95514 C 233.79748 315.44225 235.57745 269.16306 235.57745 269.16306 C 235.57745 269.16306 45.714083 273.31632 45.714083 260.2632 C 45.714083 247.2101 48.6807 242.46352 48.6807 242.46352 C 48.6807 242.46352 73.600265 247.2101 80.12682 241.8702 C 86.65337 236.5303 99.70648 221.1039 118.69282 221.69722 C 137.67915 222.29054 214.21782 231.19038 215.9978 228.22377 C 217.77776 225.25715 236.17077 227.03712 236.7641 215.17066 C 237.35742 203.3042 230.83087 89.38618 230.83087 89.38618 C 230.83087 89.38618 260.49702 75.73975 265.2436 72.77314 C 269.9902 69.80652 280.07668 105.4059 280.07668 105.4059 C 280.07668 105.4059 276.51674 200.33759 275.3301 215.76399 C 274.14345 231.19038 412.3877 225.25715 412.3877 225.25715 Z" fill="white"/>
      <path d="M 342.3756 278.0629 L 449.76706 276.87626 C 449.76706 276.87626 460.4469 299.42253 456.2936 313.6623 C 452.14035 327.90204 467.56675 302.98247 478.24657 332.0553 C 488.9264 361.12813 464.0068 362.9081 462.82017 362.9081 C 461.6335 362.9081 342.3756 278.0629 342.3756 278.0629 Z" fill="white" fill-opacity=".5"/>
      <path d="M 474.0933 276.28293 C 474.0933 276.87626 488.33306 276.87626 488.33306 276.87626 C 488.33306 276.87626 495.45293 289.92936 492.4863 299.42253 C 489.5197 308.9157 490.113 325.52875 490.113 325.52875 C 490.113 325.52875 475.27995 329.682 474.0933 309.50902 C 472.90666 289.33604 474.0933 275.6896 474.0933 276.28293 Z" fill="white" fill-opacity=".5"/>
      <path d="M 441.46054 356.97487 C 441.46054 356.97487 431.37405 364.09474 412.3877 354.00825 C 393.40137 343.92176 389.84144 330.27533 368.4818 322.56213 C 347.12218 314.84893 336.44236 309.50902 322.79594 295.8626 C 309.1495 282.21616 305.58957 274.50297 305.58957 274.50297 C 305.58957 274.50297 342.9689 286.96275 350.0888 295.26927 C 357.20867 303.5758 441.46054 356.97487 441.46054 356.97487 Z" fill="white"/>
      <path d="M 296.68972 214.57734 C 296.68972 214.57734 318.04935 220.51057 334.06907 205.08417 C 350.0888 189.65777 370.8551 177.198 383.9082 173.63805 C 396.9613 170.07811 404.0812 148.12516 404.0812 148.12516 C 404.0812 148.12516 386.8748 145.75187 362.54858 164.7382 C 338.22233 183.72454 296.68972 214.57734 296.68972 214.57734 Z" fill="white"/>
      <path d="M 227.86425 205.08417 C 228.45757 202.11756 224.89764 85.82624 224.89764 85.82624 L 214.21782 81.67298 C 214.21782 81.67298 202.94468 130.32547 190.4849 130.32547 C 178.02512 130.32547 162.59872 122.61227 156.07217 129.13882 C 149.54561 135.66538 148.35897 157.61833 148.35897 157.61833 C 148.35897 157.61833 227.27093 208.05079 227.86425 205.08417 Z" fill="white" fill-opacity=".5"/>
      <path d="M 212.43785 213.98402 C 212.43785 213.98402 186.92496 199.74426 169.12527 181.35125 C 151.32558 162.95824 125.81269 166.51818 125.81269 166.51818 C 125.81269 166.51818 157.25881 187.28448 161.41207 196.77765 C 165.56533 206.27082 212.43785 213.98402 212.43785 213.98402 Z" fill="white"/>
      <path d="M 176.24515 215.17066 C 175.65183 215.17066 135.89918 179.57128 125.21937 178.97796 C 114.53955 178.38464 127.59266 193.2177 125.81269 194.99768 C 124.03272 196.77765 108.60632 215.17066 108.60632 215.17066 C 108.60632 215.17066 176.83847 215.17066 176.24515 215.17066 Z" fill="white" fill-opacity=".5"/>
      <path d="M 174.46518 278.0629 C 170.31192 277.46958 150.73226 273.90964 113.94623 278.65623 C 77.1602 283.4028 70.63365 275.6896 70.63365 275.6896 C 70.63365 275.6896 74.78691 288.74272 64.1071 293.4893 C 53.42728 298.2359 9.521379 302.98247 7.148087 316.03558 C 4.774795 329.0887 14.861286 324.93542 18.421224 335.0219 C 21.981162 345.1084 39.18753 371.2146 47.49405 366.46803 C 55.800575 361.72145 178.61844 278.65623 174.46518 278.0629 Z" fill="white" fill-opacity=".5"/>
      <path d="M 60.54716 379.52114 C 60.54716 379.52114 66.48039 360.5348 79.5335 355.7882 C 92.5866 351.04164 154.88552 314.2556 159.6321 304.76244 C 164.37869 295.26927 213.03118 272.12967 223.711 276.87626 C 234.3908 281.62284 201.16472 292.30266 201.16472 292.30266 Z" fill="white"/>
      <path d="M 62.32713 394.94754 C 64.1071 393.7609 223.11767 288.1494 223.11767 288.1494 C 223.11767 288.1494 229.0509 326.12207 226.6776 331.46198 C 224.3043 336.8019 214.21782 314.2556 210.65788 326.12207 C 207.09795 337.98853 187.51829 364.09474 185.73832 361.72145 C 183.95835 359.34816 200.5714 373.5879 191.67155 385.45437 C 182.7717 397.32083 163.78536 405.62735 162.59872 418.08714 C 161.41207 430.5469 151.9189 404.4407 138.8658 411.5606 C 125.81269 418.68046 125.21937 425.207 111.57294 416.30717 C 97.92651 407.4073 94.95989 390.20095 81.31346 394.94754 C 67.667035 399.6941 60.54716 396.1342 62.32713 394.94754 Z" fill="white" fill-opacity=".5"/>
      <path d="M 288.3832 283.99613 C 288.3832 283.99613 290.16317 425.207 288.3832 436.48015 C 286.60323 447.7533 329.3225 408.00065 344.7489 411.5606 C 360.1753 415.1205 384.50153 443.0067 393.9947 437.07347 C 403.48787 431.14024 441.46054 389.60763 422.4742 375.3679 C 403.48787 361.12813 288.3832 283.99613 288.3832 283.99613 Z" fill="white" fill-opacity=".5"/>
    </g>
  </g>
</svg>
