<?xml version="1.0" encoding="UTF-8" standalone="no"?>
<!DOCTYPE svg PUBLIC "-//W3C//DTD SVG 1.1//EN" "http://www.w3.org/Graphics/SVG/1.1/DTD/svg11.dtd">
<svg xmlns:xl="http://www.w3.org/1999/xlink" xmlns="http://www.w3.org/2000/svg" xmlns:dc="http://purl.org/dc/elements/1.1/" version="1.1" viewBox="-2.5 -3.118034 141.9756 150.23607" width="141.9756" height="150.23607">
  <defs/>
  <metadata> Produced by OmniGraffle 7.18.5\n2021-08-08 15:06:08 +0000</metadata>
  <g id="banner-icon" stroke-dasharray="none" fill="none" stroke="none" stroke-opacity="1" fill-opacity="1">
    <title>banner-icon</title>
    <g id="banner-icon_Layer_1">
      <title>Layer 1</title>
      <g id="Group_75">
        <g id="Graphic_74">
          <path d="M 129.95121 80.78049 L 129.95121 80.78049 C 128.01148 80.78049 126.43902 79.20802 126.43902 77.26829 C 126.43902 75.32856 128.01148 73.7561 129.95121 73.7561 C 131.89094 73.7561 133.4634 75.32856 133.4634 77.26829 C 133.4634 79.20802 131.89094 80.78049 129.95121 80.78049 Z M 7.02439 80.78049 L 7.02439 80.78049 C 5.084658 80.78049 3.512195 79.20802 3.512195 77.26829 C 3.512195 75.32856 5.084658 73.7561 7.02439 73.7561 C 8.964121 73.7561 10.536585 75.32856 10.536585 77.26829 C 10.536585 79.20802 8.964121 80.78049 7.02439 80.78049 Z M 126.43902 42.14634 L 126.43902 42.14634 C 126.43902 40.20661 128.01148 38.634146 129.95121 38.634146 C 131.89094 38.634146 133.4634 40.20661 133.4634 42.14634 C 133.4634 44.086073 131.89094 45.658537 129.95121 45.658537 C 128.01148 45.658537 126.43902 44.086073 126.43902 42.14634 Z M 10.536585 42.14634 L 10.536585 42.14634 C 10.536585 44.086073 8.964121 45.658537 7.02439 45.658537 C 5.084658 45.658537 3.512195 44.086073 3.512195 42.14634 C 3.512195 40.20661 5.084658 38.634146 7.02439 38.634146 C 8.964121 38.634146 10.536585 40.20661 10.536585 42.14634 Z M 28.09756 45.658537 L 38.634144 45.658537 L 38.634144 59.70732 L 28.09756 59.70732 Z M 28.09756 66.73171 L 38.634144 66.73171 L 38.634144 80.78049 L 28.09756 80.78049 Z M 28.09756 87.80488 L 38.634144 87.80488 L 38.634144 101.85366 L 28.09756 101.85366 Z M 28.09756 108.87805 L 38.634144 108.87805 L 38.634144 122.92683 L 28.09756 122.92683 Z M 45.658534 45.658537 L 56.19512 45.658537 L 56.19512 59.70732 L 45.658534 59.70732 Z M 45.658534 66.73171 L 56.19512 66.73171 L 56.19512 80.78049 L 45.658534 80.78049 Z M 45.658534 87.80488 L 56.19512 87.80488 L 56.19512 101.85366 L 45.658534 101.85366 Z M 45.658534 108.87805 L 56.19512 108.87805 L 56.19512 122.92683 L 45.658534 122.92683 Z M 63.21951 45.658537 L 73.75609 45.658537 L 73.75609 59.70732 L 63.21951 59.70732 Z M 63.21951 66.73171 L 73.75609 66.73171 L 73.75609 80.78049 L 63.21951 80.78049 Z M 63.21951 87.80488 L 73.75609 87.80488 L 73.75609 101.85366 L 63.21951 101.85366 Z M 63.21951 108.87805 L 73.75609 108.87805 L 73.75609 122.92683 L 63.21951 122.92683 Z M 80.78048 45.658537 L 91.31707 45.658537 L 91.31707 59.70732 L 80.78048 59.70732 Z M 80.78048 66.73171 L 91.31707 66.73171 L 91.31707 80.78049 L 80.78048 80.78049 Z M 80.78048 87.80488 L 91.31707 87.80488 L 91.31707 101.85366 L 80.78048 101.85366 Z M 80.78048 108.87805 L 91.31707 108.87805 L 91.31707 122.92683 L 80.78048 122.92683 Z M 98.34146 45.658537 L 108.87804 45.658537 L 108.87804 59.70732 L 98.34146 59.70732 Z M 98.34146 66.73171 L 108.87804 66.73171 L 108.87804 80.78049 L 98.34146 80.78049 Z M 98.34146 87.80488 L 108.87804 87.80488 L 108.87804 101.85366 L 98.34146 101.85366 Z M 98.34146 108.87805 L 108.87804 108.87805 L 108.87804 122.92683 L 98.34146 122.92683 Z M 115.90243 21.07317 L 112.39024 14.04878 L 108.87804 21.07317 L 98.34146 21.07317 L 98.34146 14.04878 L 94.82926 7.02439 L 91.31707 14.04878 L 91.31707 21.07317 L 80.78048 21.07317 L 80.78048 7.02439 L 77.26829 0 L 73.75609 7.02439 L 73.75609 21.07317 L 63.21951 21.07317 L 63.21951 7.02439 L 59.70731 0 L 56.19512 7.02439 L 56.19512 21.07317 L 45.658534 21.07317 L 45.658534 14.04878 L 42.14634 7.02439 L 38.634144 14.04878 L 38.634144 21.07317 L 28.09756 21.07317 L 24.585364 14.04878 L 21.07317 21.07317 L 21.07317 28.09756 L 115.90243 28.09756 Z M 128.19511 123.14813 C 125.16545 123.92791 122.92682 126.67814 122.92682 129.95122 C 122.92682 133.83068 126.07175 136.97561 129.95121 136.97561 C 133.83067 136.97561 136.9756 133.83068 136.9756 129.95122 C 136.9756 126.67814 134.73698 123.92791 131.70731 123.14813 L 131.70731 119.19334 C 134.73698 118.41355 136.9756 115.66333 136.9756 112.39024 C 136.9756 109.11716 134.73698 106.36694 131.70731 105.58715 L 131.70731 101.63236 C 134.73698 100.85258 136.9756 98.10235 136.9756 94.82927 C 136.9756 91.55618 134.73698 88.80596 131.70731 88.02618 L 131.70731 84.07138 C 134.73698 83.2916 136.9756 80.54138 136.9756 77.26829 C 136.9756 73.99521 134.73698 71.24498 131.70731 70.4652 L 131.70731 66.51041 C 134.73698 65.730626 136.9756 62.9804 136.9756 59.70732 C 136.9756 56.43423 134.73698 53.68401 131.70731 52.904226 L 131.70731 48.94943 C 134.73698 48.16965 136.9756 45.419425 136.9756 42.14634 C 136.9756 38.26688 133.83067 35.12195 129.95121 35.12195 C 126.67813 35.12195 123.9279 37.360577 123.14812 40.390244 L 115.90243 40.390244 L 115.90243 38.634146 L 108.87804 38.634146 L 98.34146 38.634146 L 91.31707 38.634146 L 80.78048 38.634146 L 73.75609 38.634146 L 63.21951 38.634146 L 56.19512 38.634146 L 45.658534 38.634146 L 38.634144 38.634146 L 28.09756 38.634146 L 21.07317 38.634146 L 21.07317 40.390244 L 13.82748 40.390244 C 13.047698 37.360577 10.297473 35.12195 7.02439 35.12195 C 3.1449264 35.12195 0 38.26688 0 42.14634 C 0 45.419425 2.2386252 48.16965 5.2682924 48.94943 L 5.2682924 52.904226 C 2.2386252 53.68401 14210855e-21 56.43423 14210855e-21 59.70732 C 14210855e-21 62.9804 2.2386252 65.730626 5.2682924 66.51041 L 5.2682924 66.51041 L 5.2682924 66.51041 L 5.2682924 70.4652 C 2.2386252 71.24498 14210855e-21 73.99521 14210855e-21 77.26829 C 14210855e-21 80.54138 2.2386252 83.2916 5.2682924 84.07138 L 5.2682924 84.07138 L 5.2682924 84.07138 L 5.2682924 88.02618 C 2.2386252 88.80596 14210855e-21 91.55618 14210855e-21 94.82927 C 14210855e-21 98.10235 2.2386252 100.85258 5.2682924 101.63236 L 5.2682924 101.63236 L 5.2682924 101.63236 L 5.2682924 105.58715 C 2.2386252 106.36694 14210855e-21 109.11716 14210855e-21 112.39024 C 14210855e-21 115.66333 2.2386252 118.41355 5.2682924 119.19334 L 5.2682924 119.19334 L 5.2682924 123.14813 C 2.2386252 123.92791 14210855e-21 126.67814 14210855e-21 129.95122 C 14210855e-21 133.83068 3.1449264 136.97561 7.02439 136.97561 C 10.903853 136.97561 14.04878 133.83068 14.04878 129.95122 C 14.04878 126.67814 11.810154 123.92791 8.780487 123.14813 L 8.780487 119.19334 C 11.810154 118.41355 14.04878 115.66333 14.04878 112.39024 C 14.04878 109.11716 11.810154 106.36694 8.780487 105.58715 L 8.780487 101.63236 C 11.810154 100.85258 14.04878 98.10235 14.04878 94.82927 C 14.04878 91.55618 11.810154 88.80596 8.780487 88.02618 L 8.780487 84.07138 C 11.810154 83.2916 14.04878 80.54138 14.04878 77.26829 C 14.04878 73.99521 11.810154 71.24498 8.780487 70.4652 L 8.780487 66.51041 C 11.810154 65.730626 14.04878 62.9804 14.04878 59.70732 C 14.04878 56.43423 11.810154 53.68401 8.780487 52.904226 L 8.780487 48.94943 C 11.24887 48.314115 13.192163 46.37082 13.82748 43.90244 L 21.07317 43.90244 L 21.07317 45.658537 L 21.07317 59.70732 L 21.07317 66.73171 L 21.07317 80.78049 L 21.07317 87.80488 L 21.07317 101.85366 L 21.07317 108.87805 L 21.07317 122.92683 L 21.07317 129.95122 L 21.07317 136.97561 L 24.585364 144 L 28.09756 136.97561 L 28.09756 129.95122 L 38.634144 129.95122 L 38.634144 136.97561 L 42.14634 144 L 45.658534 136.97561 L 45.658534 129.95122 L 56.19512 129.95122 L 56.19512 136.97561 L 59.70731 144 L 63.21951 136.97561 L 63.21951 129.95122 L 73.75609 129.95122 L 73.75609 136.97561 L 77.26829 144 L 80.78048 136.97561 L 80.78048 129.95122 L 91.31707 129.95122 L 91.31707 136.97561 L 94.82926 144 L 98.34146 136.97561 L 98.34146 129.95122 L 108.87804 129.95122 L 108.87804 136.97561 L 112.39024 144 L 115.90243 136.97561 L 115.90243 129.95122 L 115.90243 122.92683 L 115.90243 108.87805 L 115.90243 101.85366 L 115.90243 87.80488 L 115.90243 80.78049 L 115.90243 66.73171 L 115.90243 59.70732 L 115.90243 45.658537 L 115.90243 43.90244 L 123.14812 43.90244 C 123.78344 46.37082 125.72673 48.314115 128.19511 48.94943 L 128.19511 52.904226 C 125.16545 53.68401 122.92682 56.43423 122.92682 59.70732 C 122.92682 62.9804 125.16545 65.730626 128.19511 66.51041 L 128.19511 66.51041 L 128.19511 66.51041 L 128.19511 70.4652 C 125.16545 71.24498 122.92682 73.99521 122.92682 77.26829 C 122.92682 80.54138 125.16545 83.2916 128.19511 84.07138 L 128.19511 84.07138 L 128.19511 84.07138 L 128.19511 88.02618 C 125.16545 88.80596 122.92682 91.55618 122.92682 94.82927 C 122.92682 98.10235 125.16545 100.85258 128.19511 101.63236 L 128.19511 101.63236 L 128.19511 101.63236 L 128.19511 105.58715 C 125.16545 106.36694 122.92682 109.11716 122.92682 112.39024 C 122.92682 115.66333 125.16545 118.41355 128.19511 119.19334 L 128.19511 119.19334 Z M 129.95121 126.43902 C 131.89094 126.43902 133.4634 128.01149 133.4634 129.95122 C 133.4634 131.89095 131.89094 133.46341 129.95121 133.46341 C 128.01148 133.46341 126.43902 131.89095 126.43902 129.95122 C 126.43902 128.01149 128.01148 126.43902 129.95121 126.43902 Z M 7.02439 126.43902 C 8.964121 126.43902 10.536585 128.01149 10.536585 129.95122 C 10.536585 131.89095 8.964121 133.46341 7.02439 133.46341 C 5.084658 133.46341 3.512195 131.89095 3.512195 129.95122 C 3.512195 128.01149 5.084658 126.43902 7.02439 126.43902 Z M 129.95121 108.87805 C 131.89094 108.87805 133.4634 110.45051 133.4634 112.39024 C 133.4634 114.32998 131.89094 115.90244 129.95121 115.90244 C 128.01148 115.90244 126.43902 114.32998 126.43902 112.39024 C 126.43902 110.45051 128.01148 108.87805 129.95121 108.87805 Z M 7.02439 108.87805 C 8.964121 108.87805 10.536585 110.45051 10.536585 112.39024 C 10.536585 114.32998 8.964121 115.90244 7.02439 115.90244 C 5.084658 115.90244 3.512195 114.32998 3.512195 112.39024 C 3.512195 110.45051 5.084658 108.87805 7.02439 108.87805 Z M 129.95121 91.31707 C 131.89094 91.31707 133.4634 92.88954 133.4634 94.82927 C 133.4634 96.769 131.89094 98.34146 129.95121 98.34146 C 128.01148 98.34146 126.43902 96.769 126.43902 94.82927 C 126.43902 92.88954 128.01148 91.31707 129.95121 91.31707 Z M 7.02439 91.31707 C 8.964121 91.31707 10.536585 92.88954 10.536585 94.82927 C 10.536585 96.769 8.964121 98.34146 7.02439 98.34146 C 5.084658 98.34146 3.512195 96.769 3.512195 94.82927 C 3.512195 92.88954 5.084658 91.31707 7.02439 91.31707 Z M 129.95121 56.19512 C 131.89094 56.19512 133.4634 57.767585 133.4634 59.70732 C 133.4634 61.64705 131.89094 63.21951 129.95121 63.21951 C 128.01148 63.21951 126.43902 61.64705 126.43902 59.70732 C 126.43902 57.767585 128.01148 56.19512 129.95121 56.19512 Z M 7.02439 56.19512 C 8.964121 56.19512 10.536585 57.767585 10.536585 59.70732 C 10.536585 61.64705 8.964121 63.21951 7.02439 63.21951 C 5.084658 63.21951 3.512195 61.64705 3.512195 59.70732 C 3.512195 57.767585 5.084658 56.19512 7.02439 56.19512 Z" fill="#de2e32"/>
          <path d="M 129.95121 80.78049 L 129.95121 80.78049 C 128.01148 80.78049 126.43902 79.20802 126.43902 77.26829 C 126.43902 75.32856 128.01148 73.7561 129.95121 73.7561 C 131.89094 73.7561 133.4634 75.32856 133.4634 77.26829 C 133.4634 79.20802 131.89094 80.78049 129.95121 80.78049 Z M 7.02439 80.78049 L 7.02439 80.78049 C 5.084658 80.78049 3.512195 79.20802 3.512195 77.26829 C 3.512195 75.32856 5.084658 73.7561 7.02439 73.7561 C 8.964121 73.7561 10.536585 75.32856 10.536585 77.26829 C 10.536585 79.20802 8.964121 80.78049 7.02439 80.78049 Z M 126.43902 42.14634 L 126.43902 42.14634 C 126.43902 40.20661 128.01148 38.634146 129.95121 38.634146 C 131.89094 38.634146 133.4634 40.20661 133.4634 42.14634 C 133.4634 44.086073 131.89094 45.658537 129.95121 45.658537 C 128.01148 45.658537 126.43902 44.086073 126.43902 42.14634 Z M 10.536585 42.14634 L 10.536585 42.14634 C 10.536585 44.086073 8.964121 45.658537 7.02439 45.658537 C 5.084658 45.658537 3.512195 44.086073 3.512195 42.14634 C 3.512195 40.20661 5.084658 38.634146 7.02439 38.634146 C 8.964121 38.634146 10.536585 40.20661 10.536585 42.14634 Z M 28.09756 45.658537 L 38.634144 45.658537 L 38.634144 59.70732 L 28.09756 59.70732 Z M 28.09756 66.73171 L 38.634144 66.73171 L 38.634144 80.78049 L 28.09756 80.78049 Z M 28.09756 87.80488 L 38.634144 87.80488 L 38.634144 101.85366 L 28.09756 101.85366 Z M 28.09756 108.87805 L 38.634144 108.87805 L 38.634144 122.92683 L 28.09756 122.92683 Z M 45.658534 45.658537 L 56.19512 45.658537 L 56.19512 59.70732 L 45.658534 59.70732 Z M 45.658534 66.73171 L 56.19512 66.73171 L 56.19512 80.78049 L 45.658534 80.78049 Z M 45.658534 87.80488 L 56.19512 87.80488 L 56.19512 101.85366 L 45.658534 101.85366 Z M 45.658534 108.87805 L 56.19512 108.87805 L 56.19512 122.92683 L 45.658534 122.92683 Z M 63.21951 45.658537 L 73.75609 45.658537 L 73.75609 59.70732 L 63.21951 59.70732 Z M 63.21951 66.73171 L 73.75609 66.73171 L 73.75609 80.78049 L 63.21951 80.78049 Z M 63.21951 87.80488 L 73.75609 87.80488 L 73.75609 101.85366 L 63.21951 101.85366 Z M 63.21951 108.87805 L 73.75609 108.87805 L 73.75609 122.92683 L 63.21951 122.92683 Z M 80.78048 45.658537 L 91.31707 45.658537 L 91.31707 59.70732 L 80.78048 59.70732 Z M 80.78048 66.73171 L 91.31707 66.73171 L 91.31707 80.78049 L 80.78048 80.78049 Z M 80.78048 87.80488 L 91.31707 87.80488 L 91.31707 101.85366 L 80.78048 101.85366 Z M 80.78048 108.87805 L 91.31707 108.87805 L 91.31707 122.92683 L 80.78048 122.92683 Z M 98.34146 45.658537 L 108.87804 45.658537 L 108.87804 59.70732 L 98.34146 59.70732 Z M 98.34146 66.73171 L 108.87804 66.73171 L 108.87804 80.78049 L 98.34146 80.78049 Z M 98.34146 87.80488 L 108.87804 87.80488 L 108.87804 101.85366 L 98.34146 101.85366 Z M 98.34146 108.87805 L 108.87804 108.87805 L 108.87804 122.92683 L 98.34146 122.92683 Z M 115.90243 21.07317 L 112.39024 14.04878 L 108.87804 21.07317 L 98.34146 21.07317 L 98.34146 14.04878 L 94.82926 7.02439 L 91.31707 14.04878 L 91.31707 21.07317 L 80.78048 21.07317 L 80.78048 7.02439 L 77.26829 0 L 73.75609 7.02439 L 73.75609 21.07317 L 63.21951 21.07317 L 63.21951 7.02439 L 59.70731 0 L 56.19512 7.02439 L 56.19512 21.07317 L 45.658534 21.07317 L 45.658534 14.04878 L 42.14634 7.02439 L 38.634144 14.04878 L 38.634144 21.07317 L 28.09756 21.07317 L 24.585364 14.04878 L 21.07317 21.07317 L 21.07317 28.09756 L 115.90243 28.09756 Z M 128.19511 123.14813 C 125.16545 123.92791 122.92682 126.67814 122.92682 129.95122 C 122.92682 133.83068 126.07175 136.97561 129.95121 136.97561 C 133.83067 136.97561 136.9756 133.83068 136.9756 129.95122 C 136.9756 126.67814 134.73698 123.92791 131.70731 123.14813 L 131.70731 119.19334 C 134.73698 118.41355 136.9756 115.66333 136.9756 112.39024 C 136.9756 109.11716 134.73698 106.36694 131.70731 105.58715 L 131.70731 101.63236 C 134.73698 100.85258 136.9756 98.10235 136.9756 94.82927 C 136.9756 91.55618 134.73698 88.80596 131.70731 88.02618 L 131.70731 84.07138 C 134.73698 83.2916 136.9756 80.54138 136.9756 77.26829 C 136.9756 73.99521 134.73698 71.24498 131.70731 70.4652 L 131.70731 66.51041 C 134.73698 65.730626 136.9756 62.9804 136.9756 59.70732 C 136.9756 56.43423 134.73698 53.68401 131.70731 52.904226 L 131.70731 48.94943 C 134.73698 48.16965 136.9756 45.419425 136.9756 42.14634 C 136.9756 38.26688 133.83067 35.12195 129.95121 35.12195 C 126.67813 35.12195 123.9279 37.360577 123.14812 40.390244 L 115.90243 40.390244 L 115.90243 38.634146 L 108.87804 38.634146 L 98.34146 38.634146 L 91.31707 38.634146 L 80.78048 38.634146 L 73.75609 38.634146 L 63.21951 38.634146 L 56.19512 38.634146 L 45.658534 38.634146 L 38.634144 38.634146 L 28.09756 38.634146 L 21.07317 38.634146 L 21.07317 40.390244 L 13.82748 40.390244 C 13.047698 37.360577 10.297473 35.12195 7.02439 35.12195 C 3.1449264 35.12195 0 38.26688 0 42.14634 C 0 45.419425 2.2386252 48.16965 5.2682924 48.94943 L 5.2682924 52.904226 C 2.2386252 53.68401 14210855e-21 56.43423 14210855e-21 59.70732 C 14210855e-21 62.9804 2.2386252 65.730626 5.2682924 66.51041 L 5.2682924 66.51041 L 5.2682924 66.51041 L 5.2682924 70.4652 C 2.2386252 71.24498 14210855e-21 73.99521 14210855e-21 77.26829 C 14210855e-21 80.54138 2.2386252 83.2916 5.2682924 84.07138 L 5.2682924 84.07138 L 5.2682924 84.07138 L 5.2682924 88.02618 C 2.2386252 88.80596 14210855e-21 91.55618 14210855e-21 94.82927 C 14210855e-21 98.10235 2.2386252 100.85258 5.2682924 101.63236 L 5.2682924 101.63236 L 5.2682924 101.63236 L 5.2682924 105.58715 C 2.2386252 106.36694 14210855e-21 109.11716 14210855e-21 112.39024 C 14210855e-21 115.66333 2.2386252 118.41355 5.2682924 119.19334 L 5.2682924 119.19334 L 5.2682924 123.14813 C 2.2386252 123.92791 14210855e-21 126.67814 14210855e-21 129.95122 C 14210855e-21 133.83068 3.1449264 136.97561 7.02439 136.97561 C 10.903853 136.97561 14.04878 133.83068 14.04878 129.95122 C 14.04878 126.67814 11.810154 123.92791 8.780487 123.14813 L 8.780487 119.19334 C 11.810154 118.41355 14.04878 115.66333 14.04878 112.39024 C 14.04878 109.11716 11.810154 106.36694 8.780487 105.58715 L 8.780487 101.63236 C 11.810154 100.85258 14.04878 98.10235 14.04878 94.82927 C 14.04878 91.55618 11.810154 88.80596 8.780487 88.02618 L 8.780487 84.07138 C 11.810154 83.2916 14.04878 80.54138 14.04878 77.26829 C 14.04878 73.99521 11.810154 71.24498 8.780487 70.4652 L 8.780487 66.51041 C 11.810154 65.730626 14.04878 62.9804 14.04878 59.70732 C 14.04878 56.43423 11.810154 53.68401 8.780487 52.904226 L 8.780487 48.94943 C 11.24887 48.314115 13.192163 46.37082 13.82748 43.90244 L 21.07317 43.90244 L 21.07317 45.658537 L 21.07317 59.70732 L 21.07317 66.73171 L 21.07317 80.78049 L 21.07317 87.80488 L 21.07317 101.85366 L 21.07317 108.87805 L 21.07317 122.92683 L 21.07317 129.95122 L 21.07317 136.97561 L 24.585364 144 L 28.09756 136.97561 L 28.09756 129.95122 L 38.634144 129.95122 L 38.634144 136.97561 L 42.14634 144 L 45.658534 136.97561 L 45.658534 129.95122 L 56.19512 129.95122 L 56.19512 136.97561 L 59.70731 144 L 63.21951 136.97561 L 63.21951 129.95122 L 73.75609 129.95122 L 73.75609 136.97561 L 77.26829 144 L 80.78048 136.97561 L 80.78048 129.95122 L 91.31707 129.95122 L 91.31707 136.97561 L 94.82926 144 L 98.34146 136.97561 L 98.34146 129.95122 L 108.87804 129.95122 L 108.87804 136.97561 L 112.39024 144 L 115.90243 136.97561 L 115.90243 129.95122 L 115.90243 122.92683 L 115.90243 108.87805 L 115.90243 101.85366 L 115.90243 87.80488 L 115.90243 80.78049 L 115.90243 66.73171 L 115.90243 59.70732 L 115.90243 45.658537 L 115.90243 43.90244 L 123.14812 43.90244 C 123.78344 46.37082 125.72673 48.314115 128.19511 48.94943 L 128.19511 52.904226 C 125.16545 53.68401 122.92682 56.43423 122.92682 59.70732 C 122.92682 62.9804 125.16545 65.730626 128.19511 66.51041 L 128.19511 66.51041 L 128.19511 66.51041 L 128.19511 70.4652 C 125.16545 71.24498 122.92682 73.99521 122.92682 77.26829 C 122.92682 80.54138 125.16545 83.2916 128.19511 84.07138 L 128.19511 84.07138 L 128.19511 84.07138 L 128.19511 88.02618 C 125.16545 88.80596 122.92682 91.55618 122.92682 94.82927 C 122.92682 98.10235 125.16545 100.85258 128.19511 101.63236 L 128.19511 101.63236 L 128.19511 101.63236 L 128.19511 105.58715 C 125.16545 106.36694 122.92682 109.11716 122.92682 112.39024 C 122.92682 115.66333 125.16545 118.41355 128.19511 119.19334 L 128.19511 119.19334 Z M 129.95121 126.43902 C 131.89094 126.43902 133.4634 128.01149 133.4634 129.95122 C 133.4634 131.89095 131.89094 133.46341 129.95121 133.46341 C 128.01148 133.46341 126.43902 131.89095 126.43902 129.95122 C 126.43902 128.01149 128.01148 126.43902 129.95121 126.43902 Z M 7.02439 126.43902 C 8.964121 126.43902 10.536585 128.01149 10.536585 129.95122 C 10.536585 131.89095 8.964121 133.46341 7.02439 133.46341 C 5.084658 133.46341 3.512195 131.89095 3.512195 129.95122 C 3.512195 128.01149 5.084658 126.43902 7.02439 126.43902 Z M 129.95121 108.87805 C 131.89094 108.87805 133.4634 110.45051 133.4634 112.39024 C 133.4634 114.32998 131.89094 115.90244 129.95121 115.90244 C 128.01148 115.90244 126.43902 114.32998 126.43902 112.39024 C 126.43902 110.45051 128.01148 108.87805 129.95121 108.87805 Z M 7.02439 108.87805 C 8.964121 108.87805 10.536585 110.45051 10.536585 112.39024 C 10.536585 114.32998 8.964121 115.90244 7.02439 115.90244 C 5.084658 115.90244 3.512195 114.32998 3.512195 112.39024 C 3.512195 110.45051 5.084658 108.87805 7.02439 108.87805 Z M 129.95121 91.31707 C 131.89094 91.31707 133.4634 92.88954 133.4634 94.82927 C 133.4634 96.769 131.89094 98.34146 129.95121 98.34146 C 128.01148 98.34146 126.43902 96.769 126.43902 94.82927 C 126.43902 92.88954 128.01148 91.31707 129.95121 91.31707 Z M 7.02439 91.31707 C 8.964121 91.31707 10.536585 92.88954 10.536585 94.82927 C 10.536585 96.769 8.964121 98.34146 7.02439 98.34146 C 5.084658 98.34146 3.512195 96.769 3.512195 94.82927 C 3.512195 92.88954 5.084658 91.31707 7.02439 91.31707 Z M 129.95121 56.19512 C 131.89094 56.19512 133.4634 57.767585 133.4634 59.70732 C 133.4634 61.64705 131.89094 63.21951 129.95121 63.21951 C 128.01148 63.21951 126.43902 61.64705 126.43902 59.70732 C 126.43902 57.767585 128.01148 56.19512 129.95121 56.19512 Z M 7.02439 56.19512 C 8.964121 56.19512 10.536585 57.767585 10.536585 59.70732 C 10.536585 61.64705 8.964121 63.21951 7.02439 63.21951 C 5.084658 63.21951 3.512195 61.64705 3.512195 59.70732 C 3.512195 57.767585 5.084658 56.19512 7.02439 56.19512 Z" stroke="black" stroke-linecap="square" stroke-linejoin="miter" stroke-width="1"/>
        </g>
        <g id="Group_55">
          <g id="Graphic_73">
            <path d="M 13.82748 43.90244 L 21.07317 43.90244 L 21.07317 40.390244 L 13.82748 40.390244 C 13.047698 37.360577 10.297473 35.12195 7.02439 35.12195 C 3.1449264 35.12195 30198066e-21 38.26688 30198066e-21 42.14634 C 30198066e-21 45.419425 2.2386252 48.16965 5.2682924 48.94943 L 5.2682924 48.94943 L 5.2682924 56.19512 L 8.780487 56.19512 L 8.780487 48.94943 C 11.24887 48.314115 13.192163 46.37082 13.82748 43.90244 Z M 10.536585 42.14634 C 10.536585 44.086073 8.964121 45.658537 7.02439 45.658537 C 5.084658 45.658537 3.512195 44.086073 3.512195 42.14634 C 3.512195 40.20661 5.084658 38.634146 7.02439 38.634146 C 8.964121 38.634146 10.536585 40.20661 10.536585 42.14634 Z" fill="#de2e32"/>
          </g>
          <g id="Graphic_72">
            <path d="M 123.14812 40.390244 L 115.90243 40.390244 L 115.90243 43.90244 L 123.14812 43.90244 C 123.78344 46.37082 125.72673 48.314115 128.19511 48.94943 L 128.19511 56.19512 L 131.70731 56.19512 L 131.70731 48.94943 C 134.73698 48.16965 136.9756 45.419425 136.9756 42.14634 C 136.9756 38.26688 133.83067 35.12195 129.95121 35.12195 C 126.67813 35.12195 123.9279 37.360577 123.14812 40.390244 Z M 126.43902 42.14634 C 126.43902 40.20661 128.01148 38.634146 129.95121 38.634146 C 131.89094 38.634146 133.4634 40.20661 133.4634 42.14634 C 133.4634 44.086073 131.89094 45.658537 129.95121 45.658537 C 128.01148 45.658537 126.43902 44.086073 126.43902 42.14634 Z" fill="#b81cdd"/>
          </g>
          <g id="Graphic_71">
            <path d="M 5.2682924 66.51041 L 5.2682924 73.7561 L 8.780487 73.7561 L 8.780487 66.51041 C 11.810154 65.730626 14.04878 62.9804 14.04878 59.70732 C 14.04878 55.827853 10.903853 52.682927 7.02439 52.682927 C 3.1449264 52.682927 6306067e-20 55.827853 6306067e-20 59.70732 C 6306067e-20 62.9804 2.2386252 65.730626 5.2682924 66.51041 Z M 7.02439 63.21951 C 5.084658 63.21951 3.512195 61.64705 3.512195 59.70732 C 3.512195 57.767585 5.084658 56.19512 7.02439 56.19512 C 8.964121 56.19512 10.536585 57.767585 10.536585 59.70732 C 10.536585 61.64705 8.964121 63.21951 7.02439 63.21951 Z" fill="#ff7200"/>
          </g>
          <g id="Graphic_70">
            <path d="M 128.19511 66.51041 L 128.19511 73.7561 L 131.70731 73.7561 L 131.70731 66.51041 C 134.73698 65.730626 136.9756 62.9804 136.9756 59.70732 C 136.9756 55.827853 133.83067 52.682927 129.95121 52.682927 C 126.07175 52.682927 122.92682 55.827853 122.92682 59.70732 C 122.92682 62.9804 125.16545 65.730626 128.19511 66.51041 Z M 129.95121 63.21951 C 128.01148 63.21951 126.43902 61.64705 126.43902 59.70732 C 126.43902 57.767585 128.01148 56.19512 129.95121 56.19512 C 131.89094 56.19512 133.4634 57.767585 133.4634 59.70732 C 133.4634 61.64705 131.89094 63.21951 129.95121 63.21951 Z" fill="#0a78ff"/>
          </g>
          <g id="Graphic_69">
            <path d="M 5.2682924 84.07138 L 5.2682924 91.31707 L 8.780487 91.31707 L 8.780487 84.07138 C 11.810154 83.2916 14.04878 80.54138 14.04878 77.26829 C 14.04878 73.38883 10.903853 70.2439 7.02439 70.2439 C 3.1449264 70.2439 6306067e-20 73.38883 6306067e-20 77.26829 C 6306067e-20 80.54138 2.2386252 83.2916 5.2682924 84.07138 Z M 7.02439 80.78049 C 5.084658 80.78049 3.512195 79.20802 3.512195 77.26829 C 3.512195 75.32856 5.084658 73.7561 7.02439 73.7561 C 8.964121 73.7561 10.536585 75.32856 10.536585 77.26829 C 10.536585 79.20802 8.964121 80.78049 7.02439 80.78049 Z" fill="#fbcf20"/>
          </g>
          <g id="Graphic_68">
            <path d="M 128.19511 84.07138 L 128.19511 91.31707 L 131.70731 91.31707 L 131.70731 84.07138 C 134.73698 83.2916 136.9756 80.54138 136.9756 77.26829 C 136.9756 73.38883 133.83067 70.2439 129.95121 70.2439 C 126.07175 70.2439 122.92682 73.38883 122.92682 77.26829 C 122.92682 80.54138 125.16545 83.2916 128.19511 84.07138 Z M 129.95121 80.78049 C 128.01148 80.78049 126.43902 79.20802 126.43902 77.26829 C 126.43902 75.32856 128.01148 73.7561 129.95121 73.7561 C 131.89094 73.7561 133.4634 75.32856 133.4634 77.26829 C 133.4634 79.20802 131.89094 80.78049 129.95121 80.78049 Z" fill="#00ba5d"/>
          </g>
          <g id="Graphic_67">
            <path d="M 5.2682924 101.63236 L 5.2682924 108.87805 L 8.780487 108.87805 L 8.780487 101.63236 C 11.810154 100.85258 14.04878 98.10235 14.04878 94.82927 C 14.04878 90.9498 10.903853 87.80488 7.02439 87.80488 C 3.1449264 87.80488 6306067e-20 90.9498 6306067e-20 94.82927 C 6306067e-20 98.10235 2.2386252 100.85258 5.2682924 101.63236 Z M 7.02439 98.34146 C 5.084658 98.34146 3.512195 96.769 3.512195 94.82927 C 3.512195 92.88954 5.084658 91.31707 7.02439 91.31707 C 8.964121 91.31707 10.536585 92.88954 10.536585 94.82927 C 10.536585 96.769 8.964121 98.34146 7.02439 98.34146 Z" fill="#00ba5d"/>
          </g>
          <g id="Graphic_66">
            <path d="M 128.19511 101.63236 L 128.19511 108.87805 L 131.70731 108.87805 L 131.70731 101.63236 C 134.73698 100.85258 136.9756 98.10235 136.9756 94.82927 C 136.9756 90.9498 133.83067 87.80488 129.95121 87.80488 C 126.07175 87.80488 122.92682 90.9498 122.92682 94.82927 C 122.92682 98.10235 125.16545 100.85258 128.19511 101.63236 Z M 129.95121 98.34146 C 128.01148 98.34146 126.43902 96.769 126.43902 94.82927 C 126.43902 92.88954 128.01148 91.31707 129.95121 91.31707 C 131.89094 91.31707 133.4634 92.88954 133.4634 94.82927 C 133.4634 96.769 131.89094 98.34146 129.95121 98.34146 Z" fill="#fbcf20"/>
          </g>
          <g id="Graphic_65">
            <path d="M 5.2682924 119.19334 L 5.2682924 126.43902 L 8.780487 126.43902 L 8.780487 119.19334 C 11.810154 118.41355 14.04878 115.66333 14.04878 112.39024 C 14.04878 108.51078 10.903853 105.36585 7.02439 105.36585 C 3.1449264 105.36585 6306067e-20 108.51078 6306067e-20 112.39024 C 6306067e-20 115.66333 2.2386252 118.41355 5.2682924 119.19334 Z M 7.02439 115.90244 C 5.084658 115.90244 3.512195 114.32998 3.512195 112.39024 C 3.512195 110.45051 5.084658 108.87805 7.02439 108.87805 C 8.964121 108.87805 10.536585 110.45051 10.536585 112.39024 C 10.536585 114.32998 8.964121 115.90244 7.02439 115.90244 Z" fill="#0a78ff"/>
          </g>
          <g id="Graphic_64">
            <path d="M 128.19511 119.19334 L 128.19511 126.43902 L 131.70731 126.43902 L 131.70731 119.19334 C 134.73698 118.41355 136.9756 115.66333 136.9756 112.39024 C 136.9756 108.51078 133.83067 105.36585 129.95121 105.36585 C 126.07175 105.36585 122.92682 108.51078 122.92682 112.39024 C 122.92682 115.66333 125.16545 118.41355 128.19511 119.19334 Z M 129.95121 115.90244 C 128.01148 115.90244 126.43902 114.32998 126.43902 112.39024 C 126.43902 110.45051 128.01148 108.87805 129.95121 108.87805 C 131.89094 108.87805 133.4634 110.45051 133.4634 112.39024 C 133.4634 114.32998 131.89094 115.90244 129.95121 115.90244 Z" fill="#ff7200"/>
          </g>
          <g id="Graphic_63">
            <path d="M 14.04878 129.95122 L 14.04878 129.95122 C 14.04878 133.83068 10.903853 136.97561 7.02439 136.97561 L 7.02439 136.97561 C 3.1449264 136.97561 63535765e-21 133.83068 6306067e-20 129.95122 L 6306067e-20 129.95122 C 6258557e-20 126.07176 3.1449264 122.92683 7.02439 122.92683 L 7.02439 122.92683 C 10.903853 122.92683 14.04878 126.07176 14.04878 129.95122 Z M 7.02439 126.43902 L 7.02439 126.43902 C 5.084658 126.43902 3.512195 128.01149 3.512195 129.95122 L 3.512195 129.95122 C 3.512195 131.89095 5.084658 133.46341 7.02439 133.46341 L 7.02439 133.46341 C 8.964121 133.46341 10.536585 131.89095 10.536585 129.95122 L 10.536585 129.95122 C 10.536585 128.01149 8.964121 126.43902 7.02439 126.43902 Z" fill="#b81cdd"/>
          </g>
          <g id="Graphic_62">
            <path d="M 136.9756 129.95122 L 136.9756 129.95122 C 136.9756 133.83068 133.83067 136.97561 129.95121 136.97561 L 129.95121 136.97561 C 126.07175 136.97561 122.92682 133.83068 122.92682 129.95122 L 122.92682 129.95122 C 122.92682 126.07176 126.07175 122.92683 129.95121 122.92683 L 129.95121 122.92683 C 133.83067 122.92683 136.9756 126.07176 136.9756 129.95122 Z M 129.95121 126.43902 L 129.95121 126.43902 C 128.01148 126.43902 126.43902 128.01149 126.43902 129.95122 L 126.43902 129.95122 C 126.43902 131.89095 128.01148 133.46341 129.95121 133.46341 L 129.95121 133.46341 C 131.89094 133.46341 133.4634 131.89095 133.4634 129.95122 L 133.4634 129.95122 C 133.4634 128.01149 131.89094 126.43902 129.95121 126.43902 Z" fill="#de2e32"/>
          </g>
          <g id="Graphic_61">
            <path d="M 38.634144 38.634146 L 28.09756 38.634146 L 28.09756 45.658537 L 38.634144 45.658537 L 38.634144 80.78049 L 28.09756 80.78049 L 28.09756 87.80488 L 38.634144 87.80488 L 38.634144 101.85366 L 28.09756 101.85366 L 28.09756 108.87805 L 38.634144 108.87805 L 38.634144 122.92683 L 28.09756 122.92683 L 28.09756 129.95122 L 38.634144 129.95122 L 38.634144 136.97561 L 42.14634 144 L 45.658534 136.97561 L 45.658534 108.87805 L 56.19512 108.87805 L 56.19512 101.85366 L 45.658534 101.85366 L 45.658534 66.73171 L 56.19512 66.73171 L 56.19512 59.70732 L 45.658534 59.70732 L 45.658534 38.634146 Z M 28.09756 28.09756 L 45.658534 28.09756 L 45.658534 21.07317 L 45.658534 14.04878 L 42.14634 7.02439 L 38.634144 14.04878 L 38.634144 21.07317 L 28.09756 21.07317 Z" fill="#ff7200"/>
          </g>
          <g id="Graphic_60">
            <path d="M 63.21951 28.09756 L 63.21951 21.07317 L 63.21951 7.02439 L 59.70731 2842171e-20 L 56.19512 7.02439 L 56.19512 21.07317 L 45.658534 21.07317 L 45.658534 28.09756 Z M 56.19512 38.634146 L 45.658534 38.634146 L 45.658534 45.658537 L 56.19512 45.658537 L 56.19512 80.78049 L 45.658534 80.78049 L 45.658534 87.80488 L 56.19512 87.80488 L 56.19512 122.92683 L 45.658534 122.92683 L 45.658534 129.95122 L 56.19512 129.95122 L 56.19512 136.97561 L 59.70731 144 L 63.21951 136.97561 L 63.21951 108.87805 L 73.75609 108.87805 L 73.75609 101.85366 L 63.21951 101.85366 L 63.21951 66.73171 L 73.75609 66.73171 L 73.75609 59.70732 L 63.21951 59.70732 L 63.21951 38.634146 Z" fill="#fbcf20"/>
          </g>
          <g id="Graphic_59">
            <path d="M 63.21951 28.09756 L 80.78048 28.09756 L 80.78048 21.07317 L 80.78048 7.02439 L 77.26829 7105427e-20 L 73.75609 7.02439 L 73.75609 21.07317 L 63.21951 21.07317 Z M 73.75609 38.634146 L 63.21951 38.634146 L 63.21951 45.658537 L 73.75609 45.658537 L 73.75609 80.78049 L 63.21951 80.78049 L 63.21951 87.80488 L 73.75609 87.80488 L 73.75609 122.92683 L 63.21951 122.92683 L 63.21951 129.95122 L 73.75609 129.95122 L 73.75609 136.97561 L 77.26829 144 L 80.78048 136.97561 L 80.78048 108.87805 L 91.31707 108.87805 L 91.31707 101.85366 L 80.78048 101.85366 L 80.78048 66.73171 L 91.31707 66.73171 L 91.31707 59.70732 L 80.78048 59.70732 L 80.78048 38.634146 Z" fill="#00ba5d"/>
          </g>
          <g id="Graphic_58">
            <path d="M 80.78048 28.09756 L 98.34146 28.09756 L 98.34146 21.07317 L 98.34146 14.04878 L 94.82926 7.02439 L 91.31707 14.04878 L 91.31707 21.07317 L 80.78048 21.07317 Z M 91.31707 38.634146 L 80.78048 38.634146 L 80.78048 45.658537 L 91.31707 45.658537 L 91.31707 80.78049 L 80.78048 80.78049 L 80.78048 87.80488 L 91.31707 87.80488 L 91.31707 122.92683 L 80.78048 122.92683 L 80.78048 129.95122 L 91.31707 129.95122 L 91.31707 136.97561 L 94.82926 144 L 98.34146 136.97561 L 98.34146 108.87805 L 108.87804 108.87805 L 108.87804 101.85366 L 98.34146 101.85366 L 98.34146 66.73171 L 108.87804 66.73171 L 108.87804 59.70732 L 98.34146 59.70732 L 98.34146 38.634146 Z" fill="#0a78ff"/>
          </g>
          <g id="Graphic_57">
            <path d="M 21.07317 28.09756 L 28.09756 28.09756 L 28.09756 21.07317 L 24.585364 14.04878 L 21.07317 21.07317 Z M 21.07317 38.634146 L 21.07317 136.97561 L 24.585364 144 L 28.09756 136.97561 L 28.09756 108.87805 L 38.634144 108.87805 L 38.634144 101.85366 L 28.09756 101.85366 L 28.09756 66.73171 L 38.634144 66.73171 L 38.634144 59.70732 L 28.09756 59.70732 L 28.09756 38.634146 Z" fill="#de2e32"/>
          </g>
          <g id="Graphic_56">
            <path d="M 98.34146 28.09756 L 115.90243 28.09756 L 115.90243 21.07317 L 112.39024 14.04878 L 108.87804 21.07317 L 98.34146 21.07317 Z M 108.87804 38.634146 L 98.34146 38.634146 L 98.34146 45.658537 L 108.87804 45.658537 L 108.87804 80.78049 L 98.34146 80.78049 L 98.34146 87.80488 L 108.87804 87.80488 L 108.87804 122.92683 L 98.34146 122.92683 L 98.34146 129.95122 L 108.87804 129.95122 L 108.87804 136.97561 L 112.39024 144 L 115.90243 136.97561 L 115.90243 38.634146 Z" fill="#b81cdd"/>
          </g>
        </g>
      </g>
    </g>
  </g>
</svg>
