<?xml version="1.0" encoding="UTF-8" standalone="no"?>
<!DOCTYPE svg PUBLIC "-//W3C//DTD SVG 1.1//EN" "http://www.w3.org/Graphics/SVG/1.1/DTD/svg11.dtd">
<svg xmlns:xl="http://www.w3.org/1999/xlink" xmlns="http://www.w3.org/2000/svg" xmlns:dc="http://purl.org/dc/elements/1.1/" version="1.1" viewBox="67.5 82.5 585 570" width="585" height="570">
  <defs/>
  <metadata> Produced by OmniGraffle 7.18.5\n2021-08-08 21:07:23 +0000</metadata>
  <g id="portcullis-no-grid" stroke-dasharray="none" fill="none" stroke="none" stroke-opacity="1" fill-opacity="1">
    <title>portcullis-no-grid</title>
    <g id="portcullis-no-grid_colour">
      <title>colour</title>
      <g id="Graphic_162">
        <path d="M 607.5 262.5 L 607.5 262.5 C 607.5 254.21573 614.2157 247.5 622.5 247.5 C 630.7843 247.5 637.5 254.21573 637.5 262.5 C 637.5 270.78427 630.7843 277.5 622.5 277.5 C 614.2157 277.5 607.5 270.78427 607.5 262.5 Z M 157.5 202.5 L 562.5 202.5 L 562.5 172.5 L 547.5 142.5 L 532.5 172.5 L 487.5 172.5 L 487.5 142.5 L 472.5 112.5 L 457.5 142.5 L 457.5 172.5 L 412.5 172.5 L 412.5 112.5 L 397.5 82.5 L 382.5 112.5 L 382.5 172.5 L 337.5 172.5 L 337.5 112.5 L 322.5 82.5 L 307.5 112.5 L 307.5 172.5 L 262.5 172.5 L 262.5 142.5 L 247.5 112.5 L 232.5 142.5 L 232.5 172.5 L 187.5 172.5 L 172.5 142.5 L 157.5 172.5 Z M 126.55487 270 L 157.5 270 L 157.5 255 L 126.55487 255 C 123.22455 242.0608 111.4788 232.5 97.5 232.5 C 80.93146 232.5 67.5 245.93146 67.5 262.5 C 67.5 276.4788 77.0608 288.22455 90 291.55487 L 90 315 L 105 315 L 105 291.55487 C 115.54205 288.84153 123.84153 280.54205 126.55487 270 L 126.55487 270 Z M 112.5 262.5 L 112.5 262.5 C 112.5 270.78427 105.78427 277.5 97.5 277.5 C 89.21573 277.5 82.5 270.78427 82.5 262.5 C 82.5 254.21573 89.21573 247.5 97.5 247.5 C 105.78427 247.5 112.5 254.21573 112.5 262.5 Z M 562.5 270 L 593.4451 270 C 596.1585 280.54205 604.45795 288.84153 615 291.55487 L 615 315 L 630 315 L 630 291.55487 C 642.9392 288.22455 652.5 276.4788 652.5 262.5 C 652.5 245.93146 639.06854 232.5 622.5 232.5 C 608.5212 232.5 596.77545 242.0608 593.4451 255 L 562.5 255 L 562.5 232.5 L 157.5 232.5 L 157.5 300 L 562.5 300 Z" fill="#de2e32"/>
      </g>
      <g id="Graphic_163">
        <path d="M 90 359.05487 L 90 382.5 L 105 382.5 L 105 359.05487 C 117.9392 355.72455 127.5 343.9788 127.5 330 C 127.5 313.43146 114.06854 300 97.5 300 C 80.93146 300 67.5 313.43146 67.5 330 C 67.5 343.9788 77.0608 355.72455 90 359.05487 Z M 97.5 345 L 97.5 345 C 89.21573 345 82.5 338.28427 82.5 330 C 82.5 321.71573 89.21573 315 97.5 315 C 105.78427 315 112.5 321.71573 112.5 330 C 112.5 338.28427 105.78427 345 97.5 345 Z M 157.5 300 L 157.5 367.5 L 562.5 367.5 L 562.5 300 Z M 630 359.05487 L 630 359.05487 L 630 359.05487 L 630 359.05487 C 642.9392 355.72455 652.5 343.9788 652.5 330 C 652.5 313.43146 639.06854 300 622.5 300 C 605.93146 300 592.5 313.43146 592.5 330 C 592.5 343.9788 602.0608 355.72455 615 359.05487 L 615 382.5 L 630 382.5 Z M 622.5 345 L 622.5 345 C 614.2157 345 607.5 338.28427 607.5 330 C 607.5 321.71573 614.2157 315 622.5 315 C 630.7843 315 637.5 321.71573 637.5 330 C 637.5 338.28427 630.7843 345 622.5 345 Z" fill="#ff7200"/>
      </g>
      <g id="Graphic_164">
        <path d="M 90 426.55487 L 90 450 L 105 450 L 105 426.55487 C 117.9392 423.22455 127.5 411.4788 127.5 397.5 C 127.5 380.93146 114.06854 367.5 97.5 367.5 C 80.93146 367.5 67.5 380.93146 67.5 397.5 C 67.5 411.4788 77.0608 423.22455 90 426.55487 L 90 426.55487 L 90 426.55487 Z M 97.5 412.5 L 97.5 412.5 C 89.21573 412.5 82.5 405.78427 82.5 397.5 C 82.5 389.21573 89.21573 382.5 97.5 382.5 C 105.78427 382.5 112.5 389.21573 112.5 397.5 C 112.5 405.78427 105.78427 412.5 97.5 412.5 Z M 157.5 367.5 L 157.5 435 L 562.5 435 L 562.5 367.5 Z M 630 426.55487 L 630 426.55487 L 630 426.55487 L 630 426.55487 C 642.9392 423.22455 652.5 411.4788 652.5 397.5 C 652.5 380.93146 639.06854 367.5 622.5 367.5 C 605.93146 367.5 592.5 380.93146 592.5 397.5 C 592.5 411.4788 602.0608 423.22455 615 426.55487 L 615 450 L 630 450 Z M 622.5 412.5 L 622.5 412.5 C 614.2157 412.5 607.5 405.78427 607.5 397.5 C 607.5 389.21573 614.2157 382.5 622.5 382.5 C 630.7843 382.5 637.5 389.21573 637.5 397.5 C 637.5 405.78427 630.7843 412.5 622.5 412.5 Z" fill="#fbcf20"/>
      </g>
      <g id="Graphic_165">
        <path d="M 90 494.05487 L 90 517.5 L 105 517.5 L 105 494.05487 C 117.9392 490.72455 127.5 478.9788 127.5 465 C 127.5 448.43146 114.06854 435 97.5 435 C 80.93146 435 67.5 448.43146 67.5 465 C 67.5 478.9788 77.0608 490.72455 90 494.05487 L 90 494.05487 Z M 97.5 480 L 97.5 480 C 89.21573 480 82.5 473.28427 82.5 465 C 82.5 456.71573 89.21573 450 97.5 450 C 105.78427 450 112.5 456.71573 112.5 465 C 112.5 473.28427 105.78427 480 97.5 480 Z M 157.5 435 L 157.5 502.5 L 562.5 502.5 L 562.5 435 Z M 630 494.05487 L 630 494.05487 C 642.9392 490.72455 652.5 478.9788 652.5 465 C 652.5 448.43146 639.06854 435 622.5 435 C 605.93146 435 592.5 448.43146 592.5 465 C 592.5 478.9788 602.0608 490.72455 615 494.05487 L 615 517.5 L 630 517.5 Z M 622.5 480 L 622.5 480 C 614.2157 480 607.5 473.28427 607.5 465 C 607.5 456.71573 614.2157 450 622.5 450 C 630.7843 450 637.5 456.71573 637.5 465 C 637.5 473.28427 630.7843 480 622.5 480 Z" fill="#00ba5d"/>
      </g>
      <g id="Graphic_166">
        <path d="M 90 561.5549 L 90 585 L 105 585 L 105 561.5549 C 117.9392 558.22455 127.5 546.4788 127.5 532.5 C 127.5 515.93146 114.06854 502.5 97.5 502.5 C 80.93146 502.5 67.5 515.93146 67.5 532.5 C 67.5 546.4788 77.0608 558.22455 90 561.5549 Z M 97.5 547.5 L 97.5 547.5 C 89.21573 547.5 82.5 540.7843 82.5 532.5 C 82.5 524.2157 89.21573 517.5 97.5 517.5 C 105.78427 517.5 112.5 524.2157 112.5 532.5 C 112.5 540.7843 105.78427 547.5 97.5 547.5 Z M 157.5 502.5 L 157.5 570 L 562.5 570 L 562.5 502.5 Z M 630 561.5549 L 630 561.5549 L 630 561.5549 C 642.9392 558.22455 652.5 546.4788 652.5 532.5 C 652.5 515.93146 639.06854 502.5 622.5 502.5 C 605.93146 502.5 592.5 515.93146 592.5 532.5 C 592.5 546.4788 602.0608 558.22455 615 561.5549 L 615 585 L 630 585 Z M 622.5 547.5 L 622.5 547.5 C 614.2157 547.5 607.5 540.7843 607.5 532.5 C 607.5 524.2157 614.2157 517.5 622.5 517.5 C 630.7843 517.5 637.5 524.2157 637.5 532.5 C 637.5 540.7843 630.7843 547.5 622.5 547.5 Z" fill="#0a78ff"/>
      </g>
      <g id="Graphic_167">
        <path d="M 127.5 600 L 127.5 600 C 127.5 583.43146 114.06854 570 97.5 570 C 80.93146 570 67.5 583.43146 67.5 600 C 67.5 616.56854 80.93146 630 97.5 630 C 114.06854 630 127.5 616.56854 127.5 600 Z M 97.5 585 L 97.5 585 C 105.78427 585 112.5 591.7157 112.5 600 C 112.5 608.2843 105.78427 615 97.5 615 C 89.21573 615 82.5 608.2843 82.5 600 C 82.5 591.7157 89.21573 585 97.5 585 Z M 157.5 592.5 L 157.5 592.5 L 157.5 622.5 L 172.5 652.5 L 187.5 622.5 L 187.5 600 L 232.5 600 L 232.5 622.5 L 247.5 652.5 L 262.5 622.5 L 262.5 600 L 307.5 600 L 307.5 622.5 L 322.5 652.5 L 337.5 622.5 L 337.5 600 L 382.5 600 L 382.5 622.5 L 397.5 652.5 L 412.5 622.5 L 412.5 600 L 457.5 600 L 457.5 622.5 L 472.5 652.5 L 487.5 622.5 L 487.5 600 L 532.5 600 L 532.5 622.5 L 547.5 652.5 L 562.5 622.5 L 562.5 600 L 562.5 592.5 L 562.5 570 L 157.5 570 L 157.5 592.5 Z M 592.5 600 C 592.5 616.56854 605.93146 630 622.5 630 C 639.06854 630 652.5 616.56854 652.5 600 C 652.5 583.43146 639.06854 570 622.5 570 C 605.93146 570 592.5 583.43146 592.5 600 Z M 622.5 585 L 622.5 585 C 630.7843 585 637.5 591.7157 637.5 600 C 637.5 608.2843 630.7843 615 622.5 615 C 614.2157 615 607.5 608.2843 607.5 600 C 607.5 591.7157 614.2157 585 622.5 585 Z" fill="#b81cdd"/>
      </g>
    </g>
  </g>
</svg>
