<?xml version="1.0" encoding="UTF-8" standalone="no"?>
<!DOCTYPE svg PUBLIC "-//W3C//DTD SVG 1.1//EN" "http://www.w3.org/Graphics/SVG/1.1/DTD/svg11.dtd">
<svg xmlns:dc="http://purl.org/dc/elements/1.1/" version="1.1" xmlns:xl="http://www.w3.org/1999/xlink" xmlns="http://www.w3.org/2000/svg" viewBox="0 0 16 16" width="16" height="16">
  <defs/>
  <metadata> Produced by OmniGraffle 7.18.5\n2021-08-08 21:15:40 +0000</metadata>
  <g id="favicon-pinned-svg" stroke="none" stroke-dasharray="none" fill="none" stroke-opacity="1" fill-opacity="1">
    <title>favicon-pinned-svg</title>
    <g id="favicon-pinned-svg_Layer_1">
      <title>Layer 1</title>
      <g id="Graphic_88">
        <rect x="3" y="3" width="10" height="1" fill="black"/>
      </g>
      <g id="Graphic_87">
        <rect x="12" y="2" width="1" height="2" fill="black"/>
      </g>
      <g id="Graphic_86">
        <rect x="9" y="0" width="1" height="4" fill="black"/>
      </g>
      <g id="Graphic_85">
        <rect x="6" y="0" width="1" height="4" fill="black"/>
      </g>
      <g id="Graphic_84">
        <rect x="3" y="2" width="1" height="2" fill="black"/>
      </g>
      <g id="Graphic_81">
        <rect x="3" y="5" width="10" height="9" fill="black"/>
      </g>
      <g id="Graphic_80">
        <rect x="6" y="5" width="1" height="11" fill="black"/>
      </g>
      <g id="Graphic_79">
        <rect x="9" y="5" width="1" height="11" fill="black"/>
      </g>
      <g id="Graphic_78">
        <rect x="12" y="5" width="1" height="11" fill="black"/>
      </g>
      <g id="Graphic_77">
        <rect x="3" y="5" width="1" height="11" fill="black"/>
      </g>
      <g id="Graphic_74">
        <rect x="14" y="14" width="2" height="2" fill="black"/>
      </g>
      <g id="Graphic_73">
        <rect x="14" y="11" width="2" height="2" fill="black"/>
      </g>
      <g id="Graphic_72">
        <rect x="14" y="8" width="2" height="2" fill="black"/>
      </g>
      <g id="Graphic_71">
        <rect x="14" y="5" width="2" height="2" fill="black"/>
      </g>
      <g id="Graphic_70">
        <rect x="0" y="14" width="2" height="2" fill="black"/>
      </g>
      <g id="Graphic_69">
        <rect x="0" y="11" width="2" height="2" fill="black"/>
      </g>
      <g id="Graphic_68">
        <rect x="0" y="8" width="2" height="2" fill="black"/>
      </g>
      <g id="Graphic_67">
        <rect x="0" y="5" width="2" height="2" fill="black"/>
      </g>
    </g>
  </g>
</svg>
