<?xml version="1.0" encoding="UTF-8" standalone="no"?>
<!DOCTYPE svg PUBLIC "-//W3C//DTD SVG 1.1//EN" "http://www.w3.org/Graphics/SVG/1.1/DTD/svg11.dtd">
<svg xmlns:dc="http://purl.org/dc/elements/1.1/" version="1.1" xmlns:xl="http://www.w3.org/1999/xlink" xmlns="http://www.w3.org/2000/svg" viewBox="0 0 48 48" width="48" height="48">
  <defs/>
  <metadata> Produced by OmniGraffle 7.18.5\n2021-08-08 21:15:40 +0000</metadata>
  <g id="favicon" stroke="none" stroke-dasharray="none" fill="none" stroke-opacity="1" fill-opacity="1">
    <title>favicon</title>
    <g id="favicon_Layer_1">
      <title>Layer 1</title>
      <g id="Group_55">
        <g id="Graphic_61">
          <path d="M 44.30769 15.384615 L 44.30769 15.384615 C 44.30769 14.70488 44.858726 14.153846 45.53846 14.153846 C 46.218197 14.153846 46.76923 14.70488 46.76923 15.384615 C 46.76923 16.06435 46.218197 16.615385 45.53846 16.615385 C 44.858726 16.615385 44.30769 16.06435 44.30769 15.384615 Z M 7.384615 10.461538 L 40.615385 10.461538 L 40.615385 8 L 39.384615 5.5384615 L 38.153846 8 L 34.46154 8 L 34.46154 5.5384615 L 33.23077 3.076923 L 32 5.5384615 L 32 8 L 28.307692 8 L 28.307692 3.076923 L 27.076923 .6153846 L 25.846154 3.076923 L 25.846154 8 L 22.153846 8 L 22.153846 3.076923 L 20.923077 .6153846 L 19.692308 3.076923 L 19.692308 8 L 16 8 L 16 5.5384615 L 14.76923 3.076923 L 13.538462 5.5384615 L 13.538462 8 L 9.846154 8 L 8.615385 5.5384615 L 7.384615 8 Z M 4.8455277 16 L 7.384615 16 L 7.384615 14.76923 L 4.8455277 14.76923 C 4.5722706 13.707552 3.6085166 12.923077 2.4615385 12.923077 C 1.1020683 12.923077 7105427e-21 14.025145 7105427e-21 15.384615 C 7105427e-21 16.531593 .7844756 17.495348 1.8461538 17.768605 L 1.8461538 19.692308 L 3.076923 19.692308 L 3.076923 17.768605 C 3.941912 17.545972 4.622895 16.86499 4.8455277 16 L 4.8455277 16 Z M 3.6923077 15.384615 L 3.6923077 15.384615 C 3.6923077 16.06435 3.1412735 16.615385 2.4615385 16.615385 C 1.7818034 16.615385 1.2307692 16.06435 1.2307692 15.384615 C 1.2307692 14.70488 1.7818034 14.153846 2.4615385 14.153846 C 3.1412735 14.153846 3.6923077 14.70488 3.6923077 15.384615 Z M 40.615385 16 L 43.15447 16 C 43.377105 16.86499 44.05809 17.545972 44.923077 17.768605 L 44.923077 19.692308 L 46.153846 19.692308 L 46.153846 17.768605 C 47.215524 17.495348 48 16.531593 48 15.384615 C 48 14.025145 46.89793 12.923077 45.53846 12.923077 C 44.391483 12.923077 43.42773 13.707552 43.15447 14.76923 L 40.615385 14.76923 L 40.615385 12.923077 L 7.384615 12.923077 L 7.384615 18.461538 L 40.615385 18.461538 Z" fill="#de2e32"/>
        </g>
        <g id="Graphic_60">
          <path d="M 1.8461538 23.307066 L 1.8461538 25.23077 L 3.076923 25.23077 L 3.076923 23.307066 C 4.1386014 23.03381 4.923077 22.070055 4.923077 20.923077 C 4.923077 19.563607 3.8210086 18.461538 2.4615385 18.461538 C 1.1020683 18.461538 7105427e-21 19.563607 7105427e-21 20.923077 C 7105427e-21 22.070055 .7844756 23.03381 1.8461538 23.307066 Z M 2.4615385 22.153846 L 2.4615385 22.153846 C 1.7818034 22.153846 1.2307692 21.602812 1.2307692 20.923077 C 1.2307692 20.243342 1.7818034 19.692308 2.4615385 19.692308 C 3.1412735 19.692308 3.6923077 20.243342 3.6923077 20.923077 C 3.6923077 21.602812 3.1412735 22.153846 2.4615385 22.153846 Z M 7.384615 18.461538 L 7.384615 24 L 40.615385 24 L 40.615385 18.461538 Z M 46.153846 23.307066 L 46.153846 23.307066 L 46.153846 23.307066 L 46.153846 23.307066 C 47.215524 23.03381 48 22.070055 48 20.923077 C 48 19.563607 46.89793 18.461538 45.53846 18.461538 C 44.17899 18.461538 43.076923 19.563607 43.076923 20.923077 C 43.076923 22.070055 43.8614 23.03381 44.923077 23.307066 L 44.923077 25.23077 L 46.153846 25.23077 Z M 45.53846 22.153846 L 45.53846 22.153846 C 44.858726 22.153846 44.30769 21.602812 44.30769 20.923077 C 44.30769 20.243342 44.858726 19.692308 45.53846 19.692308 C 46.218197 19.692308 46.76923 20.243342 46.76923 20.923077 C 46.76923 21.602812 46.218197 22.153846 45.53846 22.153846 Z" fill="#ff7200"/>
        </g>
        <g id="Graphic_59">
          <path d="M 1.8461538 28.845528 L 1.8461538 30.76923 L 3.076923 30.76923 L 3.076923 28.845528 C 4.1386014 28.57227 4.923077 27.608517 4.923077 26.46154 C 4.923077 25.102068 3.8210086 24 2.4615385 24 C 1.1020683 24 7105427e-21 25.102068 7105427e-21 26.46154 C 7105427e-21 27.608517 .7844756 28.57227 1.8461538 28.845528 L 1.8461538 28.845528 L 1.8461538 28.845528 Z M 2.4615385 27.692308 L 2.4615385 27.692308 C 1.7818034 27.692308 1.2307692 27.141274 1.2307692 26.46154 C 1.2307692 25.781803 1.7818034 25.23077 2.4615385 25.23077 C 3.1412735 25.23077 3.6923077 25.781803 3.6923077 26.46154 C 3.6923077 27.141274 3.1412735 27.692308 2.4615385 27.692308 Z M 7.384615 24 L 7.384615 29.53846 L 40.615385 29.53846 L 40.615385 24 Z M 46.153846 28.845528 L 46.153846 28.845528 L 46.153846 28.845528 L 46.153846 28.845528 C 47.215524 28.57227 48 27.608517 48 26.46154 C 48 25.102068 46.89793 24 45.53846 24 C 44.17899 24 43.076923 25.102068 43.076923 26.46154 C 43.076923 27.608517 43.8614 28.57227 44.923077 28.845528 L 44.923077 30.76923 L 46.153846 30.76923 Z M 45.53846 27.692308 L 45.53846 27.692308 C 44.858726 27.692308 44.30769 27.141274 44.30769 26.46154 C 44.30769 25.781803 44.858726 25.23077 45.53846 25.23077 C 46.218197 25.23077 46.76923 25.781803 46.76923 26.46154 C 46.76923 27.141274 46.218197 27.692308 45.53846 27.692308 Z" fill="#fbcf20"/>
        </g>
        <g id="Graphic_58">
          <path d="M 1.8461538 34.38399 L 1.8461538 36.307692 L 3.076923 36.307692 L 3.076923 34.38399 C 4.1386014 34.110732 4.923077 33.14698 4.923077 32 C 4.923077 30.64053 3.8210086 29.53846 2.4615385 29.53846 C 1.1020683 29.53846 7105427e-21 30.64053 7105427e-21 32 C 7105427e-21 33.14698 .7844756 34.110732 1.8461538 34.38399 L 1.8461538 34.38399 Z M 2.4615385 33.23077 L 2.4615385 33.23077 C 1.7818034 33.23077 1.2307692 32.679735 1.2307692 32 C 1.2307692 31.320265 1.7818034 30.76923 2.4615385 30.76923 C 3.1412735 30.76923 3.6923077 31.320265 3.6923077 32 C 3.6923077 32.679735 3.1412735 33.23077 2.4615385 33.23077 Z M 7.384615 29.53846 L 7.384615 35.076923 L 40.615385 35.076923 L 40.615385 29.53846 Z M 46.153846 34.38399 L 46.153846 34.38399 C 47.215524 34.110732 48 33.14698 48 32 C 48 30.64053 46.89793 29.53846 45.53846 29.53846 C 44.17899 29.53846 43.076923 30.64053 43.076923 32 C 43.076923 33.14698 43.8614 34.110732 44.923077 34.38399 L 44.923077 36.307692 L 46.153846 36.307692 Z M 45.53846 33.23077 L 45.53846 33.23077 C 44.858726 33.23077 44.30769 32.679735 44.30769 32 C 44.30769 31.320265 44.858726 30.76923 45.53846 30.76923 C 46.218197 30.76923 46.76923 31.320265 46.76923 32 C 46.76923 32.679735 46.218197 33.23077 45.53846 33.23077 Z" fill="#00ba5d"/>
        </g>
        <g id="Graphic_57">
          <path d="M 1.8461538 39.92245 L 1.8461538 41.846154 L 3.076923 41.846154 L 3.076923 39.92245 C 4.1386014 39.649194 4.923077 38.68544 4.923077 37.53846 C 4.923077 36.17899 3.8210086 35.076923 2.4615385 35.076923 C 1.1020683 35.076923 7105427e-21 36.17899 7105427e-21 37.53846 C 7105427e-21 38.68544 .7844756 39.649194 1.8461538 39.92245 Z M 2.4615385 38.76923 L 2.4615385 38.76923 C 1.7818034 38.76923 1.2307692 38.218197 1.2307692 37.53846 C 1.2307692 36.858726 1.7818034 36.307692 2.4615385 36.307692 C 3.1412735 36.307692 3.6923077 36.858726 3.6923077 37.53846 C 3.6923077 38.218197 3.1412735 38.76923 2.4615385 38.76923 Z M 7.384615 35.076923 L 7.384615 40.615385 L 40.615385 40.615385 L 40.615385 35.076923 Z M 46.153846 39.92245 L 46.153846 39.92245 L 46.153846 39.92245 C 47.215524 39.649194 48 38.68544 48 37.53846 C 48 36.17899 46.89793 35.076923 45.53846 35.076923 C 44.17899 35.076923 43.076923 36.17899 43.076923 37.53846 C 43.076923 38.68544 43.8614 39.649194 44.923077 39.92245 L 44.923077 41.846154 L 46.153846 41.846154 Z M 45.53846 38.76923 L 45.53846 38.76923 C 44.858726 38.76923 44.30769 38.218197 44.30769 37.53846 C 44.30769 36.858726 44.858726 36.307692 45.53846 36.307692 C 46.218197 36.307692 46.76923 36.858726 46.76923 37.53846 C 46.76923 38.218197 46.218197 38.76923 45.53846 38.76923 Z" fill="#0a78ff"/>
        </g>
        <g id="Graphic_56">
          <path d="M 4.923077 43.076923 L 4.923077 43.076923 C 4.923077 41.717453 3.8210086 40.615385 2.4615385 40.615385 C 1.1020683 40.615385 7105427e-21 41.717453 7105427e-21 43.076923 C 7105427e-21 44.436393 1.1020683 45.53846 2.4615385 45.53846 C 3.8210086 45.53846 4.923077 44.436393 4.923077 43.076923 Z M 2.4615385 41.846154 L 2.4615385 41.846154 C 3.1412735 41.846154 3.6923077 42.39719 3.6923077 43.076923 C 3.6923077 43.75666 3.1412735 44.30769 2.4615385 44.30769 C 1.7818034 44.30769 1.2307692 43.75666 1.2307692 43.076923 C 1.2307692 42.39719 1.7818034 41.846154 2.4615385 41.846154 Z M 7.384615 42.46154 L 7.384615 42.46154 L 7.384615 44.923077 L 8.615385 47.384615 L 9.846154 44.923077 L 9.846154 43.076923 L 13.538462 43.076923 L 13.538462 44.923077 L 14.76923 47.384615 L 16 44.923077 L 16 43.076923 L 19.692308 43.076923 L 19.692308 44.923077 L 20.923077 47.384615 L 22.153846 44.923077 L 22.153846 43.076923 L 25.846154 43.076923 L 25.846154 44.923077 L 27.076923 47.384615 L 28.307692 44.923077 L 28.307692 43.076923 L 32 43.076923 L 32 44.923077 L 33.23077 47.384615 L 34.46154 44.923077 L 34.46154 43.076923 L 38.153846 43.076923 L 38.153846 44.923077 L 39.384615 47.384615 L 40.615385 44.923077 L 40.615385 43.076923 L 40.615385 42.46154 L 40.615385 40.615385 L 7.384615 40.615385 L 7.384615 42.46154 Z M 43.076923 43.076923 C 43.076923 44.436393 44.17899 45.53846 45.53846 45.53846 C 46.89793 45.53846 48 44.436393 48 43.076923 C 48 41.717453 46.89793 40.615385 45.53846 40.615385 C 44.17899 40.615385 43.076923 41.717453 43.076923 43.076923 Z M 45.53846 41.846154 L 45.53846 41.846154 C 46.218197 41.846154 46.76923 42.39719 46.76923 43.076923 C 46.76923 43.75666 46.218197 44.30769 45.53846 44.30769 C 44.858726 44.30769 44.30769 43.75666 44.30769 43.076923 C 44.30769 42.39719 44.858726 41.846154 45.53846 41.846154 Z" fill="#b81cdd"/>
        </g>
      </g>
    </g>
  </g>
</svg>
