<?xml version="1.0" encoding="UTF-8" standalone="no"?>
<!DOCTYPE svg PUBLIC "-//W3C//DTD SVG 1.1//EN" "http://www.w3.org/Graphics/SVG/1.1/DTD/svg11.dtd">
<svg xmlns="http://www.w3.org/2000/svg" xmlns:xl="http://www.w3.org/1999/xlink" version="1.1" viewBox="42 42 548 548" width="548pt" height="548pt" xmlns:dc="http://purl.org/dc/elements/1.1/">
  <metadata> Produced by OmniGraffle 7.3.1
    <dc:date>2017-05-28 09:14:59 +0000</dc:date>
  </metadata>
  <defs/>
  <g stroke="none" stroke-opacity="1" stroke-dasharray="none" fill="none" fill-opacity="1">
    <title>404</title>
    <g>
      <title>Layer 1</title>
      <rect x="106.31667" y="170.13333" width="91.16667" height="91.16667" fill="white"/>
      <rect x="215.71667" y="170.13333" width="91.16667" height="91.16667" fill="white"/>
      <rect x="325.11667" y="170.13333" width="91.16667" height="91.16667" fill="white"/>
      <rect x="434.51667" y="170.13333" width="91.16667" height="91.16667" fill="white"/>
      <rect x="106.31667" y="279.53333" width="91.16667" height="91.16667" fill="white"/>
      <rect x="215.71667" y="279.53333" width="91.16667" height="91.16667" fill="white"/>
      <rect x="325.11667" y="279.53333" width="91.16667" height="91.16667" fill="white"/>
      <rect x="434.51667" y="279.53333" width="91.16667" height="91.16667" fill="white"/>
      <rect x="106.31667" y="388.93333" width="91.16667" height="91.16667" fill="white"/>
      <rect x="215.71667" y="388.93333" width="91.16667" height="91.16667" fill="white"/>
      <rect x="325.11667" y="388.93333" width="91.16667" height="91.16667" fill="white"/>
      <rect x="434.51667" y="388.93333" width="91.16667" height="91.16667" fill="white"/>
      <path d="M 197.48333 498.33333 L 106.31667 589.5 L 106.31667 498.33333 Z" fill="white"/>
      <path d="M 306.88333 498.33333 L 215.71667 589.5 L 215.71667 498.33333 Z" fill="white"/>
      <path d="M 416.28333 498.33333 L 325.11667 589.5 L 325.11667 498.33333 Z" fill="white"/>
      <path d="M 525.68333 498.33333 L 434.51667 589.5 L 434.51667 498.33333 Z" fill="white"/>
      <path d="M 215.71667 133.66667 L 215.71667 151.9 L 306.88333 151.9 L 306.88333 133.66667 L 306.88333 42.5 L 288.65 42.5 L 288.65 133.66667 L 233.95 133.66667 L 233.95 60.73333 L 215.71667 60.73333 Z" fill="white"/>
      <path d="M 325.11667 133.66667 L 325.11667 151.9 L 416.28333 151.9 L 416.28333 133.66667 L 416.28333 60.73333 L 398.05 60.73333 L 398.05 133.66667 L 343.35 133.66667 L 343.35 42.5 L 325.11667 42.5 Z" fill="white"/>
      <path d="M 507.45 133.66667 L 434.51667 133.66667 L 434.51667 151.9 L 525.68333 151.9 L 525.68333 133.66667 L 525.68333 78.96667 L 507.45 78.96667 Z" fill="white"/>
      <path d="M 106.31667 133.66667 L 106.31667 151.9 L 197.48333 151.9 L 197.48333 133.66667 L 124.55 133.66667 L 124.55 78.96667 L 106.31667 78.96667 Z" fill="white"/>
      <path d="M 543.91667 106.31667 L 543.91667 151.9 L 589.5 151.9 L 589.5 106.31667 Z M 553.03333 115.43333 L 580.3833 115.43333 L 580.3833 142.78333 L 553.03333 142.78333 Z" fill="white"/>
      <path d="M 543.91667 170.13333 L 543.91667 261.3 L 589.5 261.3 L 589.5 170.13333 Z M 553.03333 179.25 L 580.3833 179.25 L 580.3833 252.18333 L 553.03333 252.18333 Z" fill="white"/>
      <path d="M 543.91667 279.53333 L 543.91667 370.7 L 589.5 370.7 L 589.5 279.53333 Z M 553.03333 288.65 L 580.3833 288.65 L 580.3833 361.58333 L 553.03333 361.58333 Z" fill="white"/>
      <path d="M 543.91667 388.93333 L 543.91667 480.1 L 589.5 480.1 L 589.5 388.93333 Z M 553.03333 398.05 L 580.3833 398.05 L 580.3833 470.98333 L 553.03333 470.98333 Z" fill="white"/>
      <path d="M 543.91667 498.33333 L 543.91667 543.91667 L 589.5 543.91667 L 589.5 498.33333 Z M 553.03333 507.45 L 580.3833 507.45 L 580.3833 534.8 L 553.03333 534.8 Z" fill="white"/>
      <path d="M 42.5 106.31667 L 42.5 151.9 L 88.08333 151.9 L 88.08333 106.31667 Z M 51.616667 115.43333 L 78.96667 115.43333 L 78.96667 142.78333 L 51.616667 142.78333 Z" fill="white"/>
      <path d="M 42.5 170.13333 L 42.5 261.3 L 88.08333 261.3 L 88.08333 170.13333 Z M 51.616667 179.25 L 78.96667 179.25 L 78.96667 252.18333 L 51.616667 252.18333 Z" fill="white"/>
      <path d="M 42.5 279.53333 L 42.5 370.7 L 88.08333 370.7 L 88.08333 279.53333 Z M 51.616667 288.65 L 78.96667 288.65 L 78.96667 361.58333 L 51.616667 361.58333 Z" fill="white"/>
      <path d="M 42.5 388.93333 L 42.5 480.1 L 88.08333 480.1 L 88.08333 388.93333 Z M 51.616667 398.05 L 78.96667 398.05 L 78.96667 470.98333 L 51.616667 470.98333 Z" fill="white"/>
      <path d="M 42.5 498.33333 L 42.5 543.91667 L 88.08333 543.91667 L 88.08333 498.33333 Z M 51.616667 507.45 L 78.96667 507.45 L 78.96667 534.8 L 51.616667 534.8 Z" fill="white"/>
    </g>
  </g>
</svg>
