<?xml version="1.0" encoding="UTF-8" standalone="no"?>
<!DOCTYPE svg PUBLIC "-//W3C//DTD SVG 1.1//EN" "http://www.w3.org/Graphics/SVG/1.1/DTD/svg11.dtd">
<svg xmlns="http://www.w3.org/2000/svg" xmlns:xl="http://www.w3.org/1999/xlink" version="1.1" viewBox="0 0 630 630" width="630pt" height="630pt" xmlns:dc="http://purl.org/dc/elements/1.1/">
  <metadata> Produced by OmniGraffle 7.3.1
    <dc:date>2017-05-25 19:24:42 +0000</dc:date>
  </metadata>
  <defs/>
  <g stroke="none" stroke-opacity="1" stroke-dasharray="none" fill="none" fill-opacity="1">
    <title>touch</title>
    <g>
      <title>Layer 1</title>
      <path d="M 53 521 L 53 451.23553 L 70.94441 451.23553 L 70.94441 507.3179 L 100.13463 507.3179 L 100.13463 521 L 120.53242 521 L 143.54052 109 L 51.508104 109 L 28.5 521 Z" fill="#e02f34"/>
      <path d="M 155.64968 521 C 142.00457 516.4461 134.14949 504.33487 134.14949 486.3909 C 134.14949 463.50813 147.2533 450.01316 168.57146 450.01316 C 185.68465 450.01316 198.4951 460.1344 200.3042 474.5095 L 182.55538 474.5095 C 180.79517 468.25093 175.51452 464.43714 168.62035 464.43714 C 158.45022 464.43714 152.43616 472.407 152.43616 486.14645 C 152.43616 500.1304 159.08586 508.5892 169.40267 508.5892 C 177.51921 508.5892 183.19101 503.7975 183.67996 496.70773 L 183.72886 495.63205 L 170.82062 495.63205 L 170.82062 483.31055 L 201.03763 483.31055 L 201.03763 491.9649 L 201.03763 491.96493 L 201.03763 491.96494 C 201.03763 506.56295 194.18713 516.86537 182.12431 521 L 211.55866 521 L 234.56677 109 L 142.53435 109 L 119.52625 521 Z" fill="#f57737"/>
      <path d="M 257.28746 479.9857 L 257.28746 479.9857 C 263.79048 479.9857 267.70206 476.9053 267.70206 471.82026 C 267.70206 466.8819 264.18163 463.9482 258.16757 463.9482 L 248.04634 463.9482 L 248.04634 479.9857 Z M 248.04634 509.0781 L 258.7054 509.0781 C 266.08853 509.0781 270.1957 505.85107 270.1957 499.8859 C 270.1957 494.1163 265.99074 490.88925 258.60762 490.88925 L 248.04634 490.88925 Z M 271.5558 521 L 303.2328 521 L 326.2409 109 L 234.2085 109 L 211.2004 521 L 230.10193 521 L 230.10193 451.23553 L 262.91037 451.23553 C 276.7965 451.23553 285.15752 457.9341 285.15752 468.8377 C 285.15752 476.75864 279.19235 483.0661 271.36918 484.14176 L 271.36918 484.5329 C 280.90367 484.97297 288.43348 492.0627 288.43348 501.45053 C 288.43348 511.5396 282.0914 518.70153 271.5558 521 Z" fill="#ffbf47"/>
      <path d="M 360.0918 521 L 395.10916 521 L 418.11726 109 L 326.08485 109 L 303.07674 521 L 342.1963 521 L 342.1963 465.7084 L 322.73615 465.7084 L 322.73615 451.23553 L 379.55196 451.23553 L 379.55196 465.7084 L 360.0918 465.7084 Z" fill="#006435"/>
      <path d="M 481.5429 521 L 486.7833 521 L 509.7914 109 L 417.759 109 L 394.7509 521 L 404.0935 521 L 404.0935 451.23553 L 424.8249 451.23553 L 442.6226 496.56105 L 443.0138 496.56105 L 460.8115 451.23553 L 481.5429 451.23553 Z M 419.8865 521 L 437.6612 521 L 420.2777 477.73653 L 419.8865 477.73653 Z M 447.97527 521 L 465.7499 521 L 465.7499 477.73653 L 465.4076 477.73653 Z" fill="#2a8cc4"/>
      <path d="M 524.4789 464.975 L 524.4789 487.6133 L 532.2532 487.6133 C 539.8808 487.6133 544.3791 483.6528 544.3791 476.2697 C 544.3791 468.93546 539.8808 464.975 532.351 464.975 Z M 506.5345 521 L 506.5345 451.23553 L 537.0938 451.23553 C 552.2512 451.23553 562.5191 461.0634 562.5191 476.2208 C 562.5191 491.2804 551.7133 501.10827 536.0181 501.10827 L 524.4789 501.10827 L 524.4789 521 L 578.4919 521 L 601.5 109 L 509.4676 109 L 486.4595 521 Z" fill="#912b88"/>
    </g>
  </g>
</svg>
