<?xml version="1.0" encoding="UTF-8" standalone="no"?>
<!DOCTYPE svg PUBLIC "-//W3C//DTD SVG 1.1//EN" "http://www.w3.org/Graphics/SVG/1.1/DTD/svg11.dtd">
<svg xmlns="http://www.w3.org/2000/svg" xmlns:xl="http://www.w3.org/1999/xlink" version="1.1" viewBox="42 42 546 546" width="546pt" height="546pt" xmlns:dc="http://purl.org/dc/elements/1.1/">
  <metadata> Produced by OmniGraffle 7.3.1
    <dc:date>2017-05-28 01:26:15 +0000</dc:date>
  </metadata>
  <defs/>
  <g stroke="none" stroke-opacity="1" stroke-dasharray="none" fill="none" fill-opacity="1">
    <title>touch</title>
    <g>
      <title>Layer 1</title>
      <rect x="106.08333" y="169.66667" width="90.83333" height="90.83333" fill="#e02f34"/>
      <rect x="215.08333" y="169.66667" width="90.83333" height="90.83333" fill="#f57737"/>
      <rect x="324.08333" y="169.66667" width="90.83333" height="90.83333" fill="#ffbf47"/>
      <rect x="433.08333" y="169.66667" width="90.83333" height="90.83333" fill="#006435"/>
      <rect x="106.08333" y="278.66667" width="90.83333" height="90.83333" fill="#f57737"/>
      <rect x="215.08333" y="278.66667" width="90.83333" height="90.83333" fill="#ffbf47"/>
      <rect x="324.08333" y="278.66667" width="90.83333" height="90.83333" fill="#006435"/>
      <rect x="433.08333" y="278.66667" width="90.83333" height="90.83333" fill="#2a8cc4"/>
      <rect x="106.08333" y="387.66667" width="90.83333" height="90.83333" fill="#ffbf47"/>
      <rect x="215.08333" y="387.66667" width="90.83333" height="90.83333" fill="#006435"/>
      <rect x="324.08333" y="387.66667" width="90.83333" height="90.83333" fill="#2a8cc4"/>
      <rect x="433.08333" y="387.66667" width="90.83333" height="90.83333" fill="#912b88"/>
      <path d="M 196.91667 496.66667 L 106.08333 587.5 L 106.08333 496.66667 Z" fill="#006435"/>
      <path d="M 305.91667 496.66667 L 215.08333 587.5 L 215.08333 496.66667 Z" fill="#2a8cc4"/>
      <path d="M 414.91667 496.66667 L 324.08333 587.5 L 324.08333 496.66667 Z" fill="#912b88"/>
      <path d="M 523.91667 496.66667 L 433.08333 587.5 L 433.08333 496.66667 Z" fill="#e02f34"/>
      <path d="M 215.08333 133.33333 L 215.08333 151.5 L 305.91667 151.5 L 305.91667 133.33333 L 305.91667 42.5 L 287.75 42.5 L 287.75 133.33333 L 233.25 133.33333 L 233.25 60.66667 L 215.08333 60.66667 Z" fill="#e02f34"/>
      <path d="M 324.08333 133.33333 L 324.08333 151.5 L 414.91667 151.5 L 414.91667 133.33333 L 414.91667 60.66667 L 396.75 60.66667 L 396.75 133.33333 L 342.25 133.33333 L 342.25 42.5 L 324.08333 42.5 Z" fill="#f57737"/>
      <path d="M 505.75 133.33333 L 433.08333 133.33333 L 433.08333 151.5 L 523.91667 151.5 L 523.91667 133.33333 L 523.91667 78.83333 L 505.75 78.83333 Z" fill="#ffbf47"/>
      <path d="M 106.08333 133.33333 L 106.08333 151.5 L 196.91667 151.5 L 196.91667 133.33333 L 124.25 133.33333 L 124.25 78.83333 L 106.08333 78.83333 Z" fill="#912b88"/>
      <path d="M 542.08333 106.08333 L 542.08333 151.5 L 587.5 151.5 L 587.5 106.08333 Z M 551.16667 115.16667 L 578.4167 115.16667 L 578.4167 142.41667 L 551.16667 142.41667 Z" fill="#006435"/>
      <path d="M 542.08333 169.66667 L 542.08333 260.5 L 587.5 260.5 L 587.5 169.66667 Z M 551.16667 178.75 L 578.4167 178.75 L 578.4167 251.41667 L 551.16667 251.41667 Z" fill="#2a8cc4"/>
      <path d="M 542.08333 278.66667 L 542.08333 369.5 L 587.5 369.5 L 587.5 278.66667 Z M 551.16667 287.75 L 578.4167 287.75 L 578.4167 360.41667 L 551.16667 360.41667 Z" fill="#912b88"/>
      <path d="M 542.08333 387.66667 L 542.08333 478.5 L 587.5 478.5 L 587.5 387.66667 Z M 551.16667 396.75 L 578.4167 396.75 L 578.4167 469.41667 L 551.16667 469.41667 Z" fill="#e02f34"/>
      <path d="M 542.08333 496.66667 L 542.08333 542.08333 L 587.5 542.08333 L 587.5 496.66667 Z M 551.16667 505.75 L 578.4167 505.75 L 578.4167 533 L 551.16667 533 Z" fill="#f57737"/>
      <path d="M 42.5 106.08333 L 42.5 151.5 L 87.91667 151.5 L 87.91667 106.08333 Z M 51.583333 115.16667 L 78.83333 115.16667 L 78.83333 142.41667 L 51.583333 142.41667 Z" fill="#2a8cc4"/>
      <path d="M 42.5 169.66667 L 42.5 260.5 L 87.91667 260.5 L 87.91667 169.66667 Z M 51.583333 178.75 L 78.83333 178.75 L 78.83333 251.41667 L 51.583333 251.41667 Z" fill="#912b88"/>
      <path d="M 42.5 278.66667 L 42.5 369.5 L 87.91667 369.5 L 87.91667 278.66667 Z M 51.583333 287.75 L 78.83333 287.75 L 78.83333 360.41667 L 51.583333 360.41667 Z" fill="#e02f34"/>
      <path d="M 42.5 387.66667 L 42.5 478.5 L 87.91667 478.5 L 87.91667 387.66667 Z M 51.583333 396.75 L 78.83333 396.75 L 78.83333 469.41667 L 51.583333 469.41667 Z" fill="#f57737"/>
      <path d="M 42.5 496.66667 L 42.5 542.08333 L 87.91667 542.08333 L 87.91667 496.66667 Z M 51.583333 505.75 L 78.83333 505.75 L 78.83333 533 L 51.583333 533 Z" fill="#ffbf47"/>
    </g>
  </g>
</svg>
