<?xml version="1.0" encoding="UTF-8" standalone="no"?>
<!DOCTYPE svg PUBLIC "-//W3C//DTD SVG 1.1//EN" "http://www.w3.org/Graphics/SVG/1.1/DTD/svg11.dtd">
<svg xmlns="http://www.w3.org/2000/svg" xmlns:xl="http://www.w3.org/1999/xlink" version="1.1" viewBox="0 0 16 16" width="16pt" height="16pt" xmlns:dc="http://purl.org/dc/elements/1.1/">
  <metadata> Produced by OmniGraffle 7.3.1
    <dc:date>2017-05-27 23:59:29 +0000</dc:date>
  </metadata>
  <defs/>
  <g stroke="none" stroke-opacity="1" stroke-dasharray="none" fill="none" fill-opacity="1">
    <title>svg</title>
    <g>
      <title>Layer 1</title>
      <rect x="-8881784e-22" y="8881784e-22" width="3" height="3" fill="#1d1d1d"/>
      <rect x="4" y="8881784e-22" width="3" height="3" fill="#1d1d1d"/>
      <rect x="8" y="8881784e-22" width="3" height="3" fill="#1d1d1d"/>
      <rect x="12" y="8881784e-22" width="3" height="3" fill="#1d1d1d"/>
      <rect x="-8881784e-22" y="4" width="3" height="3" fill="#1d1d1d"/>
      <rect x="4" y="4" width="3" height="3" fill="#1d1d1d"/>
      <rect x="8" y="4" width="3" height="3" fill="#1d1d1d"/>
      <rect x="12" y="4" width="3" height="3" fill="#1d1d1d"/>
      <rect x="-8881784e-22" y="8" width="3" height="3" fill="#1d1d1d"/>
      <rect x="4" y="8" width="3" height="3" fill="#1d1d1d"/>
      <rect x="8" y="8" width="3" height="3" fill="#1d1d1d"/>
      <rect x="12" y="8" width="3" height="3" fill="#1d1d1d"/>
      <rect x="-8881784e-22" y="12" width="3" height="3" fill="#1d1d1d"/>
      <rect x="4" y="12" width="3" height="3" fill="#1d1d1d"/>
      <rect x="8" y="12" width="3" height="3" fill="#1d1d1d"/>
      <rect x="12" y="12" width="3" height="3" fill="#1d1d1d"/>
    </g>
  </g>
</svg>
